G04 #@! TF.FileFunction,Legend,Top*
%FSLAX46Y46*%
G04 Gerber Fmt 4.6, Leading zero omitted, Abs format (unit mm)*
G04 Created by KiCad (PCBNEW 4.0.6) date Saturday 24 June 2017 19:05:42*
%MOMM*%
%LPD*%
G01*
G04 APERTURE LIST*
%ADD10C,0.100000*%
G04 APERTURE END LIST*
D10*
X8750000Y52500000D02*
G75*
G03X8750000Y52500000I-1250000J0D01*
G01*
X5750000Y53250000D02*
X6750000Y54250000D01*
X5750000Y54250000D02*
X9250000Y54250000D01*
X5750000Y50750000D02*
X5750000Y54250000D01*
X9250000Y50750000D02*
X5750000Y50750000D01*
X9250000Y54250000D02*
X9250000Y50750000D01*
X23750000Y52500000D02*
G75*
G03X23750000Y52500000I-1250000J0D01*
G01*
X20750000Y53250000D02*
X21750000Y54250000D01*
X20750000Y54250000D02*
X24250000Y54250000D01*
X20750000Y50750000D02*
X20750000Y54250000D01*
X24250000Y50750000D02*
X20750000Y50750000D01*
X24250000Y54250000D02*
X24250000Y50750000D01*
X38750000Y52500000D02*
G75*
G03X38750000Y52500000I-1250000J0D01*
G01*
X35750000Y53250000D02*
X36750000Y54250000D01*
X35750000Y54250000D02*
X39250000Y54250000D01*
X35750000Y50750000D02*
X35750000Y54250000D01*
X39250000Y50750000D02*
X35750000Y50750000D01*
X39250000Y54250000D02*
X39250000Y50750000D01*
X53750000Y52500000D02*
G75*
G03X53750000Y52500000I-1250000J0D01*
G01*
X50750000Y53250000D02*
X51750000Y54250000D01*
X50750000Y54250000D02*
X54250000Y54250000D01*
X50750000Y50750000D02*
X50750000Y54250000D01*
X54250000Y50750000D02*
X50750000Y50750000D01*
X54250000Y54250000D02*
X54250000Y50750000D01*
X8750000Y37500000D02*
G75*
G03X8750000Y37500000I-1250000J0D01*
G01*
X5750000Y38250000D02*
X6750000Y39250000D01*
X5750000Y39250000D02*
X9250000Y39250000D01*
X5750000Y35750000D02*
X5750000Y39250000D01*
X9250000Y35750000D02*
X5750000Y35750000D01*
X9250000Y39250000D02*
X9250000Y35750000D01*
X23750000Y37500000D02*
G75*
G03X23750000Y37500000I-1250000J0D01*
G01*
X20750000Y38250000D02*
X21750000Y39250000D01*
X20750000Y39250000D02*
X24250000Y39250000D01*
X20750000Y35750000D02*
X20750000Y39250000D01*
X24250000Y35750000D02*
X20750000Y35750000D01*
X24250000Y39250000D02*
X24250000Y35750000D01*
X38750000Y37500000D02*
G75*
G03X38750000Y37500000I-1250000J0D01*
G01*
X35750000Y38250000D02*
X36750000Y39250000D01*
X35750000Y39250000D02*
X39250000Y39250000D01*
X35750000Y35750000D02*
X35750000Y39250000D01*
X39250000Y35750000D02*
X35750000Y35750000D01*
X39250000Y39250000D02*
X39250000Y35750000D01*
X53750000Y37500000D02*
G75*
G03X53750000Y37500000I-1250000J0D01*
G01*
X50750000Y38250000D02*
X51750000Y39250000D01*
X50750000Y39250000D02*
X54250000Y39250000D01*
X50750000Y35750000D02*
X50750000Y39250000D01*
X54250000Y35750000D02*
X50750000Y35750000D01*
X54250000Y39250000D02*
X54250000Y35750000D01*
X8750000Y22500000D02*
G75*
G03X8750000Y22500000I-1250000J0D01*
G01*
X5750000Y23250000D02*
X6750000Y24250000D01*
X5750000Y24250000D02*
X9250000Y24250000D01*
X5750000Y20750000D02*
X5750000Y24250000D01*
X9250000Y20750000D02*
X5750000Y20750000D01*
X9250000Y24250000D02*
X9250000Y20750000D01*
X23750000Y22500000D02*
G75*
G03X23750000Y22500000I-1250000J0D01*
G01*
X20750000Y23250000D02*
X21750000Y24250000D01*
X20750000Y24250000D02*
X24250000Y24250000D01*
X20750000Y20750000D02*
X20750000Y24250000D01*
X24250000Y20750000D02*
X20750000Y20750000D01*
X24250000Y24250000D02*
X24250000Y20750000D01*
X38750000Y22500000D02*
G75*
G03X38750000Y22500000I-1250000J0D01*
G01*
X35750000Y23250000D02*
X36750000Y24250000D01*
X35750000Y24250000D02*
X39250000Y24250000D01*
X35750000Y20750000D02*
X35750000Y24250000D01*
X39250000Y20750000D02*
X35750000Y20750000D01*
X39250000Y24250000D02*
X39250000Y20750000D01*
X53750000Y22500000D02*
G75*
G03X53750000Y22500000I-1250000J0D01*
G01*
X50750000Y23250000D02*
X51750000Y24250000D01*
X50750000Y24250000D02*
X54250000Y24250000D01*
X50750000Y20750000D02*
X50750000Y24250000D01*
X54250000Y20750000D02*
X50750000Y20750000D01*
X54250000Y24250000D02*
X54250000Y20750000D01*
X8750000Y7500000D02*
G75*
G03X8750000Y7500000I-1250000J0D01*
G01*
X5750000Y8250000D02*
X6750000Y9250000D01*
X5750000Y9250000D02*
X9250000Y9250000D01*
X5750000Y5750000D02*
X5750000Y9250000D01*
X9250000Y5750000D02*
X5750000Y5750000D01*
X9250000Y9250000D02*
X9250000Y5750000D01*
X23750000Y7500000D02*
G75*
G03X23750000Y7500000I-1250000J0D01*
G01*
X20750000Y8250000D02*
X21750000Y9250000D01*
X20750000Y9250000D02*
X24250000Y9250000D01*
X20750000Y5750000D02*
X20750000Y9250000D01*
X24250000Y5750000D02*
X20750000Y5750000D01*
X24250000Y9250000D02*
X24250000Y5750000D01*
X38750000Y7500000D02*
G75*
G03X38750000Y7500000I-1250000J0D01*
G01*
X35750000Y8250000D02*
X36750000Y9250000D01*
X35750000Y9250000D02*
X39250000Y9250000D01*
X35750000Y5750000D02*
X35750000Y9250000D01*
X39250000Y5750000D02*
X35750000Y5750000D01*
X39250000Y9250000D02*
X39250000Y5750000D01*
X53750000Y7500000D02*
G75*
G03X53750000Y7500000I-1250000J0D01*
G01*
X50750000Y8250000D02*
X51750000Y9250000D01*
X50750000Y9250000D02*
X54250000Y9250000D01*
X50750000Y5750000D02*
X50750000Y9250000D01*
X54250000Y5750000D02*
X50750000Y5750000D01*
X54250000Y9250000D02*
X54250000Y5750000D01*
M02*
