M48
;DRILL file {KiCad 4.0.6} date Saturday 24 June 2017 19:10:58
;FORMAT={-:-/ absolute / metric / decimal}
FMAT,2
METRIC,TZ
T1C0.400
%
G90
G05
M71
T1
X1.906Y40.953
X2.214Y50.22
X3.926Y36.542
X3.926Y21.542
X3.935Y18.08
X4.37Y43.124
X5.448Y31.769
X5.448Y30.874
X5.5Y29.75
X6.046Y43.061
X6.1Y53.375
X6.1Y51.625
X6.1Y38.375
X6.1Y36.625
X6.1Y23.375
X6.1Y21.664
X6.1Y8.375
X6.1Y6.625
X6.592Y28.126
X7.456Y38.26
X7.761Y35.517
X8.086Y31.069
X8.086Y29.745
X8.086Y28.802
X8.104Y24.494
X8.9Y53.375
X8.9Y51.625
X8.9Y38.375
X8.9Y36.625
X8.9Y23.375
X8.9Y21.625
X8.9Y8.375
X8.9Y6.625
X10.136Y45.131
X11.074Y8.458
X11.291Y1.189
X12.789Y20.955
X12.866Y49.411
X13.031Y39.073
X13.069Y52.395
X13.692Y35.911
X13.717Y21.636
X13.73Y53.119
X13.768Y49.411
X13.963Y39.063
X14.085Y27.122
X14.098Y29.18
X14.098Y28.202
X14.212Y32.926
X14.606Y2.713
X14.822Y49.386
X14.873Y12.276
X14.901Y22.725
X14.911Y4.961
X14.919Y39.063
X15.163Y25.182
X15.266Y35.949
X15.609Y52.51
X15.782Y39.025
X16.066Y22.725
X16.161Y56.517
X16.187Y25.119
X16.257Y35.974
X16.941Y22.725
X17.146Y36.
X17.438Y10.257
X17.488Y25.119
X18.67Y41.448
X19.178Y16.581
X19.8Y58.428
X19.884Y40.116
X20.395Y29.052
X20.435Y28.253
X21.1Y53.375
X21.1Y51.625
X21.1Y38.375
X21.1Y36.625
X21.1Y23.375
X21.1Y21.625
X21.1Y8.375
X21.1Y6.625
X21.87Y2.
X21.972Y31.732
X22.132Y24.664
X22.366Y20.493
X22.912Y16.835
X23.458Y26.074
X23.671Y29.194
X23.89Y54.351
X23.9Y53.375
X23.9Y51.625
X23.9Y38.375
X23.9Y36.625
X23.9Y23.375
X23.9Y21.625
X23.9Y8.375
X23.9Y6.625
X23.953Y28.446
X24.937Y14.836
X25.045Y12.543
X25.06Y19.738
X25.729Y18.069
X26.239Y58.91
X27.141Y32.723
X27.369Y28.392
X27.763Y39.251
X28.386Y32.904
X28.538Y48.433
X28.868Y8.326
X28.923Y30.36
X29.089Y38.212
X29.224Y22.106
X29.833Y53.03
X29.843Y31.236
X29.843Y30.386
X30.163Y39.238
X30.468Y32.761
X30.89Y5.365
X30.963Y27.753
X30.977Y22.591
X31.088Y29.542
X31.502Y32.601
X31.726Y22.004
X31.73Y9.
X32.081Y23.63
X32.119Y39.581
X32.297Y5.365
X32.538Y29.548
X32.913Y32.674
X33.926Y23.458
X34.024Y47.468
X34.494Y12.365
X35.45Y48.949
X35.834Y27.667
X35.853Y32.266
X35.967Y31.415
X36.1Y53.375
X36.1Y51.625
X36.1Y38.375
X36.1Y36.625
X36.1Y23.375
X36.1Y21.625
X36.1Y8.375
X36.1Y6.625
X37.58Y31.948
X38.9Y53.375
X38.9Y51.625
X38.9Y36.625
X38.9Y23.375
X38.9Y21.625
X38.9Y8.375
X38.9Y6.625
X38.914Y38.375
X40.1Y40.26
X40.116Y19.881
X40.321Y2.614
X40.324Y1.814
X42.33Y18.27
X42.762Y33.371
X42.8Y42.185
X42.99Y24.201
X43.359Y36.584
X43.88Y24.239
X45.607Y22.807
X45.708Y54.12
X45.746Y37.778
X46.318Y39.635
X46.407Y0.897
X46.66Y24.192
X47.24Y25.547
X47.486Y19.807
X47.715Y56.739
X48.926Y23.458
X50.56Y14.13
X50.674Y58.285
X51.1Y53.375
X51.1Y51.625
X51.1Y38.375
X51.1Y23.375
X51.1Y21.682
X51.1Y8.375
X51.1Y6.625
X51.103Y36.638
X52.427Y28.85
X52.693Y29.967
X52.932Y43.201
X53.811Y31.224
X53.9Y53.375
X53.9Y51.625
X53.9Y38.375
X53.9Y36.625
X53.9Y23.375
X53.9Y21.625
X53.9Y6.625
X55.005Y32.075
X55.36Y27.376
X56.074Y38.458
X56.149Y21.618
X56.427Y41.677
X56.681Y58.06
X57.392Y40.864
X57.405Y19.477
X57.732Y18.436
X57.913Y26.17
X57.941Y11.185
X58.091Y39.302
X58.716Y38.121
T0
M30
