M48
;DRILL file {KiCad 4.0.7-e2-6376~58~ubuntu16.04.1} date Tue Sep 19 18:30:10 2017
;FORMAT={-:-/ absolute / inch / decimal}
FMAT,2
INCH,TZ
T1C0.016
%
G90
G05
M72
T1
X0.09Y1.335
X0.095Y0.405
X0.11Y1.88
X0.1804Y1.9529
X0.2204Y1.21
X0.2402Y2.1014
X0.2402Y2.0325
X0.2402Y1.5108
X0.2402Y1.4419
X0.2402Y0.9203
X0.2402Y0.8514
X0.2402Y0.3297
X0.2402Y0.2608
X0.245Y1.8
X0.25Y0.56
X0.2699Y1.0804
X0.2953Y1.6929
X0.2953Y1.6201
X0.2953Y0.7421
X0.2953Y0.6693
X0.2953Y1.0433
X0.3504Y2.1014
X0.3504Y2.0325
X0.3504Y1.5108
X0.3504Y1.4419
X0.3504Y0.9203
X0.3504Y0.8514
X0.3504Y0.3297
X0.3504Y0.2608
X0.485Y1.62
X0.5Y1.21
X0.515Y0.92
X0.515Y0.735
X0.515Y0.41
X0.515Y0.3297
X0.5222Y2.2277
X0.525Y1.5108
X0.54Y1.14
X0.555Y2.235
X0.575Y1.95
X0.6Y1.14
X0.6Y1.4134
X0.6068Y2.2344
X0.615Y1.015
X0.615Y1.95
X0.625Y0.15
X0.64Y2.255
X0.6515Y1.95
X0.655Y1.18
X0.655Y0.735
X0.67Y1.695
X0.67Y1.2568
X0.68Y1.1
X0.68Y1.6
X0.685Y1.385
X0.69Y1.95
X0.69Y0.735
X0.7Y0.09
X0.725Y1.63
X0.75Y1.065
X0.7717Y1.3622
X0.775Y0.05
X0.78Y1.715
X0.8Y1.2
X0.81Y1.69
X0.83Y0.65
X0.83Y0.9218
X0.8307Y2.1014
X0.8307Y2.0325
X0.8307Y1.5108
X0.8307Y1.4419
X0.8307Y0.8514
X0.8307Y0.3297
X0.8307Y0.2608
X0.885Y1.715
X0.8858Y1.1268
X0.8858Y1.6246
X0.8858Y0.7421
X0.8858Y0.6693
X0.93Y1.715
X0.9409Y2.1014
X0.9409Y2.0325
X0.9409Y1.5108
X0.9409Y1.4419
X0.9409Y0.9203
X0.9409Y0.8514
X0.9409Y0.3297
X0.9409Y0.2608
X0.945Y1.19
X0.945Y0.59
X1.Y0.4094
X1.005Y0.515
X1.005Y0.48
X1.0118Y1.875
X1.03Y2.23
X1.05Y0.735
X1.055Y1.625
X1.0654Y1.195
X1.0915Y1.6252
X1.095Y0.42
X1.125Y0.515
X1.125Y0.48
X1.13Y1.625
X1.14Y1.055
X1.15Y0.3297
X1.165Y1.08
X1.17Y1.625
X1.175Y0.66
X1.185Y1.3
X1.185Y1.265
X1.185Y1.195
X1.19Y1.105
X1.205Y1.685
X1.205Y1.625
X1.2102Y1.2197
X1.215Y1.13
X1.23Y0.18
X1.2351Y1.1951
X1.24Y2.17
X1.24Y1.685
X1.24Y1.625
X1.255Y1.5108
X1.275Y2.17
X1.285Y0.18
X1.37Y1.83
X1.4213Y2.1014
X1.4213Y2.0325
X1.4213Y1.4419
X1.4213Y0.8514
X1.4213Y0.3297
X1.4213Y0.2608
X1.4213Y1.5104
X1.4231Y0.9176
X1.44Y1.205
X1.44Y1.2368
X1.465Y0.215
X1.4764Y1.6929
X1.4764Y1.6201
X1.4764Y0.7421
X1.4764Y0.6693
X1.505Y1.15
X1.505Y0.54
X1.5315Y2.1014
X1.5315Y2.0325
X1.5315Y1.5108
X1.5315Y1.4419
X1.5315Y0.9203
X1.5315Y0.8514
X1.5315Y0.3297
X1.5315Y0.2608
X1.55Y1.225
X1.695Y1.035
X1.75Y1.925
X1.75Y2.1014
X1.75Y0.3297
X1.7634Y1.2236
X1.81Y0.8
X1.845Y0.8
X1.85Y1.175
X1.905Y1.175
X1.955Y1.135
X2.01Y1.19
X2.0118Y2.1014
X2.0118Y2.0325
X2.0118Y1.5108
X2.0118Y1.4419
X2.0118Y0.9203
X2.0118Y0.8514
X2.0118Y0.3297
X2.0118Y0.2608
X2.05Y1.19
X2.065Y1.32
X2.0669Y1.6929
X2.0669Y1.6201
X2.0669Y0.7421
X2.0669Y0.6693
X2.122Y2.1014
X2.122Y2.0325
X2.122Y1.5108
X2.122Y1.4419
X2.122Y0.9203
X2.122Y0.8514
X2.285Y0.885
X2.3Y1.03
T0
M30
