G04 #@! TF.FileFunction,Legend,Top*
%FSLAX46Y46*%
G04 Gerber Fmt 4.6, Leading zero omitted, Abs format (unit mm)*
G04 Created by KiCad (PCBNEW 4.0.7-e2-6376~58~ubuntu16.04.1) date Fri Jan 12 15:29:44 2018*
%MOMM*%
%LPD*%
G01*
G04 APERTURE LIST*
%ADD10C,0.100000*%
%ADD11C,0.150000*%
%ADD12C,0.300000*%
%ADD13C,0.700000*%
%ADD14O,0.700000X3.100000*%
%ADD15O,3.100000X0.700000*%
%ADD16O,0.700000X2.400000*%
%ADD17O,1.800000X0.700000*%
%ADD18O,0.700000X1.800000*%
%ADD19R,1.650000X1.350000*%
%ADD20C,2.600000*%
%ADD21C,3.100000*%
G04 APERTURE END LIST*
D10*
X8750000Y52500000D02*
G75*
G03X8750000Y52500000I-1250000J0D01*
G01*
X5750000Y53250000D02*
X6750000Y54250000D01*
X5750000Y54250000D02*
X9250000Y54250000D01*
X5750000Y50750000D02*
X5750000Y54250000D01*
X9250000Y50750000D02*
X5750000Y50750000D01*
X9250000Y54250000D02*
X9250000Y50750000D01*
X23750000Y52500000D02*
G75*
G03X23750000Y52500000I-1250000J0D01*
G01*
X20750000Y53250000D02*
X21750000Y54250000D01*
X20750000Y54250000D02*
X24250000Y54250000D01*
X20750000Y50750000D02*
X20750000Y54250000D01*
X24250000Y50750000D02*
X20750000Y50750000D01*
X24250000Y54250000D02*
X24250000Y50750000D01*
X38750000Y52500000D02*
G75*
G03X38750000Y52500000I-1250000J0D01*
G01*
X35750000Y53250000D02*
X36750000Y54250000D01*
X35750000Y54250000D02*
X39250000Y54250000D01*
X35750000Y50750000D02*
X35750000Y54250000D01*
X39250000Y50750000D02*
X35750000Y50750000D01*
X39250000Y54250000D02*
X39250000Y50750000D01*
X53750000Y52500000D02*
G75*
G03X53750000Y52500000I-1250000J0D01*
G01*
X50750000Y53250000D02*
X51750000Y54250000D01*
X50750000Y54250000D02*
X54250000Y54250000D01*
X50750000Y50750000D02*
X50750000Y54250000D01*
X54250000Y50750000D02*
X50750000Y50750000D01*
X54250000Y54250000D02*
X54250000Y50750000D01*
X8750000Y37500000D02*
G75*
G03X8750000Y37500000I-1250000J0D01*
G01*
X5750000Y38250000D02*
X6750000Y39250000D01*
X5750000Y39250000D02*
X9250000Y39250000D01*
X5750000Y35750000D02*
X5750000Y39250000D01*
X9250000Y35750000D02*
X5750000Y35750000D01*
X9250000Y39250000D02*
X9250000Y35750000D01*
X23750000Y37500000D02*
G75*
G03X23750000Y37500000I-1250000J0D01*
G01*
X20750000Y38250000D02*
X21750000Y39250000D01*
X20750000Y39250000D02*
X24250000Y39250000D01*
X20750000Y35750000D02*
X20750000Y39250000D01*
X24250000Y35750000D02*
X20750000Y35750000D01*
X24250000Y39250000D02*
X24250000Y35750000D01*
X38750000Y37500000D02*
G75*
G03X38750000Y37500000I-1250000J0D01*
G01*
X35750000Y38250000D02*
X36750000Y39250000D01*
X35750000Y39250000D02*
X39250000Y39250000D01*
X35750000Y35750000D02*
X35750000Y39250000D01*
X39250000Y35750000D02*
X35750000Y35750000D01*
X39250000Y39250000D02*
X39250000Y35750000D01*
X53750000Y37500000D02*
G75*
G03X53750000Y37500000I-1250000J0D01*
G01*
X50750000Y38250000D02*
X51750000Y39250000D01*
X50750000Y39250000D02*
X54250000Y39250000D01*
X50750000Y35750000D02*
X50750000Y39250000D01*
X54250000Y35750000D02*
X50750000Y35750000D01*
X54250000Y39250000D02*
X54250000Y35750000D01*
X8750000Y22500000D02*
G75*
G03X8750000Y22500000I-1250000J0D01*
G01*
X5750000Y23250000D02*
X6750000Y24250000D01*
X5750000Y24250000D02*
X9250000Y24250000D01*
X5750000Y20750000D02*
X5750000Y24250000D01*
X9250000Y20750000D02*
X5750000Y20750000D01*
X9250000Y24250000D02*
X9250000Y20750000D01*
X23750000Y22500000D02*
G75*
G03X23750000Y22500000I-1250000J0D01*
G01*
X20750000Y23250000D02*
X21750000Y24250000D01*
X20750000Y24250000D02*
X24250000Y24250000D01*
X20750000Y20750000D02*
X20750000Y24250000D01*
X24250000Y20750000D02*
X20750000Y20750000D01*
X24250000Y24250000D02*
X24250000Y20750000D01*
X38750000Y22500000D02*
G75*
G03X38750000Y22500000I-1250000J0D01*
G01*
X35750000Y23250000D02*
X36750000Y24250000D01*
X35750000Y24250000D02*
X39250000Y24250000D01*
X35750000Y20750000D02*
X35750000Y24250000D01*
X39250000Y20750000D02*
X35750000Y20750000D01*
X39250000Y24250000D02*
X39250000Y20750000D01*
X53750000Y22500000D02*
G75*
G03X53750000Y22500000I-1250000J0D01*
G01*
X50750000Y23250000D02*
X51750000Y24250000D01*
X50750000Y24250000D02*
X54250000Y24250000D01*
X50750000Y20750000D02*
X50750000Y24250000D01*
X54250000Y20750000D02*
X50750000Y20750000D01*
X54250000Y24250000D02*
X54250000Y20750000D01*
X8750000Y7500000D02*
G75*
G03X8750000Y7500000I-1250000J0D01*
G01*
X5750000Y8250000D02*
X6750000Y9250000D01*
X5750000Y9250000D02*
X9250000Y9250000D01*
X5750000Y5750000D02*
X5750000Y9250000D01*
X9250000Y5750000D02*
X5750000Y5750000D01*
X9250000Y9250000D02*
X9250000Y5750000D01*
X23750000Y7500000D02*
G75*
G03X23750000Y7500000I-1250000J0D01*
G01*
X20750000Y8250000D02*
X21750000Y9250000D01*
X20750000Y9250000D02*
X24250000Y9250000D01*
X20750000Y5750000D02*
X20750000Y9250000D01*
X24250000Y5750000D02*
X20750000Y5750000D01*
X24250000Y9250000D02*
X24250000Y5750000D01*
X38750000Y7500000D02*
G75*
G03X38750000Y7500000I-1250000J0D01*
G01*
X35750000Y8250000D02*
X36750000Y9250000D01*
X35750000Y9250000D02*
X39250000Y9250000D01*
X35750000Y5750000D02*
X35750000Y9250000D01*
X39250000Y5750000D02*
X35750000Y5750000D01*
X39250000Y9250000D02*
X39250000Y5750000D01*
X53750000Y7500000D02*
G75*
G03X53750000Y7500000I-1250000J0D01*
G01*
X50750000Y8250000D02*
X51750000Y9250000D01*
X50750000Y9250000D02*
X54250000Y9250000D01*
X50750000Y5750000D02*
X50750000Y9250000D01*
X54250000Y5750000D02*
X50750000Y5750000D01*
X54250000Y9250000D02*
X54250000Y5750000D01*
D11*
X56006683Y16434263D02*
X56141370Y16501607D01*
X56309729Y16669966D01*
X56343401Y16770981D01*
X56343401Y16838325D01*
X56309729Y16939340D01*
X56242386Y17006683D01*
X56141371Y17040355D01*
X56074027Y17040355D01*
X55973012Y17006684D01*
X55804652Y16905668D01*
X55703637Y16871996D01*
X55636294Y16871996D01*
X55535279Y16905668D01*
X55467935Y16973012D01*
X55434263Y17074027D01*
X55434263Y17141370D01*
X55467935Y17242385D01*
X55636294Y17410745D01*
X55770981Y17478088D01*
X55973012Y17747462D02*
X56848477Y17208714D01*
X56478088Y17848478D01*
X57117851Y17478088D01*
X56579103Y18353553D01*
X57925973Y18286210D02*
X57521912Y17882149D01*
X57723942Y18084179D02*
X57016836Y18791286D01*
X57050507Y18622927D01*
X57050507Y18488240D01*
X57016836Y18387225D01*
X57555584Y19195347D02*
X57555584Y19262690D01*
X57589255Y19363706D01*
X57757615Y19532065D01*
X57858630Y19565737D01*
X57925973Y19565737D01*
X58026988Y19532065D01*
X58094332Y19464721D01*
X58161675Y19330035D01*
X58161675Y18521912D01*
X58599408Y18959645D01*
X11343401Y46770981D02*
X11478088Y46838325D01*
X11646447Y47006684D01*
X11680119Y47107699D01*
X11680119Y47175043D01*
X11646447Y47276058D01*
X11579104Y47343401D01*
X11478089Y47377073D01*
X11410745Y47377073D01*
X11309729Y47343402D01*
X11141370Y47242386D01*
X11040355Y47208714D01*
X10973012Y47208714D01*
X10871996Y47242386D01*
X10804653Y47309729D01*
X10770981Y47410745D01*
X10770981Y47478088D01*
X10804653Y47579103D01*
X10973012Y47747462D01*
X11107699Y47814806D01*
X11309729Y48084180D02*
X12185195Y47545431D01*
X11814806Y48185196D01*
X12454569Y47814806D01*
X11915821Y48690271D01*
X13262691Y48622928D02*
X12858630Y48218867D01*
X13060660Y48420897D02*
X12353553Y49128004D01*
X12387225Y48959645D01*
X12387225Y48824958D01*
X12353553Y48723943D01*
X26343401Y46770981D02*
X26478088Y46838325D01*
X26646447Y47006684D01*
X26680119Y47107699D01*
X26680119Y47175043D01*
X26646447Y47276058D01*
X26579104Y47343401D01*
X26478089Y47377073D01*
X26410745Y47377073D01*
X26309729Y47343402D01*
X26141370Y47242386D01*
X26040355Y47208714D01*
X25973012Y47208714D01*
X25871996Y47242386D01*
X25804653Y47309729D01*
X25770981Y47410745D01*
X25770981Y47478088D01*
X25804653Y47579103D01*
X25973012Y47747462D01*
X26107699Y47814806D01*
X26309729Y48084180D02*
X27185195Y47545431D01*
X26814806Y48185196D01*
X27454569Y47814806D01*
X26915821Y48690271D01*
X27218867Y48858630D02*
X27218867Y48925973D01*
X27252538Y49026988D01*
X27420898Y49195348D01*
X27521913Y49229019D01*
X27589256Y49229019D01*
X27690271Y49195348D01*
X27757615Y49128004D01*
X27824958Y48993317D01*
X27824958Y48185195D01*
X28262691Y48622928D01*
X41343401Y46770981D02*
X41478088Y46838325D01*
X41646447Y47006684D01*
X41680119Y47107699D01*
X41680119Y47175043D01*
X41646447Y47276058D01*
X41579104Y47343401D01*
X41478089Y47377073D01*
X41410745Y47377073D01*
X41309729Y47343402D01*
X41141370Y47242386D01*
X41040355Y47208714D01*
X40973012Y47208714D01*
X40871996Y47242386D01*
X40804653Y47309729D01*
X40770981Y47410745D01*
X40770981Y47478088D01*
X40804653Y47579103D01*
X40973012Y47747462D01*
X41107699Y47814806D01*
X41309729Y48084180D02*
X42185195Y47545431D01*
X41814806Y48185196D01*
X42454569Y47814806D01*
X41915821Y48690271D01*
X42117851Y48892302D02*
X42555584Y49330035D01*
X42589255Y48824958D01*
X42690271Y48925974D01*
X42791286Y48959646D01*
X42858630Y48959646D01*
X42959646Y48925973D01*
X43128004Y48757615D01*
X43161676Y48656600D01*
X43161676Y48589256D01*
X43128004Y48488241D01*
X42925973Y48286210D01*
X42824958Y48252538D01*
X42757615Y48252538D01*
X56343401Y46770981D02*
X56478088Y46838325D01*
X56646447Y47006684D01*
X56680119Y47107699D01*
X56680119Y47175043D01*
X56646447Y47276058D01*
X56579104Y47343401D01*
X56478089Y47377073D01*
X56410745Y47377073D01*
X56309729Y47343402D01*
X56141370Y47242386D01*
X56040355Y47208714D01*
X55973012Y47208714D01*
X55871996Y47242386D01*
X55804653Y47309729D01*
X55770981Y47410745D01*
X55770981Y47478088D01*
X55804653Y47579103D01*
X55973012Y47747462D01*
X56107699Y47814806D01*
X56309729Y48084180D02*
X57185195Y47545431D01*
X56814806Y48185196D01*
X57454569Y47814806D01*
X56915821Y48690271D01*
X57723943Y49026989D02*
X58195348Y48555584D01*
X57286210Y49128004D02*
X57622928Y48454569D01*
X58060661Y48892302D01*
X11343401Y31770981D02*
X11478088Y31838325D01*
X11646447Y32006684D01*
X11680119Y32107699D01*
X11680119Y32175043D01*
X11646447Y32276058D01*
X11579104Y32343401D01*
X11478089Y32377073D01*
X11410745Y32377073D01*
X11309729Y32343402D01*
X11141370Y32242386D01*
X11040355Y32208714D01*
X10973012Y32208714D01*
X10871996Y32242386D01*
X10804653Y32309729D01*
X10770981Y32410745D01*
X10770981Y32478088D01*
X10804653Y32579103D01*
X10973012Y32747462D01*
X11107699Y32814806D01*
X11309729Y33084180D02*
X12185195Y32545431D01*
X11814806Y33185196D01*
X12454569Y32814806D01*
X11915821Y33690271D01*
X12521913Y34296363D02*
X12185195Y33959645D01*
X12488240Y33589256D01*
X12488240Y33656600D01*
X12521912Y33757615D01*
X12690271Y33925974D01*
X12791286Y33959646D01*
X12858630Y33959646D01*
X12959646Y33925973D01*
X13128004Y33757615D01*
X13161676Y33656600D01*
X13161676Y33589256D01*
X13128004Y33488241D01*
X12959645Y33319882D01*
X12858630Y33286210D01*
X12791286Y33286210D01*
X26343401Y31770981D02*
X26478088Y31838325D01*
X26646447Y32006684D01*
X26680119Y32107699D01*
X26680119Y32175043D01*
X26646447Y32276058D01*
X26579104Y32343401D01*
X26478089Y32377073D01*
X26410745Y32377073D01*
X26309729Y32343402D01*
X26141370Y32242386D01*
X26040355Y32208714D01*
X25973012Y32208714D01*
X25871996Y32242386D01*
X25804653Y32309729D01*
X25770981Y32410745D01*
X25770981Y32478088D01*
X25804653Y32579103D01*
X25973012Y32747462D01*
X26107699Y32814806D01*
X26309729Y33084180D02*
X27185195Y32545431D01*
X26814806Y33185196D01*
X27454569Y32814806D01*
X26915821Y33690271D01*
X27488241Y34262691D02*
X27353553Y34128004D01*
X27319882Y34026988D01*
X27319882Y33959645D01*
X27353553Y33791286D01*
X27454569Y33622928D01*
X27723943Y33353553D01*
X27824958Y33319882D01*
X27892302Y33319882D01*
X27993317Y33353553D01*
X28128004Y33488241D01*
X28161676Y33589256D01*
X28161676Y33656600D01*
X28128004Y33757615D01*
X27959646Y33925973D01*
X27858630Y33959646D01*
X27791286Y33959646D01*
X27690271Y33925974D01*
X27555584Y33791286D01*
X27521912Y33690271D01*
X27521912Y33622928D01*
X27555584Y33521912D01*
X41343401Y31770981D02*
X41478088Y31838325D01*
X41646447Y32006684D01*
X41680119Y32107699D01*
X41680119Y32175043D01*
X41646447Y32276058D01*
X41579104Y32343401D01*
X41478089Y32377073D01*
X41410745Y32377073D01*
X41309729Y32343402D01*
X41141370Y32242386D01*
X41040355Y32208714D01*
X40973012Y32208714D01*
X40871996Y32242386D01*
X40804653Y32309729D01*
X40770981Y32410745D01*
X40770981Y32478088D01*
X40804653Y32579103D01*
X40973012Y32747462D01*
X41107699Y32814806D01*
X41309729Y33084180D02*
X42185195Y32545431D01*
X41814806Y33185196D01*
X42454569Y32814806D01*
X41915821Y33690271D01*
X42117851Y33892302D02*
X42589256Y34363706D01*
X42993317Y33353553D01*
X56343401Y31770981D02*
X56478088Y31838325D01*
X56646447Y32006684D01*
X56680119Y32107699D01*
X56680119Y32175043D01*
X56646447Y32276058D01*
X56579104Y32343401D01*
X56478089Y32377073D01*
X56410745Y32377073D01*
X56309729Y32343402D01*
X56141370Y32242386D01*
X56040355Y32208714D01*
X55973012Y32208714D01*
X55871996Y32242386D01*
X55804653Y32309729D01*
X55770981Y32410745D01*
X55770981Y32478088D01*
X55804653Y32579103D01*
X55973012Y32747462D01*
X56107699Y32814806D01*
X56309729Y33084180D02*
X57185195Y32545431D01*
X56814806Y33185196D01*
X57454569Y32814806D01*
X56915821Y33690271D01*
X57589255Y33757615D02*
X57488240Y33723943D01*
X57420897Y33723943D01*
X57319882Y33757615D01*
X57286210Y33791286D01*
X57252538Y33892302D01*
X57252538Y33959645D01*
X57286210Y34060660D01*
X57420898Y34195348D01*
X57521913Y34229019D01*
X57589256Y34229019D01*
X57690271Y34195348D01*
X57723943Y34161676D01*
X57757615Y34060661D01*
X57757615Y33993317D01*
X57723943Y33892302D01*
X57589255Y33757615D01*
X57555584Y33656600D01*
X57555584Y33589256D01*
X57589256Y33488240D01*
X57723943Y33353553D01*
X57824958Y33319882D01*
X57892302Y33319882D01*
X57993317Y33353553D01*
X58128004Y33488241D01*
X58161676Y33589256D01*
X58161676Y33656600D01*
X58128004Y33757615D01*
X57993317Y33892302D01*
X57892302Y33925974D01*
X57824958Y33925974D01*
X57723943Y33892302D01*
X11343401Y16770981D02*
X11478088Y16838325D01*
X11646447Y17006684D01*
X11680119Y17107699D01*
X11680119Y17175043D01*
X11646447Y17276058D01*
X11579104Y17343401D01*
X11478089Y17377073D01*
X11410745Y17377073D01*
X11309729Y17343402D01*
X11141370Y17242386D01*
X11040355Y17208714D01*
X10973012Y17208714D01*
X10871996Y17242386D01*
X10804653Y17309729D01*
X10770981Y17410745D01*
X10770981Y17478088D01*
X10804653Y17579103D01*
X10973012Y17747462D01*
X11107699Y17814806D01*
X11309729Y18084180D02*
X12185195Y17545431D01*
X11814806Y18185196D01*
X12454569Y17814806D01*
X11915821Y18690271D01*
X12925973Y18286210D02*
X13060660Y18420897D01*
X13094333Y18521913D01*
X13094333Y18589256D01*
X13060661Y18757615D01*
X12959646Y18925973D01*
X12690271Y19195348D01*
X12589256Y19229019D01*
X12521913Y19229019D01*
X12420898Y19195348D01*
X12286210Y19060660D01*
X12252538Y18959645D01*
X12252538Y18892302D01*
X12286210Y18791286D01*
X12454569Y18622928D01*
X12555584Y18589256D01*
X12622928Y18589255D01*
X12723943Y18622927D01*
X12858631Y18757615D01*
X12892302Y18858630D01*
X12892302Y18925974D01*
X12858630Y19026989D01*
X26006683Y16434263D02*
X26141370Y16501607D01*
X26309729Y16669966D01*
X26343401Y16770981D01*
X26343401Y16838325D01*
X26309729Y16939340D01*
X26242386Y17006683D01*
X26141371Y17040355D01*
X26074027Y17040355D01*
X25973012Y17006684D01*
X25804652Y16905668D01*
X25703637Y16871996D01*
X25636294Y16871996D01*
X25535279Y16905668D01*
X25467935Y16973012D01*
X25434263Y17074027D01*
X25434263Y17141370D01*
X25467935Y17242385D01*
X25636294Y17410745D01*
X25770981Y17478088D01*
X25973012Y17747462D02*
X26848477Y17208714D01*
X26478088Y17848478D01*
X27117851Y17478088D01*
X26579103Y18353553D01*
X27925973Y18286210D02*
X27521912Y17882149D01*
X27723942Y18084179D02*
X27016836Y18791286D01*
X27050507Y18622927D01*
X27050507Y18488240D01*
X27016836Y18387225D01*
X27656599Y19431049D02*
X27723943Y19498393D01*
X27824958Y19532065D01*
X27892302Y19532065D01*
X27993317Y19498393D01*
X28161675Y19397378D01*
X28330035Y19229019D01*
X28431050Y19060660D01*
X28464721Y18959645D01*
X28464721Y18892302D01*
X28431050Y18791286D01*
X28363706Y18723942D01*
X28262690Y18690271D01*
X28195347Y18690271D01*
X28094332Y18723942D01*
X27925973Y18824957D01*
X27757614Y18993317D01*
X27656599Y19161675D01*
X27622927Y19262690D01*
X27622927Y19330034D01*
X27656599Y19431049D01*
X41006683Y16434263D02*
X41141370Y16501607D01*
X41309729Y16669966D01*
X41343401Y16770981D01*
X41343401Y16838325D01*
X41309729Y16939340D01*
X41242386Y17006683D01*
X41141371Y17040355D01*
X41074027Y17040355D01*
X40973012Y17006684D01*
X40804652Y16905668D01*
X40703637Y16871996D01*
X40636294Y16871996D01*
X40535279Y16905668D01*
X40467935Y16973012D01*
X40434263Y17074027D01*
X40434263Y17141370D01*
X40467935Y17242385D01*
X40636294Y17410745D01*
X40770981Y17478088D01*
X40973012Y17747462D02*
X41848477Y17208714D01*
X41478088Y17848478D01*
X42117851Y17478088D01*
X41579103Y18353553D01*
X42925973Y18286210D02*
X42521912Y17882149D01*
X42723942Y18084179D02*
X42016836Y18791286D01*
X42050507Y18622927D01*
X42050507Y18488240D01*
X42016836Y18387225D01*
X43599408Y18959645D02*
X43195347Y18555584D01*
X43397377Y18757614D02*
X42690271Y19464721D01*
X42723942Y19296362D01*
X42723942Y19161675D01*
X42690271Y19060660D01*
X11006683Y1434263D02*
X11141370Y1501607D01*
X11309729Y1669966D01*
X11343401Y1770981D01*
X11343401Y1838325D01*
X11309729Y1939340D01*
X11242386Y2006683D01*
X11141371Y2040355D01*
X11074027Y2040355D01*
X10973012Y2006684D01*
X10804652Y1905668D01*
X10703637Y1871996D01*
X10636294Y1871996D01*
X10535279Y1905668D01*
X10467935Y1973012D01*
X10434263Y2074027D01*
X10434263Y2141370D01*
X10467935Y2242385D01*
X10636294Y2410745D01*
X10770981Y2478088D01*
X10973012Y2747462D02*
X11848477Y2208714D01*
X11478088Y2848478D01*
X12117851Y2478088D01*
X11579103Y3353553D01*
X12925973Y3286210D02*
X12521912Y2882149D01*
X12723942Y3084179D02*
X12016836Y3791286D01*
X12050507Y3622927D01*
X12050507Y3488240D01*
X12016836Y3387225D01*
X12454569Y4229019D02*
X12892302Y4666752D01*
X12925973Y4161675D01*
X13026988Y4262691D01*
X13128004Y4296363D01*
X13195347Y4296363D01*
X13296363Y4262690D01*
X13464721Y4094332D01*
X13498393Y3993317D01*
X13498393Y3925973D01*
X13464721Y3824958D01*
X13262690Y3622927D01*
X13161675Y3589255D01*
X13094332Y3589255D01*
X26006683Y1434263D02*
X26141370Y1501607D01*
X26309729Y1669966D01*
X26343401Y1770981D01*
X26343401Y1838325D01*
X26309729Y1939340D01*
X26242386Y2006683D01*
X26141371Y2040355D01*
X26074027Y2040355D01*
X25973012Y2006684D01*
X25804652Y1905668D01*
X25703637Y1871996D01*
X25636294Y1871996D01*
X25535279Y1905668D01*
X25467935Y1973012D01*
X25434263Y2074027D01*
X25434263Y2141370D01*
X25467935Y2242385D01*
X25636294Y2410745D01*
X25770981Y2478088D01*
X25973012Y2747462D02*
X26848477Y2208714D01*
X26478088Y2848478D01*
X27117851Y2478088D01*
X26579103Y3353553D01*
X27925973Y3286210D02*
X27521912Y2882149D01*
X27723942Y3084179D02*
X27016836Y3791286D01*
X27050507Y3622927D01*
X27050507Y3488240D01*
X27016836Y3387225D01*
X28060660Y4363706D02*
X28532065Y3892302D01*
X27622927Y4464721D02*
X27959645Y3791286D01*
X28397378Y4229019D01*
X41006683Y1434263D02*
X41141370Y1501607D01*
X41309729Y1669966D01*
X41343401Y1770981D01*
X41343401Y1838325D01*
X41309729Y1939340D01*
X41242386Y2006683D01*
X41141371Y2040355D01*
X41074027Y2040355D01*
X40973012Y2006684D01*
X40804652Y1905668D01*
X40703637Y1871996D01*
X40636294Y1871996D01*
X40535279Y1905668D01*
X40467935Y1973012D01*
X40434263Y2074027D01*
X40434263Y2141370D01*
X40467935Y2242385D01*
X40636294Y2410745D01*
X40770981Y2478088D01*
X40973012Y2747462D02*
X41848477Y2208714D01*
X41478088Y2848478D01*
X42117851Y2478088D01*
X41579103Y3353553D01*
X42925973Y3286210D02*
X42521912Y2882149D01*
X42723942Y3084179D02*
X42016836Y3791286D01*
X42050507Y3622927D01*
X42050507Y3488240D01*
X42016836Y3387225D01*
X42858630Y4633080D02*
X42521912Y4296362D01*
X42824957Y3925973D01*
X42824957Y3993317D01*
X42858629Y4094332D01*
X43026988Y4262691D01*
X43128004Y4296363D01*
X43195347Y4296363D01*
X43296363Y4262690D01*
X43464721Y4094332D01*
X43498393Y3993317D01*
X43498393Y3925973D01*
X43464721Y3824958D01*
X43296362Y3656599D01*
X43195347Y3622927D01*
X43128004Y3622927D01*
X56006683Y1434263D02*
X56141370Y1501607D01*
X56309729Y1669966D01*
X56343401Y1770981D01*
X56343401Y1838325D01*
X56309729Y1939340D01*
X56242386Y2006683D01*
X56141371Y2040355D01*
X56074027Y2040355D01*
X55973012Y2006684D01*
X55804652Y1905668D01*
X55703637Y1871996D01*
X55636294Y1871996D01*
X55535279Y1905668D01*
X55467935Y1973012D01*
X55434263Y2074027D01*
X55434263Y2141370D01*
X55467935Y2242385D01*
X55636294Y2410745D01*
X55770981Y2478088D01*
X55973012Y2747462D02*
X56848477Y2208714D01*
X56478088Y2848478D01*
X57117851Y2478088D01*
X56579103Y3353553D01*
X57925973Y3286210D02*
X57521912Y2882149D01*
X57723942Y3084179D02*
X57016836Y3791286D01*
X57050507Y3622927D01*
X57050507Y3488240D01*
X57016836Y3387225D01*
X57824958Y4599408D02*
X57690271Y4464721D01*
X57656599Y4363706D01*
X57656599Y4296362D01*
X57690271Y4128004D01*
X57791286Y3959645D01*
X58060660Y3690271D01*
X58161675Y3656599D01*
X58229019Y3656599D01*
X58330034Y3690271D01*
X58464721Y3824958D01*
X58498393Y3925973D01*
X58498393Y3993317D01*
X58464721Y4094332D01*
X58296363Y4262690D01*
X58195347Y4296363D01*
X58128004Y4296363D01*
X58026988Y4262691D01*
X57892301Y4128004D01*
X57858629Y4026988D01*
X57858629Y3959645D01*
X57892302Y3858629D01*
%LPC*%
D12*
X57250000Y22500000D02*
G75*
G03X57250000Y22500000I-4750000J0D01*
G01*
X57000000Y22500000D02*
G75*
G03X57000000Y22500000I-4500000J0D01*
G01*
X56750000Y22500000D02*
G75*
G03X56750000Y22500000I-4250000J0D01*
G01*
X56500000Y22500000D02*
G75*
G03X56500000Y22500000I-4000000J0D01*
G01*
X56258324Y22500000D02*
G75*
G03X56258324Y22500000I-3758324J0D01*
G01*
X56000000Y22500000D02*
G75*
G03X56000000Y22500000I-3500000J0D01*
G01*
X55750000Y22500000D02*
G75*
G03X55750000Y22500000I-3250000J0D01*
G01*
X12250000Y52500000D02*
G75*
G03X12250000Y52500000I-4750000J0D01*
G01*
X12000000Y52500000D02*
G75*
G03X12000000Y52500000I-4500000J0D01*
G01*
X11750000Y52500000D02*
G75*
G03X11750000Y52500000I-4250000J0D01*
G01*
X11500000Y52500000D02*
G75*
G03X11500000Y52500000I-4000000J0D01*
G01*
X11258324Y52500000D02*
G75*
G03X11258324Y52500000I-3758324J0D01*
G01*
X11000000Y52500000D02*
G75*
G03X11000000Y52500000I-3500000J0D01*
G01*
X10750000Y52500000D02*
G75*
G03X10750000Y52500000I-3250000J0D01*
G01*
X27250000Y52500000D02*
G75*
G03X27250000Y52500000I-4750000J0D01*
G01*
X27000000Y52500000D02*
G75*
G03X27000000Y52500000I-4500000J0D01*
G01*
X26750000Y52500000D02*
G75*
G03X26750000Y52500000I-4250000J0D01*
G01*
X26500000Y52500000D02*
G75*
G03X26500000Y52500000I-4000000J0D01*
G01*
X26258324Y52500000D02*
G75*
G03X26258324Y52500000I-3758324J0D01*
G01*
X26000000Y52500000D02*
G75*
G03X26000000Y52500000I-3500000J0D01*
G01*
X25750000Y52500000D02*
G75*
G03X25750000Y52500000I-3250000J0D01*
G01*
X42250000Y52500000D02*
G75*
G03X42250000Y52500000I-4750000J0D01*
G01*
X42000000Y52500000D02*
G75*
G03X42000000Y52500000I-4500000J0D01*
G01*
X41750000Y52500000D02*
G75*
G03X41750000Y52500000I-4250000J0D01*
G01*
X41500000Y52500000D02*
G75*
G03X41500000Y52500000I-4000000J0D01*
G01*
X41258324Y52500000D02*
G75*
G03X41258324Y52500000I-3758324J0D01*
G01*
X41000000Y52500000D02*
G75*
G03X41000000Y52500000I-3500000J0D01*
G01*
X40750000Y52500000D02*
G75*
G03X40750000Y52500000I-3250000J0D01*
G01*
X57250000Y52500000D02*
G75*
G03X57250000Y52500000I-4750000J0D01*
G01*
X57000000Y52500000D02*
G75*
G03X57000000Y52500000I-4500000J0D01*
G01*
X56750000Y52500000D02*
G75*
G03X56750000Y52500000I-4250000J0D01*
G01*
X56500000Y52500000D02*
G75*
G03X56500000Y52500000I-4000000J0D01*
G01*
X56258324Y52500000D02*
G75*
G03X56258324Y52500000I-3758324J0D01*
G01*
X56000000Y52500000D02*
G75*
G03X56000000Y52500000I-3500000J0D01*
G01*
X55750000Y52500000D02*
G75*
G03X55750000Y52500000I-3250000J0D01*
G01*
X12250000Y37500000D02*
G75*
G03X12250000Y37500000I-4750000J0D01*
G01*
X12000000Y37500000D02*
G75*
G03X12000000Y37500000I-4500000J0D01*
G01*
X11750000Y37500000D02*
G75*
G03X11750000Y37500000I-4250000J0D01*
G01*
X11500000Y37500000D02*
G75*
G03X11500000Y37500000I-4000000J0D01*
G01*
X11258324Y37500000D02*
G75*
G03X11258324Y37500000I-3758324J0D01*
G01*
X11000000Y37500000D02*
G75*
G03X11000000Y37500000I-3500000J0D01*
G01*
X10750000Y37500000D02*
G75*
G03X10750000Y37500000I-3250000J0D01*
G01*
X27250000Y37500000D02*
G75*
G03X27250000Y37500000I-4750000J0D01*
G01*
X27000000Y37500000D02*
G75*
G03X27000000Y37500000I-4500000J0D01*
G01*
X26750000Y37500000D02*
G75*
G03X26750000Y37500000I-4250000J0D01*
G01*
X26500000Y37500000D02*
G75*
G03X26500000Y37500000I-4000000J0D01*
G01*
X26258324Y37500000D02*
G75*
G03X26258324Y37500000I-3758324J0D01*
G01*
X26000000Y37500000D02*
G75*
G03X26000000Y37500000I-3500000J0D01*
G01*
X25750000Y37500000D02*
G75*
G03X25750000Y37500000I-3250000J0D01*
G01*
X42250000Y37500000D02*
G75*
G03X42250000Y37500000I-4750000J0D01*
G01*
X42000000Y37500000D02*
G75*
G03X42000000Y37500000I-4500000J0D01*
G01*
X41750000Y37500000D02*
G75*
G03X41750000Y37500000I-4250000J0D01*
G01*
X41500000Y37500000D02*
G75*
G03X41500000Y37500000I-4000000J0D01*
G01*
X41258324Y37500000D02*
G75*
G03X41258324Y37500000I-3758324J0D01*
G01*
X41000000Y37500000D02*
G75*
G03X41000000Y37500000I-3500000J0D01*
G01*
X40750000Y37500000D02*
G75*
G03X40750000Y37500000I-3250000J0D01*
G01*
X57250000Y37500000D02*
G75*
G03X57250000Y37500000I-4750000J0D01*
G01*
X57000000Y37500000D02*
G75*
G03X57000000Y37500000I-4500000J0D01*
G01*
X56750000Y37500000D02*
G75*
G03X56750000Y37500000I-4250000J0D01*
G01*
X56500000Y37500000D02*
G75*
G03X56500000Y37500000I-4000000J0D01*
G01*
X56258324Y37500000D02*
G75*
G03X56258324Y37500000I-3758324J0D01*
G01*
X56000000Y37500000D02*
G75*
G03X56000000Y37500000I-3500000J0D01*
G01*
X55750000Y37500000D02*
G75*
G03X55750000Y37500000I-3250000J0D01*
G01*
X12250000Y22500000D02*
G75*
G03X12250000Y22500000I-4750000J0D01*
G01*
X12000000Y22500000D02*
G75*
G03X12000000Y22500000I-4500000J0D01*
G01*
X11750000Y22500000D02*
G75*
G03X11750000Y22500000I-4250000J0D01*
G01*
X11500000Y22500000D02*
G75*
G03X11500000Y22500000I-4000000J0D01*
G01*
X11258324Y22500000D02*
G75*
G03X11258324Y22500000I-3758324J0D01*
G01*
X11000000Y22500000D02*
G75*
G03X11000000Y22500000I-3500000J0D01*
G01*
X10750000Y22500000D02*
G75*
G03X10750000Y22500000I-3250000J0D01*
G01*
X27250000Y22500000D02*
G75*
G03X27250000Y22500000I-4750000J0D01*
G01*
X27000000Y22500000D02*
G75*
G03X27000000Y22500000I-4500000J0D01*
G01*
X26750000Y22500000D02*
G75*
G03X26750000Y22500000I-4250000J0D01*
G01*
X26500000Y22500000D02*
G75*
G03X26500000Y22500000I-4000000J0D01*
G01*
X26258324Y22500000D02*
G75*
G03X26258324Y22500000I-3758324J0D01*
G01*
X26000000Y22500000D02*
G75*
G03X26000000Y22500000I-3500000J0D01*
G01*
X25750000Y22500000D02*
G75*
G03X25750000Y22500000I-3250000J0D01*
G01*
X42250000Y22500000D02*
G75*
G03X42250000Y22500000I-4750000J0D01*
G01*
X42000000Y22500000D02*
G75*
G03X42000000Y22500000I-4500000J0D01*
G01*
X41750000Y22500000D02*
G75*
G03X41750000Y22500000I-4250000J0D01*
G01*
X41500000Y22500000D02*
G75*
G03X41500000Y22500000I-4000000J0D01*
G01*
X41258324Y22500000D02*
G75*
G03X41258324Y22500000I-3758324J0D01*
G01*
X41000000Y22500000D02*
G75*
G03X41000000Y22500000I-3500000J0D01*
G01*
X40750000Y22500000D02*
G75*
G03X40750000Y22500000I-3250000J0D01*
G01*
X12250000Y7500000D02*
G75*
G03X12250000Y7500000I-4750000J0D01*
G01*
X12000000Y7500000D02*
G75*
G03X12000000Y7500000I-4500000J0D01*
G01*
X11750000Y7500000D02*
G75*
G03X11750000Y7500000I-4250000J0D01*
G01*
X11500000Y7500000D02*
G75*
G03X11500000Y7500000I-4000000J0D01*
G01*
X11258324Y7500000D02*
G75*
G03X11258324Y7500000I-3758324J0D01*
G01*
X11000000Y7500000D02*
G75*
G03X11000000Y7500000I-3500000J0D01*
G01*
X10750000Y7500000D02*
G75*
G03X10750000Y7500000I-3250000J0D01*
G01*
X27250000Y7500000D02*
G75*
G03X27250000Y7500000I-4750000J0D01*
G01*
X27000000Y7500000D02*
G75*
G03X27000000Y7500000I-4500000J0D01*
G01*
X26750000Y7500000D02*
G75*
G03X26750000Y7500000I-4250000J0D01*
G01*
X26500000Y7500000D02*
G75*
G03X26500000Y7500000I-4000000J0D01*
G01*
X26258324Y7500000D02*
G75*
G03X26258324Y7500000I-3758324J0D01*
G01*
X26000000Y7500000D02*
G75*
G03X26000000Y7500000I-3500000J0D01*
G01*
X25750000Y7500000D02*
G75*
G03X25750000Y7500000I-3250000J0D01*
G01*
X42250000Y7500000D02*
G75*
G03X42250000Y7500000I-4750000J0D01*
G01*
X42000000Y7500000D02*
G75*
G03X42000000Y7500000I-4500000J0D01*
G01*
X41750000Y7500000D02*
G75*
G03X41750000Y7500000I-4250000J0D01*
G01*
X41500000Y7500000D02*
G75*
G03X41500000Y7500000I-4000000J0D01*
G01*
X41258324Y7500000D02*
G75*
G03X41258324Y7500000I-3758324J0D01*
G01*
X41000000Y7500000D02*
G75*
G03X41000000Y7500000I-3500000J0D01*
G01*
X40750000Y7500000D02*
G75*
G03X40750000Y7500000I-3250000J0D01*
G01*
X57250000Y7500000D02*
G75*
G03X57250000Y7500000I-4750000J0D01*
G01*
X57000000Y7500000D02*
G75*
G03X57000000Y7500000I-4500000J0D01*
G01*
X56750000Y7500000D02*
G75*
G03X56750000Y7500000I-4250000J0D01*
G01*
X56500000Y7500000D02*
G75*
G03X56500000Y7500000I-4000000J0D01*
G01*
X56258324Y7500000D02*
G75*
G03X56258324Y7500000I-3758324J0D01*
G01*
X56000000Y7500000D02*
G75*
G03X56000000Y7500000I-3500000J0D01*
G01*
X55750000Y7500000D02*
G75*
G03X55750000Y7500000I-3250000J0D01*
G01*
D13*
X52539072Y25543595D02*
X53987960Y25155367D01*
X51012040Y25155367D02*
X52460928Y25543595D01*
X49883705Y24055635D02*
X50944365Y25116295D01*
X49456405Y22539072D02*
X49844633Y23987960D01*
X49844633Y21012040D02*
X49456405Y22460928D01*
X50944365Y19883705D02*
X49883705Y20944365D01*
X52460928Y19456405D02*
X51012040Y19844633D01*
X53987960Y19844633D02*
X52539072Y19456405D01*
X55116295Y20944365D02*
X54055635Y19883705D01*
X55543595Y22460928D02*
X55155367Y21012040D01*
X55155367Y23987960D02*
X55543595Y22539072D01*
X54055635Y25116295D02*
X55116295Y24055635D01*
X53405867Y25880741D02*
X53716449Y27039851D01*
X49085770Y26013621D02*
X51164230Y27213621D01*
X47786379Y23835771D02*
X48986379Y25914231D01*
D14*
X47750000Y22500001D03*
D13*
X48986379Y19085770D02*
X47786379Y21164230D01*
X51164229Y17786379D02*
X49085769Y18986379D01*
D15*
X52499999Y17750000D03*
D13*
X55914230Y18986379D02*
X53835770Y17786379D01*
X57213621Y21164229D02*
X56013621Y19085769D01*
D14*
X57250000Y22499999D03*
D13*
X56013621Y25914230D02*
X57213621Y23835770D01*
X53835771Y27213621D02*
X55914231Y26013621D01*
D16*
X52500001Y26500000D03*
D13*
X51594133Y25880741D02*
X51283551Y27039851D01*
X50025126Y24974874D02*
X49176598Y25823402D01*
X49119259Y23405867D02*
X47960149Y23716449D01*
X49119259Y21594133D02*
X47960149Y21283551D01*
X50025126Y20025126D02*
X49176598Y19176598D01*
X51594133Y19119259D02*
X51283551Y17960149D01*
X53405867Y19119259D02*
X53716449Y17960149D01*
X54974874Y20025126D02*
X55823402Y19176598D01*
X55880741Y21594133D02*
X57039851Y21283551D01*
X55880741Y23405867D02*
X57039851Y23716449D01*
X54974874Y24974874D02*
X55823402Y25823402D01*
X54050000Y25184678D02*
X54600000Y26137306D01*
X55184679Y24049999D02*
X56137307Y24599999D01*
D17*
X56150000Y22500000D03*
D13*
X55184678Y20950000D02*
X56137306Y20400000D01*
X54049999Y19815321D02*
X54599999Y18862693D01*
D18*
X52500000Y18850000D03*
D13*
X50950000Y19815322D02*
X50400000Y18862694D01*
X49815321Y20950001D02*
X48862693Y20400001D01*
D17*
X48850000Y22500000D03*
D13*
X49815322Y24050000D02*
X48862694Y24600000D01*
X50950001Y25184679D02*
X50400001Y26137307D01*
D19*
X8900000Y53375000D03*
X8900000Y51625000D03*
X6100000Y51625000D03*
X6100000Y53375000D03*
X23900000Y53375000D03*
X23900000Y51625000D03*
X21100000Y51625000D03*
X21100000Y53375000D03*
X38900000Y53375000D03*
X38900000Y51625000D03*
X36100000Y51625000D03*
X36100000Y53375000D03*
X53900000Y53375000D03*
X53900000Y51625000D03*
X51100000Y51625000D03*
X51100000Y53375000D03*
X8900000Y38375000D03*
X8900000Y36625000D03*
X6100000Y36625000D03*
X6100000Y38375000D03*
X23900000Y38375000D03*
X23900000Y36625000D03*
X21100000Y36625000D03*
X21100000Y38375000D03*
X38900000Y38375000D03*
X38900000Y36625000D03*
X36100000Y36625000D03*
X36100000Y38375000D03*
X53900000Y38375000D03*
X53900000Y36625000D03*
X51100000Y36625000D03*
X51100000Y38375000D03*
X8900000Y23375000D03*
X8900000Y21625000D03*
X6100000Y21625000D03*
X6100000Y23375000D03*
X23900000Y23375000D03*
X23900000Y21625000D03*
X21100000Y21625000D03*
X21100000Y23375000D03*
X38900000Y23375000D03*
X38900000Y21625000D03*
X36100000Y21625000D03*
X36100000Y23375000D03*
X53900000Y23375000D03*
X53900000Y21625000D03*
X51100000Y21625000D03*
X51100000Y23375000D03*
X8900000Y8375000D03*
X8900000Y6625000D03*
X6100000Y6625000D03*
X6100000Y8375000D03*
X23900000Y8375000D03*
X23900000Y6625000D03*
X21100000Y6625000D03*
X21100000Y8375000D03*
X38900000Y8375000D03*
X38900000Y6625000D03*
X36100000Y6625000D03*
X36100000Y8375000D03*
X53900000Y8375000D03*
X53900000Y6625000D03*
X51100000Y6625000D03*
X51100000Y8375000D03*
D20*
X15000000Y45000000D03*
X45000000Y45000000D03*
X15000000Y15000000D03*
X45000000Y15000000D03*
D21*
X2000000Y45000000D03*
X28000000Y45000000D03*
X32000000Y45000000D03*
X58000000Y45000000D03*
X2000000Y15000000D03*
X28000000Y15000000D03*
X32000000Y15000000D03*
X58000000Y15000000D03*
D13*
X7460928Y49456405D02*
X6012040Y49844633D01*
X8987960Y49844633D02*
X7539072Y49456405D01*
X10116295Y50944365D02*
X9055635Y49883705D01*
X10543595Y52460928D02*
X10155367Y51012040D01*
X10155367Y53987960D02*
X10543595Y52539072D01*
X9055635Y55116295D02*
X10116295Y54055635D01*
X7539072Y55543595D02*
X8987960Y55155367D01*
X6012040Y55155367D02*
X7460928Y55543595D01*
X4883705Y54055635D02*
X5944365Y55116295D01*
X4456405Y52539072D02*
X4844633Y53987960D01*
X4844633Y51012040D02*
X4456405Y52460928D01*
X5944365Y49883705D02*
X4883705Y50944365D01*
X6594133Y49119259D02*
X6283551Y47960149D01*
X10914230Y48986379D02*
X8835770Y47786379D01*
X12213621Y51164229D02*
X11013621Y49085769D01*
D14*
X12250000Y52499999D03*
D13*
X11013621Y55914230D02*
X12213621Y53835770D01*
X8835771Y57213621D02*
X10914231Y56013621D01*
D15*
X7500001Y57250000D03*
D13*
X4085770Y56013621D02*
X6164230Y57213621D01*
X2786379Y53835771D02*
X3986379Y55914231D01*
D14*
X2750000Y52500001D03*
D13*
X3986379Y49085770D02*
X2786379Y51164230D01*
X6164229Y47786379D02*
X4085769Y48986379D01*
D16*
X7499999Y48500000D03*
D13*
X8405867Y49119259D02*
X8716449Y47960149D01*
X9974874Y50025126D02*
X10823402Y49176598D01*
X10880741Y51594133D02*
X12039851Y51283551D01*
X10880741Y53405867D02*
X12039851Y53716449D01*
X9974874Y54974874D02*
X10823402Y55823402D01*
X8405867Y55880741D02*
X8716449Y57039851D01*
X6594133Y55880741D02*
X6283551Y57039851D01*
X5025126Y54974874D02*
X4176598Y55823402D01*
X4119259Y53405867D02*
X2960149Y53716449D01*
X4119259Y51594133D02*
X2960149Y51283551D01*
X5025126Y50025126D02*
X4176598Y49176598D01*
X5950000Y49815322D02*
X5400000Y48862694D01*
X4815321Y50950001D02*
X3862693Y50400001D01*
D17*
X3850000Y52500000D03*
D13*
X4815322Y54050000D02*
X3862694Y54600000D01*
X5950001Y55184679D02*
X5400001Y56137307D01*
D18*
X7500000Y56150000D03*
D13*
X9050000Y55184678D02*
X9600000Y56137306D01*
X10184679Y54049999D02*
X11137307Y54599999D01*
D17*
X11150000Y52500000D03*
D13*
X10184678Y50950000D02*
X11137306Y50400000D01*
X9049999Y49815321D02*
X9599999Y48862693D01*
X22460928Y49456405D02*
X21012040Y49844633D01*
X23987960Y49844633D02*
X22539072Y49456405D01*
X25116295Y50944365D02*
X24055635Y49883705D01*
X25543595Y52460928D02*
X25155367Y51012040D01*
X25155367Y53987960D02*
X25543595Y52539072D01*
X24055635Y55116295D02*
X25116295Y54055635D01*
X22539072Y55543595D02*
X23987960Y55155367D01*
X21012040Y55155367D02*
X22460928Y55543595D01*
X19883705Y54055635D02*
X20944365Y55116295D01*
X19456405Y52539072D02*
X19844633Y53987960D01*
X19844633Y51012040D02*
X19456405Y52460928D01*
X20944365Y49883705D02*
X19883705Y50944365D01*
X21594133Y49119259D02*
X21283551Y47960149D01*
X25914230Y48986379D02*
X23835770Y47786379D01*
X27213621Y51164229D02*
X26013621Y49085769D01*
D14*
X27250000Y52499999D03*
D13*
X26013621Y55914230D02*
X27213621Y53835770D01*
X23835771Y57213621D02*
X25914231Y56013621D01*
D15*
X22500001Y57250000D03*
D13*
X19085770Y56013621D02*
X21164230Y57213621D01*
X17786379Y53835771D02*
X18986379Y55914231D01*
D14*
X17750000Y52500001D03*
D13*
X18986379Y49085770D02*
X17786379Y51164230D01*
X21164229Y47786379D02*
X19085769Y48986379D01*
D16*
X22499999Y48500000D03*
D13*
X23405867Y49119259D02*
X23716449Y47960149D01*
X24974874Y50025126D02*
X25823402Y49176598D01*
X25880741Y51594133D02*
X27039851Y51283551D01*
X25880741Y53405867D02*
X27039851Y53716449D01*
X24974874Y54974874D02*
X25823402Y55823402D01*
X23405867Y55880741D02*
X23716449Y57039851D01*
X21594133Y55880741D02*
X21283551Y57039851D01*
X20025126Y54974874D02*
X19176598Y55823402D01*
X19119259Y53405867D02*
X17960149Y53716449D01*
X19119259Y51594133D02*
X17960149Y51283551D01*
X20025126Y50025126D02*
X19176598Y49176598D01*
X20950000Y49815322D02*
X20400000Y48862694D01*
X19815321Y50950001D02*
X18862693Y50400001D01*
D17*
X18850000Y52500000D03*
D13*
X19815322Y54050000D02*
X18862694Y54600000D01*
X20950001Y55184679D02*
X20400001Y56137307D01*
D18*
X22500000Y56150000D03*
D13*
X24050000Y55184678D02*
X24600000Y56137306D01*
X25184679Y54049999D02*
X26137307Y54599999D01*
D17*
X26150000Y52500000D03*
D13*
X25184678Y50950000D02*
X26137306Y50400000D01*
X24049999Y49815321D02*
X24599999Y48862693D01*
X37460928Y49456405D02*
X36012040Y49844633D01*
X38987960Y49844633D02*
X37539072Y49456405D01*
X40116295Y50944365D02*
X39055635Y49883705D01*
X40543595Y52460928D02*
X40155367Y51012040D01*
X40155367Y53987960D02*
X40543595Y52539072D01*
X39055635Y55116295D02*
X40116295Y54055635D01*
X37539072Y55543595D02*
X38987960Y55155367D01*
X36012040Y55155367D02*
X37460928Y55543595D01*
X34883705Y54055635D02*
X35944365Y55116295D01*
X34456405Y52539072D02*
X34844633Y53987960D01*
X34844633Y51012040D02*
X34456405Y52460928D01*
X35944365Y49883705D02*
X34883705Y50944365D01*
X36594133Y49119259D02*
X36283551Y47960149D01*
X40914230Y48986379D02*
X38835770Y47786379D01*
X42213621Y51164229D02*
X41013621Y49085769D01*
D14*
X42250000Y52499999D03*
D13*
X41013621Y55914230D02*
X42213621Y53835770D01*
X38835771Y57213621D02*
X40914231Y56013621D01*
D15*
X37500001Y57250000D03*
D13*
X34085770Y56013621D02*
X36164230Y57213621D01*
X32786379Y53835771D02*
X33986379Y55914231D01*
D14*
X32750000Y52500001D03*
D13*
X33986379Y49085770D02*
X32786379Y51164230D01*
X36164229Y47786379D02*
X34085769Y48986379D01*
D16*
X37499999Y48500000D03*
D13*
X38405867Y49119259D02*
X38716449Y47960149D01*
X39974874Y50025126D02*
X40823402Y49176598D01*
X40880741Y51594133D02*
X42039851Y51283551D01*
X40880741Y53405867D02*
X42039851Y53716449D01*
X39974874Y54974874D02*
X40823402Y55823402D01*
X38405867Y55880741D02*
X38716449Y57039851D01*
X36594133Y55880741D02*
X36283551Y57039851D01*
X35025126Y54974874D02*
X34176598Y55823402D01*
X34119259Y53405867D02*
X32960149Y53716449D01*
X34119259Y51594133D02*
X32960149Y51283551D01*
X35025126Y50025126D02*
X34176598Y49176598D01*
X35950000Y49815322D02*
X35400000Y48862694D01*
X34815321Y50950001D02*
X33862693Y50400001D01*
D17*
X33850000Y52500000D03*
D13*
X34815322Y54050000D02*
X33862694Y54600000D01*
X35950001Y55184679D02*
X35400001Y56137307D01*
D18*
X37500000Y56150000D03*
D13*
X39050000Y55184678D02*
X39600000Y56137306D01*
X40184679Y54049999D02*
X41137307Y54599999D01*
D17*
X41150000Y52500000D03*
D13*
X40184678Y50950000D02*
X41137306Y50400000D01*
X39049999Y49815321D02*
X39599999Y48862693D01*
X52460928Y49456405D02*
X51012040Y49844633D01*
X53987960Y49844633D02*
X52539072Y49456405D01*
X55116295Y50944365D02*
X54055635Y49883705D01*
X55543595Y52460928D02*
X55155367Y51012040D01*
X55155367Y53987960D02*
X55543595Y52539072D01*
X54055635Y55116295D02*
X55116295Y54055635D01*
X52539072Y55543595D02*
X53987960Y55155367D01*
X51012040Y55155367D02*
X52460928Y55543595D01*
X49883705Y54055635D02*
X50944365Y55116295D01*
X49456405Y52539072D02*
X49844633Y53987960D01*
X49844633Y51012040D02*
X49456405Y52460928D01*
X50944365Y49883705D02*
X49883705Y50944365D01*
X51594133Y49119259D02*
X51283551Y47960149D01*
X55914230Y48986379D02*
X53835770Y47786379D01*
X57213621Y51164229D02*
X56013621Y49085769D01*
D14*
X57250000Y52499999D03*
D13*
X56013621Y55914230D02*
X57213621Y53835770D01*
X53835771Y57213621D02*
X55914231Y56013621D01*
D15*
X52500001Y57250000D03*
D13*
X49085770Y56013621D02*
X51164230Y57213621D01*
X47786379Y53835771D02*
X48986379Y55914231D01*
D14*
X47750000Y52500001D03*
D13*
X48986379Y49085770D02*
X47786379Y51164230D01*
X51164229Y47786379D02*
X49085769Y48986379D01*
D16*
X52499999Y48500000D03*
D13*
X53405867Y49119259D02*
X53716449Y47960149D01*
X54974874Y50025126D02*
X55823402Y49176598D01*
X55880741Y51594133D02*
X57039851Y51283551D01*
X55880741Y53405867D02*
X57039851Y53716449D01*
X54974874Y54974874D02*
X55823402Y55823402D01*
X53405867Y55880741D02*
X53716449Y57039851D01*
X51594133Y55880741D02*
X51283551Y57039851D01*
X50025126Y54974874D02*
X49176598Y55823402D01*
X49119259Y53405867D02*
X47960149Y53716449D01*
X49119259Y51594133D02*
X47960149Y51283551D01*
X50025126Y50025126D02*
X49176598Y49176598D01*
X50950000Y49815322D02*
X50400000Y48862694D01*
X49815321Y50950001D02*
X48862693Y50400001D01*
D17*
X48850000Y52500000D03*
D13*
X49815322Y54050000D02*
X48862694Y54600000D01*
X50950001Y55184679D02*
X50400001Y56137307D01*
D18*
X52500000Y56150000D03*
D13*
X54050000Y55184678D02*
X54600000Y56137306D01*
X55184679Y54049999D02*
X56137307Y54599999D01*
D17*
X56150000Y52500000D03*
D13*
X55184678Y50950000D02*
X56137306Y50400000D01*
X54049999Y49815321D02*
X54599999Y48862693D01*
X7460928Y34456405D02*
X6012040Y34844633D01*
X8987960Y34844633D02*
X7539072Y34456405D01*
X10116295Y35944365D02*
X9055635Y34883705D01*
X10543595Y37460928D02*
X10155367Y36012040D01*
X10155367Y38987960D02*
X10543595Y37539072D01*
X9055635Y40116295D02*
X10116295Y39055635D01*
X7539072Y40543595D02*
X8987960Y40155367D01*
X6012040Y40155367D02*
X7460928Y40543595D01*
X4883705Y39055635D02*
X5944365Y40116295D01*
X4456405Y37539072D02*
X4844633Y38987960D01*
X4844633Y36012040D02*
X4456405Y37460928D01*
X5944365Y34883705D02*
X4883705Y35944365D01*
X6594133Y34119259D02*
X6283551Y32960149D01*
X10914230Y33986379D02*
X8835770Y32786379D01*
X12213621Y36164229D02*
X11013621Y34085769D01*
D14*
X12250000Y37499999D03*
D13*
X11013621Y40914230D02*
X12213621Y38835770D01*
X8835771Y42213621D02*
X10914231Y41013621D01*
D15*
X7500001Y42250000D03*
D13*
X4085770Y41013621D02*
X6164230Y42213621D01*
X2786379Y38835771D02*
X3986379Y40914231D01*
D14*
X2750000Y37500001D03*
D13*
X3986379Y34085770D02*
X2786379Y36164230D01*
X6164229Y32786379D02*
X4085769Y33986379D01*
D16*
X7499999Y33500000D03*
D13*
X8405867Y34119259D02*
X8716449Y32960149D01*
X9974874Y35025126D02*
X10823402Y34176598D01*
X10880741Y36594133D02*
X12039851Y36283551D01*
X10880741Y38405867D02*
X12039851Y38716449D01*
X9974874Y39974874D02*
X10823402Y40823402D01*
X8405867Y40880741D02*
X8716449Y42039851D01*
X6594133Y40880741D02*
X6283551Y42039851D01*
X5025126Y39974874D02*
X4176598Y40823402D01*
X4119259Y38405867D02*
X2960149Y38716449D01*
X4119259Y36594133D02*
X2960149Y36283551D01*
X5025126Y35025126D02*
X4176598Y34176598D01*
X5950000Y34815322D02*
X5400000Y33862694D01*
X4815321Y35950001D02*
X3862693Y35400001D01*
D17*
X3850000Y37500000D03*
D13*
X4815322Y39050000D02*
X3862694Y39600000D01*
X5950001Y40184679D02*
X5400001Y41137307D01*
D18*
X7500000Y41150000D03*
D13*
X9050000Y40184678D02*
X9600000Y41137306D01*
X10184679Y39049999D02*
X11137307Y39599999D01*
D17*
X11150000Y37500000D03*
D13*
X10184678Y35950000D02*
X11137306Y35400000D01*
X9049999Y34815321D02*
X9599999Y33862693D01*
X22460928Y34456405D02*
X21012040Y34844633D01*
X23987960Y34844633D02*
X22539072Y34456405D01*
X25116295Y35944365D02*
X24055635Y34883705D01*
X25543595Y37460928D02*
X25155367Y36012040D01*
X25155367Y38987960D02*
X25543595Y37539072D01*
X24055635Y40116295D02*
X25116295Y39055635D01*
X22539072Y40543595D02*
X23987960Y40155367D01*
X21012040Y40155367D02*
X22460928Y40543595D01*
X19883705Y39055635D02*
X20944365Y40116295D01*
X19456405Y37539072D02*
X19844633Y38987960D01*
X19844633Y36012040D02*
X19456405Y37460928D01*
X20944365Y34883705D02*
X19883705Y35944365D01*
X21594133Y34119259D02*
X21283551Y32960149D01*
X25914230Y33986379D02*
X23835770Y32786379D01*
X27213621Y36164229D02*
X26013621Y34085769D01*
D14*
X27250000Y37499999D03*
D13*
X26013621Y40914230D02*
X27213621Y38835770D01*
X23835771Y42213621D02*
X25914231Y41013621D01*
D15*
X22500001Y42250000D03*
D13*
X19085770Y41013621D02*
X21164230Y42213621D01*
X17786379Y38835771D02*
X18986379Y40914231D01*
D14*
X17750000Y37500001D03*
D13*
X18986379Y34085770D02*
X17786379Y36164230D01*
X21164229Y32786379D02*
X19085769Y33986379D01*
D16*
X22499999Y33500000D03*
D13*
X23405867Y34119259D02*
X23716449Y32960149D01*
X24974874Y35025126D02*
X25823402Y34176598D01*
X25880741Y36594133D02*
X27039851Y36283551D01*
X25880741Y38405867D02*
X27039851Y38716449D01*
X24974874Y39974874D02*
X25823402Y40823402D01*
X23405867Y40880741D02*
X23716449Y42039851D01*
X21594133Y40880741D02*
X21283551Y42039851D01*
X20025126Y39974874D02*
X19176598Y40823402D01*
X19119259Y38405867D02*
X17960149Y38716449D01*
X19119259Y36594133D02*
X17960149Y36283551D01*
X20025126Y35025126D02*
X19176598Y34176598D01*
X20950000Y34815322D02*
X20400000Y33862694D01*
X19815321Y35950001D02*
X18862693Y35400001D01*
D17*
X18850000Y37500000D03*
D13*
X19815322Y39050000D02*
X18862694Y39600000D01*
X20950001Y40184679D02*
X20400001Y41137307D01*
D18*
X22500000Y41150000D03*
D13*
X24050000Y40184678D02*
X24600000Y41137306D01*
X25184679Y39049999D02*
X26137307Y39599999D01*
D17*
X26150000Y37500000D03*
D13*
X25184678Y35950000D02*
X26137306Y35400000D01*
X24049999Y34815321D02*
X24599999Y33862693D01*
X37460928Y34456405D02*
X36012040Y34844633D01*
X38987960Y34844633D02*
X37539072Y34456405D01*
X40116295Y35944365D02*
X39055635Y34883705D01*
X40543595Y37460928D02*
X40155367Y36012040D01*
X40155367Y38987960D02*
X40543595Y37539072D01*
X39055635Y40116295D02*
X40116295Y39055635D01*
X37539072Y40543595D02*
X38987960Y40155367D01*
X36012040Y40155367D02*
X37460928Y40543595D01*
X34883705Y39055635D02*
X35944365Y40116295D01*
X34456405Y37539072D02*
X34844633Y38987960D01*
X34844633Y36012040D02*
X34456405Y37460928D01*
X35944365Y34883705D02*
X34883705Y35944365D01*
X36594133Y34119259D02*
X36283551Y32960149D01*
X40914230Y33986379D02*
X38835770Y32786379D01*
X42213621Y36164229D02*
X41013621Y34085769D01*
D14*
X42250000Y37499999D03*
D13*
X41013621Y40914230D02*
X42213621Y38835770D01*
X38835771Y42213621D02*
X40914231Y41013621D01*
D15*
X37500001Y42250000D03*
D13*
X34085770Y41013621D02*
X36164230Y42213621D01*
X32786379Y38835771D02*
X33986379Y40914231D01*
D14*
X32750000Y37500001D03*
D13*
X33986379Y34085770D02*
X32786379Y36164230D01*
X36164229Y32786379D02*
X34085769Y33986379D01*
D16*
X37499999Y33500000D03*
D13*
X38405867Y34119259D02*
X38716449Y32960149D01*
X39974874Y35025126D02*
X40823402Y34176598D01*
X40880741Y36594133D02*
X42039851Y36283551D01*
X40880741Y38405867D02*
X42039851Y38716449D01*
X39974874Y39974874D02*
X40823402Y40823402D01*
X38405867Y40880741D02*
X38716449Y42039851D01*
X36594133Y40880741D02*
X36283551Y42039851D01*
X35025126Y39974874D02*
X34176598Y40823402D01*
X34119259Y38405867D02*
X32960149Y38716449D01*
X34119259Y36594133D02*
X32960149Y36283551D01*
X35025126Y35025126D02*
X34176598Y34176598D01*
X35950000Y34815322D02*
X35400000Y33862694D01*
X34815321Y35950001D02*
X33862693Y35400001D01*
D17*
X33850000Y37500000D03*
D13*
X34815322Y39050000D02*
X33862694Y39600000D01*
X35950001Y40184679D02*
X35400001Y41137307D01*
D18*
X37500000Y41150000D03*
D13*
X39050000Y40184678D02*
X39600000Y41137306D01*
X40184679Y39049999D02*
X41137307Y39599999D01*
D17*
X41150000Y37500000D03*
D13*
X40184678Y35950000D02*
X41137306Y35400000D01*
X39049999Y34815321D02*
X39599999Y33862693D01*
X52460928Y34456405D02*
X51012040Y34844633D01*
X53987960Y34844633D02*
X52539072Y34456405D01*
X55116295Y35944365D02*
X54055635Y34883705D01*
X55543595Y37460928D02*
X55155367Y36012040D01*
X55155367Y38987960D02*
X55543595Y37539072D01*
X54055635Y40116295D02*
X55116295Y39055635D01*
X52539072Y40543595D02*
X53987960Y40155367D01*
X51012040Y40155367D02*
X52460928Y40543595D01*
X49883705Y39055635D02*
X50944365Y40116295D01*
X49456405Y37539072D02*
X49844633Y38987960D01*
X49844633Y36012040D02*
X49456405Y37460928D01*
X50944365Y34883705D02*
X49883705Y35944365D01*
X51594133Y34119259D02*
X51283551Y32960149D01*
X55914230Y33986379D02*
X53835770Y32786379D01*
X57213621Y36164229D02*
X56013621Y34085769D01*
D14*
X57250000Y37499999D03*
D13*
X56013621Y40914230D02*
X57213621Y38835770D01*
X53835771Y42213621D02*
X55914231Y41013621D01*
D15*
X52500001Y42250000D03*
D13*
X49085770Y41013621D02*
X51164230Y42213621D01*
X47786379Y38835771D02*
X48986379Y40914231D01*
D14*
X47750000Y37500001D03*
D13*
X48986379Y34085770D02*
X47786379Y36164230D01*
X51164229Y32786379D02*
X49085769Y33986379D01*
D16*
X52499999Y33500000D03*
D13*
X53405867Y34119259D02*
X53716449Y32960149D01*
X54974874Y35025126D02*
X55823402Y34176598D01*
X55880741Y36594133D02*
X57039851Y36283551D01*
X55880741Y38405867D02*
X57039851Y38716449D01*
X54974874Y39974874D02*
X55823402Y40823402D01*
X53405867Y40880741D02*
X53716449Y42039851D01*
X51594133Y40880741D02*
X51283551Y42039851D01*
X50025126Y39974874D02*
X49176598Y40823402D01*
X49119259Y38405867D02*
X47960149Y38716449D01*
X49119259Y36594133D02*
X47960149Y36283551D01*
X50025126Y35025126D02*
X49176598Y34176598D01*
X50950000Y34815322D02*
X50400000Y33862694D01*
X49815321Y35950001D02*
X48862693Y35400001D01*
D17*
X48850000Y37500000D03*
D13*
X49815322Y39050000D02*
X48862694Y39600000D01*
X50950001Y40184679D02*
X50400001Y41137307D01*
D18*
X52500000Y41150000D03*
D13*
X54050000Y40184678D02*
X54600000Y41137306D01*
X55184679Y39049999D02*
X56137307Y39599999D01*
D17*
X56150000Y37500000D03*
D13*
X55184678Y35950000D02*
X56137306Y35400000D01*
X54049999Y34815321D02*
X54599999Y33862693D01*
X7539072Y25543595D02*
X8987960Y25155367D01*
X6012040Y25155367D02*
X7460928Y25543595D01*
X4883705Y24055635D02*
X5944365Y25116295D01*
X4456405Y22539072D02*
X4844633Y23987960D01*
X4844633Y21012040D02*
X4456405Y22460928D01*
X5944365Y19883705D02*
X4883705Y20944365D01*
X7460928Y19456405D02*
X6012040Y19844633D01*
X8987960Y19844633D02*
X7539072Y19456405D01*
X10116295Y20944365D02*
X9055635Y19883705D01*
X10543595Y22460928D02*
X10155367Y21012040D01*
X10155367Y23987960D02*
X10543595Y22539072D01*
X9055635Y25116295D02*
X10116295Y24055635D01*
X8405867Y25880741D02*
X8716449Y27039851D01*
X4085770Y26013621D02*
X6164230Y27213621D01*
X2786379Y23835771D02*
X3986379Y25914231D01*
D14*
X2750000Y22500001D03*
D13*
X3986379Y19085770D02*
X2786379Y21164230D01*
X6164229Y17786379D02*
X4085769Y18986379D01*
D15*
X7499999Y17750000D03*
D13*
X10914230Y18986379D02*
X8835770Y17786379D01*
X12213621Y21164229D02*
X11013621Y19085769D01*
D14*
X12250000Y22499999D03*
D13*
X11013621Y25914230D02*
X12213621Y23835770D01*
X8835771Y27213621D02*
X10914231Y26013621D01*
D16*
X7500001Y26500000D03*
D13*
X6594133Y25880741D02*
X6283551Y27039851D01*
X5025126Y24974874D02*
X4176598Y25823402D01*
X4119259Y23405867D02*
X2960149Y23716449D01*
X4119259Y21594133D02*
X2960149Y21283551D01*
X5025126Y20025126D02*
X4176598Y19176598D01*
X6594133Y19119259D02*
X6283551Y17960149D01*
X8405867Y19119259D02*
X8716449Y17960149D01*
X9974874Y20025126D02*
X10823402Y19176598D01*
X10880741Y21594133D02*
X12039851Y21283551D01*
X10880741Y23405867D02*
X12039851Y23716449D01*
X9974874Y24974874D02*
X10823402Y25823402D01*
X9050000Y25184678D02*
X9600000Y26137306D01*
X10184679Y24049999D02*
X11137307Y24599999D01*
D17*
X11150000Y22500000D03*
D13*
X10184678Y20950000D02*
X11137306Y20400000D01*
X9049999Y19815321D02*
X9599999Y18862693D01*
D18*
X7500000Y18850000D03*
D13*
X5950000Y19815322D02*
X5400000Y18862694D01*
X4815321Y20950001D02*
X3862693Y20400001D01*
D17*
X3850000Y22500000D03*
D13*
X4815322Y24050000D02*
X3862694Y24600000D01*
X5950001Y25184679D02*
X5400001Y26137307D01*
X22539072Y25543595D02*
X23987960Y25155367D01*
X21012040Y25155367D02*
X22460928Y25543595D01*
X19883705Y24055635D02*
X20944365Y25116295D01*
X19456405Y22539072D02*
X19844633Y23987960D01*
X19844633Y21012040D02*
X19456405Y22460928D01*
X20944365Y19883705D02*
X19883705Y20944365D01*
X22460928Y19456405D02*
X21012040Y19844633D01*
X23987960Y19844633D02*
X22539072Y19456405D01*
X25116295Y20944365D02*
X24055635Y19883705D01*
X25543595Y22460928D02*
X25155367Y21012040D01*
X25155367Y23987960D02*
X25543595Y22539072D01*
X24055635Y25116295D02*
X25116295Y24055635D01*
X23405867Y25880741D02*
X23716449Y27039851D01*
X19085770Y26013621D02*
X21164230Y27213621D01*
X17786379Y23835771D02*
X18986379Y25914231D01*
D14*
X17750000Y22500001D03*
D13*
X18986379Y19085770D02*
X17786379Y21164230D01*
X21164229Y17786379D02*
X19085769Y18986379D01*
D15*
X22499999Y17750000D03*
D13*
X25914230Y18986379D02*
X23835770Y17786379D01*
X27213621Y21164229D02*
X26013621Y19085769D01*
D14*
X27250000Y22499999D03*
D13*
X26013621Y25914230D02*
X27213621Y23835770D01*
X23835771Y27213621D02*
X25914231Y26013621D01*
D16*
X22500001Y26500000D03*
D13*
X21594133Y25880741D02*
X21283551Y27039851D01*
X20025126Y24974874D02*
X19176598Y25823402D01*
X19119259Y23405867D02*
X17960149Y23716449D01*
X19119259Y21594133D02*
X17960149Y21283551D01*
X20025126Y20025126D02*
X19176598Y19176598D01*
X21594133Y19119259D02*
X21283551Y17960149D01*
X23405867Y19119259D02*
X23716449Y17960149D01*
X24974874Y20025126D02*
X25823402Y19176598D01*
X25880741Y21594133D02*
X27039851Y21283551D01*
X25880741Y23405867D02*
X27039851Y23716449D01*
X24974874Y24974874D02*
X25823402Y25823402D01*
X24050000Y25184678D02*
X24600000Y26137306D01*
X25184679Y24049999D02*
X26137307Y24599999D01*
D17*
X26150000Y22500000D03*
D13*
X25184678Y20950000D02*
X26137306Y20400000D01*
X24049999Y19815321D02*
X24599999Y18862693D01*
D18*
X22500000Y18850000D03*
D13*
X20950000Y19815322D02*
X20400000Y18862694D01*
X19815321Y20950001D02*
X18862693Y20400001D01*
D17*
X18850000Y22500000D03*
D13*
X19815322Y24050000D02*
X18862694Y24600000D01*
X20950001Y25184679D02*
X20400001Y26137307D01*
X37539072Y25543595D02*
X38987960Y25155367D01*
X36012040Y25155367D02*
X37460928Y25543595D01*
X34883705Y24055635D02*
X35944365Y25116295D01*
X34456405Y22539072D02*
X34844633Y23987960D01*
X34844633Y21012040D02*
X34456405Y22460928D01*
X35944365Y19883705D02*
X34883705Y20944365D01*
X37460928Y19456405D02*
X36012040Y19844633D01*
X38987960Y19844633D02*
X37539072Y19456405D01*
X40116295Y20944365D02*
X39055635Y19883705D01*
X40543595Y22460928D02*
X40155367Y21012040D01*
X40155367Y23987960D02*
X40543595Y22539072D01*
X39055635Y25116295D02*
X40116295Y24055635D01*
X38405867Y25880741D02*
X38716449Y27039851D01*
X34085770Y26013621D02*
X36164230Y27213621D01*
X32786379Y23835771D02*
X33986379Y25914231D01*
D14*
X32750000Y22500001D03*
D13*
X33986379Y19085770D02*
X32786379Y21164230D01*
X36164229Y17786379D02*
X34085769Y18986379D01*
D15*
X37499999Y17750000D03*
D13*
X40914230Y18986379D02*
X38835770Y17786379D01*
X42213621Y21164229D02*
X41013621Y19085769D01*
D14*
X42250000Y22499999D03*
D13*
X41013621Y25914230D02*
X42213621Y23835770D01*
X38835771Y27213621D02*
X40914231Y26013621D01*
D16*
X37500001Y26500000D03*
D13*
X36594133Y25880741D02*
X36283551Y27039851D01*
X35025126Y24974874D02*
X34176598Y25823402D01*
X34119259Y23405867D02*
X32960149Y23716449D01*
X34119259Y21594133D02*
X32960149Y21283551D01*
X35025126Y20025126D02*
X34176598Y19176598D01*
X36594133Y19119259D02*
X36283551Y17960149D01*
X38405867Y19119259D02*
X38716449Y17960149D01*
X39974874Y20025126D02*
X40823402Y19176598D01*
X40880741Y21594133D02*
X42039851Y21283551D01*
X40880741Y23405867D02*
X42039851Y23716449D01*
X39974874Y24974874D02*
X40823402Y25823402D01*
X39050000Y25184678D02*
X39600000Y26137306D01*
X40184679Y24049999D02*
X41137307Y24599999D01*
D17*
X41150000Y22500000D03*
D13*
X40184678Y20950000D02*
X41137306Y20400000D01*
X39049999Y19815321D02*
X39599999Y18862693D01*
D18*
X37500000Y18850000D03*
D13*
X35950000Y19815322D02*
X35400000Y18862694D01*
X34815321Y20950001D02*
X33862693Y20400001D01*
D17*
X33850000Y22500000D03*
D13*
X34815322Y24050000D02*
X33862694Y24600000D01*
X35950001Y25184679D02*
X35400001Y26137307D01*
X7539072Y10543595D02*
X8987960Y10155367D01*
X6012040Y10155367D02*
X7460928Y10543595D01*
X4883705Y9055635D02*
X5944365Y10116295D01*
X4456405Y7539072D02*
X4844633Y8987960D01*
X4844633Y6012040D02*
X4456405Y7460928D01*
X5944365Y4883705D02*
X4883705Y5944365D01*
X7460928Y4456405D02*
X6012040Y4844633D01*
X8987960Y4844633D02*
X7539072Y4456405D01*
X10116295Y5944365D02*
X9055635Y4883705D01*
X10543595Y7460928D02*
X10155367Y6012040D01*
X10155367Y8987960D02*
X10543595Y7539072D01*
X9055635Y10116295D02*
X10116295Y9055635D01*
X8405867Y10880741D02*
X8716449Y12039851D01*
X4085770Y11013621D02*
X6164230Y12213621D01*
X2786379Y8835771D02*
X3986379Y10914231D01*
D14*
X2750000Y7500001D03*
D13*
X3986379Y4085770D02*
X2786379Y6164230D01*
X6164229Y2786379D02*
X4085769Y3986379D01*
D15*
X7499999Y2750000D03*
D13*
X10914230Y3986379D02*
X8835770Y2786379D01*
X12213621Y6164229D02*
X11013621Y4085769D01*
D14*
X12250000Y7499999D03*
D13*
X11013621Y10914230D02*
X12213621Y8835770D01*
X8835771Y12213621D02*
X10914231Y11013621D01*
D16*
X7500001Y11500000D03*
D13*
X6594133Y10880741D02*
X6283551Y12039851D01*
X5025126Y9974874D02*
X4176598Y10823402D01*
X4119259Y8405867D02*
X2960149Y8716449D01*
X4119259Y6594133D02*
X2960149Y6283551D01*
X5025126Y5025126D02*
X4176598Y4176598D01*
X6594133Y4119259D02*
X6283551Y2960149D01*
X8405867Y4119259D02*
X8716449Y2960149D01*
X9974874Y5025126D02*
X10823402Y4176598D01*
X10880741Y6594133D02*
X12039851Y6283551D01*
X10880741Y8405867D02*
X12039851Y8716449D01*
X9974874Y9974874D02*
X10823402Y10823402D01*
X9050000Y10184678D02*
X9600000Y11137306D01*
X10184679Y9049999D02*
X11137307Y9599999D01*
D17*
X11150000Y7500000D03*
D13*
X10184678Y5950000D02*
X11137306Y5400000D01*
X9049999Y4815321D02*
X9599999Y3862693D01*
D18*
X7500000Y3850000D03*
D13*
X5950000Y4815322D02*
X5400000Y3862694D01*
X4815321Y5950001D02*
X3862693Y5400001D01*
D17*
X3850000Y7500000D03*
D13*
X4815322Y9050000D02*
X3862694Y9600000D01*
X5950001Y10184679D02*
X5400001Y11137307D01*
X22539072Y10543595D02*
X23987960Y10155367D01*
X21012040Y10155367D02*
X22460928Y10543595D01*
X19883705Y9055635D02*
X20944365Y10116295D01*
X19456405Y7539072D02*
X19844633Y8987960D01*
X19844633Y6012040D02*
X19456405Y7460928D01*
X20944365Y4883705D02*
X19883705Y5944365D01*
X22460928Y4456405D02*
X21012040Y4844633D01*
X23987960Y4844633D02*
X22539072Y4456405D01*
X25116295Y5944365D02*
X24055635Y4883705D01*
X25543595Y7460928D02*
X25155367Y6012040D01*
X25155367Y8987960D02*
X25543595Y7539072D01*
X24055635Y10116295D02*
X25116295Y9055635D01*
X23405867Y10880741D02*
X23716449Y12039851D01*
X19085770Y11013621D02*
X21164230Y12213621D01*
X17786379Y8835771D02*
X18986379Y10914231D01*
D14*
X17750000Y7500001D03*
D13*
X18986379Y4085770D02*
X17786379Y6164230D01*
X21164229Y2786379D02*
X19085769Y3986379D01*
D15*
X22499999Y2750000D03*
D13*
X25914230Y3986379D02*
X23835770Y2786379D01*
X27213621Y6164229D02*
X26013621Y4085769D01*
D14*
X27250000Y7499999D03*
D13*
X26013621Y10914230D02*
X27213621Y8835770D01*
X23835771Y12213621D02*
X25914231Y11013621D01*
D16*
X22500001Y11500000D03*
D13*
X21594133Y10880741D02*
X21283551Y12039851D01*
X20025126Y9974874D02*
X19176598Y10823402D01*
X19119259Y8405867D02*
X17960149Y8716449D01*
X19119259Y6594133D02*
X17960149Y6283551D01*
X20025126Y5025126D02*
X19176598Y4176598D01*
X21594133Y4119259D02*
X21283551Y2960149D01*
X23405867Y4119259D02*
X23716449Y2960149D01*
X24974874Y5025126D02*
X25823402Y4176598D01*
X25880741Y6594133D02*
X27039851Y6283551D01*
X25880741Y8405867D02*
X27039851Y8716449D01*
X24974874Y9974874D02*
X25823402Y10823402D01*
X24050000Y10184678D02*
X24600000Y11137306D01*
X25184679Y9049999D02*
X26137307Y9599999D01*
D17*
X26150000Y7500000D03*
D13*
X25184678Y5950000D02*
X26137306Y5400000D01*
X24049999Y4815321D02*
X24599999Y3862693D01*
D18*
X22500000Y3850000D03*
D13*
X20950000Y4815322D02*
X20400000Y3862694D01*
X19815321Y5950001D02*
X18862693Y5400001D01*
D17*
X18850000Y7500000D03*
D13*
X19815322Y9050000D02*
X18862694Y9600000D01*
X20950001Y10184679D02*
X20400001Y11137307D01*
X37539072Y10543595D02*
X38987960Y10155367D01*
X36012040Y10155367D02*
X37460928Y10543595D01*
X34883705Y9055635D02*
X35944365Y10116295D01*
X34456405Y7539072D02*
X34844633Y8987960D01*
X34844633Y6012040D02*
X34456405Y7460928D01*
X35944365Y4883705D02*
X34883705Y5944365D01*
X37460928Y4456405D02*
X36012040Y4844633D01*
X38987960Y4844633D02*
X37539072Y4456405D01*
X40116295Y5944365D02*
X39055635Y4883705D01*
X40543595Y7460928D02*
X40155367Y6012040D01*
X40155367Y8987960D02*
X40543595Y7539072D01*
X39055635Y10116295D02*
X40116295Y9055635D01*
X38405867Y10880741D02*
X38716449Y12039851D01*
X34085770Y11013621D02*
X36164230Y12213621D01*
X32786379Y8835771D02*
X33986379Y10914231D01*
D14*
X32750000Y7500001D03*
D13*
X33986379Y4085770D02*
X32786379Y6164230D01*
X36164229Y2786379D02*
X34085769Y3986379D01*
D15*
X37499999Y2750000D03*
D13*
X40914230Y3986379D02*
X38835770Y2786379D01*
X42213621Y6164229D02*
X41013621Y4085769D01*
D14*
X42250000Y7499999D03*
D13*
X41013621Y10914230D02*
X42213621Y8835770D01*
X38835771Y12213621D02*
X40914231Y11013621D01*
D16*
X37500001Y11500000D03*
D13*
X36594133Y10880741D02*
X36283551Y12039851D01*
X35025126Y9974874D02*
X34176598Y10823402D01*
X34119259Y8405867D02*
X32960149Y8716449D01*
X34119259Y6594133D02*
X32960149Y6283551D01*
X35025126Y5025126D02*
X34176598Y4176598D01*
X36594133Y4119259D02*
X36283551Y2960149D01*
X38405867Y4119259D02*
X38716449Y2960149D01*
X39974874Y5025126D02*
X40823402Y4176598D01*
X40880741Y6594133D02*
X42039851Y6283551D01*
X40880741Y8405867D02*
X42039851Y8716449D01*
X39974874Y9974874D02*
X40823402Y10823402D01*
X39050000Y10184678D02*
X39600000Y11137306D01*
X40184679Y9049999D02*
X41137307Y9599999D01*
D17*
X41150000Y7500000D03*
D13*
X40184678Y5950000D02*
X41137306Y5400000D01*
X39049999Y4815321D02*
X39599999Y3862693D01*
D18*
X37500000Y3850000D03*
D13*
X35950000Y4815322D02*
X35400000Y3862694D01*
X34815321Y5950001D02*
X33862693Y5400001D01*
D17*
X33850000Y7500000D03*
D13*
X34815322Y9050000D02*
X33862694Y9600000D01*
X35950001Y10184679D02*
X35400001Y11137307D01*
X52539072Y10543595D02*
X53987960Y10155367D01*
X51012040Y10155367D02*
X52460928Y10543595D01*
X49883705Y9055635D02*
X50944365Y10116295D01*
X49456405Y7539072D02*
X49844633Y8987960D01*
X49844633Y6012040D02*
X49456405Y7460928D01*
X50944365Y4883705D02*
X49883705Y5944365D01*
X52460928Y4456405D02*
X51012040Y4844633D01*
X53987960Y4844633D02*
X52539072Y4456405D01*
X55116295Y5944365D02*
X54055635Y4883705D01*
X55543595Y7460928D02*
X55155367Y6012040D01*
X55155367Y8987960D02*
X55543595Y7539072D01*
X54055635Y10116295D02*
X55116295Y9055635D01*
X53405867Y10880741D02*
X53716449Y12039851D01*
X49085770Y11013621D02*
X51164230Y12213621D01*
X47786379Y8835771D02*
X48986379Y10914231D01*
D14*
X47750000Y7500001D03*
D13*
X48986379Y4085770D02*
X47786379Y6164230D01*
X51164229Y2786379D02*
X49085769Y3986379D01*
D15*
X52499999Y2750000D03*
D13*
X55914230Y3986379D02*
X53835770Y2786379D01*
X57213621Y6164229D02*
X56013621Y4085769D01*
D14*
X57250000Y7499999D03*
D13*
X56013621Y10914230D02*
X57213621Y8835770D01*
X53835771Y12213621D02*
X55914231Y11013621D01*
D16*
X52500001Y11500000D03*
D13*
X51594133Y10880741D02*
X51283551Y12039851D01*
X50025126Y9974874D02*
X49176598Y10823402D01*
X49119259Y8405867D02*
X47960149Y8716449D01*
X49119259Y6594133D02*
X47960149Y6283551D01*
X50025126Y5025126D02*
X49176598Y4176598D01*
X51594133Y4119259D02*
X51283551Y2960149D01*
X53405867Y4119259D02*
X53716449Y2960149D01*
X54974874Y5025126D02*
X55823402Y4176598D01*
X55880741Y6594133D02*
X57039851Y6283551D01*
X55880741Y8405867D02*
X57039851Y8716449D01*
X54974874Y9974874D02*
X55823402Y10823402D01*
X54050000Y10184678D02*
X54600000Y11137306D01*
X55184679Y9049999D02*
X56137307Y9599999D01*
D17*
X56150000Y7500000D03*
D13*
X55184678Y5950000D02*
X56137306Y5400000D01*
X54049999Y4815321D02*
X54599999Y3862693D01*
D18*
X52500000Y3850000D03*
D13*
X50950000Y4815322D02*
X50400000Y3862694D01*
X49815321Y5950001D02*
X48862693Y5400001D01*
D17*
X48850000Y7500000D03*
D13*
X49815322Y9050000D02*
X48862694Y9600000D01*
X50950001Y10184679D02*
X50400001Y11137307D01*
M02*
