G04 #@! TF.FileFunction,Paste,Bot*
%FSLAX46Y46*%
G04 Gerber Fmt 4.6, Leading zero omitted, Abs format (unit mm)*
G04 Created by KiCad (PCBNEW 4.0.7-e2-6376~58~ubuntu16.04.1) date Tue Sep 19 18:30:12 2017*
%MOMM*%
%LPD*%
G01*
G04 APERTURE LIST*
%ADD10C,0.100000*%
%ADD11R,0.800000X0.750000*%
%ADD12R,0.750000X0.800000*%
%ADD13R,0.970000X1.270000*%
%ADD14R,0.500000X0.900000*%
%ADD15R,0.900000X1.200000*%
G04 APERTURE END LIST*
D10*
G36*
X34548008Y34582322D02*
X34017678Y34051992D01*
X33451992Y34617678D01*
X33982322Y35148008D01*
X34548008Y34582322D01*
X34548008Y34582322D01*
G37*
G36*
X35608668Y33521662D02*
X35078338Y32991332D01*
X34512652Y33557018D01*
X35042982Y34087348D01*
X35608668Y33521662D01*
X35608668Y33521662D01*
G37*
D11*
X29464000Y55118000D03*
X27964000Y55118000D03*
D12*
X55118000Y29464000D03*
X55118000Y27964000D03*
D11*
X29591000Y4953000D03*
X28091000Y4953000D03*
D12*
X4953000Y29440000D03*
X4953000Y27940000D03*
D13*
X44459377Y24864309D03*
X45739377Y24864309D03*
X44459377Y27404309D03*
X45739377Y27404309D03*
X44449377Y29944309D03*
X45729377Y29944309D03*
X44459377Y32484309D03*
X45739377Y32484309D03*
X44459377Y35024309D03*
X45739377Y35024309D03*
D14*
X14503000Y27986000D03*
X16003000Y27986000D03*
X14502000Y29972000D03*
X16002000Y29972000D03*
X14503000Y31923000D03*
X16003000Y31923000D03*
D10*
G36*
X30996536Y35995243D02*
X31385445Y35606334D01*
X30254074Y34474963D01*
X29865165Y34863872D01*
X30996536Y35995243D01*
X30996536Y35995243D01*
G37*
G36*
X31562221Y35429557D02*
X31951130Y35040648D01*
X30819759Y33909277D01*
X30430850Y34298186D01*
X31562221Y35429557D01*
X31562221Y35429557D01*
G37*
G36*
X32127907Y34863872D02*
X32516816Y34474963D01*
X31385445Y33343592D01*
X30996536Y33732501D01*
X32127907Y34863872D01*
X32127907Y34863872D01*
G37*
G36*
X32693592Y34298187D02*
X33082501Y33909278D01*
X31951130Y32777907D01*
X31562221Y33166816D01*
X32693592Y34298187D01*
X32693592Y34298187D01*
G37*
G36*
X33259278Y33732501D02*
X33648187Y33343592D01*
X32516816Y32212221D01*
X32127907Y32601130D01*
X33259278Y33732501D01*
X33259278Y33732501D01*
G37*
G36*
X33824963Y33166816D02*
X34213872Y32777907D01*
X33082501Y31646536D01*
X32693592Y32035445D01*
X33824963Y33166816D01*
X33824963Y33166816D01*
G37*
G36*
X34390648Y32601130D02*
X34779557Y32212221D01*
X33648186Y31080850D01*
X33259277Y31469759D01*
X34390648Y32601130D01*
X34390648Y32601130D01*
G37*
G36*
X34956334Y32035445D02*
X35345243Y31646536D01*
X34213872Y30515165D01*
X33824963Y30904074D01*
X34956334Y32035445D01*
X34956334Y32035445D01*
G37*
G36*
X35345243Y28853464D02*
X34956334Y28464555D01*
X33824963Y29595926D01*
X34213872Y29984835D01*
X35345243Y28853464D01*
X35345243Y28853464D01*
G37*
G36*
X34779557Y28287779D02*
X34390648Y27898870D01*
X33259277Y29030241D01*
X33648186Y29419150D01*
X34779557Y28287779D01*
X34779557Y28287779D01*
G37*
G36*
X34213872Y27722093D02*
X33824963Y27333184D01*
X32693592Y28464555D01*
X33082501Y28853464D01*
X34213872Y27722093D01*
X34213872Y27722093D01*
G37*
G36*
X33648187Y27156408D02*
X33259278Y26767499D01*
X32127907Y27898870D01*
X32516816Y28287779D01*
X33648187Y27156408D01*
X33648187Y27156408D01*
G37*
G36*
X33082501Y26590722D02*
X32693592Y26201813D01*
X31562221Y27333184D01*
X31951130Y27722093D01*
X33082501Y26590722D01*
X33082501Y26590722D01*
G37*
G36*
X32516816Y26025037D02*
X32127907Y25636128D01*
X30996536Y26767499D01*
X31385445Y27156408D01*
X32516816Y26025037D01*
X32516816Y26025037D01*
G37*
G36*
X31951130Y25459352D02*
X31562221Y25070443D01*
X30430850Y26201814D01*
X30819759Y26590723D01*
X31951130Y25459352D01*
X31951130Y25459352D01*
G37*
G36*
X31385445Y24893666D02*
X30996536Y24504757D01*
X29865165Y25636128D01*
X30254074Y26025037D01*
X31385445Y24893666D01*
X31385445Y24893666D01*
G37*
G36*
X28945926Y26025037D02*
X29334835Y25636128D01*
X28203464Y24504757D01*
X27814555Y24893666D01*
X28945926Y26025037D01*
X28945926Y26025037D01*
G37*
G36*
X28380241Y26590723D02*
X28769150Y26201814D01*
X27637779Y25070443D01*
X27248870Y25459352D01*
X28380241Y26590723D01*
X28380241Y26590723D01*
G37*
G36*
X27814555Y27156408D02*
X28203464Y26767499D01*
X27072093Y25636128D01*
X26683184Y26025037D01*
X27814555Y27156408D01*
X27814555Y27156408D01*
G37*
G36*
X27248870Y27722093D02*
X27637779Y27333184D01*
X26506408Y26201813D01*
X26117499Y26590722D01*
X27248870Y27722093D01*
X27248870Y27722093D01*
G37*
G36*
X26683184Y28287779D02*
X27072093Y27898870D01*
X25940722Y26767499D01*
X25551813Y27156408D01*
X26683184Y28287779D01*
X26683184Y28287779D01*
G37*
G36*
X26117499Y28853464D02*
X26506408Y28464555D01*
X25375037Y27333184D01*
X24986128Y27722093D01*
X26117499Y28853464D01*
X26117499Y28853464D01*
G37*
G36*
X25551814Y29419150D02*
X25940723Y29030241D01*
X24809352Y27898870D01*
X24420443Y28287779D01*
X25551814Y29419150D01*
X25551814Y29419150D01*
G37*
G36*
X24986128Y29984835D02*
X25375037Y29595926D01*
X24243666Y28464555D01*
X23854757Y28853464D01*
X24986128Y29984835D01*
X24986128Y29984835D01*
G37*
G36*
X25375037Y30904074D02*
X24986128Y30515165D01*
X23854757Y31646536D01*
X24243666Y32035445D01*
X25375037Y30904074D01*
X25375037Y30904074D01*
G37*
G36*
X25940723Y31469759D02*
X25551814Y31080850D01*
X24420443Y32212221D01*
X24809352Y32601130D01*
X25940723Y31469759D01*
X25940723Y31469759D01*
G37*
G36*
X26506408Y32035445D02*
X26117499Y31646536D01*
X24986128Y32777907D01*
X25375037Y33166816D01*
X26506408Y32035445D01*
X26506408Y32035445D01*
G37*
G36*
X27072093Y32601130D02*
X26683184Y32212221D01*
X25551813Y33343592D01*
X25940722Y33732501D01*
X27072093Y32601130D01*
X27072093Y32601130D01*
G37*
G36*
X27637779Y33166816D02*
X27248870Y32777907D01*
X26117499Y33909278D01*
X26506408Y34298187D01*
X27637779Y33166816D01*
X27637779Y33166816D01*
G37*
G36*
X28203464Y33732501D02*
X27814555Y33343592D01*
X26683184Y34474963D01*
X27072093Y34863872D01*
X28203464Y33732501D01*
X28203464Y33732501D01*
G37*
G36*
X28769150Y34298186D02*
X28380241Y33909277D01*
X27248870Y35040648D01*
X27637779Y35429557D01*
X28769150Y34298186D01*
X28769150Y34298186D01*
G37*
G36*
X29334835Y34863872D02*
X28945926Y34474963D01*
X27814555Y35606334D01*
X28203464Y35995243D01*
X29334835Y34863872D01*
X29334835Y34863872D01*
G37*
D15*
X33656000Y24938000D03*
X36956000Y24938000D03*
M02*
