G04 #@! TF.FileFunction,Legend,Bot*
%FSLAX46Y46*%
G04 Gerber Fmt 4.6, Leading zero omitted, Abs format (unit mm)*
G04 Created by KiCad (PCBNEW 4.0.7-e2-6376~58~ubuntu16.04.1) date Fri Jan 12 15:29:44 2018*
%MOMM*%
%LPD*%
G01*
G04 APERTURE LIST*
%ADD10C,0.100000*%
%ADD11C,0.200000*%
%ADD12C,0.300000*%
%ADD13C,0.250000*%
%ADD14C,0.120000*%
%ADD15C,0.010000*%
%ADD16C,0.150000*%
%ADD17R,1.200000X1.150000*%
%ADD18R,1.150000X1.200000*%
%ADD19C,2.540000*%
%ADD20R,2.100000X2.100000*%
%ADD21C,2.100000*%
%ADD22R,1.370000X1.670000*%
%ADD23R,4.400000X1.670000*%
%ADD24R,1.670000X4.400000*%
%ADD25C,2.600000*%
%ADD26C,3.100000*%
%ADD27R,0.900000X1.300000*%
%ADD28R,1.300000X1.600000*%
G04 APERTURE END LIST*
D10*
D11*
X21590714Y55918000D02*
X21685952Y55965619D01*
X21828809Y55965619D01*
X21971667Y55918000D01*
X22066905Y55822762D01*
X22114524Y55727524D01*
X22162143Y55537048D01*
X22162143Y55394190D01*
X22114524Y55203714D01*
X22066905Y55108476D01*
X21971667Y55013238D01*
X21828809Y54965619D01*
X21733571Y54965619D01*
X21590714Y55013238D01*
X21543095Y55060857D01*
X21543095Y55394190D01*
X21733571Y55394190D01*
X21114524Y54965619D02*
X21114524Y55965619D01*
X20543095Y54965619D01*
X20543095Y55965619D01*
X20066905Y54965619D02*
X20066905Y55965619D01*
X19828810Y55965619D01*
X19685952Y55918000D01*
X19590714Y55822762D01*
X19543095Y55727524D01*
X19495476Y55537048D01*
X19495476Y55394190D01*
X19543095Y55203714D01*
X19590714Y55108476D01*
X19685952Y55013238D01*
X19828810Y54965619D01*
X20066905Y54965619D01*
X5636714Y55965619D02*
X6112905Y55965619D01*
X6160524Y55489429D01*
X6112905Y55537048D01*
X6017667Y55584667D01*
X5779571Y55584667D01*
X5684333Y55537048D01*
X5636714Y55489429D01*
X5589095Y55394190D01*
X5589095Y55156095D01*
X5636714Y55060857D01*
X5684333Y55013238D01*
X5779571Y54965619D01*
X6017667Y54965619D01*
X6112905Y55013238D01*
X6160524Y55060857D01*
X5303381Y55965619D02*
X4970048Y54965619D01*
X4636714Y55965619D01*
X21209762Y57632619D02*
X21543096Y58108810D01*
X21781191Y57632619D02*
X21781191Y58632619D01*
X21400238Y58632619D01*
X21305000Y58585000D01*
X21257381Y58537381D01*
X21209762Y58442143D01*
X21209762Y58299286D01*
X21257381Y58204048D01*
X21305000Y58156429D01*
X21400238Y58108810D01*
X21781191Y58108810D01*
X20828810Y57680238D02*
X20685953Y57632619D01*
X20447857Y57632619D01*
X20352619Y57680238D01*
X20305000Y57727857D01*
X20257381Y57823095D01*
X20257381Y57918333D01*
X20305000Y58013571D01*
X20352619Y58061190D01*
X20447857Y58108810D01*
X20638334Y58156429D01*
X20733572Y58204048D01*
X20781191Y58251667D01*
X20828810Y58346905D01*
X20828810Y58442143D01*
X20781191Y58537381D01*
X20733572Y58585000D01*
X20638334Y58632619D01*
X20400238Y58632619D01*
X20257381Y58585000D01*
X19971667Y58632619D02*
X19400238Y58632619D01*
X19685953Y57632619D02*
X19685953Y58632619D01*
X10478524Y57680238D02*
X10335667Y57632619D01*
X10097571Y57632619D01*
X10002333Y57680238D01*
X9954714Y57727857D01*
X9907095Y57823095D01*
X9907095Y57918333D01*
X9954714Y58013571D01*
X10002333Y58061190D01*
X10097571Y58108810D01*
X10288048Y58156429D01*
X10383286Y58204048D01*
X10430905Y58251667D01*
X10478524Y58346905D01*
X10478524Y58442143D01*
X10430905Y58537381D01*
X10383286Y58585000D01*
X10288048Y58632619D01*
X10049952Y58632619D01*
X9907095Y58585000D01*
X8907095Y57727857D02*
X8954714Y57680238D01*
X9097571Y57632619D01*
X9192809Y57632619D01*
X9335667Y57680238D01*
X9430905Y57775476D01*
X9478524Y57870714D01*
X9526143Y58061190D01*
X9526143Y58204048D01*
X9478524Y58394524D01*
X9430905Y58489762D01*
X9335667Y58585000D01*
X9192809Y58632619D01*
X9097571Y58632619D01*
X8954714Y58585000D01*
X8907095Y58537381D01*
X8478524Y57632619D02*
X8478524Y58632619D01*
X7907095Y57632619D02*
X8335667Y58204048D01*
X7907095Y58632619D02*
X8478524Y58061190D01*
X6112905Y57632619D02*
X6112905Y58632619D01*
X5779571Y57918333D01*
X5446238Y58632619D01*
X5446238Y57632619D01*
X4970048Y57632619D02*
X4970048Y58632619D01*
X4541477Y57680238D02*
X4398620Y57632619D01*
X4160524Y57632619D01*
X4065286Y57680238D01*
X4017667Y57727857D01*
X3970048Y57823095D01*
X3970048Y57918333D01*
X4017667Y58013571D01*
X4065286Y58061190D01*
X4160524Y58108810D01*
X4351001Y58156429D01*
X4446239Y58204048D01*
X4493858Y58251667D01*
X4541477Y58346905D01*
X4541477Y58442143D01*
X4493858Y58537381D01*
X4446239Y58585000D01*
X4351001Y58632619D01*
X4112905Y58632619D01*
X3970048Y58585000D01*
X3351001Y58632619D02*
X3160524Y58632619D01*
X3065286Y58585000D01*
X2970048Y58489762D01*
X2922429Y58299286D01*
X2922429Y57965952D01*
X2970048Y57775476D01*
X3065286Y57680238D01*
X3160524Y57632619D01*
X3351001Y57632619D01*
X3446239Y57680238D01*
X3541477Y57775476D01*
X3589096Y57965952D01*
X3589096Y58299286D01*
X3541477Y58489762D01*
X3446239Y58585000D01*
X3351001Y58632619D01*
X10430905Y54965619D02*
X10430905Y55965619D01*
X10097571Y55251333D01*
X9764238Y55965619D01*
X9764238Y54965619D01*
X9097572Y55965619D02*
X8907095Y55965619D01*
X8811857Y55918000D01*
X8716619Y55822762D01*
X8669000Y55632286D01*
X8669000Y55298952D01*
X8716619Y55108476D01*
X8811857Y55013238D01*
X8907095Y54965619D01*
X9097572Y54965619D01*
X9192810Y55013238D01*
X9288048Y55108476D01*
X9335667Y55298952D01*
X9335667Y55632286D01*
X9288048Y55822762D01*
X9192810Y55918000D01*
X9097572Y55965619D01*
X8288048Y55013238D02*
X8145191Y54965619D01*
X7907095Y54965619D01*
X7811857Y55013238D01*
X7764238Y55060857D01*
X7716619Y55156095D01*
X7716619Y55251333D01*
X7764238Y55346571D01*
X7811857Y55394190D01*
X7907095Y55441810D01*
X8097572Y55489429D01*
X8192810Y55537048D01*
X8240429Y55584667D01*
X8288048Y55679905D01*
X8288048Y55775143D01*
X8240429Y55870381D01*
X8192810Y55918000D01*
X8097572Y55965619D01*
X7859476Y55965619D01*
X7716619Y55918000D01*
X7288048Y54965619D02*
X7288048Y55965619D01*
D12*
X16451285Y52072429D02*
X16451285Y53572429D01*
X15808428Y52143857D02*
X15594142Y52072429D01*
X15236999Y52072429D01*
X15094142Y52143857D01*
X15022713Y52215286D01*
X14951285Y52358143D01*
X14951285Y52501000D01*
X15022713Y52643857D01*
X15094142Y52715286D01*
X15236999Y52786714D01*
X15522713Y52858143D01*
X15665571Y52929571D01*
X15736999Y53001000D01*
X15808428Y53143857D01*
X15808428Y53286714D01*
X15736999Y53429571D01*
X15665571Y53501000D01*
X15522713Y53572429D01*
X15165571Y53572429D01*
X14951285Y53501000D01*
X14308428Y52072429D02*
X14308428Y53572429D01*
X13737000Y53572429D01*
X13594142Y53501000D01*
X13522714Y53429571D01*
X13451285Y53286714D01*
X13451285Y53072429D01*
X13522714Y52929571D01*
X13594142Y52858143D01*
X13737000Y52786714D01*
X14308428Y52786714D01*
X45843940Y6423714D02*
X45457035Y4757048D01*
X44653464Y6423714D01*
X43120725Y7257048D02*
X42882630Y7257048D01*
X42659416Y7138000D01*
X42555249Y7018952D01*
X42465964Y6780857D01*
X42406440Y6304667D01*
X42480844Y5709429D01*
X42659416Y5233238D01*
X42808225Y4995143D01*
X42942154Y4876095D01*
X43195130Y4757048D01*
X43433225Y4757048D01*
X43656440Y4876095D01*
X43760606Y4995143D01*
X43849892Y5233238D01*
X43909416Y5709429D01*
X43835012Y6304667D01*
X43656440Y6780857D01*
X43507630Y7018952D01*
X43373702Y7138000D01*
X43120725Y7257048D01*
X41498702Y4995143D02*
X41394535Y4876095D01*
X41528464Y4757048D01*
X41632631Y4876095D01*
X41498702Y4995143D01*
X41528464Y4757048D01*
X40218940Y4757048D02*
X39742750Y4757048D01*
X39489774Y4876095D01*
X39355845Y4995143D01*
X39073107Y5352286D01*
X38894535Y5828476D01*
X38775488Y6780857D01*
X38864774Y7018952D01*
X38968940Y7138000D01*
X39192155Y7257048D01*
X39668345Y7257048D01*
X39921321Y7138000D01*
X40055250Y7018952D01*
X40204060Y6780857D01*
X40278465Y6185619D01*
X40189178Y5947524D01*
X40085011Y5828476D01*
X39861797Y5709429D01*
X39385607Y5709429D01*
X39132630Y5828476D01*
X38998702Y5947524D01*
X38849893Y6185619D01*
X36573107Y7257048D02*
X37049298Y7257048D01*
X37302274Y7138000D01*
X37436203Y7018952D01*
X37718941Y6661810D01*
X37897513Y6185619D01*
X38016560Y5233238D01*
X37927274Y4995143D01*
X37823107Y4876095D01*
X37599893Y4757048D01*
X37123703Y4757048D01*
X36870726Y4876095D01*
X36736798Y4995143D01*
X36587988Y5233238D01*
X36513583Y5828476D01*
X36602870Y6066571D01*
X36707036Y6185619D01*
X36930251Y6304667D01*
X37406441Y6304667D01*
X37659417Y6185619D01*
X37793346Y6066571D01*
X37942155Y5828476D01*
D11*
X23023714Y14743143D02*
X22795142Y14743143D01*
X22673714Y14800286D01*
X22609428Y14857429D01*
X22473714Y15028857D01*
X22387999Y15257429D01*
X22330857Y15714571D01*
X22373714Y15828857D01*
X22423714Y15886000D01*
X22530857Y15943143D01*
X22759428Y15943143D01*
X22880857Y15886000D01*
X22945143Y15828857D01*
X23016572Y15714571D01*
X23052286Y15428857D01*
X23009429Y15314571D01*
X22959428Y15257429D01*
X22852285Y15200286D01*
X22623714Y15200286D01*
X22502285Y15257429D01*
X22438000Y15314571D01*
X22366571Y15428857D01*
X20923714Y16000286D02*
X22145142Y14457429D01*
X20602286Y15828857D02*
X20538000Y15886000D01*
X20416571Y15943143D01*
X20130857Y15943143D01*
X20023714Y15886000D01*
X19973714Y15828857D01*
X19930857Y15714571D01*
X19945142Y15600286D01*
X20023714Y15428857D01*
X20795142Y14743143D01*
X20052285Y14743143D01*
X19159428Y15943143D02*
X19045143Y15943143D01*
X18938000Y15886000D01*
X18888000Y15828857D01*
X18845143Y15714571D01*
X18816571Y15486000D01*
X18852285Y15200286D01*
X18938000Y14971714D01*
X19009428Y14857429D01*
X19073714Y14800286D01*
X19195143Y14743143D01*
X19309428Y14743143D01*
X19416571Y14800286D01*
X19466571Y14857429D01*
X19509429Y14971714D01*
X19538000Y15200286D01*
X19502286Y15486000D01*
X19416572Y15714571D01*
X19345143Y15828857D01*
X19280857Y15886000D01*
X19159428Y15943143D01*
X17766571Y14743143D02*
X18452286Y14743143D01*
X18109428Y14743143D02*
X17959428Y15943143D01*
X18095143Y15771714D01*
X18223714Y15657429D01*
X18345143Y15600286D01*
X17216571Y15943143D02*
X16416571Y15943143D01*
X17080857Y14743143D01*
D12*
X24702571Y16385429D02*
X24845429Y16456857D01*
X24916857Y16599714D01*
X24916857Y17885429D01*
X23559715Y16456857D02*
X23702572Y16385429D01*
X23988286Y16385429D01*
X24131143Y16456857D01*
X24202572Y16599714D01*
X24202572Y17171143D01*
X24131143Y17314000D01*
X23988286Y17385429D01*
X23702572Y17385429D01*
X23559715Y17314000D01*
X23488286Y17171143D01*
X23488286Y17028286D01*
X24202572Y16885429D01*
X22631143Y16385429D02*
X22774001Y16456857D01*
X22845429Y16599714D01*
X22845429Y17885429D01*
X21416858Y16385429D02*
X21416858Y17171143D01*
X21488287Y17314000D01*
X21631144Y17385429D01*
X21916858Y17385429D01*
X22059715Y17314000D01*
X21416858Y16456857D02*
X21559715Y16385429D01*
X21916858Y16385429D01*
X22059715Y16456857D01*
X22131144Y16599714D01*
X22131144Y16742571D01*
X22059715Y16885429D01*
X21916858Y16956857D01*
X21559715Y16956857D01*
X21416858Y17028286D01*
X20702572Y16385429D02*
X20702572Y17885429D01*
X20702572Y17314000D02*
X20559715Y17385429D01*
X20274001Y17385429D01*
X20131144Y17314000D01*
X20059715Y17242571D01*
X19988286Y17099714D01*
X19988286Y16671143D01*
X20059715Y16528286D01*
X20131144Y16456857D01*
X20274001Y16385429D01*
X20559715Y16385429D01*
X20702572Y16456857D01*
X19131143Y16385429D02*
X19274001Y16456857D01*
X19345429Y16528286D01*
X19416858Y16671143D01*
X19416858Y17099714D01*
X19345429Y17242571D01*
X19274001Y17314000D01*
X19131143Y17385429D01*
X18916858Y17385429D01*
X18774001Y17314000D01*
X18702572Y17242571D01*
X18631143Y17099714D01*
X18631143Y16671143D01*
X18702572Y16528286D01*
X18774001Y16456857D01*
X18916858Y16385429D01*
X19131143Y16385429D01*
X17345429Y16385429D02*
X17345429Y17885429D01*
X17345429Y16456857D02*
X17488286Y16385429D01*
X17774000Y16385429D01*
X17916858Y16456857D01*
X17988286Y16528286D01*
X18059715Y16671143D01*
X18059715Y17099714D01*
X17988286Y17242571D01*
X17916858Y17314000D01*
X17774000Y17385429D01*
X17488286Y17385429D01*
X17345429Y17314000D01*
X15988286Y17385429D02*
X15988286Y16385429D01*
X16631143Y17385429D02*
X16631143Y16599714D01*
X16559715Y16456857D01*
X16416857Y16385429D01*
X16202572Y16385429D01*
X16059715Y16456857D01*
X15988286Y16528286D01*
X15488286Y17385429D02*
X14916857Y17385429D01*
X15274000Y17885429D02*
X15274000Y16599714D01*
X15202572Y16456857D01*
X15059714Y16385429D01*
X14916857Y16385429D01*
X14416857Y16385429D02*
X14416857Y17385429D01*
X14416857Y17099714D02*
X14345429Y17242571D01*
X14274000Y17314000D01*
X14131143Y17385429D01*
X13988286Y17385429D01*
X13274000Y16385429D02*
X13416858Y16456857D01*
X13488286Y16528286D01*
X13559715Y16671143D01*
X13559715Y17099714D01*
X13488286Y17242571D01*
X13416858Y17314000D01*
X13274000Y17385429D01*
X13059715Y17385429D01*
X12916858Y17314000D01*
X12845429Y17242571D01*
X12774000Y17099714D01*
X12774000Y16671143D01*
X12845429Y16528286D01*
X12916858Y16456857D01*
X13059715Y16385429D01*
X13274000Y16385429D01*
X12131143Y16385429D02*
X12131143Y17385429D01*
X12131143Y17885429D02*
X12202572Y17814000D01*
X12131143Y17742571D01*
X12059715Y17814000D01*
X12131143Y17885429D01*
X12131143Y17742571D01*
X11488286Y16456857D02*
X11345429Y16385429D01*
X11059714Y16385429D01*
X10916857Y16456857D01*
X10845429Y16599714D01*
X10845429Y16671143D01*
X10916857Y16814000D01*
X11059714Y16885429D01*
X11274000Y16885429D01*
X11416857Y16956857D01*
X11488286Y17099714D01*
X11488286Y17171143D01*
X11416857Y17314000D01*
X11274000Y17385429D01*
X11059714Y17385429D01*
X10916857Y17314000D01*
X10202571Y16385429D02*
X10202571Y17385429D01*
X10202571Y17885429D02*
X10274000Y17814000D01*
X10202571Y17742571D01*
X10131143Y17814000D01*
X10202571Y17885429D01*
X10202571Y17742571D01*
X8916857Y16456857D02*
X9059714Y16385429D01*
X9345428Y16385429D01*
X9488285Y16456857D01*
X9559714Y16599714D01*
X9559714Y17171143D01*
X9488285Y17314000D01*
X9345428Y17385429D01*
X9059714Y17385429D01*
X8916857Y17314000D01*
X8845428Y17171143D01*
X8845428Y17028286D01*
X9559714Y16885429D01*
X8202571Y16385429D02*
X8202571Y17385429D01*
X8202571Y17242571D02*
X8131143Y17314000D01*
X7988285Y17385429D01*
X7774000Y17385429D01*
X7631143Y17314000D01*
X7559714Y17171143D01*
X7559714Y16385429D01*
X7559714Y17171143D02*
X7488285Y17314000D01*
X7345428Y17385429D01*
X7131143Y17385429D01*
X6988285Y17314000D01*
X6916857Y17171143D01*
X6916857Y16385429D01*
X5631143Y16456857D02*
X5774000Y16385429D01*
X6059714Y16385429D01*
X6202571Y16456857D01*
X6274000Y16599714D01*
X6274000Y17171143D01*
X6202571Y17314000D01*
X6059714Y17385429D01*
X5774000Y17385429D01*
X5631143Y17314000D01*
X5559714Y17171143D01*
X5559714Y17028286D01*
X6274000Y16885429D01*
X4916857Y16528286D02*
X4845429Y16456857D01*
X4916857Y16385429D01*
X4988286Y16456857D01*
X4916857Y16528286D01*
X4916857Y16385429D01*
X4416857Y17385429D02*
X3845428Y17385429D01*
X4202571Y16385429D02*
X4202571Y17671143D01*
X4131143Y17814000D01*
X3988285Y17885429D01*
X3845428Y17885429D01*
X3345428Y16385429D02*
X3345428Y17385429D01*
X3345428Y17099714D02*
X3274000Y17242571D01*
X3202571Y17314000D01*
X3059714Y17385429D01*
X2916857Y17385429D01*
D13*
X43244524Y29724333D02*
X42768333Y29724333D01*
X43339762Y29438619D02*
X43006429Y30438619D01*
X42673095Y29438619D01*
X42339762Y29438619D02*
X42339762Y30438619D01*
X42101667Y30438619D01*
X41958809Y30391000D01*
X41863571Y30295762D01*
X41815952Y30200524D01*
X41768333Y30010048D01*
X41768333Y29867190D01*
X41815952Y29676714D01*
X41863571Y29581476D01*
X41958809Y29486238D01*
X42101667Y29438619D01*
X42339762Y29438619D01*
X41339762Y29438619D02*
X41339762Y30438619D01*
X41101667Y30438619D01*
X40958809Y30391000D01*
X40863571Y30295762D01*
X40815952Y30200524D01*
X40768333Y30010048D01*
X40768333Y29867190D01*
X40815952Y29676714D01*
X40863571Y29581476D01*
X40958809Y29486238D01*
X41101667Y29438619D01*
X41339762Y29438619D01*
X39768333Y29438619D02*
X40101667Y29914810D01*
X40339762Y29438619D02*
X40339762Y30438619D01*
X39958809Y30438619D01*
X39863571Y30391000D01*
X39815952Y30343381D01*
X39768333Y30248143D01*
X39768333Y30105286D01*
X39815952Y30010048D01*
X39863571Y29962429D01*
X39958809Y29914810D01*
X40339762Y29914810D01*
X39387381Y30343381D02*
X39339762Y30391000D01*
X39244524Y30438619D01*
X39006428Y30438619D01*
X38911190Y30391000D01*
X38863571Y30343381D01*
X38815952Y30248143D01*
X38815952Y30152905D01*
X38863571Y30010048D01*
X39435000Y29438619D01*
X38815952Y29438619D01*
X43244524Y24644333D02*
X42768333Y24644333D01*
X43339762Y24358619D02*
X43006429Y25358619D01*
X42673095Y24358619D01*
X42339762Y24358619D02*
X42339762Y25358619D01*
X42101667Y25358619D01*
X41958809Y25311000D01*
X41863571Y25215762D01*
X41815952Y25120524D01*
X41768333Y24930048D01*
X41768333Y24787190D01*
X41815952Y24596714D01*
X41863571Y24501476D01*
X41958809Y24406238D01*
X42101667Y24358619D01*
X42339762Y24358619D01*
X41339762Y24358619D02*
X41339762Y25358619D01*
X41101667Y25358619D01*
X40958809Y25311000D01*
X40863571Y25215762D01*
X40815952Y25120524D01*
X40768333Y24930048D01*
X40768333Y24787190D01*
X40815952Y24596714D01*
X40863571Y24501476D01*
X40958809Y24406238D01*
X41101667Y24358619D01*
X41339762Y24358619D01*
X39768333Y24358619D02*
X40101667Y24834810D01*
X40339762Y24358619D02*
X40339762Y25358619D01*
X39958809Y25358619D01*
X39863571Y25311000D01*
X39815952Y25263381D01*
X39768333Y25168143D01*
X39768333Y25025286D01*
X39815952Y24930048D01*
X39863571Y24882429D01*
X39958809Y24834810D01*
X40339762Y24834810D01*
X38911190Y25025286D02*
X38911190Y24358619D01*
X39149286Y25406238D02*
X39387381Y24691952D01*
X38768333Y24691952D01*
X43244524Y27184333D02*
X42768333Y27184333D01*
X43339762Y26898619D02*
X43006429Y27898619D01*
X42673095Y26898619D01*
X42339762Y26898619D02*
X42339762Y27898619D01*
X42101667Y27898619D01*
X41958809Y27851000D01*
X41863571Y27755762D01*
X41815952Y27660524D01*
X41768333Y27470048D01*
X41768333Y27327190D01*
X41815952Y27136714D01*
X41863571Y27041476D01*
X41958809Y26946238D01*
X42101667Y26898619D01*
X42339762Y26898619D01*
X41339762Y26898619D02*
X41339762Y27898619D01*
X41101667Y27898619D01*
X40958809Y27851000D01*
X40863571Y27755762D01*
X40815952Y27660524D01*
X40768333Y27470048D01*
X40768333Y27327190D01*
X40815952Y27136714D01*
X40863571Y27041476D01*
X40958809Y26946238D01*
X41101667Y26898619D01*
X41339762Y26898619D01*
X39768333Y26898619D02*
X40101667Y27374810D01*
X40339762Y26898619D02*
X40339762Y27898619D01*
X39958809Y27898619D01*
X39863571Y27851000D01*
X39815952Y27803381D01*
X39768333Y27708143D01*
X39768333Y27565286D01*
X39815952Y27470048D01*
X39863571Y27422429D01*
X39958809Y27374810D01*
X40339762Y27374810D01*
X39435000Y27898619D02*
X38815952Y27898619D01*
X39149286Y27517667D01*
X39006428Y27517667D01*
X38911190Y27470048D01*
X38863571Y27422429D01*
X38815952Y27327190D01*
X38815952Y27089095D01*
X38863571Y26993857D01*
X38911190Y26946238D01*
X39006428Y26898619D01*
X39292143Y26898619D01*
X39387381Y26946238D01*
X39435000Y26993857D01*
X43244524Y32264333D02*
X42768333Y32264333D01*
X43339762Y31978619D02*
X43006429Y32978619D01*
X42673095Y31978619D01*
X42339762Y31978619D02*
X42339762Y32978619D01*
X42101667Y32978619D01*
X41958809Y32931000D01*
X41863571Y32835762D01*
X41815952Y32740524D01*
X41768333Y32550048D01*
X41768333Y32407190D01*
X41815952Y32216714D01*
X41863571Y32121476D01*
X41958809Y32026238D01*
X42101667Y31978619D01*
X42339762Y31978619D01*
X41339762Y31978619D02*
X41339762Y32978619D01*
X41101667Y32978619D01*
X40958809Y32931000D01*
X40863571Y32835762D01*
X40815952Y32740524D01*
X40768333Y32550048D01*
X40768333Y32407190D01*
X40815952Y32216714D01*
X40863571Y32121476D01*
X40958809Y32026238D01*
X41101667Y31978619D01*
X41339762Y31978619D01*
X39768333Y31978619D02*
X40101667Y32454810D01*
X40339762Y31978619D02*
X40339762Y32978619D01*
X39958809Y32978619D01*
X39863571Y32931000D01*
X39815952Y32883381D01*
X39768333Y32788143D01*
X39768333Y32645286D01*
X39815952Y32550048D01*
X39863571Y32502429D01*
X39958809Y32454810D01*
X40339762Y32454810D01*
X38815952Y31978619D02*
X39387381Y31978619D01*
X39101667Y31978619D02*
X39101667Y32978619D01*
X39196905Y32835762D01*
X39292143Y32740524D01*
X39387381Y32692905D01*
X43244524Y34804333D02*
X42768333Y34804333D01*
X43339762Y34518619D02*
X43006429Y35518619D01*
X42673095Y34518619D01*
X42339762Y34518619D02*
X42339762Y35518619D01*
X42101667Y35518619D01*
X41958809Y35471000D01*
X41863571Y35375762D01*
X41815952Y35280524D01*
X41768333Y35090048D01*
X41768333Y34947190D01*
X41815952Y34756714D01*
X41863571Y34661476D01*
X41958809Y34566238D01*
X42101667Y34518619D01*
X42339762Y34518619D01*
X41339762Y34518619D02*
X41339762Y35518619D01*
X41101667Y35518619D01*
X40958809Y35471000D01*
X40863571Y35375762D01*
X40815952Y35280524D01*
X40768333Y35090048D01*
X40768333Y34947190D01*
X40815952Y34756714D01*
X40863571Y34661476D01*
X40958809Y34566238D01*
X41101667Y34518619D01*
X41339762Y34518619D01*
X39768333Y34518619D02*
X40101667Y34994810D01*
X40339762Y34518619D02*
X40339762Y35518619D01*
X39958809Y35518619D01*
X39863571Y35471000D01*
X39815952Y35423381D01*
X39768333Y35328143D01*
X39768333Y35185286D01*
X39815952Y35090048D01*
X39863571Y35042429D01*
X39958809Y34994810D01*
X40339762Y34994810D01*
X39149286Y35518619D02*
X39054047Y35518619D01*
X38958809Y35471000D01*
X38911190Y35423381D01*
X38863571Y35328143D01*
X38815952Y35137667D01*
X38815952Y34899571D01*
X38863571Y34709095D01*
X38911190Y34613857D01*
X38958809Y34566238D01*
X39054047Y34518619D01*
X39149286Y34518619D01*
X39244524Y34566238D01*
X39292143Y34613857D01*
X39339762Y34709095D01*
X39387381Y34899571D01*
X39387381Y35137667D01*
X39339762Y35328143D01*
X39292143Y35423381D01*
X39244524Y35471000D01*
X39149286Y35518619D01*
X24440619Y53751381D02*
X25440619Y53751381D01*
X24440619Y54227571D02*
X25440619Y54227571D01*
X24440619Y54799000D01*
X25440619Y54799000D01*
X25440619Y55132333D02*
X25440619Y55703762D01*
X24440619Y55418047D02*
X25440619Y55418047D01*
X27980619Y53179762D02*
X27980619Y52703571D01*
X27504429Y52655952D01*
X27552048Y52703571D01*
X27599667Y52798809D01*
X27599667Y53036905D01*
X27552048Y53132143D01*
X27504429Y53179762D01*
X27409190Y53227381D01*
X27171095Y53227381D01*
X27075857Y53179762D01*
X27028238Y53132143D01*
X26980619Y53036905D01*
X26980619Y52798809D01*
X27028238Y52703571D01*
X27075857Y52655952D01*
X27980619Y53513095D02*
X26980619Y53846428D01*
X27980619Y54179762D01*
X34648238Y53179952D02*
X34600619Y53322809D01*
X34600619Y53560905D01*
X34648238Y53656143D01*
X34695857Y53703762D01*
X34791095Y53751381D01*
X34886333Y53751381D01*
X34981571Y53703762D01*
X35029190Y53656143D01*
X35076810Y53560905D01*
X35124429Y53370428D01*
X35172048Y53275190D01*
X35219667Y53227571D01*
X35314905Y53179952D01*
X35410143Y53179952D01*
X35505381Y53227571D01*
X35553000Y53275190D01*
X35600619Y53370428D01*
X35600619Y53608524D01*
X35553000Y53751381D01*
X34600619Y54179952D02*
X35600619Y54179952D01*
X35600619Y54418047D01*
X35553000Y54560905D01*
X35457762Y54656143D01*
X35362524Y54703762D01*
X35172048Y54751381D01*
X35029190Y54751381D01*
X34838714Y54703762D01*
X34743476Y54656143D01*
X34648238Y54560905D01*
X34600619Y54418047D01*
X34600619Y54179952D01*
X34886333Y55132333D02*
X34886333Y55608524D01*
X34600619Y55037095D02*
X35600619Y55370428D01*
X34600619Y55703762D01*
X32108238Y53227571D02*
X32060619Y53370428D01*
X32060619Y53608524D01*
X32108238Y53703762D01*
X32155857Y53751381D01*
X32251095Y53799000D01*
X32346333Y53799000D01*
X32441571Y53751381D01*
X32489190Y53703762D01*
X32536810Y53608524D01*
X32584429Y53418047D01*
X32632048Y53322809D01*
X32679667Y53275190D01*
X32774905Y53227571D01*
X32870143Y53227571D01*
X32965381Y53275190D01*
X33013000Y53322809D01*
X33060619Y53418047D01*
X33060619Y53656143D01*
X33013000Y53799000D01*
X32155857Y54799000D02*
X32108238Y54751381D01*
X32060619Y54608524D01*
X32060619Y54513286D01*
X32108238Y54370428D01*
X32203476Y54275190D01*
X32298714Y54227571D01*
X32489190Y54179952D01*
X32632048Y54179952D01*
X32822524Y54227571D01*
X32917762Y54275190D01*
X33013000Y54370428D01*
X33060619Y54513286D01*
X33060619Y54608524D01*
X33013000Y54751381D01*
X32965381Y54799000D01*
X32060619Y55703762D02*
X32060619Y55227571D01*
X33060619Y55227571D01*
X30473000Y51989286D02*
X30520619Y51894048D01*
X30520619Y51751191D01*
X30473000Y51608333D01*
X30377762Y51513095D01*
X30282524Y51465476D01*
X30092048Y51417857D01*
X29949190Y51417857D01*
X29758714Y51465476D01*
X29663476Y51513095D01*
X29568238Y51608333D01*
X29520619Y51751191D01*
X29520619Y51846429D01*
X29568238Y51989286D01*
X29615857Y52036905D01*
X29949190Y52036905D01*
X29949190Y51846429D01*
X29520619Y52465476D02*
X30520619Y52465476D01*
X29520619Y53036905D01*
X30520619Y53036905D01*
X29520619Y53513095D02*
X30520619Y53513095D01*
X30520619Y53751190D01*
X30473000Y53894048D01*
X30377762Y53989286D01*
X30282524Y54036905D01*
X30092048Y54084524D01*
X29949190Y54084524D01*
X29758714Y54036905D01*
X29663476Y53989286D01*
X29568238Y53894048D01*
X29520619Y53751190D01*
X29520619Y53513095D01*
X32108238Y4427476D02*
X32060619Y4570333D01*
X32060619Y4808429D01*
X32108238Y4903667D01*
X32155857Y4951286D01*
X32251095Y4998905D01*
X32346333Y4998905D01*
X32441571Y4951286D01*
X32489190Y4903667D01*
X32536810Y4808429D01*
X32584429Y4617952D01*
X32632048Y4522714D01*
X32679667Y4475095D01*
X32774905Y4427476D01*
X32870143Y4427476D01*
X32965381Y4475095D01*
X33013000Y4522714D01*
X33060619Y4617952D01*
X33060619Y4856048D01*
X33013000Y4998905D01*
X32155857Y5998905D02*
X32108238Y5951286D01*
X32060619Y5808429D01*
X32060619Y5713191D01*
X32108238Y5570333D01*
X32203476Y5475095D01*
X32298714Y5427476D01*
X32489190Y5379857D01*
X32632048Y5379857D01*
X32822524Y5427476D01*
X32917762Y5475095D01*
X33013000Y5570333D01*
X33060619Y5713191D01*
X33060619Y5808429D01*
X33013000Y5951286D01*
X32965381Y5998905D01*
X32060619Y6903667D02*
X32060619Y6427476D01*
X33060619Y6427476D01*
X27980619Y6602286D02*
X27980619Y6126095D01*
X27504429Y6078476D01*
X27552048Y6126095D01*
X27599667Y6221333D01*
X27599667Y6459429D01*
X27552048Y6554667D01*
X27504429Y6602286D01*
X27409190Y6649905D01*
X27171095Y6649905D01*
X27075857Y6602286D01*
X27028238Y6554667D01*
X26980619Y6459429D01*
X26980619Y6221333D01*
X27028238Y6126095D01*
X27075857Y6078476D01*
X27980619Y6935619D02*
X26980619Y7268952D01*
X27980619Y7602286D01*
X30473000Y6522905D02*
X30520619Y6427667D01*
X30520619Y6284810D01*
X30473000Y6141952D01*
X30377762Y6046714D01*
X30282524Y5999095D01*
X30092048Y5951476D01*
X29949190Y5951476D01*
X29758714Y5999095D01*
X29663476Y6046714D01*
X29568238Y6141952D01*
X29520619Y6284810D01*
X29520619Y6380048D01*
X29568238Y6522905D01*
X29615857Y6570524D01*
X29949190Y6570524D01*
X29949190Y6380048D01*
X29520619Y6999095D02*
X30520619Y6999095D01*
X29520619Y7570524D01*
X30520619Y7570524D01*
X29520619Y8046714D02*
X30520619Y8046714D01*
X30520619Y8284809D01*
X30473000Y8427667D01*
X30377762Y8522905D01*
X30282524Y8570524D01*
X30092048Y8618143D01*
X29949190Y8618143D01*
X29758714Y8570524D01*
X29663476Y8522905D01*
X29568238Y8427667D01*
X29520619Y8284809D01*
X29520619Y8046714D01*
X24440619Y4475095D02*
X25440619Y4475095D01*
X24440619Y4951285D02*
X25440619Y4951285D01*
X24440619Y5522714D01*
X25440619Y5522714D01*
X25440619Y5856047D02*
X25440619Y6427476D01*
X24440619Y6141761D02*
X25440619Y6141761D01*
X34648238Y4427476D02*
X34600619Y4570333D01*
X34600619Y4808429D01*
X34648238Y4903667D01*
X34695857Y4951286D01*
X34791095Y4998905D01*
X34886333Y4998905D01*
X34981571Y4951286D01*
X35029190Y4903667D01*
X35076810Y4808429D01*
X35124429Y4617952D01*
X35172048Y4522714D01*
X35219667Y4475095D01*
X35314905Y4427476D01*
X35410143Y4427476D01*
X35505381Y4475095D01*
X35553000Y4522714D01*
X35600619Y4617952D01*
X35600619Y4856048D01*
X35553000Y4998905D01*
X34600619Y5427476D02*
X35600619Y5427476D01*
X35600619Y5665571D01*
X35553000Y5808429D01*
X35457762Y5903667D01*
X35362524Y5951286D01*
X35172048Y5998905D01*
X35029190Y5998905D01*
X34838714Y5951286D01*
X34743476Y5903667D01*
X34648238Y5808429D01*
X34600619Y5665571D01*
X34600619Y5427476D01*
X34886333Y6379857D02*
X34886333Y6856048D01*
X34600619Y6284619D02*
X35600619Y6617952D01*
X34600619Y6951286D01*
X55261905Y24358619D02*
X55261905Y25358619D01*
X54785715Y24358619D02*
X54785715Y25358619D01*
X54214286Y24358619D01*
X54214286Y25358619D01*
X53880953Y25358619D02*
X53309524Y25358619D01*
X53595239Y24358619D02*
X53595239Y25358619D01*
X53515714Y28025619D02*
X53991905Y28025619D01*
X54039524Y27549429D01*
X53991905Y27597048D01*
X53896667Y27644667D01*
X53658571Y27644667D01*
X53563333Y27597048D01*
X53515714Y27549429D01*
X53468095Y27454190D01*
X53468095Y27216095D01*
X53515714Y27120857D01*
X53563333Y27073238D01*
X53658571Y27025619D01*
X53896667Y27025619D01*
X53991905Y27073238D01*
X54039524Y27120857D01*
X53182381Y28025619D02*
X52849048Y27025619D01*
X52515714Y28025619D01*
X53468095Y30518000D02*
X53563333Y30565619D01*
X53706190Y30565619D01*
X53849048Y30518000D01*
X53944286Y30422762D01*
X53991905Y30327524D01*
X54039524Y30137048D01*
X54039524Y29994190D01*
X53991905Y29803714D01*
X53944286Y29708476D01*
X53849048Y29613238D01*
X53706190Y29565619D01*
X53610952Y29565619D01*
X53468095Y29613238D01*
X53420476Y29660857D01*
X53420476Y29994190D01*
X53610952Y29994190D01*
X52991905Y29565619D02*
X52991905Y30565619D01*
X52420476Y29565619D01*
X52420476Y30565619D01*
X51944286Y29565619D02*
X51944286Y30565619D01*
X51706191Y30565619D01*
X51563333Y30518000D01*
X51468095Y30422762D01*
X51420476Y30327524D01*
X51372857Y30137048D01*
X51372857Y29994190D01*
X51420476Y29803714D01*
X51468095Y29708476D01*
X51563333Y29613238D01*
X51706191Y29565619D01*
X51944286Y29565619D01*
X55309524Y32026238D02*
X55166667Y31978619D01*
X54928571Y31978619D01*
X54833333Y32026238D01*
X54785714Y32073857D01*
X54738095Y32169095D01*
X54738095Y32264333D01*
X54785714Y32359571D01*
X54833333Y32407190D01*
X54928571Y32454810D01*
X55119048Y32502429D01*
X55214286Y32550048D01*
X55261905Y32597667D01*
X55309524Y32692905D01*
X55309524Y32788143D01*
X55261905Y32883381D01*
X55214286Y32931000D01*
X55119048Y32978619D01*
X54880952Y32978619D01*
X54738095Y32931000D01*
X53738095Y32073857D02*
X53785714Y32026238D01*
X53928571Y31978619D01*
X54023809Y31978619D01*
X54166667Y32026238D01*
X54261905Y32121476D01*
X54309524Y32216714D01*
X54357143Y32407190D01*
X54357143Y32550048D01*
X54309524Y32740524D01*
X54261905Y32835762D01*
X54166667Y32931000D01*
X54023809Y32978619D01*
X53928571Y32978619D01*
X53785714Y32931000D01*
X53738095Y32883381D01*
X52833333Y31978619D02*
X53309524Y31978619D01*
X53309524Y32978619D01*
X55309524Y34693238D02*
X55166667Y34645619D01*
X54928571Y34645619D01*
X54833333Y34693238D01*
X54785714Y34740857D01*
X54738095Y34836095D01*
X54738095Y34931333D01*
X54785714Y35026571D01*
X54833333Y35074190D01*
X54928571Y35121810D01*
X55119048Y35169429D01*
X55214286Y35217048D01*
X55261905Y35264667D01*
X55309524Y35359905D01*
X55309524Y35455143D01*
X55261905Y35550381D01*
X55214286Y35598000D01*
X55119048Y35645619D01*
X54880952Y35645619D01*
X54738095Y35598000D01*
X54309524Y34645619D02*
X54309524Y35645619D01*
X54071429Y35645619D01*
X53928571Y35598000D01*
X53833333Y35502762D01*
X53785714Y35407524D01*
X53738095Y35217048D01*
X53738095Y35074190D01*
X53785714Y34883714D01*
X53833333Y34788476D01*
X53928571Y34693238D01*
X54071429Y34645619D01*
X54309524Y34645619D01*
X53357143Y34931333D02*
X52880952Y34931333D01*
X53452381Y34645619D02*
X53119048Y35645619D01*
X52785714Y34645619D01*
X6890429Y32026238D02*
X6747572Y31978619D01*
X6509476Y31978619D01*
X6414238Y32026238D01*
X6366619Y32073857D01*
X6319000Y32169095D01*
X6319000Y32264333D01*
X6366619Y32359571D01*
X6414238Y32407190D01*
X6509476Y32454810D01*
X6699953Y32502429D01*
X6795191Y32550048D01*
X6842810Y32597667D01*
X6890429Y32692905D01*
X6890429Y32788143D01*
X6842810Y32883381D01*
X6795191Y32931000D01*
X6699953Y32978619D01*
X6461857Y32978619D01*
X6319000Y32931000D01*
X5319000Y32073857D02*
X5366619Y32026238D01*
X5509476Y31978619D01*
X5604714Y31978619D01*
X5747572Y32026238D01*
X5842810Y32121476D01*
X5890429Y32216714D01*
X5938048Y32407190D01*
X5938048Y32550048D01*
X5890429Y32740524D01*
X5842810Y32835762D01*
X5747572Y32931000D01*
X5604714Y32978619D01*
X5509476Y32978619D01*
X5366619Y32931000D01*
X5319000Y32883381D01*
X4414238Y31978619D02*
X4890429Y31978619D01*
X4890429Y32978619D01*
X6493619Y24485619D02*
X6493619Y25485619D01*
X6017429Y24485619D02*
X6017429Y25485619D01*
X5446000Y24485619D01*
X5446000Y25485619D01*
X5112667Y25485619D02*
X4541238Y25485619D01*
X4826953Y24485619D02*
X4826953Y25485619D01*
X7065238Y28025619D02*
X7541429Y28025619D01*
X7589048Y27549429D01*
X7541429Y27597048D01*
X7446191Y27644667D01*
X7208095Y27644667D01*
X7112857Y27597048D01*
X7065238Y27549429D01*
X7017619Y27454190D01*
X7017619Y27216095D01*
X7065238Y27120857D01*
X7112857Y27073238D01*
X7208095Y27025619D01*
X7446191Y27025619D01*
X7541429Y27073238D01*
X7589048Y27120857D01*
X6731905Y28025619D02*
X6398572Y27025619D01*
X6065238Y28025619D01*
X8255714Y30391000D02*
X8350952Y30438619D01*
X8493809Y30438619D01*
X8636667Y30391000D01*
X8731905Y30295762D01*
X8779524Y30200524D01*
X8827143Y30010048D01*
X8827143Y29867190D01*
X8779524Y29676714D01*
X8731905Y29581476D01*
X8636667Y29486238D01*
X8493809Y29438619D01*
X8398571Y29438619D01*
X8255714Y29486238D01*
X8208095Y29533857D01*
X8208095Y29867190D01*
X8398571Y29867190D01*
X7779524Y29438619D02*
X7779524Y30438619D01*
X7208095Y29438619D01*
X7208095Y30438619D01*
X6731905Y29438619D02*
X6731905Y30438619D01*
X6493810Y30438619D01*
X6350952Y30391000D01*
X6255714Y30295762D01*
X6208095Y30200524D01*
X6160476Y30010048D01*
X6160476Y29867190D01*
X6208095Y29676714D01*
X6255714Y29581476D01*
X6350952Y29486238D01*
X6493810Y29438619D01*
X6731905Y29438619D01*
X7065048Y34693238D02*
X6922191Y34645619D01*
X6684095Y34645619D01*
X6588857Y34693238D01*
X6541238Y34740857D01*
X6493619Y34836095D01*
X6493619Y34931333D01*
X6541238Y35026571D01*
X6588857Y35074190D01*
X6684095Y35121810D01*
X6874572Y35169429D01*
X6969810Y35217048D01*
X7017429Y35264667D01*
X7065048Y35359905D01*
X7065048Y35455143D01*
X7017429Y35550381D01*
X6969810Y35598000D01*
X6874572Y35645619D01*
X6636476Y35645619D01*
X6493619Y35598000D01*
X6065048Y34645619D02*
X6065048Y35645619D01*
X5826953Y35645619D01*
X5684095Y35598000D01*
X5588857Y35502762D01*
X5541238Y35407524D01*
X5493619Y35217048D01*
X5493619Y35074190D01*
X5541238Y34883714D01*
X5588857Y34788476D01*
X5684095Y34693238D01*
X5826953Y34645619D01*
X6065048Y34645619D01*
X5112667Y34931333D02*
X4636476Y34931333D01*
X5207905Y34645619D02*
X4874572Y35645619D01*
X4541238Y34645619D01*
D14*
X33858579Y33892893D02*
X34353553Y33397919D01*
X35202081Y34246447D02*
X34707107Y34741421D01*
X29064000Y55718000D02*
X28364000Y55718000D01*
X28364000Y54518000D02*
X29064000Y54518000D01*
X54518000Y29064000D02*
X54518000Y28364000D01*
X55718000Y28364000D02*
X55718000Y29064000D01*
X29191000Y5553000D02*
X28491000Y5553000D01*
X28491000Y4353000D02*
X29191000Y4353000D01*
X4353000Y29040000D02*
X4353000Y28340000D01*
X5553000Y28340000D02*
X5553000Y29040000D01*
X13730000Y59369000D02*
X18870000Y59369000D01*
X18870000Y59369000D02*
X18870000Y54169000D01*
X18870000Y54169000D02*
X11130000Y54169000D01*
X11130000Y54169000D02*
X11130000Y56769000D01*
X11130000Y56769000D02*
X13730000Y56769000D01*
X13730000Y56769000D02*
X13730000Y59369000D01*
X12460000Y59369000D02*
X11130000Y59369000D01*
X11130000Y59369000D02*
X11130000Y58039000D01*
X43829377Y25754309D02*
X46369377Y25754309D01*
X46369377Y23974309D02*
X43829377Y23974309D01*
X46369377Y23974309D02*
X46369377Y25754309D01*
X43829377Y25754309D02*
X43829377Y23974309D01*
X43829377Y28294309D02*
X46369377Y28294309D01*
X46369377Y26514309D02*
X43829377Y26514309D01*
X46369377Y26514309D02*
X46369377Y28294309D01*
X43829377Y28294309D02*
X43829377Y26514309D01*
X43819377Y30834309D02*
X46359377Y30834309D01*
X46359377Y29054309D02*
X43819377Y29054309D01*
X46359377Y29054309D02*
X46359377Y30834309D01*
X43819377Y30834309D02*
X43819377Y29054309D01*
X43829377Y33374309D02*
X46369377Y33374309D01*
X46369377Y31594309D02*
X43829377Y31594309D01*
X46369377Y31594309D02*
X46369377Y33374309D01*
X43829377Y33374309D02*
X43829377Y31594309D01*
X43829377Y35914309D02*
X46369377Y35914309D01*
X46369377Y34134309D02*
X43829377Y34134309D01*
X46369377Y34134309D02*
X46369377Y35914309D01*
X43829377Y35914309D02*
X43829377Y34134309D01*
D15*
G36*
X33884014Y13932054D02*
X33624955Y13911915D01*
X33392276Y13876618D01*
X33178930Y13824850D01*
X32977869Y13755299D01*
X32820702Y13685765D01*
X32635789Y13576965D01*
X32467784Y13440471D01*
X32324675Y13283999D01*
X32214451Y13115266D01*
X32199397Y13085585D01*
X32165470Y13014130D01*
X32135736Y12946275D01*
X32110177Y12879171D01*
X32088779Y12809971D01*
X32071525Y12735827D01*
X32058400Y12653890D01*
X32049389Y12561313D01*
X32044475Y12455246D01*
X32043644Y12332843D01*
X32046878Y12191255D01*
X32054163Y12027633D01*
X32065483Y11839130D01*
X32080822Y11622898D01*
X32100165Y11376089D01*
X32123495Y11095854D01*
X32150798Y10779345D01*
X32182057Y10423714D01*
X32184579Y10395176D01*
X32208528Y10122159D01*
X32231594Y9855176D01*
X32253461Y9598139D01*
X32273811Y9354960D01*
X32292328Y9129554D01*
X32308693Y8925833D01*
X32322589Y8747709D01*
X32333701Y8599096D01*
X32341709Y8483906D01*
X32346298Y8406053D01*
X32346859Y8393258D01*
X32350931Y8269140D01*
X32351333Y8175229D01*
X32347063Y8099448D01*
X32337119Y8029719D01*
X32320498Y7953965D01*
X32305549Y7895426D01*
X32281273Y7804899D01*
X32259479Y7727058D01*
X32243308Y7672963D01*
X32237855Y7657103D01*
X32235679Y7645906D01*
X32242275Y7637215D01*
X32262245Y7630716D01*
X32300189Y7626092D01*
X32360711Y7623028D01*
X32448410Y7621208D01*
X32567888Y7620318D01*
X32723748Y7620041D01*
X32778508Y7620030D01*
X33334008Y7620030D01*
X33321436Y7731248D01*
X33314965Y7800264D01*
X33307647Y7896681D01*
X33300560Y8005577D01*
X33296612Y8075493D01*
X33290592Y8176063D01*
X33283907Y8265532D01*
X33277480Y8332573D01*
X33273350Y8361481D01*
X33269313Y8390107D01*
X33278091Y8387948D01*
X33304050Y8352680D01*
X33312101Y8340837D01*
X33391657Y8249372D01*
X33510206Y8151377D01*
X33665205Y8048694D01*
X33854115Y7943166D01*
X33876666Y7931560D01*
X34121554Y7813073D01*
X34346631Y7719184D01*
X34563446Y7646005D01*
X34783550Y7589648D01*
X35018495Y7546224D01*
X35023871Y7545392D01*
X35163240Y7529866D01*
X35331219Y7520468D01*
X35514503Y7517171D01*
X35699785Y7519945D01*
X35873757Y7528760D01*
X36023113Y7543588D01*
X36051311Y7547649D01*
X36314485Y7600306D01*
X36563886Y7673660D01*
X36786722Y7763897D01*
X36803354Y7771895D01*
X36997487Y7889620D01*
X37167289Y8040153D01*
X37309677Y8219642D01*
X37421565Y8424237D01*
X37496406Y8636878D01*
X37514995Y8737631D01*
X37527055Y8868274D01*
X37532570Y9016827D01*
X37531846Y9123813D01*
X36439087Y9123813D01*
X36425634Y8990417D01*
X36395480Y8878059D01*
X36343165Y8774605D01*
X36263232Y8667924D01*
X36204550Y8602440D01*
X36078526Y8487403D01*
X35936574Y8396723D01*
X35775029Y8329510D01*
X35590226Y8284875D01*
X35378499Y8261925D01*
X35136182Y8259772D01*
X34864989Y8277027D01*
X34750245Y8290571D01*
X34632762Y8309411D01*
X34530028Y8330538D01*
X34484418Y8342554D01*
X34260996Y8426847D01*
X34041646Y8542572D01*
X33834716Y8683642D01*
X33648555Y8843972D01*
X33491513Y9017475D01*
X33418414Y9119646D01*
X33319281Y9304242D01*
X33236167Y9526654D01*
X33168961Y9787298D01*
X33117550Y10086589D01*
X33087836Y10352808D01*
X33078249Y10465833D01*
X33070869Y10563029D01*
X33066186Y10637020D01*
X33064694Y10680430D01*
X33065466Y10688669D01*
X33087621Y10689817D01*
X33146184Y10689012D01*
X33235251Y10686443D01*
X33348915Y10682298D01*
X33481271Y10676764D01*
X33576720Y10672409D01*
X33954685Y10650711D01*
X34293905Y10622685D01*
X34597628Y10587620D01*
X34869105Y10544804D01*
X35111583Y10493527D01*
X35328312Y10433077D01*
X35522541Y10362745D01*
X35697519Y10281818D01*
X35856496Y10189586D01*
X35892740Y10165614D01*
X36076708Y10018373D01*
X36224246Y9851490D01*
X36334382Y9666814D01*
X36406146Y9466198D01*
X36438568Y9251491D01*
X36439087Y9123813D01*
X37531846Y9123813D01*
X37531524Y9171315D01*
X37523898Y9319760D01*
X37509678Y9450185D01*
X37497625Y9516377D01*
X37416806Y9788482D01*
X37301500Y10039327D01*
X37153527Y10266071D01*
X36974710Y10465873D01*
X36790074Y10619475D01*
X36658911Y10703059D01*
X36494635Y10790547D01*
X36305847Y10878432D01*
X36101149Y10963206D01*
X35889143Y11041361D01*
X35678430Y11109388D01*
X35477613Y11163780D01*
X35426374Y11175635D01*
X35146987Y11231443D01*
X34848284Y11278741D01*
X34524120Y11318312D01*
X34168348Y11350939D01*
X33901102Y11369819D01*
X33659015Y11387612D01*
X33457389Y11407988D01*
X33294378Y11431285D01*
X33168134Y11457842D01*
X33076809Y11487995D01*
X33018557Y11522082D01*
X33007065Y11533341D01*
X32992092Y11570556D01*
X32978085Y11641858D01*
X32965614Y11738968D01*
X32955247Y11853609D01*
X32947555Y11977500D01*
X32943108Y12102363D01*
X32942475Y12219918D01*
X32946225Y12321887D01*
X32949898Y12364219D01*
X32989967Y12550278D01*
X33065932Y12714251D01*
X33176471Y12854290D01*
X33320261Y12968552D01*
X33422505Y13024229D01*
X33598966Y13089050D01*
X33804631Y13134540D01*
X34030864Y13160425D01*
X34269030Y13166430D01*
X34510491Y13152280D01*
X34746613Y13117702D01*
X34935795Y13072297D01*
X35148525Y12998693D01*
X35331948Y12907407D01*
X35497692Y12791675D01*
X35639064Y12663330D01*
X35724825Y12574480D01*
X35788705Y12499256D01*
X35840796Y12423480D01*
X35891190Y12332978D01*
X35930620Y12253765D01*
X35978576Y12156675D01*
X36013370Y12092222D01*
X36039329Y12054451D01*
X36060783Y12037409D01*
X36082058Y12035140D01*
X36088655Y12036360D01*
X36132956Y12045569D01*
X36208372Y12060432D01*
X36308045Y12079667D01*
X36425117Y12101989D01*
X36552733Y12126113D01*
X36684034Y12150756D01*
X36812164Y12174632D01*
X36930265Y12196459D01*
X37031481Y12214952D01*
X37108953Y12228826D01*
X37155826Y12236797D01*
X37166442Y12238212D01*
X37173832Y12254053D01*
X37158501Y12298216D01*
X37123844Y12365663D01*
X37073257Y12451356D01*
X37010135Y12550254D01*
X36937876Y12657320D01*
X36859874Y12767515D01*
X36779526Y12875800D01*
X36700227Y12977136D01*
X36625373Y13066484D01*
X36561870Y13135270D01*
X36335729Y13336492D01*
X36083586Y13508153D01*
X35804480Y13650576D01*
X35497452Y13764084D01*
X35161540Y13849001D01*
X34795783Y13905650D01*
X34399222Y13934354D01*
X34176499Y13938347D01*
X33884014Y13932054D01*
X33884014Y13932054D01*
G37*
X33884014Y13932054D02*
X33624955Y13911915D01*
X33392276Y13876618D01*
X33178930Y13824850D01*
X32977869Y13755299D01*
X32820702Y13685765D01*
X32635789Y13576965D01*
X32467784Y13440471D01*
X32324675Y13283999D01*
X32214451Y13115266D01*
X32199397Y13085585D01*
X32165470Y13014130D01*
X32135736Y12946275D01*
X32110177Y12879171D01*
X32088779Y12809971D01*
X32071525Y12735827D01*
X32058400Y12653890D01*
X32049389Y12561313D01*
X32044475Y12455246D01*
X32043644Y12332843D01*
X32046878Y12191255D01*
X32054163Y12027633D01*
X32065483Y11839130D01*
X32080822Y11622898D01*
X32100165Y11376089D01*
X32123495Y11095854D01*
X32150798Y10779345D01*
X32182057Y10423714D01*
X32184579Y10395176D01*
X32208528Y10122159D01*
X32231594Y9855176D01*
X32253461Y9598139D01*
X32273811Y9354960D01*
X32292328Y9129554D01*
X32308693Y8925833D01*
X32322589Y8747709D01*
X32333701Y8599096D01*
X32341709Y8483906D01*
X32346298Y8406053D01*
X32346859Y8393258D01*
X32350931Y8269140D01*
X32351333Y8175229D01*
X32347063Y8099448D01*
X32337119Y8029719D01*
X32320498Y7953965D01*
X32305549Y7895426D01*
X32281273Y7804899D01*
X32259479Y7727058D01*
X32243308Y7672963D01*
X32237855Y7657103D01*
X32235679Y7645906D01*
X32242275Y7637215D01*
X32262245Y7630716D01*
X32300189Y7626092D01*
X32360711Y7623028D01*
X32448410Y7621208D01*
X32567888Y7620318D01*
X32723748Y7620041D01*
X32778508Y7620030D01*
X33334008Y7620030D01*
X33321436Y7731248D01*
X33314965Y7800264D01*
X33307647Y7896681D01*
X33300560Y8005577D01*
X33296612Y8075493D01*
X33290592Y8176063D01*
X33283907Y8265532D01*
X33277480Y8332573D01*
X33273350Y8361481D01*
X33269313Y8390107D01*
X33278091Y8387948D01*
X33304050Y8352680D01*
X33312101Y8340837D01*
X33391657Y8249372D01*
X33510206Y8151377D01*
X33665205Y8048694D01*
X33854115Y7943166D01*
X33876666Y7931560D01*
X34121554Y7813073D01*
X34346631Y7719184D01*
X34563446Y7646005D01*
X34783550Y7589648D01*
X35018495Y7546224D01*
X35023871Y7545392D01*
X35163240Y7529866D01*
X35331219Y7520468D01*
X35514503Y7517171D01*
X35699785Y7519945D01*
X35873757Y7528760D01*
X36023113Y7543588D01*
X36051311Y7547649D01*
X36314485Y7600306D01*
X36563886Y7673660D01*
X36786722Y7763897D01*
X36803354Y7771895D01*
X36997487Y7889620D01*
X37167289Y8040153D01*
X37309677Y8219642D01*
X37421565Y8424237D01*
X37496406Y8636878D01*
X37514995Y8737631D01*
X37527055Y8868274D01*
X37532570Y9016827D01*
X37531846Y9123813D01*
X36439087Y9123813D01*
X36425634Y8990417D01*
X36395480Y8878059D01*
X36343165Y8774605D01*
X36263232Y8667924D01*
X36204550Y8602440D01*
X36078526Y8487403D01*
X35936574Y8396723D01*
X35775029Y8329510D01*
X35590226Y8284875D01*
X35378499Y8261925D01*
X35136182Y8259772D01*
X34864989Y8277027D01*
X34750245Y8290571D01*
X34632762Y8309411D01*
X34530028Y8330538D01*
X34484418Y8342554D01*
X34260996Y8426847D01*
X34041646Y8542572D01*
X33834716Y8683642D01*
X33648555Y8843972D01*
X33491513Y9017475D01*
X33418414Y9119646D01*
X33319281Y9304242D01*
X33236167Y9526654D01*
X33168961Y9787298D01*
X33117550Y10086589D01*
X33087836Y10352808D01*
X33078249Y10465833D01*
X33070869Y10563029D01*
X33066186Y10637020D01*
X33064694Y10680430D01*
X33065466Y10688669D01*
X33087621Y10689817D01*
X33146184Y10689012D01*
X33235251Y10686443D01*
X33348915Y10682298D01*
X33481271Y10676764D01*
X33576720Y10672409D01*
X33954685Y10650711D01*
X34293905Y10622685D01*
X34597628Y10587620D01*
X34869105Y10544804D01*
X35111583Y10493527D01*
X35328312Y10433077D01*
X35522541Y10362745D01*
X35697519Y10281818D01*
X35856496Y10189586D01*
X35892740Y10165614D01*
X36076708Y10018373D01*
X36224246Y9851490D01*
X36334382Y9666814D01*
X36406146Y9466198D01*
X36438568Y9251491D01*
X36439087Y9123813D01*
X37531846Y9123813D01*
X37531524Y9171315D01*
X37523898Y9319760D01*
X37509678Y9450185D01*
X37497625Y9516377D01*
X37416806Y9788482D01*
X37301500Y10039327D01*
X37153527Y10266071D01*
X36974710Y10465873D01*
X36790074Y10619475D01*
X36658911Y10703059D01*
X36494635Y10790547D01*
X36305847Y10878432D01*
X36101149Y10963206D01*
X35889143Y11041361D01*
X35678430Y11109388D01*
X35477613Y11163780D01*
X35426374Y11175635D01*
X35146987Y11231443D01*
X34848284Y11278741D01*
X34524120Y11318312D01*
X34168348Y11350939D01*
X33901102Y11369819D01*
X33659015Y11387612D01*
X33457389Y11407988D01*
X33294378Y11431285D01*
X33168134Y11457842D01*
X33076809Y11487995D01*
X33018557Y11522082D01*
X33007065Y11533341D01*
X32992092Y11570556D01*
X32978085Y11641858D01*
X32965614Y11738968D01*
X32955247Y11853609D01*
X32947555Y11977500D01*
X32943108Y12102363D01*
X32942475Y12219918D01*
X32946225Y12321887D01*
X32949898Y12364219D01*
X32989967Y12550278D01*
X33065932Y12714251D01*
X33176471Y12854290D01*
X33320261Y12968552D01*
X33422505Y13024229D01*
X33598966Y13089050D01*
X33804631Y13134540D01*
X34030864Y13160425D01*
X34269030Y13166430D01*
X34510491Y13152280D01*
X34746613Y13117702D01*
X34935795Y13072297D01*
X35148525Y12998693D01*
X35331948Y12907407D01*
X35497692Y12791675D01*
X35639064Y12663330D01*
X35724825Y12574480D01*
X35788705Y12499256D01*
X35840796Y12423480D01*
X35891190Y12332978D01*
X35930620Y12253765D01*
X35978576Y12156675D01*
X36013370Y12092222D01*
X36039329Y12054451D01*
X36060783Y12037409D01*
X36082058Y12035140D01*
X36088655Y12036360D01*
X36132956Y12045569D01*
X36208372Y12060432D01*
X36308045Y12079667D01*
X36425117Y12101989D01*
X36552733Y12126113D01*
X36684034Y12150756D01*
X36812164Y12174632D01*
X36930265Y12196459D01*
X37031481Y12214952D01*
X37108953Y12228826D01*
X37155826Y12236797D01*
X37166442Y12238212D01*
X37173832Y12254053D01*
X37158501Y12298216D01*
X37123844Y12365663D01*
X37073257Y12451356D01*
X37010135Y12550254D01*
X36937876Y12657320D01*
X36859874Y12767515D01*
X36779526Y12875800D01*
X36700227Y12977136D01*
X36625373Y13066484D01*
X36561870Y13135270D01*
X36335729Y13336492D01*
X36083586Y13508153D01*
X35804480Y13650576D01*
X35497452Y13764084D01*
X35161540Y13849001D01*
X34795783Y13905650D01*
X34399222Y13934354D01*
X34176499Y13938347D01*
X33884014Y13932054D01*
G36*
X46612425Y8942059D02*
X46462646Y8876716D01*
X46336177Y8776358D01*
X46234685Y8642053D01*
X46214338Y8605101D01*
X46168200Y8477005D01*
X46147623Y8330119D01*
X46153341Y8179986D01*
X46186089Y8042148D01*
X46187568Y8038176D01*
X46254196Y7913027D01*
X46351661Y7797074D01*
X46468540Y7702538D01*
X46537550Y7663819D01*
X46645144Y7627835D01*
X46771280Y7608061D01*
X46898391Y7605816D01*
X47008915Y7622419D01*
X47024789Y7627211D01*
X47139360Y7672407D01*
X47229868Y7727847D01*
X47314593Y7805165D01*
X47329652Y7821229D01*
X47420060Y7934597D01*
X47476868Y8047444D01*
X47505484Y8173682D01*
X47511711Y8289472D01*
X47509906Y8382291D01*
X47501242Y8451102D01*
X47481460Y8514185D01*
X47446304Y8589823D01*
X47437883Y8606440D01*
X47343547Y8750485D01*
X47225970Y8859222D01*
X47086136Y8932100D01*
X46925026Y8968573D01*
X46783852Y8971315D01*
X46612425Y8942059D01*
X46612425Y8942059D01*
G37*
X46612425Y8942059D02*
X46462646Y8876716D01*
X46336177Y8776358D01*
X46234685Y8642053D01*
X46214338Y8605101D01*
X46168200Y8477005D01*
X46147623Y8330119D01*
X46153341Y8179986D01*
X46186089Y8042148D01*
X46187568Y8038176D01*
X46254196Y7913027D01*
X46351661Y7797074D01*
X46468540Y7702538D01*
X46537550Y7663819D01*
X46645144Y7627835D01*
X46771280Y7608061D01*
X46898391Y7605816D01*
X47008915Y7622419D01*
X47024789Y7627211D01*
X47139360Y7672407D01*
X47229868Y7727847D01*
X47314593Y7805165D01*
X47329652Y7821229D01*
X47420060Y7934597D01*
X47476868Y8047444D01*
X47505484Y8173682D01*
X47511711Y8289472D01*
X47509906Y8382291D01*
X47501242Y8451102D01*
X47481460Y8514185D01*
X47446304Y8589823D01*
X47437883Y8606440D01*
X47343547Y8750485D01*
X47225970Y8859222D01*
X47086136Y8932100D01*
X46925026Y8968573D01*
X46783852Y8971315D01*
X46612425Y8942059D01*
G36*
X45192345Y8964921D02*
X45091903Y8963314D01*
X45020327Y8957210D01*
X44964164Y8944127D01*
X44909957Y8921584D01*
X44882893Y8907836D01*
X44773881Y8834101D01*
X44673357Y8736177D01*
X44592351Y8626500D01*
X44544787Y8526632D01*
X44509569Y8357868D01*
X44514320Y8192344D01*
X44556703Y8035565D01*
X44634378Y7893040D01*
X44745009Y7770276D01*
X44886255Y7672779D01*
X44913128Y7659121D01*
X45012972Y7626082D01*
X45134797Y7607923D01*
X45260499Y7605805D01*
X45371973Y7620887D01*
X45397321Y7628072D01*
X45549760Y7699366D01*
X45682660Y7804227D01*
X45788312Y7935738D01*
X45832923Y8018938D01*
X45869367Y8141854D01*
X45881450Y8282986D01*
X45869395Y8426046D01*
X45833428Y8554746D01*
X45825280Y8573325D01*
X45744500Y8704143D01*
X45635625Y8819590D01*
X45510867Y8907060D01*
X45493054Y8916245D01*
X45435996Y8940676D01*
X45377595Y8955507D01*
X45304632Y8962876D01*
X45203885Y8964925D01*
X45192345Y8964921D01*
X45192345Y8964921D01*
G37*
X45192345Y8964921D02*
X45091903Y8963314D01*
X45020327Y8957210D01*
X44964164Y8944127D01*
X44909957Y8921584D01*
X44882893Y8907836D01*
X44773881Y8834101D01*
X44673357Y8736177D01*
X44592351Y8626500D01*
X44544787Y8526632D01*
X44509569Y8357868D01*
X44514320Y8192344D01*
X44556703Y8035565D01*
X44634378Y7893040D01*
X44745009Y7770276D01*
X44886255Y7672779D01*
X44913128Y7659121D01*
X45012972Y7626082D01*
X45134797Y7607923D01*
X45260499Y7605805D01*
X45371973Y7620887D01*
X45397321Y7628072D01*
X45549760Y7699366D01*
X45682660Y7804227D01*
X45788312Y7935738D01*
X45832923Y8018938D01*
X45869367Y8141854D01*
X45881450Y8282986D01*
X45869395Y8426046D01*
X45833428Y8554746D01*
X45825280Y8573325D01*
X45744500Y8704143D01*
X45635625Y8819590D01*
X45510867Y8907060D01*
X45493054Y8916245D01*
X45435996Y8940676D01*
X45377595Y8955507D01*
X45304632Y8962876D01*
X45203885Y8964925D01*
X45192345Y8964921D01*
G36*
X49444926Y16264044D02*
X49305868Y16262500D01*
X49183735Y16259939D01*
X49084439Y16256331D01*
X49013895Y16251649D01*
X48978017Y16245865D01*
X48974896Y16243910D01*
X48973023Y16214837D01*
X48979467Y16156874D01*
X48992837Y16082370D01*
X48993389Y16079731D01*
X49004319Y16023850D01*
X49015503Y15958481D01*
X49027056Y15882254D01*
X49039089Y15793800D01*
X49051717Y15691749D01*
X49065051Y15574732D01*
X49079205Y15441381D01*
X49094292Y15290325D01*
X49110425Y15120195D01*
X49127716Y14929622D01*
X49146280Y14717237D01*
X49166228Y14481671D01*
X49187673Y14221554D01*
X49210730Y13935517D01*
X49235510Y13622190D01*
X49262127Y13280205D01*
X49290693Y12908192D01*
X49321322Y12504782D01*
X49354127Y12068605D01*
X49389220Y11598292D01*
X49426715Y11092475D01*
X49466724Y10549783D01*
X49509361Y9968847D01*
X49554739Y9348299D01*
X49599843Y8729712D01*
X49608101Y8584406D01*
X49614098Y8414248D01*
X49617427Y8236715D01*
X49617681Y8069284D01*
X49616732Y8004149D01*
X49608755Y7620030D01*
X50769365Y7620030D01*
X50756703Y7688879D01*
X50746759Y7743019D01*
X50732087Y7822979D01*
X50715595Y7912907D01*
X50712975Y7927203D01*
X50700694Y7998699D01*
X50688428Y8079896D01*
X50676002Y8172894D01*
X50663242Y8279791D01*
X50649974Y8402685D01*
X50636024Y8543677D01*
X50621218Y8704865D01*
X50605382Y8888349D01*
X50588341Y9096226D01*
X50569923Y9330596D01*
X50549952Y9593559D01*
X50528256Y9887213D01*
X50504659Y10213656D01*
X50478988Y10574989D01*
X50451068Y10973310D01*
X50420726Y11410717D01*
X50403842Y11655643D01*
X50373849Y12089957D01*
X50346398Y12483931D01*
X50321325Y12839506D01*
X50298468Y13158625D01*
X50277665Y13443229D01*
X50258752Y13695260D01*
X50241568Y13916661D01*
X50225949Y14109372D01*
X50211733Y14275337D01*
X50198757Y14416496D01*
X50186859Y14534792D01*
X50175877Y14632167D01*
X50165647Y14710562D01*
X50156006Y14771919D01*
X50146793Y14818181D01*
X50137845Y14851290D01*
X50135736Y14857448D01*
X50127938Y14880631D01*
X50126798Y14888678D01*
X50132956Y14880206D01*
X50147052Y14853831D01*
X50169727Y14808168D01*
X50201621Y14741834D01*
X50243375Y14653446D01*
X50295628Y14541619D01*
X50359020Y14404971D01*
X50434193Y14242116D01*
X50521786Y14051671D01*
X50622440Y13832253D01*
X50736795Y13582478D01*
X50865491Y13300961D01*
X51009169Y12986320D01*
X51168468Y12637171D01*
X51344030Y12252129D01*
X51525284Y11854413D01*
X52899661Y8838129D01*
X53634030Y8838129D01*
X54570928Y11359063D01*
X54687426Y11672454D01*
X54799926Y11974949D01*
X54907538Y12264164D01*
X55009372Y12537711D01*
X55104538Y12793205D01*
X55192146Y13028258D01*
X55271305Y13240484D01*
X55341126Y13427498D01*
X55400719Y13586912D01*
X55449192Y13716341D01*
X55485657Y13813397D01*
X55509223Y13875695D01*
X55519000Y13900849D01*
X55519157Y13901181D01*
X55523897Y13898588D01*
X55520317Y13863965D01*
X55519448Y13858813D01*
X55511425Y13809516D01*
X55504842Y13759867D01*
X55499878Y13707286D01*
X55496714Y13649194D01*
X55495529Y13583009D01*
X55496503Y13506153D01*
X55499817Y13416044D01*
X55505650Y13310104D01*
X55514182Y13185753D01*
X55525593Y13040409D01*
X55540063Y12871494D01*
X55557771Y12676427D01*
X55578899Y12452629D01*
X55603626Y12197519D01*
X55632131Y11908517D01*
X55664594Y11583044D01*
X55701197Y11218520D01*
X55708981Y11141180D01*
X55749240Y10740833D01*
X55785371Y10380119D01*
X55817575Y10056527D01*
X55846052Y9767543D01*
X55871003Y9510654D01*
X55892628Y9283348D01*
X55911129Y9083111D01*
X55926705Y8907430D01*
X55939557Y8753793D01*
X55949886Y8619686D01*
X55957892Y8502597D01*
X55963776Y8400013D01*
X55967738Y8309420D01*
X55969978Y8228307D01*
X55970698Y8154159D01*
X55970098Y8084464D01*
X55968377Y8016709D01*
X55965738Y7948382D01*
X55965030Y7932499D01*
X55950834Y7620030D01*
X56534976Y7620030D01*
X56715574Y7620447D01*
X56857533Y7621810D01*
X56964579Y7624288D01*
X57040433Y7628049D01*
X57088819Y7633264D01*
X57113461Y7640100D01*
X57118600Y7646511D01*
X57113763Y7682983D01*
X57102383Y7740758D01*
X57098585Y7757728D01*
X57087361Y7811129D01*
X57075685Y7876486D01*
X57063350Y7955811D01*
X57050152Y8051119D01*
X57035884Y8164422D01*
X57020340Y8297734D01*
X57003317Y8453068D01*
X56984607Y8632436D01*
X56964006Y8837853D01*
X56941307Y9071331D01*
X56916306Y9334884D01*
X56888796Y9630525D01*
X56858573Y9960267D01*
X56825431Y10326123D01*
X56789163Y10730106D01*
X56749565Y11174230D01*
X56748200Y11189588D01*
X56707684Y11646459D01*
X56670948Y12063302D01*
X56637840Y12442275D01*
X56608204Y12785536D01*
X56581888Y13095241D01*
X56558738Y13373549D01*
X56538600Y13622618D01*
X56521320Y13844605D01*
X56512436Y13964734D01*
X55551478Y13964734D01*
X55540886Y13954142D01*
X55530293Y13964734D01*
X55540886Y13975326D01*
X55551478Y13964734D01*
X56512436Y13964734D01*
X56506746Y14041667D01*
X56494724Y14215964D01*
X56485099Y14369651D01*
X56477718Y14504887D01*
X56472429Y14623830D01*
X56469076Y14728637D01*
X56467507Y14821465D01*
X56467567Y14904474D01*
X56469104Y14979819D01*
X56471964Y15049660D01*
X56472580Y15061302D01*
X56486173Y15310498D01*
X55035273Y15299346D01*
X54989009Y15002766D01*
X54969598Y14883666D01*
X54949006Y14770134D01*
X54926082Y14658534D01*
X54899678Y14545228D01*
X54868645Y14426581D01*
X54831834Y14298955D01*
X54788097Y14158714D01*
X54736285Y14002221D01*
X54675249Y13825840D01*
X54603840Y13625933D01*
X54520910Y13398864D01*
X54425309Y13140996D01*
X54315888Y12848693D01*
X54269998Y12726641D01*
X54133183Y12365158D01*
X53998855Y12014255D01*
X53869047Y11679126D01*
X53745794Y11364969D01*
X53631129Y11076978D01*
X53527086Y10820349D01*
X53465180Y10670572D01*
X53411288Y10540519D01*
X53359700Y10414431D01*
X53313948Y10301060D01*
X53277562Y10209156D01*
X53254075Y10147471D01*
X53253946Y10147115D01*
X53206213Y10015567D01*
X53179509Y10104696D01*
X53157710Y10164311D01*
X53122425Y10247000D01*
X53079920Y10338354D01*
X53062378Y10373942D01*
X53004316Y10491781D01*
X52932016Y10642141D01*
X52846933Y10821800D01*
X52750520Y11027535D01*
X52644234Y11256123D01*
X52529528Y11504342D01*
X52407857Y11768970D01*
X52280677Y12046783D01*
X52149440Y12334560D01*
X52015604Y12629077D01*
X51880621Y12927112D01*
X51745947Y13225443D01*
X51613037Y13520847D01*
X51483345Y13810100D01*
X51358325Y14089982D01*
X51239433Y14357269D01*
X51128123Y14608738D01*
X51025851Y14841168D01*
X50934069Y15051335D01*
X50854234Y15236017D01*
X50787801Y15391991D01*
X50736222Y15516035D01*
X50700955Y15604926D01*
X50700351Y15606519D01*
X50657008Y15724437D01*
X50614145Y15846691D01*
X50576863Y15958412D01*
X50551389Y16040798D01*
X50526369Y16122552D01*
X50503092Y16189920D01*
X50485644Y16231309D01*
X50482293Y16236753D01*
X50457029Y16243109D01*
X50395467Y16248699D01*
X50303520Y16253497D01*
X50187103Y16257472D01*
X50052128Y16260598D01*
X49904509Y16262846D01*
X49750160Y16264189D01*
X49594994Y16264597D01*
X49444926Y16264044D01*
X49444926Y16264044D01*
G37*
X49444926Y16264044D02*
X49305868Y16262500D01*
X49183735Y16259939D01*
X49084439Y16256331D01*
X49013895Y16251649D01*
X48978017Y16245865D01*
X48974896Y16243910D01*
X48973023Y16214837D01*
X48979467Y16156874D01*
X48992837Y16082370D01*
X48993389Y16079731D01*
X49004319Y16023850D01*
X49015503Y15958481D01*
X49027056Y15882254D01*
X49039089Y15793800D01*
X49051717Y15691749D01*
X49065051Y15574732D01*
X49079205Y15441381D01*
X49094292Y15290325D01*
X49110425Y15120195D01*
X49127716Y14929622D01*
X49146280Y14717237D01*
X49166228Y14481671D01*
X49187673Y14221554D01*
X49210730Y13935517D01*
X49235510Y13622190D01*
X49262127Y13280205D01*
X49290693Y12908192D01*
X49321322Y12504782D01*
X49354127Y12068605D01*
X49389220Y11598292D01*
X49426715Y11092475D01*
X49466724Y10549783D01*
X49509361Y9968847D01*
X49554739Y9348299D01*
X49599843Y8729712D01*
X49608101Y8584406D01*
X49614098Y8414248D01*
X49617427Y8236715D01*
X49617681Y8069284D01*
X49616732Y8004149D01*
X49608755Y7620030D01*
X50769365Y7620030D01*
X50756703Y7688879D01*
X50746759Y7743019D01*
X50732087Y7822979D01*
X50715595Y7912907D01*
X50712975Y7927203D01*
X50700694Y7998699D01*
X50688428Y8079896D01*
X50676002Y8172894D01*
X50663242Y8279791D01*
X50649974Y8402685D01*
X50636024Y8543677D01*
X50621218Y8704865D01*
X50605382Y8888349D01*
X50588341Y9096226D01*
X50569923Y9330596D01*
X50549952Y9593559D01*
X50528256Y9887213D01*
X50504659Y10213656D01*
X50478988Y10574989D01*
X50451068Y10973310D01*
X50420726Y11410717D01*
X50403842Y11655643D01*
X50373849Y12089957D01*
X50346398Y12483931D01*
X50321325Y12839506D01*
X50298468Y13158625D01*
X50277665Y13443229D01*
X50258752Y13695260D01*
X50241568Y13916661D01*
X50225949Y14109372D01*
X50211733Y14275337D01*
X50198757Y14416496D01*
X50186859Y14534792D01*
X50175877Y14632167D01*
X50165647Y14710562D01*
X50156006Y14771919D01*
X50146793Y14818181D01*
X50137845Y14851290D01*
X50135736Y14857448D01*
X50127938Y14880631D01*
X50126798Y14888678D01*
X50132956Y14880206D01*
X50147052Y14853831D01*
X50169727Y14808168D01*
X50201621Y14741834D01*
X50243375Y14653446D01*
X50295628Y14541619D01*
X50359020Y14404971D01*
X50434193Y14242116D01*
X50521786Y14051671D01*
X50622440Y13832253D01*
X50736795Y13582478D01*
X50865491Y13300961D01*
X51009169Y12986320D01*
X51168468Y12637171D01*
X51344030Y12252129D01*
X51525284Y11854413D01*
X52899661Y8838129D01*
X53634030Y8838129D01*
X54570928Y11359063D01*
X54687426Y11672454D01*
X54799926Y11974949D01*
X54907538Y12264164D01*
X55009372Y12537711D01*
X55104538Y12793205D01*
X55192146Y13028258D01*
X55271305Y13240484D01*
X55341126Y13427498D01*
X55400719Y13586912D01*
X55449192Y13716341D01*
X55485657Y13813397D01*
X55509223Y13875695D01*
X55519000Y13900849D01*
X55519157Y13901181D01*
X55523897Y13898588D01*
X55520317Y13863965D01*
X55519448Y13858813D01*
X55511425Y13809516D01*
X55504842Y13759867D01*
X55499878Y13707286D01*
X55496714Y13649194D01*
X55495529Y13583009D01*
X55496503Y13506153D01*
X55499817Y13416044D01*
X55505650Y13310104D01*
X55514182Y13185753D01*
X55525593Y13040409D01*
X55540063Y12871494D01*
X55557771Y12676427D01*
X55578899Y12452629D01*
X55603626Y12197519D01*
X55632131Y11908517D01*
X55664594Y11583044D01*
X55701197Y11218520D01*
X55708981Y11141180D01*
X55749240Y10740833D01*
X55785371Y10380119D01*
X55817575Y10056527D01*
X55846052Y9767543D01*
X55871003Y9510654D01*
X55892628Y9283348D01*
X55911129Y9083111D01*
X55926705Y8907430D01*
X55939557Y8753793D01*
X55949886Y8619686D01*
X55957892Y8502597D01*
X55963776Y8400013D01*
X55967738Y8309420D01*
X55969978Y8228307D01*
X55970698Y8154159D01*
X55970098Y8084464D01*
X55968377Y8016709D01*
X55965738Y7948382D01*
X55965030Y7932499D01*
X55950834Y7620030D01*
X56534976Y7620030D01*
X56715574Y7620447D01*
X56857533Y7621810D01*
X56964579Y7624288D01*
X57040433Y7628049D01*
X57088819Y7633264D01*
X57113461Y7640100D01*
X57118600Y7646511D01*
X57113763Y7682983D01*
X57102383Y7740758D01*
X57098585Y7757728D01*
X57087361Y7811129D01*
X57075685Y7876486D01*
X57063350Y7955811D01*
X57050152Y8051119D01*
X57035884Y8164422D01*
X57020340Y8297734D01*
X57003317Y8453068D01*
X56984607Y8632436D01*
X56964006Y8837853D01*
X56941307Y9071331D01*
X56916306Y9334884D01*
X56888796Y9630525D01*
X56858573Y9960267D01*
X56825431Y10326123D01*
X56789163Y10730106D01*
X56749565Y11174230D01*
X56748200Y11189588D01*
X56707684Y11646459D01*
X56670948Y12063302D01*
X56637840Y12442275D01*
X56608204Y12785536D01*
X56581888Y13095241D01*
X56558738Y13373549D01*
X56538600Y13622618D01*
X56521320Y13844605D01*
X56512436Y13964734D01*
X55551478Y13964734D01*
X55540886Y13954142D01*
X55530293Y13964734D01*
X55540886Y13975326D01*
X55551478Y13964734D01*
X56512436Y13964734D01*
X56506746Y14041667D01*
X56494724Y14215964D01*
X56485099Y14369651D01*
X56477718Y14504887D01*
X56472429Y14623830D01*
X56469076Y14728637D01*
X56467507Y14821465D01*
X56467567Y14904474D01*
X56469104Y14979819D01*
X56471964Y15049660D01*
X56472580Y15061302D01*
X56486173Y15310498D01*
X55035273Y15299346D01*
X54989009Y15002766D01*
X54969598Y14883666D01*
X54949006Y14770134D01*
X54926082Y14658534D01*
X54899678Y14545228D01*
X54868645Y14426581D01*
X54831834Y14298955D01*
X54788097Y14158714D01*
X54736285Y14002221D01*
X54675249Y13825840D01*
X54603840Y13625933D01*
X54520910Y13398864D01*
X54425309Y13140996D01*
X54315888Y12848693D01*
X54269998Y12726641D01*
X54133183Y12365158D01*
X53998855Y12014255D01*
X53869047Y11679126D01*
X53745794Y11364969D01*
X53631129Y11076978D01*
X53527086Y10820349D01*
X53465180Y10670572D01*
X53411288Y10540519D01*
X53359700Y10414431D01*
X53313948Y10301060D01*
X53277562Y10209156D01*
X53254075Y10147471D01*
X53253946Y10147115D01*
X53206213Y10015567D01*
X53179509Y10104696D01*
X53157710Y10164311D01*
X53122425Y10247000D01*
X53079920Y10338354D01*
X53062378Y10373942D01*
X53004316Y10491781D01*
X52932016Y10642141D01*
X52846933Y10821800D01*
X52750520Y11027535D01*
X52644234Y11256123D01*
X52529528Y11504342D01*
X52407857Y11768970D01*
X52280677Y12046783D01*
X52149440Y12334560D01*
X52015604Y12629077D01*
X51880621Y12927112D01*
X51745947Y13225443D01*
X51613037Y13520847D01*
X51483345Y13810100D01*
X51358325Y14089982D01*
X51239433Y14357269D01*
X51128123Y14608738D01*
X51025851Y14841168D01*
X50934069Y15051335D01*
X50854234Y15236017D01*
X50787801Y15391991D01*
X50736222Y15516035D01*
X50700955Y15604926D01*
X50700351Y15606519D01*
X50657008Y15724437D01*
X50614145Y15846691D01*
X50576863Y15958412D01*
X50551389Y16040798D01*
X50526369Y16122552D01*
X50503092Y16189920D01*
X50485644Y16231309D01*
X50482293Y16236753D01*
X50457029Y16243109D01*
X50395467Y16248699D01*
X50303520Y16253497D01*
X50187103Y16257472D01*
X50052128Y16260598D01*
X49904509Y16262846D01*
X49750160Y16264189D01*
X49594994Y16264597D01*
X49444926Y16264044D01*
G36*
X41112244Y16432250D02*
X40977271Y16430752D01*
X40876985Y16428026D01*
X40807549Y16423885D01*
X40765126Y16418141D01*
X40745880Y16410607D01*
X40743747Y16406227D01*
X40748074Y16375999D01*
X40759752Y16313685D01*
X40776967Y16228565D01*
X40796559Y16136127D01*
X40820985Y16011594D01*
X40845832Y15865323D01*
X40867786Y15717781D01*
X40880532Y15617111D01*
X40887101Y15553851D01*
X40896544Y15455071D01*
X40908580Y15324089D01*
X40922931Y15164221D01*
X40939321Y14978784D01*
X40957469Y14771095D01*
X40977098Y14544471D01*
X40997930Y14302227D01*
X41019687Y14047681D01*
X41042089Y13784150D01*
X41064860Y13514950D01*
X41087719Y13243398D01*
X41110391Y12972810D01*
X41132595Y12706504D01*
X41154054Y12447796D01*
X41174490Y12200003D01*
X41193624Y11966441D01*
X41211178Y11750427D01*
X41226874Y11555278D01*
X41240433Y11384310D01*
X41251577Y11240841D01*
X41260029Y11128187D01*
X41265509Y11049664D01*
X41267739Y11008590D01*
X41267624Y11003248D01*
X41251738Y11014137D01*
X41208137Y11052245D01*
X41139382Y11115149D01*
X41048033Y11200428D01*
X40936650Y11305660D01*
X40807793Y11428422D01*
X40664023Y11566293D01*
X40507900Y11716851D01*
X40341983Y11877675D01*
X40295075Y11923285D01*
X40114772Y12098594D01*
X39934264Y12273865D01*
X39757411Y12445364D01*
X39588077Y12609356D01*
X39430123Y12762105D01*
X39287411Y12899876D01*
X39163805Y13018933D01*
X39063165Y13115543D01*
X38994904Y13180700D01*
X38888265Y13283521D01*
X38785020Y13385808D01*
X38691764Y13480822D01*
X38615092Y13561823D01*
X38561599Y13622073D01*
X38554401Y13630867D01*
X38448129Y13763483D01*
X37726367Y13762522D01*
X37004605Y13761560D01*
X37121119Y13654503D01*
X37179465Y13602572D01*
X37261496Y13531816D01*
X37357983Y13450092D01*
X37459695Y13365253D01*
X37502437Y13330018D01*
X37568248Y13275870D01*
X37628523Y13225874D01*
X37686059Y13177486D01*
X37743650Y13128161D01*
X37804091Y13075354D01*
X37870177Y13016520D01*
X37944703Y12949114D01*
X38030464Y12870591D01*
X38130254Y12778405D01*
X38246869Y12670012D01*
X38383104Y12542867D01*
X38541753Y12394424D01*
X38725612Y12222139D01*
X38937475Y12023466D01*
X38944158Y12017197D01*
X39103818Y11867016D01*
X39253727Y11725164D01*
X39391106Y11594332D01*
X39513171Y11477208D01*
X39617141Y11376481D01*
X39700236Y11294842D01*
X39759674Y11234980D01*
X39792673Y11199584D01*
X39798633Y11191009D01*
X39786435Y11169873D01*
X39752172Y11117195D01*
X39698026Y11036176D01*
X39626178Y10930020D01*
X39538810Y10801928D01*
X39438105Y10655102D01*
X39326243Y10492744D01*
X39205406Y10318057D01*
X39119269Y10193925D01*
X38976956Y9988929D01*
X38828671Y9775025D01*
X38678665Y9558362D01*
X38531189Y9345094D01*
X38390493Y9141371D01*
X38260829Y8953344D01*
X38146446Y8787166D01*
X38051597Y8648987D01*
X38043303Y8636878D01*
X37908066Y8440059D01*
X37793508Y8275015D01*
X37696966Y8138164D01*
X37615774Y8025923D01*
X37547269Y7934711D01*
X37488785Y7860944D01*
X37437657Y7801041D01*
X37391223Y7751420D01*
X37366593Y7727092D01*
X37322666Y7681742D01*
X37295218Y7647337D01*
X37290594Y7637059D01*
X37310945Y7632945D01*
X37368671Y7629200D01*
X37458776Y7625948D01*
X37576267Y7623313D01*
X37716149Y7621416D01*
X37873429Y7620381D01*
X37973788Y7620225D01*
X38656982Y7620420D01*
X38741636Y7805588D01*
X38762129Y7849562D01*
X38783816Y7893817D01*
X38808312Y7940944D01*
X38837232Y7993534D01*
X38872192Y8054178D01*
X38914806Y8125465D01*
X38966689Y8209987D01*
X39029457Y8310334D01*
X39104724Y8429097D01*
X39194105Y8568865D01*
X39299216Y8732231D01*
X39421671Y8921783D01*
X39563086Y9140114D01*
X39725075Y9389812D01*
X39831085Y9553099D01*
X39954789Y9743130D01*
X40071928Y9922153D01*
X40180434Y10087071D01*
X40278242Y10234788D01*
X40363285Y10362206D01*
X40433496Y10466229D01*
X40486810Y10543759D01*
X40521159Y10591701D01*
X40534312Y10607019D01*
X40555765Y10593068D01*
X40602586Y10554305D01*
X40669817Y10495368D01*
X40752506Y10420896D01*
X40845696Y10335526D01*
X40944432Y10243895D01*
X41043760Y10150642D01*
X41138725Y10060405D01*
X41224371Y9977820D01*
X41295743Y9907527D01*
X41347887Y9854162D01*
X41375848Y9822364D01*
X41379226Y9816197D01*
X41381137Y9789428D01*
X41386509Y9726046D01*
X41394842Y9631621D01*
X41405638Y9511725D01*
X41418400Y9371926D01*
X41432630Y9217797D01*
X41435428Y9187670D01*
X41461164Y8884619D01*
X41478993Y8610407D01*
X41489593Y8352385D01*
X41493627Y8101974D01*
X41495681Y7620030D01*
X42030585Y7620030D01*
X42214401Y7620748D01*
X42357659Y7622954D01*
X42462146Y7626724D01*
X42529649Y7632137D01*
X42561955Y7639270D01*
X42565489Y7643183D01*
X42561500Y7672826D01*
X42550769Y7733728D01*
X42535153Y7815663D01*
X42524160Y7870914D01*
X42511124Y7937660D01*
X42498460Y8007723D01*
X42485959Y8083207D01*
X42473415Y8166221D01*
X42460620Y8258870D01*
X42447365Y8363262D01*
X42433443Y8481501D01*
X42418646Y8615695D01*
X42402767Y8767951D01*
X42385598Y8940374D01*
X42366931Y9135071D01*
X42346558Y9354148D01*
X42324272Y9599713D01*
X42299865Y9873870D01*
X42273129Y10178728D01*
X42243856Y10516391D01*
X42211839Y10888967D01*
X42176870Y11298562D01*
X42138741Y11747283D01*
X42119576Y11973408D01*
X42078123Y12463614D01*
X42040236Y12913499D01*
X42005780Y13324949D01*
X41974621Y13699852D01*
X41946624Y14040092D01*
X41921655Y14347557D01*
X41899578Y14624132D01*
X41880260Y14871704D01*
X41863565Y15092158D01*
X41849360Y15287381D01*
X41837509Y15459260D01*
X41827877Y15609680D01*
X41820332Y15740527D01*
X41814736Y15853688D01*
X41810957Y15951048D01*
X41808860Y16034495D01*
X41808310Y16105914D01*
X41809172Y16167191D01*
X41811311Y16220213D01*
X41813851Y16257937D01*
X41827842Y16432707D01*
X41285740Y16432707D01*
X41112244Y16432250D01*
X41112244Y16432250D01*
G37*
X41112244Y16432250D02*
X40977271Y16430752D01*
X40876985Y16428026D01*
X40807549Y16423885D01*
X40765126Y16418141D01*
X40745880Y16410607D01*
X40743747Y16406227D01*
X40748074Y16375999D01*
X40759752Y16313685D01*
X40776967Y16228565D01*
X40796559Y16136127D01*
X40820985Y16011594D01*
X40845832Y15865323D01*
X40867786Y15717781D01*
X40880532Y15617111D01*
X40887101Y15553851D01*
X40896544Y15455071D01*
X40908580Y15324089D01*
X40922931Y15164221D01*
X40939321Y14978784D01*
X40957469Y14771095D01*
X40977098Y14544471D01*
X40997930Y14302227D01*
X41019687Y14047681D01*
X41042089Y13784150D01*
X41064860Y13514950D01*
X41087719Y13243398D01*
X41110391Y12972810D01*
X41132595Y12706504D01*
X41154054Y12447796D01*
X41174490Y12200003D01*
X41193624Y11966441D01*
X41211178Y11750427D01*
X41226874Y11555278D01*
X41240433Y11384310D01*
X41251577Y11240841D01*
X41260029Y11128187D01*
X41265509Y11049664D01*
X41267739Y11008590D01*
X41267624Y11003248D01*
X41251738Y11014137D01*
X41208137Y11052245D01*
X41139382Y11115149D01*
X41048033Y11200428D01*
X40936650Y11305660D01*
X40807793Y11428422D01*
X40664023Y11566293D01*
X40507900Y11716851D01*
X40341983Y11877675D01*
X40295075Y11923285D01*
X40114772Y12098594D01*
X39934264Y12273865D01*
X39757411Y12445364D01*
X39588077Y12609356D01*
X39430123Y12762105D01*
X39287411Y12899876D01*
X39163805Y13018933D01*
X39063165Y13115543D01*
X38994904Y13180700D01*
X38888265Y13283521D01*
X38785020Y13385808D01*
X38691764Y13480822D01*
X38615092Y13561823D01*
X38561599Y13622073D01*
X38554401Y13630867D01*
X38448129Y13763483D01*
X37726367Y13762522D01*
X37004605Y13761560D01*
X37121119Y13654503D01*
X37179465Y13602572D01*
X37261496Y13531816D01*
X37357983Y13450092D01*
X37459695Y13365253D01*
X37502437Y13330018D01*
X37568248Y13275870D01*
X37628523Y13225874D01*
X37686059Y13177486D01*
X37743650Y13128161D01*
X37804091Y13075354D01*
X37870177Y13016520D01*
X37944703Y12949114D01*
X38030464Y12870591D01*
X38130254Y12778405D01*
X38246869Y12670012D01*
X38383104Y12542867D01*
X38541753Y12394424D01*
X38725612Y12222139D01*
X38937475Y12023466D01*
X38944158Y12017197D01*
X39103818Y11867016D01*
X39253727Y11725164D01*
X39391106Y11594332D01*
X39513171Y11477208D01*
X39617141Y11376481D01*
X39700236Y11294842D01*
X39759674Y11234980D01*
X39792673Y11199584D01*
X39798633Y11191009D01*
X39786435Y11169873D01*
X39752172Y11117195D01*
X39698026Y11036176D01*
X39626178Y10930020D01*
X39538810Y10801928D01*
X39438105Y10655102D01*
X39326243Y10492744D01*
X39205406Y10318057D01*
X39119269Y10193925D01*
X38976956Y9988929D01*
X38828671Y9775025D01*
X38678665Y9558362D01*
X38531189Y9345094D01*
X38390493Y9141371D01*
X38260829Y8953344D01*
X38146446Y8787166D01*
X38051597Y8648987D01*
X38043303Y8636878D01*
X37908066Y8440059D01*
X37793508Y8275015D01*
X37696966Y8138164D01*
X37615774Y8025923D01*
X37547269Y7934711D01*
X37488785Y7860944D01*
X37437657Y7801041D01*
X37391223Y7751420D01*
X37366593Y7727092D01*
X37322666Y7681742D01*
X37295218Y7647337D01*
X37290594Y7637059D01*
X37310945Y7632945D01*
X37368671Y7629200D01*
X37458776Y7625948D01*
X37576267Y7623313D01*
X37716149Y7621416D01*
X37873429Y7620381D01*
X37973788Y7620225D01*
X38656982Y7620420D01*
X38741636Y7805588D01*
X38762129Y7849562D01*
X38783816Y7893817D01*
X38808312Y7940944D01*
X38837232Y7993534D01*
X38872192Y8054178D01*
X38914806Y8125465D01*
X38966689Y8209987D01*
X39029457Y8310334D01*
X39104724Y8429097D01*
X39194105Y8568865D01*
X39299216Y8732231D01*
X39421671Y8921783D01*
X39563086Y9140114D01*
X39725075Y9389812D01*
X39831085Y9553099D01*
X39954789Y9743130D01*
X40071928Y9922153D01*
X40180434Y10087071D01*
X40278242Y10234788D01*
X40363285Y10362206D01*
X40433496Y10466229D01*
X40486810Y10543759D01*
X40521159Y10591701D01*
X40534312Y10607019D01*
X40555765Y10593068D01*
X40602586Y10554305D01*
X40669817Y10495368D01*
X40752506Y10420896D01*
X40845696Y10335526D01*
X40944432Y10243895D01*
X41043760Y10150642D01*
X41138725Y10060405D01*
X41224371Y9977820D01*
X41295743Y9907527D01*
X41347887Y9854162D01*
X41375848Y9822364D01*
X41379226Y9816197D01*
X41381137Y9789428D01*
X41386509Y9726046D01*
X41394842Y9631621D01*
X41405638Y9511725D01*
X41418400Y9371926D01*
X41432630Y9217797D01*
X41435428Y9187670D01*
X41461164Y8884619D01*
X41478993Y8610407D01*
X41489593Y8352385D01*
X41493627Y8101974D01*
X41495681Y7620030D01*
X42030585Y7620030D01*
X42214401Y7620748D01*
X42357659Y7622954D01*
X42462146Y7626724D01*
X42529649Y7632137D01*
X42561955Y7639270D01*
X42565489Y7643183D01*
X42561500Y7672826D01*
X42550769Y7733728D01*
X42535153Y7815663D01*
X42524160Y7870914D01*
X42511124Y7937660D01*
X42498460Y8007723D01*
X42485959Y8083207D01*
X42473415Y8166221D01*
X42460620Y8258870D01*
X42447365Y8363262D01*
X42433443Y8481501D01*
X42418646Y8615695D01*
X42402767Y8767951D01*
X42385598Y8940374D01*
X42366931Y9135071D01*
X42346558Y9354148D01*
X42324272Y9599713D01*
X42299865Y9873870D01*
X42273129Y10178728D01*
X42243856Y10516391D01*
X42211839Y10888967D01*
X42176870Y11298562D01*
X42138741Y11747283D01*
X42119576Y11973408D01*
X42078123Y12463614D01*
X42040236Y12913499D01*
X42005780Y13324949D01*
X41974621Y13699852D01*
X41946624Y14040092D01*
X41921655Y14347557D01*
X41899578Y14624132D01*
X41880260Y14871704D01*
X41863565Y15092158D01*
X41849360Y15287381D01*
X41837509Y15459260D01*
X41827877Y15609680D01*
X41820332Y15740527D01*
X41814736Y15853688D01*
X41810957Y15951048D01*
X41808860Y16034495D01*
X41808310Y16105914D01*
X41809172Y16167191D01*
X41811311Y16220213D01*
X41813851Y16257937D01*
X41827842Y16432707D01*
X41285740Y16432707D01*
X41112244Y16432250D01*
G36*
X48376103Y8642326D02*
X48273248Y8596047D01*
X48208770Y8543444D01*
X48141551Y8449720D01*
X48108446Y8343841D01*
X48108232Y8234692D01*
X48139681Y8131156D01*
X48201571Y8042117D01*
X48286547Y7979505D01*
X48391824Y7944554D01*
X48502589Y7939182D01*
X48604258Y7963129D01*
X48647049Y7985964D01*
X48741637Y8070597D01*
X48797299Y8171377D01*
X48814864Y8285504D01*
X48797004Y8406026D01*
X48747962Y8505990D01*
X48674544Y8582498D01*
X48583557Y8632655D01*
X48481808Y8653563D01*
X48376103Y8642326D01*
X48376103Y8642326D01*
G37*
X48376103Y8642326D02*
X48273248Y8596047D01*
X48208770Y8543444D01*
X48141551Y8449720D01*
X48108446Y8343841D01*
X48108232Y8234692D01*
X48139681Y8131156D01*
X48201571Y8042117D01*
X48286547Y7979505D01*
X48391824Y7944554D01*
X48502589Y7939182D01*
X48604258Y7963129D01*
X48647049Y7985964D01*
X48741637Y8070597D01*
X48797299Y8171377D01*
X48814864Y8285504D01*
X48797004Y8406026D01*
X48747962Y8505990D01*
X48674544Y8582498D01*
X48583557Y8632655D01*
X48481808Y8653563D01*
X48376103Y8642326D01*
G36*
X43485832Y8643490D02*
X43390381Y8605764D01*
X43308255Y8542614D01*
X43245823Y8457830D01*
X43209453Y8355206D01*
X43205514Y8238531D01*
X43208019Y8220630D01*
X43239366Y8132679D01*
X43297931Y8047290D01*
X43371159Y7981623D01*
X43391721Y7969549D01*
X43479141Y7942737D01*
X43581917Y7937911D01*
X43681762Y7954236D01*
X43753652Y7986086D01*
X43843271Y8069299D01*
X43898393Y8169813D01*
X43918540Y8279677D01*
X43903236Y8390940D01*
X43852002Y8495651D01*
X43788457Y8566208D01*
X43691238Y8627503D01*
X43588240Y8652000D01*
X43485832Y8643490D01*
X43485832Y8643490D01*
G37*
X43485832Y8643490D02*
X43390381Y8605764D01*
X43308255Y8542614D01*
X43245823Y8457830D01*
X43209453Y8355206D01*
X43205514Y8238531D01*
X43208019Y8220630D01*
X43239366Y8132679D01*
X43297931Y8047290D01*
X43371159Y7981623D01*
X43391721Y7969549D01*
X43479141Y7942737D01*
X43581917Y7937911D01*
X43681762Y7954236D01*
X43753652Y7986086D01*
X43843271Y8069299D01*
X43898393Y8169813D01*
X43918540Y8279677D01*
X43903236Y8390940D01*
X43852002Y8495651D01*
X43788457Y8566208D01*
X43691238Y8627503D01*
X43588240Y8652000D01*
X43485832Y8643490D01*
G36*
X48207905Y10609470D02*
X48052254Y10569276D01*
X47910010Y10495460D01*
X47787645Y10390661D01*
X47691632Y10257518D01*
X47676838Y10229103D01*
X47646172Y10160050D01*
X47628277Y10097237D01*
X47619941Y10024307D01*
X47617950Y9929121D01*
X47620097Y9831080D01*
X47628693Y9758884D01*
X47646973Y9696133D01*
X47677274Y9628248D01*
X47767852Y9488999D01*
X47886078Y9377004D01*
X48025354Y9295427D01*
X48179082Y9247426D01*
X48340665Y9236163D01*
X48460356Y9253088D01*
X48606108Y9307953D01*
X48740077Y9397490D01*
X48852819Y9514066D01*
X48924757Y9628412D01*
X48949188Y9685471D01*
X48964019Y9743871D01*
X48971388Y9816835D01*
X48973437Y9917581D01*
X48973433Y9929121D01*
X48971826Y10029563D01*
X48965722Y10101139D01*
X48952639Y10157303D01*
X48930096Y10211509D01*
X48916348Y10238573D01*
X48841771Y10348494D01*
X48742303Y10450050D01*
X48630656Y10531955D01*
X48533541Y10578434D01*
X48370491Y10613402D01*
X48207905Y10609470D01*
X48207905Y10609470D01*
G37*
X48207905Y10609470D02*
X48052254Y10569276D01*
X47910010Y10495460D01*
X47787645Y10390661D01*
X47691632Y10257518D01*
X47676838Y10229103D01*
X47646172Y10160050D01*
X47628277Y10097237D01*
X47619941Y10024307D01*
X47617950Y9929121D01*
X47620097Y9831080D01*
X47628693Y9758884D01*
X47646973Y9696133D01*
X47677274Y9628248D01*
X47767852Y9488999D01*
X47886078Y9377004D01*
X48025354Y9295427D01*
X48179082Y9247426D01*
X48340665Y9236163D01*
X48460356Y9253088D01*
X48606108Y9307953D01*
X48740077Y9397490D01*
X48852819Y9514066D01*
X48924757Y9628412D01*
X48949188Y9685471D01*
X48964019Y9743871D01*
X48971388Y9816835D01*
X48973437Y9917581D01*
X48973433Y9929121D01*
X48971826Y10029563D01*
X48965722Y10101139D01*
X48952639Y10157303D01*
X48930096Y10211509D01*
X48916348Y10238573D01*
X48841771Y10348494D01*
X48742303Y10450050D01*
X48630656Y10531955D01*
X48533541Y10578434D01*
X48370491Y10613402D01*
X48207905Y10609470D01*
G36*
X43242812Y10596864D02*
X43085969Y10540410D01*
X42949544Y10449284D01*
X42837944Y10326294D01*
X42767937Y10203383D01*
X42737798Y10130386D01*
X42721168Y10068582D01*
X42715146Y10000650D01*
X42716829Y9909271D01*
X42717201Y9900628D01*
X42735039Y9748496D01*
X42777044Y9622165D01*
X42848267Y9509626D01*
X42911059Y9439752D01*
X43041577Y9337387D01*
X43190941Y9270094D01*
X43351854Y9239604D01*
X43517022Y9247643D01*
X43617228Y9272365D01*
X43758611Y9339669D01*
X43884818Y9440584D01*
X43986350Y9566733D01*
X44020845Y9628248D01*
X44051454Y9696730D01*
X44069255Y9757996D01*
X44077382Y9828283D01*
X44078971Y9923827D01*
X44078938Y9929121D01*
X44075241Y10034595D01*
X44064096Y10112940D01*
X44042874Y10179118D01*
X44030074Y10207401D01*
X43938436Y10353162D01*
X43821219Y10470359D01*
X43683864Y10555377D01*
X43531815Y10604596D01*
X43415663Y10615840D01*
X43242812Y10596864D01*
X43242812Y10596864D01*
G37*
X43242812Y10596864D02*
X43085969Y10540410D01*
X42949544Y10449284D01*
X42837944Y10326294D01*
X42767937Y10203383D01*
X42737798Y10130386D01*
X42721168Y10068582D01*
X42715146Y10000650D01*
X42716829Y9909271D01*
X42717201Y9900628D01*
X42735039Y9748496D01*
X42777044Y9622165D01*
X42848267Y9509626D01*
X42911059Y9439752D01*
X43041577Y9337387D01*
X43190941Y9270094D01*
X43351854Y9239604D01*
X43517022Y9247643D01*
X43617228Y9272365D01*
X43758611Y9339669D01*
X43884818Y9440584D01*
X43986350Y9566733D01*
X44020845Y9628248D01*
X44051454Y9696730D01*
X44069255Y9757996D01*
X44077382Y9828283D01*
X44078971Y9923827D01*
X44078938Y9929121D01*
X44075241Y10034595D01*
X44064096Y10112940D01*
X44042874Y10179118D01*
X44030074Y10207401D01*
X43938436Y10353162D01*
X43821219Y10470359D01*
X43683864Y10555377D01*
X43531815Y10604596D01*
X43415663Y10615840D01*
X43242812Y10596864D01*
G36*
X46577474Y10274805D02*
X46497173Y10241241D01*
X46399543Y10164261D01*
X46336351Y10069328D01*
X46307924Y9963620D01*
X46314589Y9854314D01*
X46356672Y9748586D01*
X46434500Y9653615D01*
X46469131Y9625073D01*
X46537837Y9593518D01*
X46628764Y9576873D01*
X46723966Y9576570D01*
X46805500Y9594036D01*
X46813996Y9597612D01*
X46905100Y9660291D01*
X46973880Y9749754D01*
X47014987Y9854921D01*
X47023075Y9964712D01*
X47014456Y10012895D01*
X46965770Y10122497D01*
X46890043Y10206882D01*
X46794960Y10262657D01*
X46688209Y10286429D01*
X46577474Y10274805D01*
X46577474Y10274805D01*
G37*
X46577474Y10274805D02*
X46497173Y10241241D01*
X46399543Y10164261D01*
X46336351Y10069328D01*
X46307924Y9963620D01*
X46314589Y9854314D01*
X46356672Y9748586D01*
X46434500Y9653615D01*
X46469131Y9625073D01*
X46537837Y9593518D01*
X46628764Y9576873D01*
X46723966Y9576570D01*
X46805500Y9594036D01*
X46813996Y9597612D01*
X46905100Y9660291D01*
X46973880Y9749754D01*
X47014987Y9854921D01*
X47023075Y9964712D01*
X47014456Y10012895D01*
X46965770Y10122497D01*
X46890043Y10206882D01*
X46794960Y10262657D01*
X46688209Y10286429D01*
X46577474Y10274805D01*
G36*
X44969006Y10279539D02*
X44874195Y10249708D01*
X44789868Y10192998D01*
X44722721Y10108666D01*
X44683662Y10012895D01*
X44673192Y9901397D01*
X44698740Y9797612D01*
X44754019Y9706958D01*
X44832739Y9634856D01*
X44928614Y9586724D01*
X45035354Y9567980D01*
X45146673Y9584045D01*
X45171150Y9592787D01*
X45269378Y9653290D01*
X45338761Y9742754D01*
X45376585Y9856790D01*
X45383004Y9935529D01*
X45365924Y10051420D01*
X45319147Y10144877D01*
X45249370Y10215159D01*
X45163289Y10261523D01*
X45067602Y10283230D01*
X44969006Y10279539D01*
X44969006Y10279539D01*
G37*
X44969006Y10279539D02*
X44874195Y10249708D01*
X44789868Y10192998D01*
X44722721Y10108666D01*
X44683662Y10012895D01*
X44673192Y9901397D01*
X44698740Y9797612D01*
X44754019Y9706958D01*
X44832739Y9634856D01*
X44928614Y9586724D01*
X45035354Y9567980D01*
X45146673Y9584045D01*
X45171150Y9592787D01*
X45269378Y9653290D01*
X45338761Y9742754D01*
X45376585Y9856790D01*
X45383004Y9935529D01*
X45365924Y10051420D01*
X45319147Y10144877D01*
X45249370Y10215159D01*
X45163289Y10261523D01*
X45067602Y10283230D01*
X44969006Y10279539D01*
G36*
X43270264Y12146989D02*
X43115545Y12105481D01*
X42972410Y12026003D01*
X42855988Y11920989D01*
X42762904Y11789149D01*
X42707051Y11647387D01*
X42686158Y11501115D01*
X42697960Y11355740D01*
X42740187Y11216672D01*
X42810572Y11089323D01*
X42906847Y10979099D01*
X43026743Y10891413D01*
X43167993Y10831673D01*
X43323649Y10805522D01*
X43420843Y10805933D01*
X43509704Y10815964D01*
X43550560Y10825895D01*
X43708972Y10898446D01*
X43838611Y11002053D01*
X43939205Y11136476D01*
X43966946Y11189588D01*
X44013491Y11332594D01*
X44028685Y11490210D01*
X44011839Y11647806D01*
X43991957Y11719774D01*
X43937905Y11825743D01*
X43853262Y11930226D01*
X43748823Y12022652D01*
X43635380Y12092453D01*
X43592929Y12110560D01*
X43431186Y12149144D01*
X43270264Y12146989D01*
X43270264Y12146989D01*
G37*
X43270264Y12146989D02*
X43115545Y12105481D01*
X42972410Y12026003D01*
X42855988Y11920989D01*
X42762904Y11789149D01*
X42707051Y11647387D01*
X42686158Y11501115D01*
X42697960Y11355740D01*
X42740187Y11216672D01*
X42810572Y11089323D01*
X42906847Y10979099D01*
X43026743Y10891413D01*
X43167993Y10831673D01*
X43323649Y10805522D01*
X43420843Y10805933D01*
X43509704Y10815964D01*
X43550560Y10825895D01*
X43708972Y10898446D01*
X43838611Y11002053D01*
X43939205Y11136476D01*
X43966946Y11189588D01*
X44013491Y11332594D01*
X44028685Y11490210D01*
X44011839Y11647806D01*
X43991957Y11719774D01*
X43937905Y11825743D01*
X43853262Y11930226D01*
X43748823Y12022652D01*
X43635380Y12092453D01*
X43592929Y12110560D01*
X43431186Y12149144D01*
X43270264Y12146989D01*
G36*
X47964476Y12229319D02*
X47811044Y12172619D01*
X47678884Y12079813D01*
X47570208Y11952284D01*
X47518038Y11861390D01*
X47461878Y11702147D01*
X47446153Y11539939D01*
X47469837Y11380538D01*
X47531907Y11229715D01*
X47631340Y11093241D01*
X47659474Y11064403D01*
X47782051Y10972525D01*
X47926459Y10908648D01*
X48080892Y10876315D01*
X48233540Y10879068D01*
X48261281Y10883833D01*
X48406725Y10931201D01*
X48542776Y11009852D01*
X48658999Y11112155D01*
X48744958Y11230478D01*
X48751022Y11241983D01*
X48798036Y11366417D01*
X48823419Y11504245D01*
X48824456Y11636987D01*
X48816651Y11688317D01*
X48761363Y11854901D01*
X48674468Y11996360D01*
X48559842Y12109498D01*
X48421360Y12191121D01*
X48262900Y12238034D01*
X48136966Y12248526D01*
X47964476Y12229319D01*
X47964476Y12229319D01*
G37*
X47964476Y12229319D02*
X47811044Y12172619D01*
X47678884Y12079813D01*
X47570208Y11952284D01*
X47518038Y11861390D01*
X47461878Y11702147D01*
X47446153Y11539939D01*
X47469837Y11380538D01*
X47531907Y11229715D01*
X47631340Y11093241D01*
X47659474Y11064403D01*
X47782051Y10972525D01*
X47926459Y10908648D01*
X48080892Y10876315D01*
X48233540Y10879068D01*
X48261281Y10883833D01*
X48406725Y10931201D01*
X48542776Y11009852D01*
X48658999Y11112155D01*
X48744958Y11230478D01*
X48751022Y11241983D01*
X48798036Y11366417D01*
X48823419Y11504245D01*
X48824456Y11636987D01*
X48816651Y11688317D01*
X48761363Y11854901D01*
X48674468Y11996360D01*
X48559842Y12109498D01*
X48421360Y12191121D01*
X48262900Y12238034D01*
X48136966Y12248526D01*
X47964476Y12229319D01*
G36*
X46352543Y11886873D02*
X46256157Y11824786D01*
X46187334Y11734725D01*
X46150739Y11621828D01*
X46145988Y11557112D01*
X46165574Y11445077D01*
X46218412Y11348606D01*
X46296960Y11272658D01*
X46393679Y11222191D01*
X46501028Y11202164D01*
X46611466Y11217537D01*
X46643865Y11229702D01*
X46717745Y11278061D01*
X46786479Y11350155D01*
X46837685Y11431048D01*
X46856768Y11486465D01*
X46860629Y11608902D01*
X46828171Y11718642D01*
X46764703Y11809763D01*
X46675534Y11876343D01*
X46565973Y11912461D01*
X46471828Y11915852D01*
X46352543Y11886873D01*
X46352543Y11886873D01*
G37*
X46352543Y11886873D02*
X46256157Y11824786D01*
X46187334Y11734725D01*
X46150739Y11621828D01*
X46145988Y11557112D01*
X46165574Y11445077D01*
X46218412Y11348606D01*
X46296960Y11272658D01*
X46393679Y11222191D01*
X46501028Y11202164D01*
X46611466Y11217537D01*
X46643865Y11229702D01*
X46717745Y11278061D01*
X46786479Y11350155D01*
X46837685Y11431048D01*
X46856768Y11486465D01*
X46860629Y11608902D01*
X46828171Y11718642D01*
X46764703Y11809763D01*
X46675534Y11876343D01*
X46565973Y11912461D01*
X46471828Y11915852D01*
X46352543Y11886873D01*
G36*
X44839960Y11915796D02*
X44730145Y11893688D01*
X44642931Y11843527D01*
X44566842Y11758467D01*
X44560256Y11749025D01*
X44525184Y11665106D01*
X44515014Y11562855D01*
X44529112Y11457749D01*
X44566842Y11365263D01*
X44576628Y11350397D01*
X44655702Y11273533D01*
X44757679Y11223595D01*
X44870224Y11203985D01*
X44981003Y11218103D01*
X45013329Y11229978D01*
X45108382Y11292713D01*
X45176784Y11381117D01*
X45215930Y11485977D01*
X45223218Y11598080D01*
X45196044Y11708214D01*
X45164711Y11765732D01*
X45082403Y11852428D01*
X44978558Y11903376D01*
X44856856Y11916876D01*
X44839960Y11915796D01*
X44839960Y11915796D01*
G37*
X44839960Y11915796D02*
X44730145Y11893688D01*
X44642931Y11843527D01*
X44566842Y11758467D01*
X44560256Y11749025D01*
X44525184Y11665106D01*
X44515014Y11562855D01*
X44529112Y11457749D01*
X44566842Y11365263D01*
X44576628Y11350397D01*
X44655702Y11273533D01*
X44757679Y11223595D01*
X44870224Y11203985D01*
X44981003Y11218103D01*
X45013329Y11229978D01*
X45108382Y11292713D01*
X45176784Y11381117D01*
X45215930Y11485977D01*
X45223218Y11598080D01*
X45196044Y11708214D01*
X45164711Y11765732D01*
X45082403Y11852428D01*
X44978558Y11903376D01*
X44856856Y11916876D01*
X44839960Y11915796D01*
G36*
X46210546Y13873153D02*
X46078820Y13839377D01*
X46036317Y13821109D01*
X45898214Y13732112D01*
X45790824Y13619712D01*
X45714182Y13489724D01*
X45668322Y13347964D01*
X45653277Y13200249D01*
X45669081Y13052396D01*
X45715768Y12910220D01*
X45793371Y12779538D01*
X45901924Y12666167D01*
X46029126Y12582170D01*
X46127824Y12546231D01*
X46249298Y12524091D01*
X46377602Y12516810D01*
X46496790Y12525448D01*
X46577996Y12545705D01*
X46720556Y12621913D01*
X46844987Y12732153D01*
X46943990Y12869498D01*
X46968194Y12916110D01*
X47013770Y13057232D01*
X47027201Y13211835D01*
X47008564Y13365888D01*
X46965092Y13491113D01*
X46884022Y13617433D01*
X46773807Y13730684D01*
X46647672Y13817897D01*
X46615416Y13834013D01*
X46494435Y13870818D01*
X46354281Y13883749D01*
X46210546Y13873153D01*
X46210546Y13873153D01*
G37*
X46210546Y13873153D02*
X46078820Y13839377D01*
X46036317Y13821109D01*
X45898214Y13732112D01*
X45790824Y13619712D01*
X45714182Y13489724D01*
X45668322Y13347964D01*
X45653277Y13200249D01*
X45669081Y13052396D01*
X45715768Y12910220D01*
X45793371Y12779538D01*
X45901924Y12666167D01*
X46029126Y12582170D01*
X46127824Y12546231D01*
X46249298Y12524091D01*
X46377602Y12516810D01*
X46496790Y12525448D01*
X46577996Y12545705D01*
X46720556Y12621913D01*
X46844987Y12732153D01*
X46943990Y12869498D01*
X46968194Y12916110D01*
X47013770Y13057232D01*
X47027201Y13211835D01*
X47008564Y13365888D01*
X46965092Y13491113D01*
X46884022Y13617433D01*
X46773807Y13730684D01*
X46647672Y13817897D01*
X46615416Y13834013D01*
X46494435Y13870818D01*
X46354281Y13883749D01*
X46210546Y13873153D01*
G36*
X44597331Y13878357D02*
X44467453Y13850410D01*
X44425988Y13834013D01*
X44284807Y13747863D01*
X44172114Y13636111D01*
X44089238Y13504897D01*
X44037506Y13360361D01*
X44018248Y13208643D01*
X44032792Y13055884D01*
X44082467Y12908223D01*
X44168601Y12771801D01*
X44190600Y12746094D01*
X44305009Y12639096D01*
X44426652Y12569024D01*
X44565907Y12531045D01*
X44673329Y12521179D01*
X44761059Y12520262D01*
X44838275Y12523665D01*
X44890363Y12530665D01*
X44895765Y12532192D01*
X45037070Y12597250D01*
X45164572Y12691460D01*
X45269448Y12806507D01*
X45342875Y12934077D01*
X45354419Y12964406D01*
X45389387Y13127455D01*
X45385454Y13290042D01*
X45345261Y13445693D01*
X45271445Y13587937D01*
X45166646Y13710302D01*
X45033503Y13806315D01*
X45005087Y13821109D01*
X44881739Y13863359D01*
X44740623Y13882557D01*
X44597331Y13878357D01*
X44597331Y13878357D01*
G37*
X44597331Y13878357D02*
X44467453Y13850410D01*
X44425988Y13834013D01*
X44284807Y13747863D01*
X44172114Y13636111D01*
X44089238Y13504897D01*
X44037506Y13360361D01*
X44018248Y13208643D01*
X44032792Y13055884D01*
X44082467Y12908223D01*
X44168601Y12771801D01*
X44190600Y12746094D01*
X44305009Y12639096D01*
X44426652Y12569024D01*
X44565907Y12531045D01*
X44673329Y12521179D01*
X44761059Y12520262D01*
X44838275Y12523665D01*
X44890363Y12530665D01*
X44895765Y12532192D01*
X45037070Y12597250D01*
X45164572Y12691460D01*
X45269448Y12806507D01*
X45342875Y12934077D01*
X45354419Y12964406D01*
X45389387Y13127455D01*
X45385454Y13290042D01*
X45345261Y13445693D01*
X45271445Y13587937D01*
X45166646Y13710302D01*
X45033503Y13806315D01*
X45005087Y13821109D01*
X44881739Y13863359D01*
X44740623Y13882557D01*
X44597331Y13878357D01*
G36*
X47855799Y13533076D02*
X47751112Y13480344D01*
X47671424Y13397885D01*
X47622304Y13290141D01*
X47615725Y13261241D01*
X47614147Y13148613D01*
X47648180Y13044954D01*
X47711176Y12956188D01*
X47796487Y12888243D01*
X47897464Y12847044D01*
X48007459Y12838519D01*
X48075244Y12851619D01*
X48182061Y12904634D01*
X48262561Y12987793D01*
X48312450Y13095046D01*
X48327625Y13207146D01*
X48308253Y13323087D01*
X48254266Y13421493D01*
X48171853Y13496233D01*
X48067202Y13541174D01*
X47979916Y13551640D01*
X47855799Y13533076D01*
X47855799Y13533076D01*
G37*
X47855799Y13533076D02*
X47751112Y13480344D01*
X47671424Y13397885D01*
X47622304Y13290141D01*
X47615725Y13261241D01*
X47614147Y13148613D01*
X47648180Y13044954D01*
X47711176Y12956188D01*
X47796487Y12888243D01*
X47897464Y12847044D01*
X48007459Y12838519D01*
X48075244Y12851619D01*
X48182061Y12904634D01*
X48262561Y12987793D01*
X48312450Y13095046D01*
X48327625Y13207146D01*
X48308253Y13323087D01*
X48254266Y13421493D01*
X48171853Y13496233D01*
X48067202Y13541174D01*
X47979916Y13551640D01*
X47855799Y13533076D01*
G36*
X42950424Y13533513D02*
X42848342Y13481845D01*
X42772420Y13400705D01*
X42727408Y13294160D01*
X42719429Y13248148D01*
X42715997Y13146706D01*
X42735930Y13066358D01*
X42784750Y12989767D01*
X42811733Y12958365D01*
X42907430Y12878153D01*
X43011806Y12839357D01*
X43124186Y12842122D01*
X43214070Y12871901D01*
X43314663Y12938523D01*
X43385154Y13028857D01*
X43422682Y13134854D01*
X43424388Y13248465D01*
X43387840Y13360810D01*
X43319330Y13459837D01*
X43232901Y13521659D01*
X43123430Y13549391D01*
X43073913Y13551640D01*
X42950424Y13533513D01*
X42950424Y13533513D01*
G37*
X42950424Y13533513D02*
X42848342Y13481845D01*
X42772420Y13400705D01*
X42727408Y13294160D01*
X42719429Y13248148D01*
X42715997Y13146706D01*
X42735930Y13066358D01*
X42784750Y12989767D01*
X42811733Y12958365D01*
X42907430Y12878153D01*
X43011806Y12839357D01*
X43124186Y12842122D01*
X43214070Y12871901D01*
X43314663Y12938523D01*
X43385154Y13028857D01*
X43422682Y13134854D01*
X43424388Y13248465D01*
X43387840Y13360810D01*
X43319330Y13459837D01*
X43232901Y13521659D01*
X43123430Y13549391D01*
X43073913Y13551640D01*
X42950424Y13533513D01*
G36*
X20878093Y27797857D02*
X20694708Y27792736D01*
X20535565Y27782507D01*
X20483695Y27777212D01*
X20032532Y27704172D01*
X19597174Y27591921D01*
X19178629Y27440950D01*
X18777903Y27251748D01*
X18396004Y27024805D01*
X18033939Y26760611D01*
X17692716Y26459657D01*
X17613220Y26381189D01*
X17309784Y26045929D01*
X17042825Y25689150D01*
X16812476Y25311112D01*
X16618871Y24912074D01*
X16462143Y24492296D01*
X16342425Y24052035D01*
X16296325Y23823397D01*
X16274585Y23667306D01*
X16258520Y23480060D01*
X16248199Y23272057D01*
X16243693Y23053697D01*
X16245072Y22835377D01*
X16252408Y22627497D01*
X16265770Y22440454D01*
X16285231Y22284648D01*
X16285844Y22280957D01*
X16381851Y21831361D01*
X16515684Y21399610D01*
X16686079Y20987350D01*
X16891770Y20596225D01*
X17131491Y20227881D01*
X17403976Y19883961D01*
X17707961Y19566112D01*
X18042179Y19275977D01*
X18405366Y19015203D01*
X18796255Y18785433D01*
X19083162Y18645060D01*
X19455041Y18498668D01*
X19853419Y18382810D01*
X20274328Y18298580D01*
X20416768Y18278007D01*
X20571745Y18262787D01*
X20755180Y18252946D01*
X20954696Y18248477D01*
X21157917Y18249375D01*
X21352467Y18255636D01*
X21525969Y18267255D01*
X21627649Y18278489D01*
X22063626Y18356619D01*
X22481740Y18469699D01*
X22877284Y18616456D01*
X22879774Y18617519D01*
X23284253Y18812779D01*
X23664468Y19041721D01*
X24018863Y19302253D01*
X24345880Y19592287D01*
X24643960Y19909732D01*
X24911547Y20252498D01*
X25147082Y20618496D01*
X25349007Y21005634D01*
X25515766Y21411824D01*
X25645800Y21834975D01*
X25737552Y22272997D01*
X25768107Y22492800D01*
X25778839Y22620217D01*
X25785860Y22777398D01*
X25789172Y22951903D01*
X25788800Y23119095D01*
X25694193Y23119095D01*
X25693868Y22901756D01*
X25687011Y22691065D01*
X25673620Y22499147D01*
X25656378Y22355102D01*
X25567586Y21910539D01*
X25440700Y21483054D01*
X25277129Y21074402D01*
X25078281Y20686338D01*
X24845562Y20320618D01*
X24580380Y19978997D01*
X24284144Y19663231D01*
X23958261Y19375073D01*
X23604138Y19116280D01*
X23223184Y18888607D01*
X22816805Y18693809D01*
X22673255Y18635441D01*
X22454342Y18559892D01*
X22205616Y18490522D01*
X21939492Y18430100D01*
X21668388Y18381397D01*
X21404722Y18347181D01*
X21362845Y18343125D01*
X21273609Y18338613D01*
X21152368Y18337637D01*
X21009301Y18339800D01*
X20854588Y18344706D01*
X20698410Y18351957D01*
X20550946Y18361159D01*
X20422376Y18371914D01*
X20324813Y18383536D01*
X19892958Y18468986D01*
X19475775Y18592885D01*
X19075339Y18753371D01*
X18693728Y18948585D01*
X18333016Y19176666D01*
X17995278Y19435752D01*
X17682592Y19723985D01*
X17397032Y20039503D01*
X17140675Y20380445D01*
X16915596Y20744952D01*
X16723870Y21131163D01*
X16567574Y21537217D01*
X16481336Y21828512D01*
X16427426Y22049731D01*
X16387458Y22251269D01*
X16359776Y22446490D01*
X16342724Y22648759D01*
X16334646Y22871437D01*
X16333419Y23022408D01*
X16336851Y23264019D01*
X16348252Y23477098D01*
X16369276Y23675009D01*
X16401581Y23871116D01*
X16446820Y24078781D01*
X16481336Y24216305D01*
X16611594Y24633522D01*
X16779085Y25033203D01*
X16981686Y25413271D01*
X17217276Y25771651D01*
X17483733Y26106267D01*
X17778936Y26415043D01*
X18100763Y26695903D01*
X18447092Y26946771D01*
X18815802Y27165572D01*
X19204771Y27350230D01*
X19611878Y27498669D01*
X19923205Y27583890D01*
X20123999Y27628009D01*
X20307850Y27660431D01*
X20487932Y27682605D01*
X20677418Y27695982D01*
X20889480Y27702012D01*
X21002711Y27702722D01*
X21443266Y27685722D01*
X21863037Y27633310D01*
X22266092Y27544385D01*
X22656504Y27417845D01*
X23038341Y27252592D01*
X23407131Y27052626D01*
X23781090Y26805657D01*
X24125671Y26528804D01*
X24439737Y26223768D01*
X24722150Y25892252D01*
X24971772Y25535955D01*
X25187466Y25156581D01*
X25368094Y24755831D01*
X25512517Y24335405D01*
X25619599Y23897006D01*
X25656013Y23689714D01*
X25675262Y23525202D01*
X25687990Y23330953D01*
X25694193Y23119095D01*
X25788800Y23119095D01*
X25788772Y23131291D01*
X25784663Y23303119D01*
X25776844Y23454948D01*
X25768107Y23552016D01*
X25695127Y24001883D01*
X25582746Y24437025D01*
X25431680Y24855955D01*
X25242648Y25257185D01*
X25016366Y25639227D01*
X24753554Y26000593D01*
X24454927Y26339795D01*
X24393354Y26402459D01*
X24058078Y26708521D01*
X23700912Y26978490D01*
X23323167Y27211726D01*
X22926156Y27407589D01*
X22511191Y27565435D01*
X22079584Y27684626D01*
X21632646Y27764518D01*
X21596677Y27769142D01*
X21445012Y27783514D01*
X21266113Y27793153D01*
X21072851Y27797965D01*
X20878093Y27797857D01*
X20878093Y27797857D01*
G37*
X20878093Y27797857D02*
X20694708Y27792736D01*
X20535565Y27782507D01*
X20483695Y27777212D01*
X20032532Y27704172D01*
X19597174Y27591921D01*
X19178629Y27440950D01*
X18777903Y27251748D01*
X18396004Y27024805D01*
X18033939Y26760611D01*
X17692716Y26459657D01*
X17613220Y26381189D01*
X17309784Y26045929D01*
X17042825Y25689150D01*
X16812476Y25311112D01*
X16618871Y24912074D01*
X16462143Y24492296D01*
X16342425Y24052035D01*
X16296325Y23823397D01*
X16274585Y23667306D01*
X16258520Y23480060D01*
X16248199Y23272057D01*
X16243693Y23053697D01*
X16245072Y22835377D01*
X16252408Y22627497D01*
X16265770Y22440454D01*
X16285231Y22284648D01*
X16285844Y22280957D01*
X16381851Y21831361D01*
X16515684Y21399610D01*
X16686079Y20987350D01*
X16891770Y20596225D01*
X17131491Y20227881D01*
X17403976Y19883961D01*
X17707961Y19566112D01*
X18042179Y19275977D01*
X18405366Y19015203D01*
X18796255Y18785433D01*
X19083162Y18645060D01*
X19455041Y18498668D01*
X19853419Y18382810D01*
X20274328Y18298580D01*
X20416768Y18278007D01*
X20571745Y18262787D01*
X20755180Y18252946D01*
X20954696Y18248477D01*
X21157917Y18249375D01*
X21352467Y18255636D01*
X21525969Y18267255D01*
X21627649Y18278489D01*
X22063626Y18356619D01*
X22481740Y18469699D01*
X22877284Y18616456D01*
X22879774Y18617519D01*
X23284253Y18812779D01*
X23664468Y19041721D01*
X24018863Y19302253D01*
X24345880Y19592287D01*
X24643960Y19909732D01*
X24911547Y20252498D01*
X25147082Y20618496D01*
X25349007Y21005634D01*
X25515766Y21411824D01*
X25645800Y21834975D01*
X25737552Y22272997D01*
X25768107Y22492800D01*
X25778839Y22620217D01*
X25785860Y22777398D01*
X25789172Y22951903D01*
X25788800Y23119095D01*
X25694193Y23119095D01*
X25693868Y22901756D01*
X25687011Y22691065D01*
X25673620Y22499147D01*
X25656378Y22355102D01*
X25567586Y21910539D01*
X25440700Y21483054D01*
X25277129Y21074402D01*
X25078281Y20686338D01*
X24845562Y20320618D01*
X24580380Y19978997D01*
X24284144Y19663231D01*
X23958261Y19375073D01*
X23604138Y19116280D01*
X23223184Y18888607D01*
X22816805Y18693809D01*
X22673255Y18635441D01*
X22454342Y18559892D01*
X22205616Y18490522D01*
X21939492Y18430100D01*
X21668388Y18381397D01*
X21404722Y18347181D01*
X21362845Y18343125D01*
X21273609Y18338613D01*
X21152368Y18337637D01*
X21009301Y18339800D01*
X20854588Y18344706D01*
X20698410Y18351957D01*
X20550946Y18361159D01*
X20422376Y18371914D01*
X20324813Y18383536D01*
X19892958Y18468986D01*
X19475775Y18592885D01*
X19075339Y18753371D01*
X18693728Y18948585D01*
X18333016Y19176666D01*
X17995278Y19435752D01*
X17682592Y19723985D01*
X17397032Y20039503D01*
X17140675Y20380445D01*
X16915596Y20744952D01*
X16723870Y21131163D01*
X16567574Y21537217D01*
X16481336Y21828512D01*
X16427426Y22049731D01*
X16387458Y22251269D01*
X16359776Y22446490D01*
X16342724Y22648759D01*
X16334646Y22871437D01*
X16333419Y23022408D01*
X16336851Y23264019D01*
X16348252Y23477098D01*
X16369276Y23675009D01*
X16401581Y23871116D01*
X16446820Y24078781D01*
X16481336Y24216305D01*
X16611594Y24633522D01*
X16779085Y25033203D01*
X16981686Y25413271D01*
X17217276Y25771651D01*
X17483733Y26106267D01*
X17778936Y26415043D01*
X18100763Y26695903D01*
X18447092Y26946771D01*
X18815802Y27165572D01*
X19204771Y27350230D01*
X19611878Y27498669D01*
X19923205Y27583890D01*
X20123999Y27628009D01*
X20307850Y27660431D01*
X20487932Y27682605D01*
X20677418Y27695982D01*
X20889480Y27702012D01*
X21002711Y27702722D01*
X21443266Y27685722D01*
X21863037Y27633310D01*
X22266092Y27544385D01*
X22656504Y27417845D01*
X23038341Y27252592D01*
X23407131Y27052626D01*
X23781090Y26805657D01*
X24125671Y26528804D01*
X24439737Y26223768D01*
X24722150Y25892252D01*
X24971772Y25535955D01*
X25187466Y25156581D01*
X25368094Y24755831D01*
X25512517Y24335405D01*
X25619599Y23897006D01*
X25656013Y23689714D01*
X25675262Y23525202D01*
X25687990Y23330953D01*
X25694193Y23119095D01*
X25788800Y23119095D01*
X25788772Y23131291D01*
X25784663Y23303119D01*
X25776844Y23454948D01*
X25768107Y23552016D01*
X25695127Y24001883D01*
X25582746Y24437025D01*
X25431680Y24855955D01*
X25242648Y25257185D01*
X25016366Y25639227D01*
X24753554Y26000593D01*
X24454927Y26339795D01*
X24393354Y26402459D01*
X24058078Y26708521D01*
X23700912Y26978490D01*
X23323167Y27211726D01*
X22926156Y27407589D01*
X22511191Y27565435D01*
X22079584Y27684626D01*
X21632646Y27764518D01*
X21596677Y27769142D01*
X21445012Y27783514D01*
X21266113Y27793153D01*
X21072851Y27797965D01*
X20878093Y27797857D01*
G36*
X13350511Y23491737D02*
X13231860Y23478323D01*
X12929050Y23408759D01*
X12639164Y23300598D01*
X12365823Y23156580D01*
X12112652Y22979443D01*
X11883275Y22771927D01*
X11681315Y22536770D01*
X11510394Y22276711D01*
X11425776Y22113128D01*
X11311803Y21822811D01*
X11238022Y21528294D01*
X11202882Y21232636D01*
X11204832Y20938896D01*
X11242322Y20650134D01*
X11313801Y20369407D01*
X11417718Y20099774D01*
X11552523Y19844295D01*
X11716666Y19606028D01*
X11908595Y19388031D01*
X12126759Y19193364D01*
X12369609Y19025086D01*
X12635594Y18886255D01*
X12923162Y18779930D01*
X13143328Y18725096D01*
X13249883Y18708075D01*
X13378406Y18694099D01*
X13515085Y18684046D01*
X13646109Y18678795D01*
X13757669Y18679221D01*
X13810634Y18682684D01*
X14134806Y18736749D01*
X14442598Y18828514D01*
X14731536Y18956387D01*
X14999147Y19118775D01*
X15242955Y19314088D01*
X15460487Y19540733D01*
X15649267Y19797118D01*
X15717079Y19909228D01*
X15849282Y20183228D01*
X15944733Y20473730D01*
X16003010Y20775430D01*
X16023686Y21083024D01*
X16020716Y21135805D01*
X15932425Y21135805D01*
X15918347Y20839559D01*
X15867097Y20550497D01*
X15780382Y20271859D01*
X15659909Y20006883D01*
X15507385Y19758809D01*
X15324517Y19530877D01*
X15113011Y19326324D01*
X14874575Y19148392D01*
X14610915Y19000318D01*
X14342944Y18891699D01*
X14088410Y18824599D01*
X13816365Y18785860D01*
X13540990Y18776568D01*
X13276463Y18797809D01*
X13224590Y18806080D01*
X12921478Y18879767D01*
X12635662Y18990782D01*
X12369802Y19136695D01*
X12126559Y19315073D01*
X11908593Y19523483D01*
X11718566Y19759495D01*
X11559137Y20020676D01*
X11432968Y20304594D01*
X11369699Y20501474D01*
X11348401Y20582008D01*
X11333002Y20651578D01*
X11322558Y20719791D01*
X11316123Y20796256D01*
X11312753Y20890579D01*
X11311504Y21012368D01*
X11311378Y21094635D01*
X11311857Y21235507D01*
X11313922Y21343561D01*
X11318513Y21428341D01*
X11326570Y21499395D01*
X11339035Y21566267D01*
X11356848Y21638504D01*
X11369565Y21685051D01*
X11473530Y21983594D01*
X11611713Y22259962D01*
X11781429Y22511977D01*
X11979989Y22737461D01*
X12204709Y22934234D01*
X12452900Y23100119D01*
X12721876Y23232938D01*
X13008951Y23330513D01*
X13311438Y23390664D01*
X13494144Y23407615D01*
X13800734Y23403817D01*
X14099045Y23360218D01*
X14385903Y23279073D01*
X14658138Y23162641D01*
X14912575Y23013179D01*
X15146042Y22832944D01*
X15355367Y22624194D01*
X15537376Y22389186D01*
X15688897Y22130178D01*
X15806758Y21849427D01*
X15842237Y21736893D01*
X15907624Y21435996D01*
X15932425Y21135805D01*
X16020716Y21135805D01*
X16006340Y21391209D01*
X15950545Y21694680D01*
X15878626Y21928633D01*
X15763390Y22194281D01*
X15619202Y22437235D01*
X15441245Y22664757D01*
X15278201Y22833976D01*
X15031402Y23042494D01*
X14765616Y23213559D01*
X14482075Y23346475D01*
X14228089Y23428920D01*
X14078875Y23459418D01*
X13902338Y23481651D01*
X13712651Y23494917D01*
X13523984Y23498513D01*
X13350511Y23491737D01*
X13350511Y23491737D01*
G37*
X13350511Y23491737D02*
X13231860Y23478323D01*
X12929050Y23408759D01*
X12639164Y23300598D01*
X12365823Y23156580D01*
X12112652Y22979443D01*
X11883275Y22771927D01*
X11681315Y22536770D01*
X11510394Y22276711D01*
X11425776Y22113128D01*
X11311803Y21822811D01*
X11238022Y21528294D01*
X11202882Y21232636D01*
X11204832Y20938896D01*
X11242322Y20650134D01*
X11313801Y20369407D01*
X11417718Y20099774D01*
X11552523Y19844295D01*
X11716666Y19606028D01*
X11908595Y19388031D01*
X12126759Y19193364D01*
X12369609Y19025086D01*
X12635594Y18886255D01*
X12923162Y18779930D01*
X13143328Y18725096D01*
X13249883Y18708075D01*
X13378406Y18694099D01*
X13515085Y18684046D01*
X13646109Y18678795D01*
X13757669Y18679221D01*
X13810634Y18682684D01*
X14134806Y18736749D01*
X14442598Y18828514D01*
X14731536Y18956387D01*
X14999147Y19118775D01*
X15242955Y19314088D01*
X15460487Y19540733D01*
X15649267Y19797118D01*
X15717079Y19909228D01*
X15849282Y20183228D01*
X15944733Y20473730D01*
X16003010Y20775430D01*
X16023686Y21083024D01*
X16020716Y21135805D01*
X15932425Y21135805D01*
X15918347Y20839559D01*
X15867097Y20550497D01*
X15780382Y20271859D01*
X15659909Y20006883D01*
X15507385Y19758809D01*
X15324517Y19530877D01*
X15113011Y19326324D01*
X14874575Y19148392D01*
X14610915Y19000318D01*
X14342944Y18891699D01*
X14088410Y18824599D01*
X13816365Y18785860D01*
X13540990Y18776568D01*
X13276463Y18797809D01*
X13224590Y18806080D01*
X12921478Y18879767D01*
X12635662Y18990782D01*
X12369802Y19136695D01*
X12126559Y19315073D01*
X11908593Y19523483D01*
X11718566Y19759495D01*
X11559137Y20020676D01*
X11432968Y20304594D01*
X11369699Y20501474D01*
X11348401Y20582008D01*
X11333002Y20651578D01*
X11322558Y20719791D01*
X11316123Y20796256D01*
X11312753Y20890579D01*
X11311504Y21012368D01*
X11311378Y21094635D01*
X11311857Y21235507D01*
X11313922Y21343561D01*
X11318513Y21428341D01*
X11326570Y21499395D01*
X11339035Y21566267D01*
X11356848Y21638504D01*
X11369565Y21685051D01*
X11473530Y21983594D01*
X11611713Y22259962D01*
X11781429Y22511977D01*
X11979989Y22737461D01*
X12204709Y22934234D01*
X12452900Y23100119D01*
X12721876Y23232938D01*
X13008951Y23330513D01*
X13311438Y23390664D01*
X13494144Y23407615D01*
X13800734Y23403817D01*
X14099045Y23360218D01*
X14385903Y23279073D01*
X14658138Y23162641D01*
X14912575Y23013179D01*
X15146042Y22832944D01*
X15355367Y22624194D01*
X15537376Y22389186D01*
X15688897Y22130178D01*
X15806758Y21849427D01*
X15842237Y21736893D01*
X15907624Y21435996D01*
X15932425Y21135805D01*
X16020716Y21135805D01*
X16006340Y21391209D01*
X15950545Y21694680D01*
X15878626Y21928633D01*
X15763390Y22194281D01*
X15619202Y22437235D01*
X15441245Y22664757D01*
X15278201Y22833976D01*
X15031402Y23042494D01*
X14765616Y23213559D01*
X14482075Y23346475D01*
X14228089Y23428920D01*
X14078875Y23459418D01*
X13902338Y23481651D01*
X13712651Y23494917D01*
X13523984Y23498513D01*
X13350511Y23491737D01*
G36*
X7957718Y23492896D02*
X7768832Y23477539D01*
X7596053Y23453279D01*
X7481239Y23428536D01*
X7184308Y23329155D01*
X6906186Y23193528D01*
X6649557Y23024590D01*
X6417106Y22825275D01*
X6211515Y22598518D01*
X6035469Y22347252D01*
X5891651Y22074412D01*
X5782745Y21782933D01*
X5715106Y21497466D01*
X5694199Y21317202D01*
X5687825Y21113441D01*
X5695351Y20901525D01*
X5716141Y20696798D01*
X5749561Y20514599D01*
X5756967Y20485007D01*
X5855609Y20190299D01*
X5990404Y19913211D01*
X6158205Y19656697D01*
X6355865Y19423711D01*
X6580235Y19217209D01*
X6828169Y19040146D01*
X7096518Y18895475D01*
X7382135Y18786153D01*
X7633073Y18723805D01*
X7803947Y18698836D01*
X7989701Y18684039D01*
X8172794Y18680219D01*
X8335687Y18688184D01*
X8357665Y18690487D01*
X8663285Y18745835D01*
X8956270Y18839240D01*
X9233416Y18967967D01*
X9491518Y19129277D01*
X9727369Y19320435D01*
X9937767Y19538703D01*
X10119505Y19781344D01*
X10269379Y20045623D01*
X10384184Y20328800D01*
X10421147Y20452614D01*
X10485812Y20769738D01*
X10508585Y21083357D01*
X10508318Y21087740D01*
X10398284Y21087740D01*
X10398270Y21084043D01*
X10397051Y20942272D01*
X10394059Y20832898D01*
X10388317Y20745955D01*
X10378851Y20671480D01*
X10364684Y20599508D01*
X10344841Y20520074D01*
X10342027Y20509548D01*
X10240761Y20212417D01*
X10102655Y19933998D01*
X9930131Y19677433D01*
X9725609Y19445869D01*
X9491509Y19242451D01*
X9237886Y19074674D01*
X9085686Y18997814D01*
X8909113Y18925007D01*
X8725844Y18862701D01*
X8553556Y18817340D01*
X8506616Y18807994D01*
X8341406Y18787215D01*
X8153211Y18778405D01*
X7959692Y18781581D01*
X7778513Y18796758D01*
X7707029Y18807281D01*
X7407369Y18877512D01*
X7129933Y18982264D01*
X6870892Y19123483D01*
X6626416Y19303118D01*
X6487828Y19427553D01*
X6278245Y19657061D01*
X6104257Y19906869D01*
X5966434Y20173439D01*
X5865347Y20453231D01*
X5801563Y20742708D01*
X5775654Y21038331D01*
X5788187Y21336563D01*
X5839734Y21633865D01*
X5930862Y21926698D01*
X6044977Y22179279D01*
X6203630Y22437879D01*
X6394814Y22671885D01*
X6614808Y22878626D01*
X6859889Y23055435D01*
X7126336Y23199641D01*
X7410425Y23308576D01*
X7708435Y23379569D01*
X7721912Y23381797D01*
X8030552Y23411389D01*
X8333052Y23400647D01*
X8626522Y23351483D01*
X8908069Y23265806D01*
X9174803Y23145526D01*
X9423833Y22992555D01*
X9652267Y22808802D01*
X9857215Y22596178D01*
X10035786Y22356593D01*
X10185088Y22091957D01*
X10302230Y21804182D01*
X10349633Y21645427D01*
X10368536Y21568639D01*
X10381998Y21498356D01*
X10390861Y21424851D01*
X10395968Y21338398D01*
X10398161Y21229270D01*
X10398284Y21087740D01*
X10508318Y21087740D01*
X10489487Y21396168D01*
X10430636Y21702693D01*
X10335294Y21991998D01*
X10202002Y22267689D01*
X10034111Y22525598D01*
X9834974Y22761555D01*
X9607942Y22971391D01*
X9356367Y23150938D01*
X9191037Y23244448D01*
X9004013Y23328478D01*
X8796918Y23401564D01*
X8589908Y23457082D01*
X8478983Y23478438D01*
X8326998Y23494056D01*
X8148508Y23498638D01*
X7957718Y23492896D01*
X7957718Y23492896D01*
G37*
X7957718Y23492896D02*
X7768832Y23477539D01*
X7596053Y23453279D01*
X7481239Y23428536D01*
X7184308Y23329155D01*
X6906186Y23193528D01*
X6649557Y23024590D01*
X6417106Y22825275D01*
X6211515Y22598518D01*
X6035469Y22347252D01*
X5891651Y22074412D01*
X5782745Y21782933D01*
X5715106Y21497466D01*
X5694199Y21317202D01*
X5687825Y21113441D01*
X5695351Y20901525D01*
X5716141Y20696798D01*
X5749561Y20514599D01*
X5756967Y20485007D01*
X5855609Y20190299D01*
X5990404Y19913211D01*
X6158205Y19656697D01*
X6355865Y19423711D01*
X6580235Y19217209D01*
X6828169Y19040146D01*
X7096518Y18895475D01*
X7382135Y18786153D01*
X7633073Y18723805D01*
X7803947Y18698836D01*
X7989701Y18684039D01*
X8172794Y18680219D01*
X8335687Y18688184D01*
X8357665Y18690487D01*
X8663285Y18745835D01*
X8956270Y18839240D01*
X9233416Y18967967D01*
X9491518Y19129277D01*
X9727369Y19320435D01*
X9937767Y19538703D01*
X10119505Y19781344D01*
X10269379Y20045623D01*
X10384184Y20328800D01*
X10421147Y20452614D01*
X10485812Y20769738D01*
X10508585Y21083357D01*
X10508318Y21087740D01*
X10398284Y21087740D01*
X10398270Y21084043D01*
X10397051Y20942272D01*
X10394059Y20832898D01*
X10388317Y20745955D01*
X10378851Y20671480D01*
X10364684Y20599508D01*
X10344841Y20520074D01*
X10342027Y20509548D01*
X10240761Y20212417D01*
X10102655Y19933998D01*
X9930131Y19677433D01*
X9725609Y19445869D01*
X9491509Y19242451D01*
X9237886Y19074674D01*
X9085686Y18997814D01*
X8909113Y18925007D01*
X8725844Y18862701D01*
X8553556Y18817340D01*
X8506616Y18807994D01*
X8341406Y18787215D01*
X8153211Y18778405D01*
X7959692Y18781581D01*
X7778513Y18796758D01*
X7707029Y18807281D01*
X7407369Y18877512D01*
X7129933Y18982264D01*
X6870892Y19123483D01*
X6626416Y19303118D01*
X6487828Y19427553D01*
X6278245Y19657061D01*
X6104257Y19906869D01*
X5966434Y20173439D01*
X5865347Y20453231D01*
X5801563Y20742708D01*
X5775654Y21038331D01*
X5788187Y21336563D01*
X5839734Y21633865D01*
X5930862Y21926698D01*
X6044977Y22179279D01*
X6203630Y22437879D01*
X6394814Y22671885D01*
X6614808Y22878626D01*
X6859889Y23055435D01*
X7126336Y23199641D01*
X7410425Y23308576D01*
X7708435Y23379569D01*
X7721912Y23381797D01*
X8030552Y23411389D01*
X8333052Y23400647D01*
X8626522Y23351483D01*
X8908069Y23265806D01*
X9174803Y23145526D01*
X9423833Y22992555D01*
X9652267Y22808802D01*
X9857215Y22596178D01*
X10035786Y22356593D01*
X10185088Y22091957D01*
X10302230Y21804182D01*
X10349633Y21645427D01*
X10368536Y21568639D01*
X10381998Y21498356D01*
X10390861Y21424851D01*
X10395968Y21338398D01*
X10398161Y21229270D01*
X10398284Y21087740D01*
X10508318Y21087740D01*
X10489487Y21396168D01*
X10430636Y21702693D01*
X10335294Y21991998D01*
X10202002Y22267689D01*
X10034111Y22525598D01*
X9834974Y22761555D01*
X9607942Y22971391D01*
X9356367Y23150938D01*
X9191037Y23244448D01*
X9004013Y23328478D01*
X8796918Y23401564D01*
X8589908Y23457082D01*
X8478983Y23478438D01*
X8326998Y23494056D01*
X8148508Y23498638D01*
X7957718Y23492896D01*
D14*
X15753000Y28666000D02*
X14753000Y28666000D01*
X14753000Y27306000D02*
X15753000Y27306000D01*
X15752000Y30652000D02*
X14752000Y30652000D01*
X14752000Y29292000D02*
X15752000Y29292000D01*
X15753000Y32603000D02*
X14753000Y32603000D01*
X14753000Y31243000D02*
X15753000Y31243000D01*
D16*
X29600000Y35376524D02*
X29759099Y35217425D01*
X24473476Y30250000D02*
X24703286Y30020190D01*
X29600000Y25123476D02*
X29370190Y25353286D01*
X34726524Y30250000D02*
X34496714Y30479810D01*
X29600000Y35376524D02*
X29370190Y35146714D01*
X34726524Y30250000D02*
X34496714Y30020190D01*
X29600000Y25123476D02*
X29829810Y25353286D01*
X24473476Y30250000D02*
X24703286Y30479810D01*
X29759099Y35217425D02*
X30766726Y36225052D01*
D14*
X33056000Y23938000D02*
X33056000Y25938000D01*
X33056000Y25938000D02*
X36956000Y25938000D01*
X33056000Y23938000D02*
X36956000Y23938000D01*
D16*
X36108666Y34613857D02*
X36156285Y34566238D01*
X36299142Y34518619D01*
X36394380Y34518619D01*
X36537238Y34566238D01*
X36632476Y34661476D01*
X36680095Y34756714D01*
X36727714Y34947190D01*
X36727714Y35090048D01*
X36680095Y35280524D01*
X36632476Y35375762D01*
X36537238Y35471000D01*
X36394380Y35518619D01*
X36299142Y35518619D01*
X36156285Y35471000D01*
X36108666Y35423381D01*
X35156285Y34518619D02*
X35727714Y34518619D01*
X35442000Y34518619D02*
X35442000Y35518619D01*
X35537238Y35375762D01*
X35632476Y35280524D01*
X35727714Y35232905D01*
X26583666Y54679857D02*
X26631285Y54632238D01*
X26774142Y54584619D01*
X26869380Y54584619D01*
X27012238Y54632238D01*
X27107476Y54727476D01*
X27155095Y54822714D01*
X27202714Y55013190D01*
X27202714Y55156048D01*
X27155095Y55346524D01*
X27107476Y55441762D01*
X27012238Y55537000D01*
X26869380Y55584619D01*
X26774142Y55584619D01*
X26631285Y55537000D01*
X26583666Y55489381D01*
X26202714Y55489381D02*
X26155095Y55537000D01*
X26059857Y55584619D01*
X25821761Y55584619D01*
X25726523Y55537000D01*
X25678904Y55489381D01*
X25631285Y55394143D01*
X25631285Y55298905D01*
X25678904Y55156048D01*
X26250333Y54584619D01*
X25631285Y54584619D01*
X55285666Y25977857D02*
X55333285Y25930238D01*
X55476142Y25882619D01*
X55571380Y25882619D01*
X55714238Y25930238D01*
X55809476Y26025476D01*
X55857095Y26120714D01*
X55904714Y26311190D01*
X55904714Y26454048D01*
X55857095Y26644524D01*
X55809476Y26739762D01*
X55714238Y26835000D01*
X55571380Y26882619D01*
X55476142Y26882619D01*
X55333285Y26835000D01*
X55285666Y26787381D01*
X54952333Y26882619D02*
X54333285Y26882619D01*
X54666619Y26501667D01*
X54523761Y26501667D01*
X54428523Y26454048D01*
X54380904Y26406429D01*
X54333285Y26311190D01*
X54333285Y26073095D01*
X54380904Y25977857D01*
X54428523Y25930238D01*
X54523761Y25882619D01*
X54809476Y25882619D01*
X54904714Y25930238D01*
X54952333Y25977857D01*
X26710666Y4514857D02*
X26758285Y4467238D01*
X26901142Y4419619D01*
X26996380Y4419619D01*
X27139238Y4467238D01*
X27234476Y4562476D01*
X27282095Y4657714D01*
X27329714Y4848190D01*
X27329714Y4991048D01*
X27282095Y5181524D01*
X27234476Y5276762D01*
X27139238Y5372000D01*
X26996380Y5419619D01*
X26901142Y5419619D01*
X26758285Y5372000D01*
X26710666Y5324381D01*
X25853523Y5086286D02*
X25853523Y4419619D01*
X26091619Y5467238D02*
X26329714Y4752952D01*
X25710666Y4752952D01*
X5120666Y26104857D02*
X5168285Y26057238D01*
X5311142Y26009619D01*
X5406380Y26009619D01*
X5549238Y26057238D01*
X5644476Y26152476D01*
X5692095Y26247714D01*
X5739714Y26438190D01*
X5739714Y26581048D01*
X5692095Y26771524D01*
X5644476Y26866762D01*
X5549238Y26962000D01*
X5406380Y27009619D01*
X5311142Y27009619D01*
X5168285Y26962000D01*
X5120666Y26914381D01*
X4215904Y27009619D02*
X4692095Y27009619D01*
X4739714Y26533429D01*
X4692095Y26581048D01*
X4596857Y26628667D01*
X4358761Y26628667D01*
X4263523Y26581048D01*
X4215904Y26533429D01*
X4168285Y26438190D01*
X4168285Y26200095D01*
X4215904Y26104857D01*
X4263523Y26057238D01*
X4358761Y26009619D01*
X4596857Y26009619D01*
X4692095Y26057238D01*
X4739714Y26104857D01*
X55809428Y1641429D02*
X56142762Y1641429D01*
X56142762Y1117619D02*
X56142762Y2117619D01*
X55666571Y2117619D01*
X55285619Y1117619D02*
X55285619Y2117619D01*
X54809429Y1117619D02*
X54809429Y2117619D01*
X54571334Y2117619D01*
X54428476Y2070000D01*
X54333238Y1974762D01*
X54285619Y1879524D01*
X54238000Y1689048D01*
X54238000Y1546190D01*
X54285619Y1355714D01*
X54333238Y1260476D01*
X54428476Y1165238D01*
X54571334Y1117619D01*
X54809429Y1117619D01*
X53285619Y1117619D02*
X53857048Y1117619D01*
X53571334Y1117619D02*
X53571334Y2117619D01*
X53666572Y1974762D01*
X53761810Y1879524D01*
X53857048Y1831905D01*
X6406428Y1641429D02*
X6739762Y1641429D01*
X6739762Y1117619D02*
X6739762Y2117619D01*
X6263571Y2117619D01*
X5882619Y1117619D02*
X5882619Y2117619D01*
X5406429Y1117619D02*
X5406429Y2117619D01*
X5168334Y2117619D01*
X5025476Y2070000D01*
X4930238Y1974762D01*
X4882619Y1879524D01*
X4835000Y1689048D01*
X4835000Y1546190D01*
X4882619Y1355714D01*
X4930238Y1260476D01*
X5025476Y1165238D01*
X5168334Y1117619D01*
X5406429Y1117619D01*
X4454048Y2022381D02*
X4406429Y2070000D01*
X4311191Y2117619D01*
X4073095Y2117619D01*
X3977857Y2070000D01*
X3930238Y2022381D01*
X3882619Y1927143D01*
X3882619Y1831905D01*
X3930238Y1689048D01*
X4501667Y1117619D01*
X3882619Y1117619D01*
X41077428Y46599429D02*
X41410762Y46599429D01*
X41410762Y46075619D02*
X41410762Y47075619D01*
X40934571Y47075619D01*
X40553619Y46075619D02*
X40553619Y47075619D01*
X40077429Y46075619D02*
X40077429Y47075619D01*
X39839334Y47075619D01*
X39696476Y47028000D01*
X39601238Y46932762D01*
X39553619Y46837524D01*
X39506000Y46647048D01*
X39506000Y46504190D01*
X39553619Y46313714D01*
X39601238Y46218476D01*
X39696476Y46123238D01*
X39839334Y46075619D01*
X40077429Y46075619D01*
X39172667Y47075619D02*
X38553619Y47075619D01*
X38886953Y46694667D01*
X38744095Y46694667D01*
X38648857Y46647048D01*
X38601238Y46599429D01*
X38553619Y46504190D01*
X38553619Y46266095D01*
X38601238Y46170857D01*
X38648857Y46123238D01*
X38744095Y46075619D01*
X39029810Y46075619D01*
X39125048Y46123238D01*
X39172667Y46170857D01*
X17693666Y27533619D02*
X18027000Y28009810D01*
X18265095Y27533619D02*
X18265095Y28533619D01*
X17884142Y28533619D01*
X17788904Y28486000D01*
X17741285Y28438381D01*
X17693666Y28343143D01*
X17693666Y28200286D01*
X17741285Y28105048D01*
X17788904Y28057429D01*
X17884142Y28009810D01*
X18265095Y28009810D01*
X16741285Y27533619D02*
X17312714Y27533619D01*
X17027000Y27533619D02*
X17027000Y28533619D01*
X17122238Y28390762D01*
X17217476Y28295524D01*
X17312714Y28247905D01*
X17693666Y29565619D02*
X18027000Y30041810D01*
X18265095Y29565619D02*
X18265095Y30565619D01*
X17884142Y30565619D01*
X17788904Y30518000D01*
X17741285Y30470381D01*
X17693666Y30375143D01*
X17693666Y30232286D01*
X17741285Y30137048D01*
X17788904Y30089429D01*
X17884142Y30041810D01*
X18265095Y30041810D01*
X17312714Y30470381D02*
X17265095Y30518000D01*
X17169857Y30565619D01*
X16931761Y30565619D01*
X16836523Y30518000D01*
X16788904Y30470381D01*
X16741285Y30375143D01*
X16741285Y30279905D01*
X16788904Y30137048D01*
X17360333Y29565619D01*
X16741285Y29565619D01*
X17693666Y31470619D02*
X18027000Y31946810D01*
X18265095Y31470619D02*
X18265095Y32470619D01*
X17884142Y32470619D01*
X17788904Y32423000D01*
X17741285Y32375381D01*
X17693666Y32280143D01*
X17693666Y32137286D01*
X17741285Y32042048D01*
X17788904Y31994429D01*
X17884142Y31946810D01*
X18265095Y31946810D01*
X17360333Y32470619D02*
X16741285Y32470619D01*
X17074619Y32089667D01*
X16931761Y32089667D01*
X16836523Y32042048D01*
X16788904Y31994429D01*
X16741285Y31899190D01*
X16741285Y31661095D01*
X16788904Y31565857D01*
X16836523Y31518238D01*
X16931761Y31470619D01*
X17217476Y31470619D01*
X17312714Y31518238D01*
X17360333Y31565857D01*
X30353905Y37550619D02*
X30353905Y36741095D01*
X30306286Y36645857D01*
X30258667Y36598238D01*
X30163429Y36550619D01*
X29972952Y36550619D01*
X29877714Y36598238D01*
X29830095Y36645857D01*
X29782476Y36741095D01*
X29782476Y37550619D01*
X28782476Y36550619D02*
X29353905Y36550619D01*
X29068191Y36550619D02*
X29068191Y37550619D01*
X29163429Y37407762D01*
X29258667Y37312524D01*
X29353905Y37264905D01*
X36044095Y22485619D02*
X36044095Y23485619D01*
X35806000Y23485619D01*
X35663142Y23438000D01*
X35567904Y23342762D01*
X35520285Y23247524D01*
X35472666Y23057048D01*
X35472666Y22914190D01*
X35520285Y22723714D01*
X35567904Y22628476D01*
X35663142Y22533238D01*
X35806000Y22485619D01*
X36044095Y22485619D01*
X34520285Y22485619D02*
X35091714Y22485619D01*
X34806000Y22485619D02*
X34806000Y23485619D01*
X34901238Y23342762D01*
X34996476Y23247524D01*
X35091714Y23199905D01*
%LPC*%
D10*
G36*
X34830850Y34582322D02*
X34017678Y33769150D01*
X33169150Y34617678D01*
X33982322Y35430850D01*
X34830850Y34582322D01*
X34830850Y34582322D01*
G37*
G36*
X35891510Y33521662D02*
X35078338Y32708490D01*
X34229810Y33557018D01*
X35042982Y34370190D01*
X35891510Y33521662D01*
X35891510Y33521662D01*
G37*
D17*
X29464000Y55118000D03*
X27964000Y55118000D03*
D18*
X55118000Y29464000D03*
X55118000Y27964000D03*
D17*
X29591000Y4953000D03*
X28091000Y4953000D03*
D18*
X4953000Y29440000D03*
X4953000Y27940000D03*
D19*
X58000000Y2000000D03*
X2000000Y2000000D03*
X40000000Y45000000D03*
D20*
X12460000Y58039000D03*
D21*
X12460000Y55499000D03*
X15000000Y58039000D03*
X15000000Y55499000D03*
X17540000Y58039000D03*
X17540000Y55499000D03*
D22*
X44459377Y24864309D03*
X45739377Y24864309D03*
X44459377Y27404309D03*
X45739377Y27404309D03*
X44449377Y29944309D03*
X45729377Y29944309D03*
X44459377Y32484309D03*
X45739377Y32484309D03*
X44459377Y35024309D03*
X45739377Y35024309D03*
D23*
X2000000Y35080000D03*
X2000000Y32540000D03*
X2000000Y30000000D03*
X2000000Y27460000D03*
X2000000Y24920000D03*
D24*
X35080000Y2000000D03*
X32540000Y2000000D03*
X30000000Y2000000D03*
X27460000Y2000000D03*
X24920000Y2000000D03*
X35080000Y58000000D03*
X32540000Y58000000D03*
X30000000Y58000000D03*
X27460000Y58000000D03*
X24920000Y58000000D03*
D23*
X58000000Y35080000D03*
X58000000Y32540000D03*
X58000000Y30000000D03*
X58000000Y27460000D03*
X58000000Y24920000D03*
D25*
X15000000Y45000000D03*
X45000000Y45000000D03*
X15000000Y15000000D03*
X45000000Y15000000D03*
D26*
X2000000Y45000000D03*
X28000000Y45000000D03*
X32000000Y45000000D03*
X58000000Y45000000D03*
X2000000Y15000000D03*
X28000000Y15000000D03*
X32000000Y15000000D03*
X58000000Y15000000D03*
D27*
X14503000Y27986000D03*
X16003000Y27986000D03*
X14502000Y29972000D03*
X16002000Y29972000D03*
X14503000Y31923000D03*
X16003000Y31923000D03*
D10*
G36*
X30996536Y36278086D02*
X31668288Y35606334D01*
X30254074Y34192120D01*
X29582322Y34863872D01*
X30996536Y36278086D01*
X30996536Y36278086D01*
G37*
G36*
X31562221Y35712400D02*
X32233973Y35040648D01*
X30819759Y33626434D01*
X30148007Y34298186D01*
X31562221Y35712400D01*
X31562221Y35712400D01*
G37*
G36*
X32127907Y35146715D02*
X32799659Y34474963D01*
X31385445Y33060749D01*
X30713693Y33732501D01*
X32127907Y35146715D01*
X32127907Y35146715D01*
G37*
G36*
X32693592Y34581030D02*
X33365344Y33909278D01*
X31951130Y32495064D01*
X31279378Y33166816D01*
X32693592Y34581030D01*
X32693592Y34581030D01*
G37*
G36*
X33259278Y34015344D02*
X33931030Y33343592D01*
X32516816Y31929378D01*
X31845064Y32601130D01*
X33259278Y34015344D01*
X33259278Y34015344D01*
G37*
G36*
X33824963Y33449659D02*
X34496715Y32777907D01*
X33082501Y31363693D01*
X32410749Y32035445D01*
X33824963Y33449659D01*
X33824963Y33449659D01*
G37*
G36*
X34390648Y32883973D02*
X35062400Y32212221D01*
X33648186Y30798007D01*
X32976434Y31469759D01*
X34390648Y32883973D01*
X34390648Y32883973D01*
G37*
G36*
X34956334Y32318288D02*
X35628086Y31646536D01*
X34213872Y30232322D01*
X33542120Y30904074D01*
X34956334Y32318288D01*
X34956334Y32318288D01*
G37*
G36*
X35628086Y28853464D02*
X34956334Y28181712D01*
X33542120Y29595926D01*
X34213872Y30267678D01*
X35628086Y28853464D01*
X35628086Y28853464D01*
G37*
G36*
X35062400Y28287779D02*
X34390648Y27616027D01*
X32976434Y29030241D01*
X33648186Y29701993D01*
X35062400Y28287779D01*
X35062400Y28287779D01*
G37*
G36*
X34496715Y27722093D02*
X33824963Y27050341D01*
X32410749Y28464555D01*
X33082501Y29136307D01*
X34496715Y27722093D01*
X34496715Y27722093D01*
G37*
G36*
X33931030Y27156408D02*
X33259278Y26484656D01*
X31845064Y27898870D01*
X32516816Y28570622D01*
X33931030Y27156408D01*
X33931030Y27156408D01*
G37*
G36*
X33365344Y26590722D02*
X32693592Y25918970D01*
X31279378Y27333184D01*
X31951130Y28004936D01*
X33365344Y26590722D01*
X33365344Y26590722D01*
G37*
G36*
X32799659Y26025037D02*
X32127907Y25353285D01*
X30713693Y26767499D01*
X31385445Y27439251D01*
X32799659Y26025037D01*
X32799659Y26025037D01*
G37*
G36*
X32233973Y25459352D02*
X31562221Y24787600D01*
X30148007Y26201814D01*
X30819759Y26873566D01*
X32233973Y25459352D01*
X32233973Y25459352D01*
G37*
G36*
X31668288Y24893666D02*
X30996536Y24221914D01*
X29582322Y25636128D01*
X30254074Y26307880D01*
X31668288Y24893666D01*
X31668288Y24893666D01*
G37*
G36*
X28945926Y26307880D02*
X29617678Y25636128D01*
X28203464Y24221914D01*
X27531712Y24893666D01*
X28945926Y26307880D01*
X28945926Y26307880D01*
G37*
G36*
X28380241Y26873566D02*
X29051993Y26201814D01*
X27637779Y24787600D01*
X26966027Y25459352D01*
X28380241Y26873566D01*
X28380241Y26873566D01*
G37*
G36*
X27814555Y27439251D02*
X28486307Y26767499D01*
X27072093Y25353285D01*
X26400341Y26025037D01*
X27814555Y27439251D01*
X27814555Y27439251D01*
G37*
G36*
X27248870Y28004936D02*
X27920622Y27333184D01*
X26506408Y25918970D01*
X25834656Y26590722D01*
X27248870Y28004936D01*
X27248870Y28004936D01*
G37*
G36*
X26683184Y28570622D02*
X27354936Y27898870D01*
X25940722Y26484656D01*
X25268970Y27156408D01*
X26683184Y28570622D01*
X26683184Y28570622D01*
G37*
G36*
X26117499Y29136307D02*
X26789251Y28464555D01*
X25375037Y27050341D01*
X24703285Y27722093D01*
X26117499Y29136307D01*
X26117499Y29136307D01*
G37*
G36*
X25551814Y29701993D02*
X26223566Y29030241D01*
X24809352Y27616027D01*
X24137600Y28287779D01*
X25551814Y29701993D01*
X25551814Y29701993D01*
G37*
G36*
X24986128Y30267678D02*
X25657880Y29595926D01*
X24243666Y28181712D01*
X23571914Y28853464D01*
X24986128Y30267678D01*
X24986128Y30267678D01*
G37*
G36*
X25657880Y30904074D02*
X24986128Y30232322D01*
X23571914Y31646536D01*
X24243666Y32318288D01*
X25657880Y30904074D01*
X25657880Y30904074D01*
G37*
G36*
X26223566Y31469759D02*
X25551814Y30798007D01*
X24137600Y32212221D01*
X24809352Y32883973D01*
X26223566Y31469759D01*
X26223566Y31469759D01*
G37*
G36*
X26789251Y32035445D02*
X26117499Y31363693D01*
X24703285Y32777907D01*
X25375037Y33449659D01*
X26789251Y32035445D01*
X26789251Y32035445D01*
G37*
G36*
X27354936Y32601130D02*
X26683184Y31929378D01*
X25268970Y33343592D01*
X25940722Y34015344D01*
X27354936Y32601130D01*
X27354936Y32601130D01*
G37*
G36*
X27920622Y33166816D02*
X27248870Y32495064D01*
X25834656Y33909278D01*
X26506408Y34581030D01*
X27920622Y33166816D01*
X27920622Y33166816D01*
G37*
G36*
X28486307Y33732501D02*
X27814555Y33060749D01*
X26400341Y34474963D01*
X27072093Y35146715D01*
X28486307Y33732501D01*
X28486307Y33732501D01*
G37*
G36*
X29051993Y34298186D02*
X28380241Y33626434D01*
X26966027Y35040648D01*
X27637779Y35712400D01*
X29051993Y34298186D01*
X29051993Y34298186D01*
G37*
G36*
X29617678Y34863872D02*
X28945926Y34192120D01*
X27531712Y35606334D01*
X28203464Y36278086D01*
X29617678Y34863872D01*
X29617678Y34863872D01*
G37*
D28*
X33656000Y24938000D03*
X36956000Y24938000D03*
M02*
