G04 #@! TF.FileFunction,Paste,Top*
%FSLAX46Y46*%
G04 Gerber Fmt 4.6, Leading zero omitted, Abs format (unit mm)*
G04 Created by KiCad (PCBNEW 4.0.7-e2-6376~58~ubuntu16.04.1) date Tue Sep 19 18:30:12 2017*
%MOMM*%
%LPD*%
G01*
G04 APERTURE LIST*
%ADD10C,0.100000*%
%ADD11R,1.250000X0.950000*%
G04 APERTURE END LIST*
D10*
D11*
X8900000Y53375000D03*
X8900000Y51625000D03*
X6100000Y51625000D03*
X6100000Y53375000D03*
X23900000Y53375000D03*
X23900000Y51625000D03*
X21100000Y51625000D03*
X21100000Y53375000D03*
X38900000Y53375000D03*
X38900000Y51625000D03*
X36100000Y51625000D03*
X36100000Y53375000D03*
X53900000Y53375000D03*
X53900000Y51625000D03*
X51100000Y51625000D03*
X51100000Y53375000D03*
X8900000Y38375000D03*
X8900000Y36625000D03*
X6100000Y36625000D03*
X6100000Y38375000D03*
X23900000Y38375000D03*
X23900000Y36625000D03*
X21100000Y36625000D03*
X21100000Y38375000D03*
X38900000Y38375000D03*
X38900000Y36625000D03*
X36100000Y36625000D03*
X36100000Y38375000D03*
X53900000Y38375000D03*
X53900000Y36625000D03*
X51100000Y36625000D03*
X51100000Y38375000D03*
X8900000Y23375000D03*
X8900000Y21625000D03*
X6100000Y21625000D03*
X6100000Y23375000D03*
X23900000Y23375000D03*
X23900000Y21625000D03*
X21100000Y21625000D03*
X21100000Y23375000D03*
X38900000Y23375000D03*
X38900000Y21625000D03*
X36100000Y21625000D03*
X36100000Y23375000D03*
X53900000Y23375000D03*
X53900000Y21625000D03*
X51100000Y21625000D03*
X51100000Y23375000D03*
X8900000Y8375000D03*
X8900000Y6625000D03*
X6100000Y6625000D03*
X6100000Y8375000D03*
X23900000Y8375000D03*
X23900000Y6625000D03*
X21100000Y6625000D03*
X21100000Y8375000D03*
X38900000Y8375000D03*
X38900000Y6625000D03*
X36100000Y6625000D03*
X36100000Y8375000D03*
X53900000Y8375000D03*
X53900000Y6625000D03*
X51100000Y6625000D03*
X51100000Y8375000D03*
M02*
