G04 #@! TF.FileFunction,Soldermask,Top*
%FSLAX46Y46*%
G04 Gerber Fmt 4.6, Leading zero omitted, Abs format (unit mm)*
G04 Created by KiCad (PCBNEW 4.0.7-e2-6376~58~ubuntu16.04.1) date Tue Sep 19 18:30:12 2017*
%MOMM*%
%LPD*%
G01*
G04 APERTURE LIST*
%ADD10C,0.100000*%
%ADD11C,0.300000*%
%ADD12C,0.700000*%
%ADD13O,0.700000X3.100000*%
%ADD14O,3.100000X0.700000*%
%ADD15O,0.700000X2.400000*%
%ADD16O,1.800000X0.700000*%
%ADD17O,0.700000X1.800000*%
%ADD18R,1.650000X1.350000*%
%ADD19C,2.600000*%
%ADD20C,3.100000*%
G04 APERTURE END LIST*
D10*
D11*
X57250000Y22500000D02*
G75*
G03X57250000Y22500000I-4750000J0D01*
G01*
X57000000Y22500000D02*
G75*
G03X57000000Y22500000I-4500000J0D01*
G01*
X56750000Y22500000D02*
G75*
G03X56750000Y22500000I-4250000J0D01*
G01*
X56500000Y22500000D02*
G75*
G03X56500000Y22500000I-4000000J0D01*
G01*
X56258324Y22500000D02*
G75*
G03X56258324Y22500000I-3758324J0D01*
G01*
X56000000Y22500000D02*
G75*
G03X56000000Y22500000I-3500000J0D01*
G01*
X55750000Y22500000D02*
G75*
G03X55750000Y22500000I-3250000J0D01*
G01*
X12250000Y52500000D02*
G75*
G03X12250000Y52500000I-4750000J0D01*
G01*
X12000000Y52500000D02*
G75*
G03X12000000Y52500000I-4500000J0D01*
G01*
X11750000Y52500000D02*
G75*
G03X11750000Y52500000I-4250000J0D01*
G01*
X11500000Y52500000D02*
G75*
G03X11500000Y52500000I-4000000J0D01*
G01*
X11258324Y52500000D02*
G75*
G03X11258324Y52500000I-3758324J0D01*
G01*
X11000000Y52500000D02*
G75*
G03X11000000Y52500000I-3500000J0D01*
G01*
X10750000Y52500000D02*
G75*
G03X10750000Y52500000I-3250000J0D01*
G01*
X27250000Y52500000D02*
G75*
G03X27250000Y52500000I-4750000J0D01*
G01*
X27000000Y52500000D02*
G75*
G03X27000000Y52500000I-4500000J0D01*
G01*
X26750000Y52500000D02*
G75*
G03X26750000Y52500000I-4250000J0D01*
G01*
X26500000Y52500000D02*
G75*
G03X26500000Y52500000I-4000000J0D01*
G01*
X26258324Y52500000D02*
G75*
G03X26258324Y52500000I-3758324J0D01*
G01*
X26000000Y52500000D02*
G75*
G03X26000000Y52500000I-3500000J0D01*
G01*
X25750000Y52500000D02*
G75*
G03X25750000Y52500000I-3250000J0D01*
G01*
X42250000Y52500000D02*
G75*
G03X42250000Y52500000I-4750000J0D01*
G01*
X42000000Y52500000D02*
G75*
G03X42000000Y52500000I-4500000J0D01*
G01*
X41750000Y52500000D02*
G75*
G03X41750000Y52500000I-4250000J0D01*
G01*
X41500000Y52500000D02*
G75*
G03X41500000Y52500000I-4000000J0D01*
G01*
X41258324Y52500000D02*
G75*
G03X41258324Y52500000I-3758324J0D01*
G01*
X41000000Y52500000D02*
G75*
G03X41000000Y52500000I-3500000J0D01*
G01*
X40750000Y52500000D02*
G75*
G03X40750000Y52500000I-3250000J0D01*
G01*
X57250000Y52500000D02*
G75*
G03X57250000Y52500000I-4750000J0D01*
G01*
X57000000Y52500000D02*
G75*
G03X57000000Y52500000I-4500000J0D01*
G01*
X56750000Y52500000D02*
G75*
G03X56750000Y52500000I-4250000J0D01*
G01*
X56500000Y52500000D02*
G75*
G03X56500000Y52500000I-4000000J0D01*
G01*
X56258324Y52500000D02*
G75*
G03X56258324Y52500000I-3758324J0D01*
G01*
X56000000Y52500000D02*
G75*
G03X56000000Y52500000I-3500000J0D01*
G01*
X55750000Y52500000D02*
G75*
G03X55750000Y52500000I-3250000J0D01*
G01*
X12250000Y37500000D02*
G75*
G03X12250000Y37500000I-4750000J0D01*
G01*
X12000000Y37500000D02*
G75*
G03X12000000Y37500000I-4500000J0D01*
G01*
X11750000Y37500000D02*
G75*
G03X11750000Y37500000I-4250000J0D01*
G01*
X11500000Y37500000D02*
G75*
G03X11500000Y37500000I-4000000J0D01*
G01*
X11258324Y37500000D02*
G75*
G03X11258324Y37500000I-3758324J0D01*
G01*
X11000000Y37500000D02*
G75*
G03X11000000Y37500000I-3500000J0D01*
G01*
X10750000Y37500000D02*
G75*
G03X10750000Y37500000I-3250000J0D01*
G01*
X27250000Y37500000D02*
G75*
G03X27250000Y37500000I-4750000J0D01*
G01*
X27000000Y37500000D02*
G75*
G03X27000000Y37500000I-4500000J0D01*
G01*
X26750000Y37500000D02*
G75*
G03X26750000Y37500000I-4250000J0D01*
G01*
X26500000Y37500000D02*
G75*
G03X26500000Y37500000I-4000000J0D01*
G01*
X26258324Y37500000D02*
G75*
G03X26258324Y37500000I-3758324J0D01*
G01*
X26000000Y37500000D02*
G75*
G03X26000000Y37500000I-3500000J0D01*
G01*
X25750000Y37500000D02*
G75*
G03X25750000Y37500000I-3250000J0D01*
G01*
X42250000Y37500000D02*
G75*
G03X42250000Y37500000I-4750000J0D01*
G01*
X42000000Y37500000D02*
G75*
G03X42000000Y37500000I-4500000J0D01*
G01*
X41750000Y37500000D02*
G75*
G03X41750000Y37500000I-4250000J0D01*
G01*
X41500000Y37500000D02*
G75*
G03X41500000Y37500000I-4000000J0D01*
G01*
X41258324Y37500000D02*
G75*
G03X41258324Y37500000I-3758324J0D01*
G01*
X41000000Y37500000D02*
G75*
G03X41000000Y37500000I-3500000J0D01*
G01*
X40750000Y37500000D02*
G75*
G03X40750000Y37500000I-3250000J0D01*
G01*
X57250000Y37500000D02*
G75*
G03X57250000Y37500000I-4750000J0D01*
G01*
X57000000Y37500000D02*
G75*
G03X57000000Y37500000I-4500000J0D01*
G01*
X56750000Y37500000D02*
G75*
G03X56750000Y37500000I-4250000J0D01*
G01*
X56500000Y37500000D02*
G75*
G03X56500000Y37500000I-4000000J0D01*
G01*
X56258324Y37500000D02*
G75*
G03X56258324Y37500000I-3758324J0D01*
G01*
X56000000Y37500000D02*
G75*
G03X56000000Y37500000I-3500000J0D01*
G01*
X55750000Y37500000D02*
G75*
G03X55750000Y37500000I-3250000J0D01*
G01*
X12250000Y22500000D02*
G75*
G03X12250000Y22500000I-4750000J0D01*
G01*
X12000000Y22500000D02*
G75*
G03X12000000Y22500000I-4500000J0D01*
G01*
X11750000Y22500000D02*
G75*
G03X11750000Y22500000I-4250000J0D01*
G01*
X11500000Y22500000D02*
G75*
G03X11500000Y22500000I-4000000J0D01*
G01*
X11258324Y22500000D02*
G75*
G03X11258324Y22500000I-3758324J0D01*
G01*
X11000000Y22500000D02*
G75*
G03X11000000Y22500000I-3500000J0D01*
G01*
X10750000Y22500000D02*
G75*
G03X10750000Y22500000I-3250000J0D01*
G01*
X27250000Y22500000D02*
G75*
G03X27250000Y22500000I-4750000J0D01*
G01*
X27000000Y22500000D02*
G75*
G03X27000000Y22500000I-4500000J0D01*
G01*
X26750000Y22500000D02*
G75*
G03X26750000Y22500000I-4250000J0D01*
G01*
X26500000Y22500000D02*
G75*
G03X26500000Y22500000I-4000000J0D01*
G01*
X26258324Y22500000D02*
G75*
G03X26258324Y22500000I-3758324J0D01*
G01*
X26000000Y22500000D02*
G75*
G03X26000000Y22500000I-3500000J0D01*
G01*
X25750000Y22500000D02*
G75*
G03X25750000Y22500000I-3250000J0D01*
G01*
X42250000Y22500000D02*
G75*
G03X42250000Y22500000I-4750000J0D01*
G01*
X42000000Y22500000D02*
G75*
G03X42000000Y22500000I-4500000J0D01*
G01*
X41750000Y22500000D02*
G75*
G03X41750000Y22500000I-4250000J0D01*
G01*
X41500000Y22500000D02*
G75*
G03X41500000Y22500000I-4000000J0D01*
G01*
X41258324Y22500000D02*
G75*
G03X41258324Y22500000I-3758324J0D01*
G01*
X41000000Y22500000D02*
G75*
G03X41000000Y22500000I-3500000J0D01*
G01*
X40750000Y22500000D02*
G75*
G03X40750000Y22500000I-3250000J0D01*
G01*
X12250000Y7500000D02*
G75*
G03X12250000Y7500000I-4750000J0D01*
G01*
X12000000Y7500000D02*
G75*
G03X12000000Y7500000I-4500000J0D01*
G01*
X11750000Y7500000D02*
G75*
G03X11750000Y7500000I-4250000J0D01*
G01*
X11500000Y7500000D02*
G75*
G03X11500000Y7500000I-4000000J0D01*
G01*
X11258324Y7500000D02*
G75*
G03X11258324Y7500000I-3758324J0D01*
G01*
X11000000Y7500000D02*
G75*
G03X11000000Y7500000I-3500000J0D01*
G01*
X10750000Y7500000D02*
G75*
G03X10750000Y7500000I-3250000J0D01*
G01*
X27250000Y7500000D02*
G75*
G03X27250000Y7500000I-4750000J0D01*
G01*
X27000000Y7500000D02*
G75*
G03X27000000Y7500000I-4500000J0D01*
G01*
X26750000Y7500000D02*
G75*
G03X26750000Y7500000I-4250000J0D01*
G01*
X26500000Y7500000D02*
G75*
G03X26500000Y7500000I-4000000J0D01*
G01*
X26258324Y7500000D02*
G75*
G03X26258324Y7500000I-3758324J0D01*
G01*
X26000000Y7500000D02*
G75*
G03X26000000Y7500000I-3500000J0D01*
G01*
X25750000Y7500000D02*
G75*
G03X25750000Y7500000I-3250000J0D01*
G01*
X42250000Y7500000D02*
G75*
G03X42250000Y7500000I-4750000J0D01*
G01*
X42000000Y7500000D02*
G75*
G03X42000000Y7500000I-4500000J0D01*
G01*
X41750000Y7500000D02*
G75*
G03X41750000Y7500000I-4250000J0D01*
G01*
X41500000Y7500000D02*
G75*
G03X41500000Y7500000I-4000000J0D01*
G01*
X41258324Y7500000D02*
G75*
G03X41258324Y7500000I-3758324J0D01*
G01*
X41000000Y7500000D02*
G75*
G03X41000000Y7500000I-3500000J0D01*
G01*
X40750000Y7500000D02*
G75*
G03X40750000Y7500000I-3250000J0D01*
G01*
X57250000Y7500000D02*
G75*
G03X57250000Y7500000I-4750000J0D01*
G01*
X57000000Y7500000D02*
G75*
G03X57000000Y7500000I-4500000J0D01*
G01*
X56750000Y7500000D02*
G75*
G03X56750000Y7500000I-4250000J0D01*
G01*
X56500000Y7500000D02*
G75*
G03X56500000Y7500000I-4000000J0D01*
G01*
X56258324Y7500000D02*
G75*
G03X56258324Y7500000I-3758324J0D01*
G01*
X56000000Y7500000D02*
G75*
G03X56000000Y7500000I-3500000J0D01*
G01*
X55750000Y7500000D02*
G75*
G03X55750000Y7500000I-3250000J0D01*
G01*
D12*
X52539072Y25543595D02*
X53987960Y25155367D01*
X51012040Y25155367D02*
X52460928Y25543595D01*
X49883705Y24055635D02*
X50944365Y25116295D01*
X49456405Y22539072D02*
X49844633Y23987960D01*
X49844633Y21012040D02*
X49456405Y22460928D01*
X50944365Y19883705D02*
X49883705Y20944365D01*
X52460928Y19456405D02*
X51012040Y19844633D01*
X53987960Y19844633D02*
X52539072Y19456405D01*
X55116295Y20944365D02*
X54055635Y19883705D01*
X55543595Y22460928D02*
X55155367Y21012040D01*
X55155367Y23987960D02*
X55543595Y22539072D01*
X54055635Y25116295D02*
X55116295Y24055635D01*
X53405867Y25880741D02*
X53716449Y27039851D01*
X49085770Y26013621D02*
X51164230Y27213621D01*
X47786379Y23835771D02*
X48986379Y25914231D01*
D13*
X47750000Y22500001D03*
D12*
X48986379Y19085770D02*
X47786379Y21164230D01*
X51164229Y17786379D02*
X49085769Y18986379D01*
D14*
X52499999Y17750000D03*
D12*
X55914230Y18986379D02*
X53835770Y17786379D01*
X57213621Y21164229D02*
X56013621Y19085769D01*
D13*
X57250000Y22499999D03*
D12*
X56013621Y25914230D02*
X57213621Y23835770D01*
X53835771Y27213621D02*
X55914231Y26013621D01*
D15*
X52500001Y26500000D03*
D12*
X51594133Y25880741D02*
X51283551Y27039851D01*
X50025126Y24974874D02*
X49176598Y25823402D01*
X49119259Y23405867D02*
X47960149Y23716449D01*
X49119259Y21594133D02*
X47960149Y21283551D01*
X50025126Y20025126D02*
X49176598Y19176598D01*
X51594133Y19119259D02*
X51283551Y17960149D01*
X53405867Y19119259D02*
X53716449Y17960149D01*
X54974874Y20025126D02*
X55823402Y19176598D01*
X55880741Y21594133D02*
X57039851Y21283551D01*
X55880741Y23405867D02*
X57039851Y23716449D01*
X54974874Y24974874D02*
X55823402Y25823402D01*
X54050000Y25184678D02*
X54600000Y26137306D01*
X55184679Y24049999D02*
X56137307Y24599999D01*
D16*
X56150000Y22500000D03*
D12*
X55184678Y20950000D02*
X56137306Y20400000D01*
X54049999Y19815321D02*
X54599999Y18862693D01*
D17*
X52500000Y18850000D03*
D12*
X50950000Y19815322D02*
X50400000Y18862694D01*
X49815321Y20950001D02*
X48862693Y20400001D01*
D16*
X48850000Y22500000D03*
D12*
X49815322Y24050000D02*
X48862694Y24600000D01*
X50950001Y25184679D02*
X50400001Y26137307D01*
D18*
X8900000Y53375000D03*
X8900000Y51625000D03*
X6100000Y51625000D03*
X6100000Y53375000D03*
X23900000Y53375000D03*
X23900000Y51625000D03*
X21100000Y51625000D03*
X21100000Y53375000D03*
X38900000Y53375000D03*
X38900000Y51625000D03*
X36100000Y51625000D03*
X36100000Y53375000D03*
X53900000Y53375000D03*
X53900000Y51625000D03*
X51100000Y51625000D03*
X51100000Y53375000D03*
X8900000Y38375000D03*
X8900000Y36625000D03*
X6100000Y36625000D03*
X6100000Y38375000D03*
X23900000Y38375000D03*
X23900000Y36625000D03*
X21100000Y36625000D03*
X21100000Y38375000D03*
X38900000Y38375000D03*
X38900000Y36625000D03*
X36100000Y36625000D03*
X36100000Y38375000D03*
X53900000Y38375000D03*
X53900000Y36625000D03*
X51100000Y36625000D03*
X51100000Y38375000D03*
X8900000Y23375000D03*
X8900000Y21625000D03*
X6100000Y21625000D03*
X6100000Y23375000D03*
X23900000Y23375000D03*
X23900000Y21625000D03*
X21100000Y21625000D03*
X21100000Y23375000D03*
X38900000Y23375000D03*
X38900000Y21625000D03*
X36100000Y21625000D03*
X36100000Y23375000D03*
X53900000Y23375000D03*
X53900000Y21625000D03*
X51100000Y21625000D03*
X51100000Y23375000D03*
X8900000Y8375000D03*
X8900000Y6625000D03*
X6100000Y6625000D03*
X6100000Y8375000D03*
X23900000Y8375000D03*
X23900000Y6625000D03*
X21100000Y6625000D03*
X21100000Y8375000D03*
X38900000Y8375000D03*
X38900000Y6625000D03*
X36100000Y6625000D03*
X36100000Y8375000D03*
X53900000Y8375000D03*
X53900000Y6625000D03*
X51100000Y6625000D03*
X51100000Y8375000D03*
D19*
X15000000Y45000000D03*
X45000000Y45000000D03*
X15000000Y15000000D03*
X45000000Y15000000D03*
D20*
X2000000Y45000000D03*
X28000000Y45000000D03*
X32000000Y45000000D03*
X58000000Y45000000D03*
X2000000Y15000000D03*
X28000000Y15000000D03*
X32000000Y15000000D03*
X58000000Y15000000D03*
D12*
X7460928Y49456405D02*
X6012040Y49844633D01*
X8987960Y49844633D02*
X7539072Y49456405D01*
X10116295Y50944365D02*
X9055635Y49883705D01*
X10543595Y52460928D02*
X10155367Y51012040D01*
X10155367Y53987960D02*
X10543595Y52539072D01*
X9055635Y55116295D02*
X10116295Y54055635D01*
X7539072Y55543595D02*
X8987960Y55155367D01*
X6012040Y55155367D02*
X7460928Y55543595D01*
X4883705Y54055635D02*
X5944365Y55116295D01*
X4456405Y52539072D02*
X4844633Y53987960D01*
X4844633Y51012040D02*
X4456405Y52460928D01*
X5944365Y49883705D02*
X4883705Y50944365D01*
X6594133Y49119259D02*
X6283551Y47960149D01*
X10914230Y48986379D02*
X8835770Y47786379D01*
X12213621Y51164229D02*
X11013621Y49085769D01*
D13*
X12250000Y52499999D03*
D12*
X11013621Y55914230D02*
X12213621Y53835770D01*
X8835771Y57213621D02*
X10914231Y56013621D01*
D14*
X7500001Y57250000D03*
D12*
X4085770Y56013621D02*
X6164230Y57213621D01*
X2786379Y53835771D02*
X3986379Y55914231D01*
D13*
X2750000Y52500001D03*
D12*
X3986379Y49085770D02*
X2786379Y51164230D01*
X6164229Y47786379D02*
X4085769Y48986379D01*
D15*
X7499999Y48500000D03*
D12*
X8405867Y49119259D02*
X8716449Y47960149D01*
X9974874Y50025126D02*
X10823402Y49176598D01*
X10880741Y51594133D02*
X12039851Y51283551D01*
X10880741Y53405867D02*
X12039851Y53716449D01*
X9974874Y54974874D02*
X10823402Y55823402D01*
X8405867Y55880741D02*
X8716449Y57039851D01*
X6594133Y55880741D02*
X6283551Y57039851D01*
X5025126Y54974874D02*
X4176598Y55823402D01*
X4119259Y53405867D02*
X2960149Y53716449D01*
X4119259Y51594133D02*
X2960149Y51283551D01*
X5025126Y50025126D02*
X4176598Y49176598D01*
X5950000Y49815322D02*
X5400000Y48862694D01*
X4815321Y50950001D02*
X3862693Y50400001D01*
D16*
X3850000Y52500000D03*
D12*
X4815322Y54050000D02*
X3862694Y54600000D01*
X5950001Y55184679D02*
X5400001Y56137307D01*
D17*
X7500000Y56150000D03*
D12*
X9050000Y55184678D02*
X9600000Y56137306D01*
X10184679Y54049999D02*
X11137307Y54599999D01*
D16*
X11150000Y52500000D03*
D12*
X10184678Y50950000D02*
X11137306Y50400000D01*
X9049999Y49815321D02*
X9599999Y48862693D01*
X22460928Y49456405D02*
X21012040Y49844633D01*
X23987960Y49844633D02*
X22539072Y49456405D01*
X25116295Y50944365D02*
X24055635Y49883705D01*
X25543595Y52460928D02*
X25155367Y51012040D01*
X25155367Y53987960D02*
X25543595Y52539072D01*
X24055635Y55116295D02*
X25116295Y54055635D01*
X22539072Y55543595D02*
X23987960Y55155367D01*
X21012040Y55155367D02*
X22460928Y55543595D01*
X19883705Y54055635D02*
X20944365Y55116295D01*
X19456405Y52539072D02*
X19844633Y53987960D01*
X19844633Y51012040D02*
X19456405Y52460928D01*
X20944365Y49883705D02*
X19883705Y50944365D01*
X21594133Y49119259D02*
X21283551Y47960149D01*
X25914230Y48986379D02*
X23835770Y47786379D01*
X27213621Y51164229D02*
X26013621Y49085769D01*
D13*
X27250000Y52499999D03*
D12*
X26013621Y55914230D02*
X27213621Y53835770D01*
X23835771Y57213621D02*
X25914231Y56013621D01*
D14*
X22500001Y57250000D03*
D12*
X19085770Y56013621D02*
X21164230Y57213621D01*
X17786379Y53835771D02*
X18986379Y55914231D01*
D13*
X17750000Y52500001D03*
D12*
X18986379Y49085770D02*
X17786379Y51164230D01*
X21164229Y47786379D02*
X19085769Y48986379D01*
D15*
X22499999Y48500000D03*
D12*
X23405867Y49119259D02*
X23716449Y47960149D01*
X24974874Y50025126D02*
X25823402Y49176598D01*
X25880741Y51594133D02*
X27039851Y51283551D01*
X25880741Y53405867D02*
X27039851Y53716449D01*
X24974874Y54974874D02*
X25823402Y55823402D01*
X23405867Y55880741D02*
X23716449Y57039851D01*
X21594133Y55880741D02*
X21283551Y57039851D01*
X20025126Y54974874D02*
X19176598Y55823402D01*
X19119259Y53405867D02*
X17960149Y53716449D01*
X19119259Y51594133D02*
X17960149Y51283551D01*
X20025126Y50025126D02*
X19176598Y49176598D01*
X20950000Y49815322D02*
X20400000Y48862694D01*
X19815321Y50950001D02*
X18862693Y50400001D01*
D16*
X18850000Y52500000D03*
D12*
X19815322Y54050000D02*
X18862694Y54600000D01*
X20950001Y55184679D02*
X20400001Y56137307D01*
D17*
X22500000Y56150000D03*
D12*
X24050000Y55184678D02*
X24600000Y56137306D01*
X25184679Y54049999D02*
X26137307Y54599999D01*
D16*
X26150000Y52500000D03*
D12*
X25184678Y50950000D02*
X26137306Y50400000D01*
X24049999Y49815321D02*
X24599999Y48862693D01*
X37460928Y49456405D02*
X36012040Y49844633D01*
X38987960Y49844633D02*
X37539072Y49456405D01*
X40116295Y50944365D02*
X39055635Y49883705D01*
X40543595Y52460928D02*
X40155367Y51012040D01*
X40155367Y53987960D02*
X40543595Y52539072D01*
X39055635Y55116295D02*
X40116295Y54055635D01*
X37539072Y55543595D02*
X38987960Y55155367D01*
X36012040Y55155367D02*
X37460928Y55543595D01*
X34883705Y54055635D02*
X35944365Y55116295D01*
X34456405Y52539072D02*
X34844633Y53987960D01*
X34844633Y51012040D02*
X34456405Y52460928D01*
X35944365Y49883705D02*
X34883705Y50944365D01*
X36594133Y49119259D02*
X36283551Y47960149D01*
X40914230Y48986379D02*
X38835770Y47786379D01*
X42213621Y51164229D02*
X41013621Y49085769D01*
D13*
X42250000Y52499999D03*
D12*
X41013621Y55914230D02*
X42213621Y53835770D01*
X38835771Y57213621D02*
X40914231Y56013621D01*
D14*
X37500001Y57250000D03*
D12*
X34085770Y56013621D02*
X36164230Y57213621D01*
X32786379Y53835771D02*
X33986379Y55914231D01*
D13*
X32750000Y52500001D03*
D12*
X33986379Y49085770D02*
X32786379Y51164230D01*
X36164229Y47786379D02*
X34085769Y48986379D01*
D15*
X37499999Y48500000D03*
D12*
X38405867Y49119259D02*
X38716449Y47960149D01*
X39974874Y50025126D02*
X40823402Y49176598D01*
X40880741Y51594133D02*
X42039851Y51283551D01*
X40880741Y53405867D02*
X42039851Y53716449D01*
X39974874Y54974874D02*
X40823402Y55823402D01*
X38405867Y55880741D02*
X38716449Y57039851D01*
X36594133Y55880741D02*
X36283551Y57039851D01*
X35025126Y54974874D02*
X34176598Y55823402D01*
X34119259Y53405867D02*
X32960149Y53716449D01*
X34119259Y51594133D02*
X32960149Y51283551D01*
X35025126Y50025126D02*
X34176598Y49176598D01*
X35950000Y49815322D02*
X35400000Y48862694D01*
X34815321Y50950001D02*
X33862693Y50400001D01*
D16*
X33850000Y52500000D03*
D12*
X34815322Y54050000D02*
X33862694Y54600000D01*
X35950001Y55184679D02*
X35400001Y56137307D01*
D17*
X37500000Y56150000D03*
D12*
X39050000Y55184678D02*
X39600000Y56137306D01*
X40184679Y54049999D02*
X41137307Y54599999D01*
D16*
X41150000Y52500000D03*
D12*
X40184678Y50950000D02*
X41137306Y50400000D01*
X39049999Y49815321D02*
X39599999Y48862693D01*
X52460928Y49456405D02*
X51012040Y49844633D01*
X53987960Y49844633D02*
X52539072Y49456405D01*
X55116295Y50944365D02*
X54055635Y49883705D01*
X55543595Y52460928D02*
X55155367Y51012040D01*
X55155367Y53987960D02*
X55543595Y52539072D01*
X54055635Y55116295D02*
X55116295Y54055635D01*
X52539072Y55543595D02*
X53987960Y55155367D01*
X51012040Y55155367D02*
X52460928Y55543595D01*
X49883705Y54055635D02*
X50944365Y55116295D01*
X49456405Y52539072D02*
X49844633Y53987960D01*
X49844633Y51012040D02*
X49456405Y52460928D01*
X50944365Y49883705D02*
X49883705Y50944365D01*
X51594133Y49119259D02*
X51283551Y47960149D01*
X55914230Y48986379D02*
X53835770Y47786379D01*
X57213621Y51164229D02*
X56013621Y49085769D01*
D13*
X57250000Y52499999D03*
D12*
X56013621Y55914230D02*
X57213621Y53835770D01*
X53835771Y57213621D02*
X55914231Y56013621D01*
D14*
X52500001Y57250000D03*
D12*
X49085770Y56013621D02*
X51164230Y57213621D01*
X47786379Y53835771D02*
X48986379Y55914231D01*
D13*
X47750000Y52500001D03*
D12*
X48986379Y49085770D02*
X47786379Y51164230D01*
X51164229Y47786379D02*
X49085769Y48986379D01*
D15*
X52499999Y48500000D03*
D12*
X53405867Y49119259D02*
X53716449Y47960149D01*
X54974874Y50025126D02*
X55823402Y49176598D01*
X55880741Y51594133D02*
X57039851Y51283551D01*
X55880741Y53405867D02*
X57039851Y53716449D01*
X54974874Y54974874D02*
X55823402Y55823402D01*
X53405867Y55880741D02*
X53716449Y57039851D01*
X51594133Y55880741D02*
X51283551Y57039851D01*
X50025126Y54974874D02*
X49176598Y55823402D01*
X49119259Y53405867D02*
X47960149Y53716449D01*
X49119259Y51594133D02*
X47960149Y51283551D01*
X50025126Y50025126D02*
X49176598Y49176598D01*
X50950000Y49815322D02*
X50400000Y48862694D01*
X49815321Y50950001D02*
X48862693Y50400001D01*
D16*
X48850000Y52500000D03*
D12*
X49815322Y54050000D02*
X48862694Y54600000D01*
X50950001Y55184679D02*
X50400001Y56137307D01*
D17*
X52500000Y56150000D03*
D12*
X54050000Y55184678D02*
X54600000Y56137306D01*
X55184679Y54049999D02*
X56137307Y54599999D01*
D16*
X56150000Y52500000D03*
D12*
X55184678Y50950000D02*
X56137306Y50400000D01*
X54049999Y49815321D02*
X54599999Y48862693D01*
X7460928Y34456405D02*
X6012040Y34844633D01*
X8987960Y34844633D02*
X7539072Y34456405D01*
X10116295Y35944365D02*
X9055635Y34883705D01*
X10543595Y37460928D02*
X10155367Y36012040D01*
X10155367Y38987960D02*
X10543595Y37539072D01*
X9055635Y40116295D02*
X10116295Y39055635D01*
X7539072Y40543595D02*
X8987960Y40155367D01*
X6012040Y40155367D02*
X7460928Y40543595D01*
X4883705Y39055635D02*
X5944365Y40116295D01*
X4456405Y37539072D02*
X4844633Y38987960D01*
X4844633Y36012040D02*
X4456405Y37460928D01*
X5944365Y34883705D02*
X4883705Y35944365D01*
X6594133Y34119259D02*
X6283551Y32960149D01*
X10914230Y33986379D02*
X8835770Y32786379D01*
X12213621Y36164229D02*
X11013621Y34085769D01*
D13*
X12250000Y37499999D03*
D12*
X11013621Y40914230D02*
X12213621Y38835770D01*
X8835771Y42213621D02*
X10914231Y41013621D01*
D14*
X7500001Y42250000D03*
D12*
X4085770Y41013621D02*
X6164230Y42213621D01*
X2786379Y38835771D02*
X3986379Y40914231D01*
D13*
X2750000Y37500001D03*
D12*
X3986379Y34085770D02*
X2786379Y36164230D01*
X6164229Y32786379D02*
X4085769Y33986379D01*
D15*
X7499999Y33500000D03*
D12*
X8405867Y34119259D02*
X8716449Y32960149D01*
X9974874Y35025126D02*
X10823402Y34176598D01*
X10880741Y36594133D02*
X12039851Y36283551D01*
X10880741Y38405867D02*
X12039851Y38716449D01*
X9974874Y39974874D02*
X10823402Y40823402D01*
X8405867Y40880741D02*
X8716449Y42039851D01*
X6594133Y40880741D02*
X6283551Y42039851D01*
X5025126Y39974874D02*
X4176598Y40823402D01*
X4119259Y38405867D02*
X2960149Y38716449D01*
X4119259Y36594133D02*
X2960149Y36283551D01*
X5025126Y35025126D02*
X4176598Y34176598D01*
X5950000Y34815322D02*
X5400000Y33862694D01*
X4815321Y35950001D02*
X3862693Y35400001D01*
D16*
X3850000Y37500000D03*
D12*
X4815322Y39050000D02*
X3862694Y39600000D01*
X5950001Y40184679D02*
X5400001Y41137307D01*
D17*
X7500000Y41150000D03*
D12*
X9050000Y40184678D02*
X9600000Y41137306D01*
X10184679Y39049999D02*
X11137307Y39599999D01*
D16*
X11150000Y37500000D03*
D12*
X10184678Y35950000D02*
X11137306Y35400000D01*
X9049999Y34815321D02*
X9599999Y33862693D01*
X22460928Y34456405D02*
X21012040Y34844633D01*
X23987960Y34844633D02*
X22539072Y34456405D01*
X25116295Y35944365D02*
X24055635Y34883705D01*
X25543595Y37460928D02*
X25155367Y36012040D01*
X25155367Y38987960D02*
X25543595Y37539072D01*
X24055635Y40116295D02*
X25116295Y39055635D01*
X22539072Y40543595D02*
X23987960Y40155367D01*
X21012040Y40155367D02*
X22460928Y40543595D01*
X19883705Y39055635D02*
X20944365Y40116295D01*
X19456405Y37539072D02*
X19844633Y38987960D01*
X19844633Y36012040D02*
X19456405Y37460928D01*
X20944365Y34883705D02*
X19883705Y35944365D01*
X21594133Y34119259D02*
X21283551Y32960149D01*
X25914230Y33986379D02*
X23835770Y32786379D01*
X27213621Y36164229D02*
X26013621Y34085769D01*
D13*
X27250000Y37499999D03*
D12*
X26013621Y40914230D02*
X27213621Y38835770D01*
X23835771Y42213621D02*
X25914231Y41013621D01*
D14*
X22500001Y42250000D03*
D12*
X19085770Y41013621D02*
X21164230Y42213621D01*
X17786379Y38835771D02*
X18986379Y40914231D01*
D13*
X17750000Y37500001D03*
D12*
X18986379Y34085770D02*
X17786379Y36164230D01*
X21164229Y32786379D02*
X19085769Y33986379D01*
D15*
X22499999Y33500000D03*
D12*
X23405867Y34119259D02*
X23716449Y32960149D01*
X24974874Y35025126D02*
X25823402Y34176598D01*
X25880741Y36594133D02*
X27039851Y36283551D01*
X25880741Y38405867D02*
X27039851Y38716449D01*
X24974874Y39974874D02*
X25823402Y40823402D01*
X23405867Y40880741D02*
X23716449Y42039851D01*
X21594133Y40880741D02*
X21283551Y42039851D01*
X20025126Y39974874D02*
X19176598Y40823402D01*
X19119259Y38405867D02*
X17960149Y38716449D01*
X19119259Y36594133D02*
X17960149Y36283551D01*
X20025126Y35025126D02*
X19176598Y34176598D01*
X20950000Y34815322D02*
X20400000Y33862694D01*
X19815321Y35950001D02*
X18862693Y35400001D01*
D16*
X18850000Y37500000D03*
D12*
X19815322Y39050000D02*
X18862694Y39600000D01*
X20950001Y40184679D02*
X20400001Y41137307D01*
D17*
X22500000Y41150000D03*
D12*
X24050000Y40184678D02*
X24600000Y41137306D01*
X25184679Y39049999D02*
X26137307Y39599999D01*
D16*
X26150000Y37500000D03*
D12*
X25184678Y35950000D02*
X26137306Y35400000D01*
X24049999Y34815321D02*
X24599999Y33862693D01*
X37460928Y34456405D02*
X36012040Y34844633D01*
X38987960Y34844633D02*
X37539072Y34456405D01*
X40116295Y35944365D02*
X39055635Y34883705D01*
X40543595Y37460928D02*
X40155367Y36012040D01*
X40155367Y38987960D02*
X40543595Y37539072D01*
X39055635Y40116295D02*
X40116295Y39055635D01*
X37539072Y40543595D02*
X38987960Y40155367D01*
X36012040Y40155367D02*
X37460928Y40543595D01*
X34883705Y39055635D02*
X35944365Y40116295D01*
X34456405Y37539072D02*
X34844633Y38987960D01*
X34844633Y36012040D02*
X34456405Y37460928D01*
X35944365Y34883705D02*
X34883705Y35944365D01*
X36594133Y34119259D02*
X36283551Y32960149D01*
X40914230Y33986379D02*
X38835770Y32786379D01*
X42213621Y36164229D02*
X41013621Y34085769D01*
D13*
X42250000Y37499999D03*
D12*
X41013621Y40914230D02*
X42213621Y38835770D01*
X38835771Y42213621D02*
X40914231Y41013621D01*
D14*
X37500001Y42250000D03*
D12*
X34085770Y41013621D02*
X36164230Y42213621D01*
X32786379Y38835771D02*
X33986379Y40914231D01*
D13*
X32750000Y37500001D03*
D12*
X33986379Y34085770D02*
X32786379Y36164230D01*
X36164229Y32786379D02*
X34085769Y33986379D01*
D15*
X37499999Y33500000D03*
D12*
X38405867Y34119259D02*
X38716449Y32960149D01*
X39974874Y35025126D02*
X40823402Y34176598D01*
X40880741Y36594133D02*
X42039851Y36283551D01*
X40880741Y38405867D02*
X42039851Y38716449D01*
X39974874Y39974874D02*
X40823402Y40823402D01*
X38405867Y40880741D02*
X38716449Y42039851D01*
X36594133Y40880741D02*
X36283551Y42039851D01*
X35025126Y39974874D02*
X34176598Y40823402D01*
X34119259Y38405867D02*
X32960149Y38716449D01*
X34119259Y36594133D02*
X32960149Y36283551D01*
X35025126Y35025126D02*
X34176598Y34176598D01*
X35950000Y34815322D02*
X35400000Y33862694D01*
X34815321Y35950001D02*
X33862693Y35400001D01*
D16*
X33850000Y37500000D03*
D12*
X34815322Y39050000D02*
X33862694Y39600000D01*
X35950001Y40184679D02*
X35400001Y41137307D01*
D17*
X37500000Y41150000D03*
D12*
X39050000Y40184678D02*
X39600000Y41137306D01*
X40184679Y39049999D02*
X41137307Y39599999D01*
D16*
X41150000Y37500000D03*
D12*
X40184678Y35950000D02*
X41137306Y35400000D01*
X39049999Y34815321D02*
X39599999Y33862693D01*
X52460928Y34456405D02*
X51012040Y34844633D01*
X53987960Y34844633D02*
X52539072Y34456405D01*
X55116295Y35944365D02*
X54055635Y34883705D01*
X55543595Y37460928D02*
X55155367Y36012040D01*
X55155367Y38987960D02*
X55543595Y37539072D01*
X54055635Y40116295D02*
X55116295Y39055635D01*
X52539072Y40543595D02*
X53987960Y40155367D01*
X51012040Y40155367D02*
X52460928Y40543595D01*
X49883705Y39055635D02*
X50944365Y40116295D01*
X49456405Y37539072D02*
X49844633Y38987960D01*
X49844633Y36012040D02*
X49456405Y37460928D01*
X50944365Y34883705D02*
X49883705Y35944365D01*
X51594133Y34119259D02*
X51283551Y32960149D01*
X55914230Y33986379D02*
X53835770Y32786379D01*
X57213621Y36164229D02*
X56013621Y34085769D01*
D13*
X57250000Y37499999D03*
D12*
X56013621Y40914230D02*
X57213621Y38835770D01*
X53835771Y42213621D02*
X55914231Y41013621D01*
D14*
X52500001Y42250000D03*
D12*
X49085770Y41013621D02*
X51164230Y42213621D01*
X47786379Y38835771D02*
X48986379Y40914231D01*
D13*
X47750000Y37500001D03*
D12*
X48986379Y34085770D02*
X47786379Y36164230D01*
X51164229Y32786379D02*
X49085769Y33986379D01*
D15*
X52499999Y33500000D03*
D12*
X53405867Y34119259D02*
X53716449Y32960149D01*
X54974874Y35025126D02*
X55823402Y34176598D01*
X55880741Y36594133D02*
X57039851Y36283551D01*
X55880741Y38405867D02*
X57039851Y38716449D01*
X54974874Y39974874D02*
X55823402Y40823402D01*
X53405867Y40880741D02*
X53716449Y42039851D01*
X51594133Y40880741D02*
X51283551Y42039851D01*
X50025126Y39974874D02*
X49176598Y40823402D01*
X49119259Y38405867D02*
X47960149Y38716449D01*
X49119259Y36594133D02*
X47960149Y36283551D01*
X50025126Y35025126D02*
X49176598Y34176598D01*
X50950000Y34815322D02*
X50400000Y33862694D01*
X49815321Y35950001D02*
X48862693Y35400001D01*
D16*
X48850000Y37500000D03*
D12*
X49815322Y39050000D02*
X48862694Y39600000D01*
X50950001Y40184679D02*
X50400001Y41137307D01*
D17*
X52500000Y41150000D03*
D12*
X54050000Y40184678D02*
X54600000Y41137306D01*
X55184679Y39049999D02*
X56137307Y39599999D01*
D16*
X56150000Y37500000D03*
D12*
X55184678Y35950000D02*
X56137306Y35400000D01*
X54049999Y34815321D02*
X54599999Y33862693D01*
X7539072Y25543595D02*
X8987960Y25155367D01*
X6012040Y25155367D02*
X7460928Y25543595D01*
X4883705Y24055635D02*
X5944365Y25116295D01*
X4456405Y22539072D02*
X4844633Y23987960D01*
X4844633Y21012040D02*
X4456405Y22460928D01*
X5944365Y19883705D02*
X4883705Y20944365D01*
X7460928Y19456405D02*
X6012040Y19844633D01*
X8987960Y19844633D02*
X7539072Y19456405D01*
X10116295Y20944365D02*
X9055635Y19883705D01*
X10543595Y22460928D02*
X10155367Y21012040D01*
X10155367Y23987960D02*
X10543595Y22539072D01*
X9055635Y25116295D02*
X10116295Y24055635D01*
X8405867Y25880741D02*
X8716449Y27039851D01*
X4085770Y26013621D02*
X6164230Y27213621D01*
X2786379Y23835771D02*
X3986379Y25914231D01*
D13*
X2750000Y22500001D03*
D12*
X3986379Y19085770D02*
X2786379Y21164230D01*
X6164229Y17786379D02*
X4085769Y18986379D01*
D14*
X7499999Y17750000D03*
D12*
X10914230Y18986379D02*
X8835770Y17786379D01*
X12213621Y21164229D02*
X11013621Y19085769D01*
D13*
X12250000Y22499999D03*
D12*
X11013621Y25914230D02*
X12213621Y23835770D01*
X8835771Y27213621D02*
X10914231Y26013621D01*
D15*
X7500001Y26500000D03*
D12*
X6594133Y25880741D02*
X6283551Y27039851D01*
X5025126Y24974874D02*
X4176598Y25823402D01*
X4119259Y23405867D02*
X2960149Y23716449D01*
X4119259Y21594133D02*
X2960149Y21283551D01*
X5025126Y20025126D02*
X4176598Y19176598D01*
X6594133Y19119259D02*
X6283551Y17960149D01*
X8405867Y19119259D02*
X8716449Y17960149D01*
X9974874Y20025126D02*
X10823402Y19176598D01*
X10880741Y21594133D02*
X12039851Y21283551D01*
X10880741Y23405867D02*
X12039851Y23716449D01*
X9974874Y24974874D02*
X10823402Y25823402D01*
X9050000Y25184678D02*
X9600000Y26137306D01*
X10184679Y24049999D02*
X11137307Y24599999D01*
D16*
X11150000Y22500000D03*
D12*
X10184678Y20950000D02*
X11137306Y20400000D01*
X9049999Y19815321D02*
X9599999Y18862693D01*
D17*
X7500000Y18850000D03*
D12*
X5950000Y19815322D02*
X5400000Y18862694D01*
X4815321Y20950001D02*
X3862693Y20400001D01*
D16*
X3850000Y22500000D03*
D12*
X4815322Y24050000D02*
X3862694Y24600000D01*
X5950001Y25184679D02*
X5400001Y26137307D01*
X22539072Y25543595D02*
X23987960Y25155367D01*
X21012040Y25155367D02*
X22460928Y25543595D01*
X19883705Y24055635D02*
X20944365Y25116295D01*
X19456405Y22539072D02*
X19844633Y23987960D01*
X19844633Y21012040D02*
X19456405Y22460928D01*
X20944365Y19883705D02*
X19883705Y20944365D01*
X22460928Y19456405D02*
X21012040Y19844633D01*
X23987960Y19844633D02*
X22539072Y19456405D01*
X25116295Y20944365D02*
X24055635Y19883705D01*
X25543595Y22460928D02*
X25155367Y21012040D01*
X25155367Y23987960D02*
X25543595Y22539072D01*
X24055635Y25116295D02*
X25116295Y24055635D01*
X23405867Y25880741D02*
X23716449Y27039851D01*
X19085770Y26013621D02*
X21164230Y27213621D01*
X17786379Y23835771D02*
X18986379Y25914231D01*
D13*
X17750000Y22500001D03*
D12*
X18986379Y19085770D02*
X17786379Y21164230D01*
X21164229Y17786379D02*
X19085769Y18986379D01*
D14*
X22499999Y17750000D03*
D12*
X25914230Y18986379D02*
X23835770Y17786379D01*
X27213621Y21164229D02*
X26013621Y19085769D01*
D13*
X27250000Y22499999D03*
D12*
X26013621Y25914230D02*
X27213621Y23835770D01*
X23835771Y27213621D02*
X25914231Y26013621D01*
D15*
X22500001Y26500000D03*
D12*
X21594133Y25880741D02*
X21283551Y27039851D01*
X20025126Y24974874D02*
X19176598Y25823402D01*
X19119259Y23405867D02*
X17960149Y23716449D01*
X19119259Y21594133D02*
X17960149Y21283551D01*
X20025126Y20025126D02*
X19176598Y19176598D01*
X21594133Y19119259D02*
X21283551Y17960149D01*
X23405867Y19119259D02*
X23716449Y17960149D01*
X24974874Y20025126D02*
X25823402Y19176598D01*
X25880741Y21594133D02*
X27039851Y21283551D01*
X25880741Y23405867D02*
X27039851Y23716449D01*
X24974874Y24974874D02*
X25823402Y25823402D01*
X24050000Y25184678D02*
X24600000Y26137306D01*
X25184679Y24049999D02*
X26137307Y24599999D01*
D16*
X26150000Y22500000D03*
D12*
X25184678Y20950000D02*
X26137306Y20400000D01*
X24049999Y19815321D02*
X24599999Y18862693D01*
D17*
X22500000Y18850000D03*
D12*
X20950000Y19815322D02*
X20400000Y18862694D01*
X19815321Y20950001D02*
X18862693Y20400001D01*
D16*
X18850000Y22500000D03*
D12*
X19815322Y24050000D02*
X18862694Y24600000D01*
X20950001Y25184679D02*
X20400001Y26137307D01*
X37539072Y25543595D02*
X38987960Y25155367D01*
X36012040Y25155367D02*
X37460928Y25543595D01*
X34883705Y24055635D02*
X35944365Y25116295D01*
X34456405Y22539072D02*
X34844633Y23987960D01*
X34844633Y21012040D02*
X34456405Y22460928D01*
X35944365Y19883705D02*
X34883705Y20944365D01*
X37460928Y19456405D02*
X36012040Y19844633D01*
X38987960Y19844633D02*
X37539072Y19456405D01*
X40116295Y20944365D02*
X39055635Y19883705D01*
X40543595Y22460928D02*
X40155367Y21012040D01*
X40155367Y23987960D02*
X40543595Y22539072D01*
X39055635Y25116295D02*
X40116295Y24055635D01*
X38405867Y25880741D02*
X38716449Y27039851D01*
X34085770Y26013621D02*
X36164230Y27213621D01*
X32786379Y23835771D02*
X33986379Y25914231D01*
D13*
X32750000Y22500001D03*
D12*
X33986379Y19085770D02*
X32786379Y21164230D01*
X36164229Y17786379D02*
X34085769Y18986379D01*
D14*
X37499999Y17750000D03*
D12*
X40914230Y18986379D02*
X38835770Y17786379D01*
X42213621Y21164229D02*
X41013621Y19085769D01*
D13*
X42250000Y22499999D03*
D12*
X41013621Y25914230D02*
X42213621Y23835770D01*
X38835771Y27213621D02*
X40914231Y26013621D01*
D15*
X37500001Y26500000D03*
D12*
X36594133Y25880741D02*
X36283551Y27039851D01*
X35025126Y24974874D02*
X34176598Y25823402D01*
X34119259Y23405867D02*
X32960149Y23716449D01*
X34119259Y21594133D02*
X32960149Y21283551D01*
X35025126Y20025126D02*
X34176598Y19176598D01*
X36594133Y19119259D02*
X36283551Y17960149D01*
X38405867Y19119259D02*
X38716449Y17960149D01*
X39974874Y20025126D02*
X40823402Y19176598D01*
X40880741Y21594133D02*
X42039851Y21283551D01*
X40880741Y23405867D02*
X42039851Y23716449D01*
X39974874Y24974874D02*
X40823402Y25823402D01*
X39050000Y25184678D02*
X39600000Y26137306D01*
X40184679Y24049999D02*
X41137307Y24599999D01*
D16*
X41150000Y22500000D03*
D12*
X40184678Y20950000D02*
X41137306Y20400000D01*
X39049999Y19815321D02*
X39599999Y18862693D01*
D17*
X37500000Y18850000D03*
D12*
X35950000Y19815322D02*
X35400000Y18862694D01*
X34815321Y20950001D02*
X33862693Y20400001D01*
D16*
X33850000Y22500000D03*
D12*
X34815322Y24050000D02*
X33862694Y24600000D01*
X35950001Y25184679D02*
X35400001Y26137307D01*
X7539072Y10543595D02*
X8987960Y10155367D01*
X6012040Y10155367D02*
X7460928Y10543595D01*
X4883705Y9055635D02*
X5944365Y10116295D01*
X4456405Y7539072D02*
X4844633Y8987960D01*
X4844633Y6012040D02*
X4456405Y7460928D01*
X5944365Y4883705D02*
X4883705Y5944365D01*
X7460928Y4456405D02*
X6012040Y4844633D01*
X8987960Y4844633D02*
X7539072Y4456405D01*
X10116295Y5944365D02*
X9055635Y4883705D01*
X10543595Y7460928D02*
X10155367Y6012040D01*
X10155367Y8987960D02*
X10543595Y7539072D01*
X9055635Y10116295D02*
X10116295Y9055635D01*
X8405867Y10880741D02*
X8716449Y12039851D01*
X4085770Y11013621D02*
X6164230Y12213621D01*
X2786379Y8835771D02*
X3986379Y10914231D01*
D13*
X2750000Y7500001D03*
D12*
X3986379Y4085770D02*
X2786379Y6164230D01*
X6164229Y2786379D02*
X4085769Y3986379D01*
D14*
X7499999Y2750000D03*
D12*
X10914230Y3986379D02*
X8835770Y2786379D01*
X12213621Y6164229D02*
X11013621Y4085769D01*
D13*
X12250000Y7499999D03*
D12*
X11013621Y10914230D02*
X12213621Y8835770D01*
X8835771Y12213621D02*
X10914231Y11013621D01*
D15*
X7500001Y11500000D03*
D12*
X6594133Y10880741D02*
X6283551Y12039851D01*
X5025126Y9974874D02*
X4176598Y10823402D01*
X4119259Y8405867D02*
X2960149Y8716449D01*
X4119259Y6594133D02*
X2960149Y6283551D01*
X5025126Y5025126D02*
X4176598Y4176598D01*
X6594133Y4119259D02*
X6283551Y2960149D01*
X8405867Y4119259D02*
X8716449Y2960149D01*
X9974874Y5025126D02*
X10823402Y4176598D01*
X10880741Y6594133D02*
X12039851Y6283551D01*
X10880741Y8405867D02*
X12039851Y8716449D01*
X9974874Y9974874D02*
X10823402Y10823402D01*
X9050000Y10184678D02*
X9600000Y11137306D01*
X10184679Y9049999D02*
X11137307Y9599999D01*
D16*
X11150000Y7500000D03*
D12*
X10184678Y5950000D02*
X11137306Y5400000D01*
X9049999Y4815321D02*
X9599999Y3862693D01*
D17*
X7500000Y3850000D03*
D12*
X5950000Y4815322D02*
X5400000Y3862694D01*
X4815321Y5950001D02*
X3862693Y5400001D01*
D16*
X3850000Y7500000D03*
D12*
X4815322Y9050000D02*
X3862694Y9600000D01*
X5950001Y10184679D02*
X5400001Y11137307D01*
X22539072Y10543595D02*
X23987960Y10155367D01*
X21012040Y10155367D02*
X22460928Y10543595D01*
X19883705Y9055635D02*
X20944365Y10116295D01*
X19456405Y7539072D02*
X19844633Y8987960D01*
X19844633Y6012040D02*
X19456405Y7460928D01*
X20944365Y4883705D02*
X19883705Y5944365D01*
X22460928Y4456405D02*
X21012040Y4844633D01*
X23987960Y4844633D02*
X22539072Y4456405D01*
X25116295Y5944365D02*
X24055635Y4883705D01*
X25543595Y7460928D02*
X25155367Y6012040D01*
X25155367Y8987960D02*
X25543595Y7539072D01*
X24055635Y10116295D02*
X25116295Y9055635D01*
X23405867Y10880741D02*
X23716449Y12039851D01*
X19085770Y11013621D02*
X21164230Y12213621D01*
X17786379Y8835771D02*
X18986379Y10914231D01*
D13*
X17750000Y7500001D03*
D12*
X18986379Y4085770D02*
X17786379Y6164230D01*
X21164229Y2786379D02*
X19085769Y3986379D01*
D14*
X22499999Y2750000D03*
D12*
X25914230Y3986379D02*
X23835770Y2786379D01*
X27213621Y6164229D02*
X26013621Y4085769D01*
D13*
X27250000Y7499999D03*
D12*
X26013621Y10914230D02*
X27213621Y8835770D01*
X23835771Y12213621D02*
X25914231Y11013621D01*
D15*
X22500001Y11500000D03*
D12*
X21594133Y10880741D02*
X21283551Y12039851D01*
X20025126Y9974874D02*
X19176598Y10823402D01*
X19119259Y8405867D02*
X17960149Y8716449D01*
X19119259Y6594133D02*
X17960149Y6283551D01*
X20025126Y5025126D02*
X19176598Y4176598D01*
X21594133Y4119259D02*
X21283551Y2960149D01*
X23405867Y4119259D02*
X23716449Y2960149D01*
X24974874Y5025126D02*
X25823402Y4176598D01*
X25880741Y6594133D02*
X27039851Y6283551D01*
X25880741Y8405867D02*
X27039851Y8716449D01*
X24974874Y9974874D02*
X25823402Y10823402D01*
X24050000Y10184678D02*
X24600000Y11137306D01*
X25184679Y9049999D02*
X26137307Y9599999D01*
D16*
X26150000Y7500000D03*
D12*
X25184678Y5950000D02*
X26137306Y5400000D01*
X24049999Y4815321D02*
X24599999Y3862693D01*
D17*
X22500000Y3850000D03*
D12*
X20950000Y4815322D02*
X20400000Y3862694D01*
X19815321Y5950001D02*
X18862693Y5400001D01*
D16*
X18850000Y7500000D03*
D12*
X19815322Y9050000D02*
X18862694Y9600000D01*
X20950001Y10184679D02*
X20400001Y11137307D01*
X37539072Y10543595D02*
X38987960Y10155367D01*
X36012040Y10155367D02*
X37460928Y10543595D01*
X34883705Y9055635D02*
X35944365Y10116295D01*
X34456405Y7539072D02*
X34844633Y8987960D01*
X34844633Y6012040D02*
X34456405Y7460928D01*
X35944365Y4883705D02*
X34883705Y5944365D01*
X37460928Y4456405D02*
X36012040Y4844633D01*
X38987960Y4844633D02*
X37539072Y4456405D01*
X40116295Y5944365D02*
X39055635Y4883705D01*
X40543595Y7460928D02*
X40155367Y6012040D01*
X40155367Y8987960D02*
X40543595Y7539072D01*
X39055635Y10116295D02*
X40116295Y9055635D01*
X38405867Y10880741D02*
X38716449Y12039851D01*
X34085770Y11013621D02*
X36164230Y12213621D01*
X32786379Y8835771D02*
X33986379Y10914231D01*
D13*
X32750000Y7500001D03*
D12*
X33986379Y4085770D02*
X32786379Y6164230D01*
X36164229Y2786379D02*
X34085769Y3986379D01*
D14*
X37499999Y2750000D03*
D12*
X40914230Y3986379D02*
X38835770Y2786379D01*
X42213621Y6164229D02*
X41013621Y4085769D01*
D13*
X42250000Y7499999D03*
D12*
X41013621Y10914230D02*
X42213621Y8835770D01*
X38835771Y12213621D02*
X40914231Y11013621D01*
D15*
X37500001Y11500000D03*
D12*
X36594133Y10880741D02*
X36283551Y12039851D01*
X35025126Y9974874D02*
X34176598Y10823402D01*
X34119259Y8405867D02*
X32960149Y8716449D01*
X34119259Y6594133D02*
X32960149Y6283551D01*
X35025126Y5025126D02*
X34176598Y4176598D01*
X36594133Y4119259D02*
X36283551Y2960149D01*
X38405867Y4119259D02*
X38716449Y2960149D01*
X39974874Y5025126D02*
X40823402Y4176598D01*
X40880741Y6594133D02*
X42039851Y6283551D01*
X40880741Y8405867D02*
X42039851Y8716449D01*
X39974874Y9974874D02*
X40823402Y10823402D01*
X39050000Y10184678D02*
X39600000Y11137306D01*
X40184679Y9049999D02*
X41137307Y9599999D01*
D16*
X41150000Y7500000D03*
D12*
X40184678Y5950000D02*
X41137306Y5400000D01*
X39049999Y4815321D02*
X39599999Y3862693D01*
D17*
X37500000Y3850000D03*
D12*
X35950000Y4815322D02*
X35400000Y3862694D01*
X34815321Y5950001D02*
X33862693Y5400001D01*
D16*
X33850000Y7500000D03*
D12*
X34815322Y9050000D02*
X33862694Y9600000D01*
X35950001Y10184679D02*
X35400001Y11137307D01*
X52539072Y10543595D02*
X53987960Y10155367D01*
X51012040Y10155367D02*
X52460928Y10543595D01*
X49883705Y9055635D02*
X50944365Y10116295D01*
X49456405Y7539072D02*
X49844633Y8987960D01*
X49844633Y6012040D02*
X49456405Y7460928D01*
X50944365Y4883705D02*
X49883705Y5944365D01*
X52460928Y4456405D02*
X51012040Y4844633D01*
X53987960Y4844633D02*
X52539072Y4456405D01*
X55116295Y5944365D02*
X54055635Y4883705D01*
X55543595Y7460928D02*
X55155367Y6012040D01*
X55155367Y8987960D02*
X55543595Y7539072D01*
X54055635Y10116295D02*
X55116295Y9055635D01*
X53405867Y10880741D02*
X53716449Y12039851D01*
X49085770Y11013621D02*
X51164230Y12213621D01*
X47786379Y8835771D02*
X48986379Y10914231D01*
D13*
X47750000Y7500001D03*
D12*
X48986379Y4085770D02*
X47786379Y6164230D01*
X51164229Y2786379D02*
X49085769Y3986379D01*
D14*
X52499999Y2750000D03*
D12*
X55914230Y3986379D02*
X53835770Y2786379D01*
X57213621Y6164229D02*
X56013621Y4085769D01*
D13*
X57250000Y7499999D03*
D12*
X56013621Y10914230D02*
X57213621Y8835770D01*
X53835771Y12213621D02*
X55914231Y11013621D01*
D15*
X52500001Y11500000D03*
D12*
X51594133Y10880741D02*
X51283551Y12039851D01*
X50025126Y9974874D02*
X49176598Y10823402D01*
X49119259Y8405867D02*
X47960149Y8716449D01*
X49119259Y6594133D02*
X47960149Y6283551D01*
X50025126Y5025126D02*
X49176598Y4176598D01*
X51594133Y4119259D02*
X51283551Y2960149D01*
X53405867Y4119259D02*
X53716449Y2960149D01*
X54974874Y5025126D02*
X55823402Y4176598D01*
X55880741Y6594133D02*
X57039851Y6283551D01*
X55880741Y8405867D02*
X57039851Y8716449D01*
X54974874Y9974874D02*
X55823402Y10823402D01*
X54050000Y10184678D02*
X54600000Y11137306D01*
X55184679Y9049999D02*
X56137307Y9599999D01*
D16*
X56150000Y7500000D03*
D12*
X55184678Y5950000D02*
X56137306Y5400000D01*
X54049999Y4815321D02*
X54599999Y3862693D01*
D17*
X52500000Y3850000D03*
D12*
X50950000Y4815322D02*
X50400000Y3862694D01*
X49815321Y5950001D02*
X48862693Y5400001D01*
D16*
X48850000Y7500000D03*
D12*
X49815322Y9050000D02*
X48862694Y9600000D01*
X50950001Y10184679D02*
X50400001Y11137307D01*
M02*
