G04 #@! TF.FileFunction,Copper,L1,Top,Signal*
%FSLAX46Y46*%
G04 Gerber Fmt 4.6, Leading zero omitted, Abs format (unit mm)*
G04 Created by KiCad (PCBNEW 4.0.7-e2-6376~58~ubuntu16.04.1) date Fri Jan 12 15:29:44 2018*
%MOMM*%
%LPD*%
G01*
G04 APERTURE LIST*
%ADD10C,0.100000*%
%ADD11C,0.300000*%
%ADD12O,0.300000X2.700000*%
%ADD13O,2.700000X0.300000*%
%ADD14O,0.300000X2.000000*%
%ADD15O,1.400000X0.300000*%
%ADD16O,0.300000X1.400000*%
%ADD17R,1.250000X0.950000*%
%ADD18C,0.600000*%
%ADD19C,0.250000*%
%ADD20C,0.254000*%
G04 APERTURE END LIST*
D10*
D11*
X52539072Y25543595D02*
X53987960Y25155367D01*
X51012040Y25155367D02*
X52460928Y25543595D01*
X49883705Y24055635D02*
X50944365Y25116295D01*
X49456405Y22539072D02*
X49844633Y23987960D01*
X49844633Y21012040D02*
X49456405Y22460928D01*
X50944365Y19883705D02*
X49883705Y20944365D01*
X52460928Y19456405D02*
X51012040Y19844633D01*
X53987960Y19844633D02*
X52539072Y19456405D01*
X55116295Y20944365D02*
X54055635Y19883705D01*
X55543595Y22460928D02*
X55155367Y21012040D01*
X55155367Y23987960D02*
X55543595Y22539072D01*
X54055635Y25116295D02*
X55116295Y24055635D01*
X53405867Y25880741D02*
X53716449Y27039851D01*
X49085770Y26013621D02*
X51164230Y27213621D01*
X47786379Y23835771D02*
X48986379Y25914231D01*
D12*
X47750000Y22500001D03*
D11*
X48986379Y19085770D02*
X47786379Y21164230D01*
X51164229Y17786379D02*
X49085769Y18986379D01*
D13*
X52499999Y17750000D03*
D11*
X55914230Y18986379D02*
X53835770Y17786379D01*
X57213621Y21164229D02*
X56013621Y19085769D01*
D12*
X57250000Y22499999D03*
D11*
X56013621Y25914230D02*
X57213621Y23835770D01*
X53835771Y27213621D02*
X55914231Y26013621D01*
D14*
X52500001Y26500000D03*
D11*
X51594133Y25880741D02*
X51283551Y27039851D01*
X50025126Y24974874D02*
X49176598Y25823402D01*
X49119259Y23405867D02*
X47960149Y23716449D01*
X49119259Y21594133D02*
X47960149Y21283551D01*
X50025126Y20025126D02*
X49176598Y19176598D01*
X51594133Y19119259D02*
X51283551Y17960149D01*
X53405867Y19119259D02*
X53716449Y17960149D01*
X54974874Y20025126D02*
X55823402Y19176598D01*
X55880741Y21594133D02*
X57039851Y21283551D01*
X55880741Y23405867D02*
X57039851Y23716449D01*
X54974874Y24974874D02*
X55823402Y25823402D01*
X54050000Y25184678D02*
X54600000Y26137306D01*
X55184679Y24049999D02*
X56137307Y24599999D01*
D15*
X56150000Y22500000D03*
D11*
X55184678Y20950000D02*
X56137306Y20400000D01*
X54049999Y19815321D02*
X54599999Y18862693D01*
D16*
X52500000Y18850000D03*
D11*
X50950000Y19815322D02*
X50400000Y18862694D01*
X49815321Y20950001D02*
X48862693Y20400001D01*
D15*
X48850000Y22500000D03*
D11*
X49815322Y24050000D02*
X48862694Y24600000D01*
X50950001Y25184679D02*
X50400001Y26137307D01*
D17*
X8900000Y53375000D03*
X8900000Y51625000D03*
X6100000Y51625000D03*
X6100000Y53375000D03*
X23900000Y53375000D03*
X23900000Y51625000D03*
X21100000Y51625000D03*
X21100000Y53375000D03*
X38900000Y53375000D03*
X38900000Y51625000D03*
X36100000Y51625000D03*
X36100000Y53375000D03*
X53900000Y53375000D03*
X53900000Y51625000D03*
X51100000Y51625000D03*
X51100000Y53375000D03*
X8900000Y38375000D03*
X8900000Y36625000D03*
X6100000Y36625000D03*
X6100000Y38375000D03*
X23900000Y38375000D03*
X23900000Y36625000D03*
X21100000Y36625000D03*
X21100000Y38375000D03*
X38900000Y38375000D03*
X38900000Y36625000D03*
X36100000Y36625000D03*
X36100000Y38375000D03*
X53900000Y38375000D03*
X53900000Y36625000D03*
X51100000Y36625000D03*
X51100000Y38375000D03*
X8900000Y23375000D03*
X8900000Y21625000D03*
X6100000Y21625000D03*
X6100000Y23375000D03*
X23900000Y23375000D03*
X23900000Y21625000D03*
X21100000Y21625000D03*
X21100000Y23375000D03*
X38900000Y23375000D03*
X38900000Y21625000D03*
X36100000Y21625000D03*
X36100000Y23375000D03*
X53900000Y23375000D03*
X53900000Y21625000D03*
X51100000Y21625000D03*
X51100000Y23375000D03*
X8900000Y8375000D03*
X8900000Y6625000D03*
X6100000Y6625000D03*
X6100000Y8375000D03*
X23900000Y8375000D03*
X23900000Y6625000D03*
X21100000Y6625000D03*
X21100000Y8375000D03*
X38900000Y8375000D03*
X38900000Y6625000D03*
X36100000Y6625000D03*
X36100000Y8375000D03*
X53900000Y8375000D03*
X53900000Y6625000D03*
X51100000Y6625000D03*
X51100000Y8375000D03*
D11*
X7460928Y49456405D02*
X6012040Y49844633D01*
X8987960Y49844633D02*
X7539072Y49456405D01*
X10116295Y50944365D02*
X9055635Y49883705D01*
X10543595Y52460928D02*
X10155367Y51012040D01*
X10155367Y53987960D02*
X10543595Y52539072D01*
X9055635Y55116295D02*
X10116295Y54055635D01*
X7539072Y55543595D02*
X8987960Y55155367D01*
X6012040Y55155367D02*
X7460928Y55543595D01*
X4883705Y54055635D02*
X5944365Y55116295D01*
X4456405Y52539072D02*
X4844633Y53987960D01*
X4844633Y51012040D02*
X4456405Y52460928D01*
X5944365Y49883705D02*
X4883705Y50944365D01*
X6594133Y49119259D02*
X6283551Y47960149D01*
X10914230Y48986379D02*
X8835770Y47786379D01*
X12213621Y51164229D02*
X11013621Y49085769D01*
D12*
X12250000Y52499999D03*
D11*
X11013621Y55914230D02*
X12213621Y53835770D01*
X8835771Y57213621D02*
X10914231Y56013621D01*
D13*
X7500001Y57250000D03*
D11*
X4085770Y56013621D02*
X6164230Y57213621D01*
X2786379Y53835771D02*
X3986379Y55914231D01*
D12*
X2750000Y52500001D03*
D11*
X3986379Y49085770D02*
X2786379Y51164230D01*
X6164229Y47786379D02*
X4085769Y48986379D01*
D14*
X7499999Y48500000D03*
D11*
X8405867Y49119259D02*
X8716449Y47960149D01*
X9974874Y50025126D02*
X10823402Y49176598D01*
X10880741Y51594133D02*
X12039851Y51283551D01*
X10880741Y53405867D02*
X12039851Y53716449D01*
X9974874Y54974874D02*
X10823402Y55823402D01*
X8405867Y55880741D02*
X8716449Y57039851D01*
X6594133Y55880741D02*
X6283551Y57039851D01*
X5025126Y54974874D02*
X4176598Y55823402D01*
X4119259Y53405867D02*
X2960149Y53716449D01*
X4119259Y51594133D02*
X2960149Y51283551D01*
X5025126Y50025126D02*
X4176598Y49176598D01*
X5950000Y49815322D02*
X5400000Y48862694D01*
X4815321Y50950001D02*
X3862693Y50400001D01*
D15*
X3850000Y52500000D03*
D11*
X4815322Y54050000D02*
X3862694Y54600000D01*
X5950001Y55184679D02*
X5400001Y56137307D01*
D16*
X7500000Y56150000D03*
D11*
X9050000Y55184678D02*
X9600000Y56137306D01*
X10184679Y54049999D02*
X11137307Y54599999D01*
D15*
X11150000Y52500000D03*
D11*
X10184678Y50950000D02*
X11137306Y50400000D01*
X9049999Y49815321D02*
X9599999Y48862693D01*
X22460928Y49456405D02*
X21012040Y49844633D01*
X23987960Y49844633D02*
X22539072Y49456405D01*
X25116295Y50944365D02*
X24055635Y49883705D01*
X25543595Y52460928D02*
X25155367Y51012040D01*
X25155367Y53987960D02*
X25543595Y52539072D01*
X24055635Y55116295D02*
X25116295Y54055635D01*
X22539072Y55543595D02*
X23987960Y55155367D01*
X21012040Y55155367D02*
X22460928Y55543595D01*
X19883705Y54055635D02*
X20944365Y55116295D01*
X19456405Y52539072D02*
X19844633Y53987960D01*
X19844633Y51012040D02*
X19456405Y52460928D01*
X20944365Y49883705D02*
X19883705Y50944365D01*
X21594133Y49119259D02*
X21283551Y47960149D01*
X25914230Y48986379D02*
X23835770Y47786379D01*
X27213621Y51164229D02*
X26013621Y49085769D01*
D12*
X27250000Y52499999D03*
D11*
X26013621Y55914230D02*
X27213621Y53835770D01*
X23835771Y57213621D02*
X25914231Y56013621D01*
D13*
X22500001Y57250000D03*
D11*
X19085770Y56013621D02*
X21164230Y57213621D01*
X17786379Y53835771D02*
X18986379Y55914231D01*
D12*
X17750000Y52500001D03*
D11*
X18986379Y49085770D02*
X17786379Y51164230D01*
X21164229Y47786379D02*
X19085769Y48986379D01*
D14*
X22499999Y48500000D03*
D11*
X23405867Y49119259D02*
X23716449Y47960149D01*
X24974874Y50025126D02*
X25823402Y49176598D01*
X25880741Y51594133D02*
X27039851Y51283551D01*
X25880741Y53405867D02*
X27039851Y53716449D01*
X24974874Y54974874D02*
X25823402Y55823402D01*
X23405867Y55880741D02*
X23716449Y57039851D01*
X21594133Y55880741D02*
X21283551Y57039851D01*
X20025126Y54974874D02*
X19176598Y55823402D01*
X19119259Y53405867D02*
X17960149Y53716449D01*
X19119259Y51594133D02*
X17960149Y51283551D01*
X20025126Y50025126D02*
X19176598Y49176598D01*
X20950000Y49815322D02*
X20400000Y48862694D01*
X19815321Y50950001D02*
X18862693Y50400001D01*
D15*
X18850000Y52500000D03*
D11*
X19815322Y54050000D02*
X18862694Y54600000D01*
X20950001Y55184679D02*
X20400001Y56137307D01*
D16*
X22500000Y56150000D03*
D11*
X24050000Y55184678D02*
X24600000Y56137306D01*
X25184679Y54049999D02*
X26137307Y54599999D01*
D15*
X26150000Y52500000D03*
D11*
X25184678Y50950000D02*
X26137306Y50400000D01*
X24049999Y49815321D02*
X24599999Y48862693D01*
X37460928Y49456405D02*
X36012040Y49844633D01*
X38987960Y49844633D02*
X37539072Y49456405D01*
X40116295Y50944365D02*
X39055635Y49883705D01*
X40543595Y52460928D02*
X40155367Y51012040D01*
X40155367Y53987960D02*
X40543595Y52539072D01*
X39055635Y55116295D02*
X40116295Y54055635D01*
X37539072Y55543595D02*
X38987960Y55155367D01*
X36012040Y55155367D02*
X37460928Y55543595D01*
X34883705Y54055635D02*
X35944365Y55116295D01*
X34456405Y52539072D02*
X34844633Y53987960D01*
X34844633Y51012040D02*
X34456405Y52460928D01*
X35944365Y49883705D02*
X34883705Y50944365D01*
X36594133Y49119259D02*
X36283551Y47960149D01*
X40914230Y48986379D02*
X38835770Y47786379D01*
X42213621Y51164229D02*
X41013621Y49085769D01*
D12*
X42250000Y52499999D03*
D11*
X41013621Y55914230D02*
X42213621Y53835770D01*
X38835771Y57213621D02*
X40914231Y56013621D01*
D13*
X37500001Y57250000D03*
D11*
X34085770Y56013621D02*
X36164230Y57213621D01*
X32786379Y53835771D02*
X33986379Y55914231D01*
D12*
X32750000Y52500001D03*
D11*
X33986379Y49085770D02*
X32786379Y51164230D01*
X36164229Y47786379D02*
X34085769Y48986379D01*
D14*
X37499999Y48500000D03*
D11*
X38405867Y49119259D02*
X38716449Y47960149D01*
X39974874Y50025126D02*
X40823402Y49176598D01*
X40880741Y51594133D02*
X42039851Y51283551D01*
X40880741Y53405867D02*
X42039851Y53716449D01*
X39974874Y54974874D02*
X40823402Y55823402D01*
X38405867Y55880741D02*
X38716449Y57039851D01*
X36594133Y55880741D02*
X36283551Y57039851D01*
X35025126Y54974874D02*
X34176598Y55823402D01*
X34119259Y53405867D02*
X32960149Y53716449D01*
X34119259Y51594133D02*
X32960149Y51283551D01*
X35025126Y50025126D02*
X34176598Y49176598D01*
X35950000Y49815322D02*
X35400000Y48862694D01*
X34815321Y50950001D02*
X33862693Y50400001D01*
D15*
X33850000Y52500000D03*
D11*
X34815322Y54050000D02*
X33862694Y54600000D01*
X35950001Y55184679D02*
X35400001Y56137307D01*
D16*
X37500000Y56150000D03*
D11*
X39050000Y55184678D02*
X39600000Y56137306D01*
X40184679Y54049999D02*
X41137307Y54599999D01*
D15*
X41150000Y52500000D03*
D11*
X40184678Y50950000D02*
X41137306Y50400000D01*
X39049999Y49815321D02*
X39599999Y48862693D01*
X52460928Y49456405D02*
X51012040Y49844633D01*
X53987960Y49844633D02*
X52539072Y49456405D01*
X55116295Y50944365D02*
X54055635Y49883705D01*
X55543595Y52460928D02*
X55155367Y51012040D01*
X55155367Y53987960D02*
X55543595Y52539072D01*
X54055635Y55116295D02*
X55116295Y54055635D01*
X52539072Y55543595D02*
X53987960Y55155367D01*
X51012040Y55155367D02*
X52460928Y55543595D01*
X49883705Y54055635D02*
X50944365Y55116295D01*
X49456405Y52539072D02*
X49844633Y53987960D01*
X49844633Y51012040D02*
X49456405Y52460928D01*
X50944365Y49883705D02*
X49883705Y50944365D01*
X51594133Y49119259D02*
X51283551Y47960149D01*
X55914230Y48986379D02*
X53835770Y47786379D01*
X57213621Y51164229D02*
X56013621Y49085769D01*
D12*
X57250000Y52499999D03*
D11*
X56013621Y55914230D02*
X57213621Y53835770D01*
X53835771Y57213621D02*
X55914231Y56013621D01*
D13*
X52500001Y57250000D03*
D11*
X49085770Y56013621D02*
X51164230Y57213621D01*
X47786379Y53835771D02*
X48986379Y55914231D01*
D12*
X47750000Y52500001D03*
D11*
X48986379Y49085770D02*
X47786379Y51164230D01*
X51164229Y47786379D02*
X49085769Y48986379D01*
D14*
X52499999Y48500000D03*
D11*
X53405867Y49119259D02*
X53716449Y47960149D01*
X54974874Y50025126D02*
X55823402Y49176598D01*
X55880741Y51594133D02*
X57039851Y51283551D01*
X55880741Y53405867D02*
X57039851Y53716449D01*
X54974874Y54974874D02*
X55823402Y55823402D01*
X53405867Y55880741D02*
X53716449Y57039851D01*
X51594133Y55880741D02*
X51283551Y57039851D01*
X50025126Y54974874D02*
X49176598Y55823402D01*
X49119259Y53405867D02*
X47960149Y53716449D01*
X49119259Y51594133D02*
X47960149Y51283551D01*
X50025126Y50025126D02*
X49176598Y49176598D01*
X50950000Y49815322D02*
X50400000Y48862694D01*
X49815321Y50950001D02*
X48862693Y50400001D01*
D15*
X48850000Y52500000D03*
D11*
X49815322Y54050000D02*
X48862694Y54600000D01*
X50950001Y55184679D02*
X50400001Y56137307D01*
D16*
X52500000Y56150000D03*
D11*
X54050000Y55184678D02*
X54600000Y56137306D01*
X55184679Y54049999D02*
X56137307Y54599999D01*
D15*
X56150000Y52500000D03*
D11*
X55184678Y50950000D02*
X56137306Y50400000D01*
X54049999Y49815321D02*
X54599999Y48862693D01*
X7460928Y34456405D02*
X6012040Y34844633D01*
X8987960Y34844633D02*
X7539072Y34456405D01*
X10116295Y35944365D02*
X9055635Y34883705D01*
X10543595Y37460928D02*
X10155367Y36012040D01*
X10155367Y38987960D02*
X10543595Y37539072D01*
X9055635Y40116295D02*
X10116295Y39055635D01*
X7539072Y40543595D02*
X8987960Y40155367D01*
X6012040Y40155367D02*
X7460928Y40543595D01*
X4883705Y39055635D02*
X5944365Y40116295D01*
X4456405Y37539072D02*
X4844633Y38987960D01*
X4844633Y36012040D02*
X4456405Y37460928D01*
X5944365Y34883705D02*
X4883705Y35944365D01*
X6594133Y34119259D02*
X6283551Y32960149D01*
X10914230Y33986379D02*
X8835770Y32786379D01*
X12213621Y36164229D02*
X11013621Y34085769D01*
D12*
X12250000Y37499999D03*
D11*
X11013621Y40914230D02*
X12213621Y38835770D01*
X8835771Y42213621D02*
X10914231Y41013621D01*
D13*
X7500001Y42250000D03*
D11*
X4085770Y41013621D02*
X6164230Y42213621D01*
X2786379Y38835771D02*
X3986379Y40914231D01*
D12*
X2750000Y37500001D03*
D11*
X3986379Y34085770D02*
X2786379Y36164230D01*
X6164229Y32786379D02*
X4085769Y33986379D01*
D14*
X7499999Y33500000D03*
D11*
X8405867Y34119259D02*
X8716449Y32960149D01*
X9974874Y35025126D02*
X10823402Y34176598D01*
X10880741Y36594133D02*
X12039851Y36283551D01*
X10880741Y38405867D02*
X12039851Y38716449D01*
X9974874Y39974874D02*
X10823402Y40823402D01*
X8405867Y40880741D02*
X8716449Y42039851D01*
X6594133Y40880741D02*
X6283551Y42039851D01*
X5025126Y39974874D02*
X4176598Y40823402D01*
X4119259Y38405867D02*
X2960149Y38716449D01*
X4119259Y36594133D02*
X2960149Y36283551D01*
X5025126Y35025126D02*
X4176598Y34176598D01*
X5950000Y34815322D02*
X5400000Y33862694D01*
X4815321Y35950001D02*
X3862693Y35400001D01*
D15*
X3850000Y37500000D03*
D11*
X4815322Y39050000D02*
X3862694Y39600000D01*
X5950001Y40184679D02*
X5400001Y41137307D01*
D16*
X7500000Y41150000D03*
D11*
X9050000Y40184678D02*
X9600000Y41137306D01*
X10184679Y39049999D02*
X11137307Y39599999D01*
D15*
X11150000Y37500000D03*
D11*
X10184678Y35950000D02*
X11137306Y35400000D01*
X9049999Y34815321D02*
X9599999Y33862693D01*
X22460928Y34456405D02*
X21012040Y34844633D01*
X23987960Y34844633D02*
X22539072Y34456405D01*
X25116295Y35944365D02*
X24055635Y34883705D01*
X25543595Y37460928D02*
X25155367Y36012040D01*
X25155367Y38987960D02*
X25543595Y37539072D01*
X24055635Y40116295D02*
X25116295Y39055635D01*
X22539072Y40543595D02*
X23987960Y40155367D01*
X21012040Y40155367D02*
X22460928Y40543595D01*
X19883705Y39055635D02*
X20944365Y40116295D01*
X19456405Y37539072D02*
X19844633Y38987960D01*
X19844633Y36012040D02*
X19456405Y37460928D01*
X20944365Y34883705D02*
X19883705Y35944365D01*
X21594133Y34119259D02*
X21283551Y32960149D01*
X25914230Y33986379D02*
X23835770Y32786379D01*
X27213621Y36164229D02*
X26013621Y34085769D01*
D12*
X27250000Y37499999D03*
D11*
X26013621Y40914230D02*
X27213621Y38835770D01*
X23835771Y42213621D02*
X25914231Y41013621D01*
D13*
X22500001Y42250000D03*
D11*
X19085770Y41013621D02*
X21164230Y42213621D01*
X17786379Y38835771D02*
X18986379Y40914231D01*
D12*
X17750000Y37500001D03*
D11*
X18986379Y34085770D02*
X17786379Y36164230D01*
X21164229Y32786379D02*
X19085769Y33986379D01*
D14*
X22499999Y33500000D03*
D11*
X23405867Y34119259D02*
X23716449Y32960149D01*
X24974874Y35025126D02*
X25823402Y34176598D01*
X25880741Y36594133D02*
X27039851Y36283551D01*
X25880741Y38405867D02*
X27039851Y38716449D01*
X24974874Y39974874D02*
X25823402Y40823402D01*
X23405867Y40880741D02*
X23716449Y42039851D01*
X21594133Y40880741D02*
X21283551Y42039851D01*
X20025126Y39974874D02*
X19176598Y40823402D01*
X19119259Y38405867D02*
X17960149Y38716449D01*
X19119259Y36594133D02*
X17960149Y36283551D01*
X20025126Y35025126D02*
X19176598Y34176598D01*
X20950000Y34815322D02*
X20400000Y33862694D01*
X19815321Y35950001D02*
X18862693Y35400001D01*
D15*
X18850000Y37500000D03*
D11*
X19815322Y39050000D02*
X18862694Y39600000D01*
X20950001Y40184679D02*
X20400001Y41137307D01*
D16*
X22500000Y41150000D03*
D11*
X24050000Y40184678D02*
X24600000Y41137306D01*
X25184679Y39049999D02*
X26137307Y39599999D01*
D15*
X26150000Y37500000D03*
D11*
X25184678Y35950000D02*
X26137306Y35400000D01*
X24049999Y34815321D02*
X24599999Y33862693D01*
X37460928Y34456405D02*
X36012040Y34844633D01*
X38987960Y34844633D02*
X37539072Y34456405D01*
X40116295Y35944365D02*
X39055635Y34883705D01*
X40543595Y37460928D02*
X40155367Y36012040D01*
X40155367Y38987960D02*
X40543595Y37539072D01*
X39055635Y40116295D02*
X40116295Y39055635D01*
X37539072Y40543595D02*
X38987960Y40155367D01*
X36012040Y40155367D02*
X37460928Y40543595D01*
X34883705Y39055635D02*
X35944365Y40116295D01*
X34456405Y37539072D02*
X34844633Y38987960D01*
X34844633Y36012040D02*
X34456405Y37460928D01*
X35944365Y34883705D02*
X34883705Y35944365D01*
X36594133Y34119259D02*
X36283551Y32960149D01*
X40914230Y33986379D02*
X38835770Y32786379D01*
X42213621Y36164229D02*
X41013621Y34085769D01*
D12*
X42250000Y37499999D03*
D11*
X41013621Y40914230D02*
X42213621Y38835770D01*
X38835771Y42213621D02*
X40914231Y41013621D01*
D13*
X37500001Y42250000D03*
D11*
X34085770Y41013621D02*
X36164230Y42213621D01*
X32786379Y38835771D02*
X33986379Y40914231D01*
D12*
X32750000Y37500001D03*
D11*
X33986379Y34085770D02*
X32786379Y36164230D01*
X36164229Y32786379D02*
X34085769Y33986379D01*
D14*
X37499999Y33500000D03*
D11*
X38405867Y34119259D02*
X38716449Y32960149D01*
X39974874Y35025126D02*
X40823402Y34176598D01*
X40880741Y36594133D02*
X42039851Y36283551D01*
X40880741Y38405867D02*
X42039851Y38716449D01*
X39974874Y39974874D02*
X40823402Y40823402D01*
X38405867Y40880741D02*
X38716449Y42039851D01*
X36594133Y40880741D02*
X36283551Y42039851D01*
X35025126Y39974874D02*
X34176598Y40823402D01*
X34119259Y38405867D02*
X32960149Y38716449D01*
X34119259Y36594133D02*
X32960149Y36283551D01*
X35025126Y35025126D02*
X34176598Y34176598D01*
X35950000Y34815322D02*
X35400000Y33862694D01*
X34815321Y35950001D02*
X33862693Y35400001D01*
D15*
X33850000Y37500000D03*
D11*
X34815322Y39050000D02*
X33862694Y39600000D01*
X35950001Y40184679D02*
X35400001Y41137307D01*
D16*
X37500000Y41150000D03*
D11*
X39050000Y40184678D02*
X39600000Y41137306D01*
X40184679Y39049999D02*
X41137307Y39599999D01*
D15*
X41150000Y37500000D03*
D11*
X40184678Y35950000D02*
X41137306Y35400000D01*
X39049999Y34815321D02*
X39599999Y33862693D01*
X52460928Y34456405D02*
X51012040Y34844633D01*
X53987960Y34844633D02*
X52539072Y34456405D01*
X55116295Y35944365D02*
X54055635Y34883705D01*
X55543595Y37460928D02*
X55155367Y36012040D01*
X55155367Y38987960D02*
X55543595Y37539072D01*
X54055635Y40116295D02*
X55116295Y39055635D01*
X52539072Y40543595D02*
X53987960Y40155367D01*
X51012040Y40155367D02*
X52460928Y40543595D01*
X49883705Y39055635D02*
X50944365Y40116295D01*
X49456405Y37539072D02*
X49844633Y38987960D01*
X49844633Y36012040D02*
X49456405Y37460928D01*
X50944365Y34883705D02*
X49883705Y35944365D01*
X51594133Y34119259D02*
X51283551Y32960149D01*
X55914230Y33986379D02*
X53835770Y32786379D01*
X57213621Y36164229D02*
X56013621Y34085769D01*
D12*
X57250000Y37499999D03*
D11*
X56013621Y40914230D02*
X57213621Y38835770D01*
X53835771Y42213621D02*
X55914231Y41013621D01*
D13*
X52500001Y42250000D03*
D11*
X49085770Y41013621D02*
X51164230Y42213621D01*
X47786379Y38835771D02*
X48986379Y40914231D01*
D12*
X47750000Y37500001D03*
D11*
X48986379Y34085770D02*
X47786379Y36164230D01*
X51164229Y32786379D02*
X49085769Y33986379D01*
D14*
X52499999Y33500000D03*
D11*
X53405867Y34119259D02*
X53716449Y32960149D01*
X54974874Y35025126D02*
X55823402Y34176598D01*
X55880741Y36594133D02*
X57039851Y36283551D01*
X55880741Y38405867D02*
X57039851Y38716449D01*
X54974874Y39974874D02*
X55823402Y40823402D01*
X53405867Y40880741D02*
X53716449Y42039851D01*
X51594133Y40880741D02*
X51283551Y42039851D01*
X50025126Y39974874D02*
X49176598Y40823402D01*
X49119259Y38405867D02*
X47960149Y38716449D01*
X49119259Y36594133D02*
X47960149Y36283551D01*
X50025126Y35025126D02*
X49176598Y34176598D01*
X50950000Y34815322D02*
X50400000Y33862694D01*
X49815321Y35950001D02*
X48862693Y35400001D01*
D15*
X48850000Y37500000D03*
D11*
X49815322Y39050000D02*
X48862694Y39600000D01*
X50950001Y40184679D02*
X50400001Y41137307D01*
D16*
X52500000Y41150000D03*
D11*
X54050000Y40184678D02*
X54600000Y41137306D01*
X55184679Y39049999D02*
X56137307Y39599999D01*
D15*
X56150000Y37500000D03*
D11*
X55184678Y35950000D02*
X56137306Y35400000D01*
X54049999Y34815321D02*
X54599999Y33862693D01*
X7539072Y25543595D02*
X8987960Y25155367D01*
X6012040Y25155367D02*
X7460928Y25543595D01*
X4883705Y24055635D02*
X5944365Y25116295D01*
X4456405Y22539072D02*
X4844633Y23987960D01*
X4844633Y21012040D02*
X4456405Y22460928D01*
X5944365Y19883705D02*
X4883705Y20944365D01*
X7460928Y19456405D02*
X6012040Y19844633D01*
X8987960Y19844633D02*
X7539072Y19456405D01*
X10116295Y20944365D02*
X9055635Y19883705D01*
X10543595Y22460928D02*
X10155367Y21012040D01*
X10155367Y23987960D02*
X10543595Y22539072D01*
X9055635Y25116295D02*
X10116295Y24055635D01*
X8405867Y25880741D02*
X8716449Y27039851D01*
X4085770Y26013621D02*
X6164230Y27213621D01*
X2786379Y23835771D02*
X3986379Y25914231D01*
D12*
X2750000Y22500001D03*
D11*
X3986379Y19085770D02*
X2786379Y21164230D01*
X6164229Y17786379D02*
X4085769Y18986379D01*
D13*
X7499999Y17750000D03*
D11*
X10914230Y18986379D02*
X8835770Y17786379D01*
X12213621Y21164229D02*
X11013621Y19085769D01*
D12*
X12250000Y22499999D03*
D11*
X11013621Y25914230D02*
X12213621Y23835770D01*
X8835771Y27213621D02*
X10914231Y26013621D01*
D14*
X7500001Y26500000D03*
D11*
X6594133Y25880741D02*
X6283551Y27039851D01*
X5025126Y24974874D02*
X4176598Y25823402D01*
X4119259Y23405867D02*
X2960149Y23716449D01*
X4119259Y21594133D02*
X2960149Y21283551D01*
X5025126Y20025126D02*
X4176598Y19176598D01*
X6594133Y19119259D02*
X6283551Y17960149D01*
X8405867Y19119259D02*
X8716449Y17960149D01*
X9974874Y20025126D02*
X10823402Y19176598D01*
X10880741Y21594133D02*
X12039851Y21283551D01*
X10880741Y23405867D02*
X12039851Y23716449D01*
X9974874Y24974874D02*
X10823402Y25823402D01*
X9050000Y25184678D02*
X9600000Y26137306D01*
X10184679Y24049999D02*
X11137307Y24599999D01*
D15*
X11150000Y22500000D03*
D11*
X10184678Y20950000D02*
X11137306Y20400000D01*
X9049999Y19815321D02*
X9599999Y18862693D01*
D16*
X7500000Y18850000D03*
D11*
X5950000Y19815322D02*
X5400000Y18862694D01*
X4815321Y20950001D02*
X3862693Y20400001D01*
D15*
X3850000Y22500000D03*
D11*
X4815322Y24050000D02*
X3862694Y24600000D01*
X5950001Y25184679D02*
X5400001Y26137307D01*
X22539072Y25543595D02*
X23987960Y25155367D01*
X21012040Y25155367D02*
X22460928Y25543595D01*
X19883705Y24055635D02*
X20944365Y25116295D01*
X19456405Y22539072D02*
X19844633Y23987960D01*
X19844633Y21012040D02*
X19456405Y22460928D01*
X20944365Y19883705D02*
X19883705Y20944365D01*
X22460928Y19456405D02*
X21012040Y19844633D01*
X23987960Y19844633D02*
X22539072Y19456405D01*
X25116295Y20944365D02*
X24055635Y19883705D01*
X25543595Y22460928D02*
X25155367Y21012040D01*
X25155367Y23987960D02*
X25543595Y22539072D01*
X24055635Y25116295D02*
X25116295Y24055635D01*
X23405867Y25880741D02*
X23716449Y27039851D01*
X19085770Y26013621D02*
X21164230Y27213621D01*
X17786379Y23835771D02*
X18986379Y25914231D01*
D12*
X17750000Y22500001D03*
D11*
X18986379Y19085770D02*
X17786379Y21164230D01*
X21164229Y17786379D02*
X19085769Y18986379D01*
D13*
X22499999Y17750000D03*
D11*
X25914230Y18986379D02*
X23835770Y17786379D01*
X27213621Y21164229D02*
X26013621Y19085769D01*
D12*
X27250000Y22499999D03*
D11*
X26013621Y25914230D02*
X27213621Y23835770D01*
X23835771Y27213621D02*
X25914231Y26013621D01*
D14*
X22500001Y26500000D03*
D11*
X21594133Y25880741D02*
X21283551Y27039851D01*
X20025126Y24974874D02*
X19176598Y25823402D01*
X19119259Y23405867D02*
X17960149Y23716449D01*
X19119259Y21594133D02*
X17960149Y21283551D01*
X20025126Y20025126D02*
X19176598Y19176598D01*
X21594133Y19119259D02*
X21283551Y17960149D01*
X23405867Y19119259D02*
X23716449Y17960149D01*
X24974874Y20025126D02*
X25823402Y19176598D01*
X25880741Y21594133D02*
X27039851Y21283551D01*
X25880741Y23405867D02*
X27039851Y23716449D01*
X24974874Y24974874D02*
X25823402Y25823402D01*
X24050000Y25184678D02*
X24600000Y26137306D01*
X25184679Y24049999D02*
X26137307Y24599999D01*
D15*
X26150000Y22500000D03*
D11*
X25184678Y20950000D02*
X26137306Y20400000D01*
X24049999Y19815321D02*
X24599999Y18862693D01*
D16*
X22500000Y18850000D03*
D11*
X20950000Y19815322D02*
X20400000Y18862694D01*
X19815321Y20950001D02*
X18862693Y20400001D01*
D15*
X18850000Y22500000D03*
D11*
X19815322Y24050000D02*
X18862694Y24600000D01*
X20950001Y25184679D02*
X20400001Y26137307D01*
X37539072Y25543595D02*
X38987960Y25155367D01*
X36012040Y25155367D02*
X37460928Y25543595D01*
X34883705Y24055635D02*
X35944365Y25116295D01*
X34456405Y22539072D02*
X34844633Y23987960D01*
X34844633Y21012040D02*
X34456405Y22460928D01*
X35944365Y19883705D02*
X34883705Y20944365D01*
X37460928Y19456405D02*
X36012040Y19844633D01*
X38987960Y19844633D02*
X37539072Y19456405D01*
X40116295Y20944365D02*
X39055635Y19883705D01*
X40543595Y22460928D02*
X40155367Y21012040D01*
X40155367Y23987960D02*
X40543595Y22539072D01*
X39055635Y25116295D02*
X40116295Y24055635D01*
X38405867Y25880741D02*
X38716449Y27039851D01*
X34085770Y26013621D02*
X36164230Y27213621D01*
X32786379Y23835771D02*
X33986379Y25914231D01*
D12*
X32750000Y22500001D03*
D11*
X33986379Y19085770D02*
X32786379Y21164230D01*
X36164229Y17786379D02*
X34085769Y18986379D01*
D13*
X37499999Y17750000D03*
D11*
X40914230Y18986379D02*
X38835770Y17786379D01*
X42213621Y21164229D02*
X41013621Y19085769D01*
D12*
X42250000Y22499999D03*
D11*
X41013621Y25914230D02*
X42213621Y23835770D01*
X38835771Y27213621D02*
X40914231Y26013621D01*
D14*
X37500001Y26500000D03*
D11*
X36594133Y25880741D02*
X36283551Y27039851D01*
X35025126Y24974874D02*
X34176598Y25823402D01*
X34119259Y23405867D02*
X32960149Y23716449D01*
X34119259Y21594133D02*
X32960149Y21283551D01*
X35025126Y20025126D02*
X34176598Y19176598D01*
X36594133Y19119259D02*
X36283551Y17960149D01*
X38405867Y19119259D02*
X38716449Y17960149D01*
X39974874Y20025126D02*
X40823402Y19176598D01*
X40880741Y21594133D02*
X42039851Y21283551D01*
X40880741Y23405867D02*
X42039851Y23716449D01*
X39974874Y24974874D02*
X40823402Y25823402D01*
X39050000Y25184678D02*
X39600000Y26137306D01*
X40184679Y24049999D02*
X41137307Y24599999D01*
D15*
X41150000Y22500000D03*
D11*
X40184678Y20950000D02*
X41137306Y20400000D01*
X39049999Y19815321D02*
X39599999Y18862693D01*
D16*
X37500000Y18850000D03*
D11*
X35950000Y19815322D02*
X35400000Y18862694D01*
X34815321Y20950001D02*
X33862693Y20400001D01*
D15*
X33850000Y22500000D03*
D11*
X34815322Y24050000D02*
X33862694Y24600000D01*
X35950001Y25184679D02*
X35400001Y26137307D01*
X7539072Y10543595D02*
X8987960Y10155367D01*
X6012040Y10155367D02*
X7460928Y10543595D01*
X4883705Y9055635D02*
X5944365Y10116295D01*
X4456405Y7539072D02*
X4844633Y8987960D01*
X4844633Y6012040D02*
X4456405Y7460928D01*
X5944365Y4883705D02*
X4883705Y5944365D01*
X7460928Y4456405D02*
X6012040Y4844633D01*
X8987960Y4844633D02*
X7539072Y4456405D01*
X10116295Y5944365D02*
X9055635Y4883705D01*
X10543595Y7460928D02*
X10155367Y6012040D01*
X10155367Y8987960D02*
X10543595Y7539072D01*
X9055635Y10116295D02*
X10116295Y9055635D01*
X8405867Y10880741D02*
X8716449Y12039851D01*
X4085770Y11013621D02*
X6164230Y12213621D01*
X2786379Y8835771D02*
X3986379Y10914231D01*
D12*
X2750000Y7500001D03*
D11*
X3986379Y4085770D02*
X2786379Y6164230D01*
X6164229Y2786379D02*
X4085769Y3986379D01*
D13*
X7499999Y2750000D03*
D11*
X10914230Y3986379D02*
X8835770Y2786379D01*
X12213621Y6164229D02*
X11013621Y4085769D01*
D12*
X12250000Y7499999D03*
D11*
X11013621Y10914230D02*
X12213621Y8835770D01*
X8835771Y12213621D02*
X10914231Y11013621D01*
D14*
X7500001Y11500000D03*
D11*
X6594133Y10880741D02*
X6283551Y12039851D01*
X5025126Y9974874D02*
X4176598Y10823402D01*
X4119259Y8405867D02*
X2960149Y8716449D01*
X4119259Y6594133D02*
X2960149Y6283551D01*
X5025126Y5025126D02*
X4176598Y4176598D01*
X6594133Y4119259D02*
X6283551Y2960149D01*
X8405867Y4119259D02*
X8716449Y2960149D01*
X9974874Y5025126D02*
X10823402Y4176598D01*
X10880741Y6594133D02*
X12039851Y6283551D01*
X10880741Y8405867D02*
X12039851Y8716449D01*
X9974874Y9974874D02*
X10823402Y10823402D01*
X9050000Y10184678D02*
X9600000Y11137306D01*
X10184679Y9049999D02*
X11137307Y9599999D01*
D15*
X11150000Y7500000D03*
D11*
X10184678Y5950000D02*
X11137306Y5400000D01*
X9049999Y4815321D02*
X9599999Y3862693D01*
D16*
X7500000Y3850000D03*
D11*
X5950000Y4815322D02*
X5400000Y3862694D01*
X4815321Y5950001D02*
X3862693Y5400001D01*
D15*
X3850000Y7500000D03*
D11*
X4815322Y9050000D02*
X3862694Y9600000D01*
X5950001Y10184679D02*
X5400001Y11137307D01*
X22539072Y10543595D02*
X23987960Y10155367D01*
X21012040Y10155367D02*
X22460928Y10543595D01*
X19883705Y9055635D02*
X20944365Y10116295D01*
X19456405Y7539072D02*
X19844633Y8987960D01*
X19844633Y6012040D02*
X19456405Y7460928D01*
X20944365Y4883705D02*
X19883705Y5944365D01*
X22460928Y4456405D02*
X21012040Y4844633D01*
X23987960Y4844633D02*
X22539072Y4456405D01*
X25116295Y5944365D02*
X24055635Y4883705D01*
X25543595Y7460928D02*
X25155367Y6012040D01*
X25155367Y8987960D02*
X25543595Y7539072D01*
X24055635Y10116295D02*
X25116295Y9055635D01*
X23405867Y10880741D02*
X23716449Y12039851D01*
X19085770Y11013621D02*
X21164230Y12213621D01*
X17786379Y8835771D02*
X18986379Y10914231D01*
D12*
X17750000Y7500001D03*
D11*
X18986379Y4085770D02*
X17786379Y6164230D01*
X21164229Y2786379D02*
X19085769Y3986379D01*
D13*
X22499999Y2750000D03*
D11*
X25914230Y3986379D02*
X23835770Y2786379D01*
X27213621Y6164229D02*
X26013621Y4085769D01*
D12*
X27250000Y7499999D03*
D11*
X26013621Y10914230D02*
X27213621Y8835770D01*
X23835771Y12213621D02*
X25914231Y11013621D01*
D14*
X22500001Y11500000D03*
D11*
X21594133Y10880741D02*
X21283551Y12039851D01*
X20025126Y9974874D02*
X19176598Y10823402D01*
X19119259Y8405867D02*
X17960149Y8716449D01*
X19119259Y6594133D02*
X17960149Y6283551D01*
X20025126Y5025126D02*
X19176598Y4176598D01*
X21594133Y4119259D02*
X21283551Y2960149D01*
X23405867Y4119259D02*
X23716449Y2960149D01*
X24974874Y5025126D02*
X25823402Y4176598D01*
X25880741Y6594133D02*
X27039851Y6283551D01*
X25880741Y8405867D02*
X27039851Y8716449D01*
X24974874Y9974874D02*
X25823402Y10823402D01*
X24050000Y10184678D02*
X24600000Y11137306D01*
X25184679Y9049999D02*
X26137307Y9599999D01*
D15*
X26150000Y7500000D03*
D11*
X25184678Y5950000D02*
X26137306Y5400000D01*
X24049999Y4815321D02*
X24599999Y3862693D01*
D16*
X22500000Y3850000D03*
D11*
X20950000Y4815322D02*
X20400000Y3862694D01*
X19815321Y5950001D02*
X18862693Y5400001D01*
D15*
X18850000Y7500000D03*
D11*
X19815322Y9050000D02*
X18862694Y9600000D01*
X20950001Y10184679D02*
X20400001Y11137307D01*
X37539072Y10543595D02*
X38987960Y10155367D01*
X36012040Y10155367D02*
X37460928Y10543595D01*
X34883705Y9055635D02*
X35944365Y10116295D01*
X34456405Y7539072D02*
X34844633Y8987960D01*
X34844633Y6012040D02*
X34456405Y7460928D01*
X35944365Y4883705D02*
X34883705Y5944365D01*
X37460928Y4456405D02*
X36012040Y4844633D01*
X38987960Y4844633D02*
X37539072Y4456405D01*
X40116295Y5944365D02*
X39055635Y4883705D01*
X40543595Y7460928D02*
X40155367Y6012040D01*
X40155367Y8987960D02*
X40543595Y7539072D01*
X39055635Y10116295D02*
X40116295Y9055635D01*
X38405867Y10880741D02*
X38716449Y12039851D01*
X34085770Y11013621D02*
X36164230Y12213621D01*
X32786379Y8835771D02*
X33986379Y10914231D01*
D12*
X32750000Y7500001D03*
D11*
X33986379Y4085770D02*
X32786379Y6164230D01*
X36164229Y2786379D02*
X34085769Y3986379D01*
D13*
X37499999Y2750000D03*
D11*
X40914230Y3986379D02*
X38835770Y2786379D01*
X42213621Y6164229D02*
X41013621Y4085769D01*
D12*
X42250000Y7499999D03*
D11*
X41013621Y10914230D02*
X42213621Y8835770D01*
X38835771Y12213621D02*
X40914231Y11013621D01*
D14*
X37500001Y11500000D03*
D11*
X36594133Y10880741D02*
X36283551Y12039851D01*
X35025126Y9974874D02*
X34176598Y10823402D01*
X34119259Y8405867D02*
X32960149Y8716449D01*
X34119259Y6594133D02*
X32960149Y6283551D01*
X35025126Y5025126D02*
X34176598Y4176598D01*
X36594133Y4119259D02*
X36283551Y2960149D01*
X38405867Y4119259D02*
X38716449Y2960149D01*
X39974874Y5025126D02*
X40823402Y4176598D01*
X40880741Y6594133D02*
X42039851Y6283551D01*
X40880741Y8405867D02*
X42039851Y8716449D01*
X39974874Y9974874D02*
X40823402Y10823402D01*
X39050000Y10184678D02*
X39600000Y11137306D01*
X40184679Y9049999D02*
X41137307Y9599999D01*
D15*
X41150000Y7500000D03*
D11*
X40184678Y5950000D02*
X41137306Y5400000D01*
X39049999Y4815321D02*
X39599999Y3862693D01*
D16*
X37500000Y3850000D03*
D11*
X35950000Y4815322D02*
X35400000Y3862694D01*
X34815321Y5950001D02*
X33862693Y5400001D01*
D15*
X33850000Y7500000D03*
D11*
X34815322Y9050000D02*
X33862694Y9600000D01*
X35950001Y10184679D02*
X35400001Y11137307D01*
X52539072Y10543595D02*
X53987960Y10155367D01*
X51012040Y10155367D02*
X52460928Y10543595D01*
X49883705Y9055635D02*
X50944365Y10116295D01*
X49456405Y7539072D02*
X49844633Y8987960D01*
X49844633Y6012040D02*
X49456405Y7460928D01*
X50944365Y4883705D02*
X49883705Y5944365D01*
X52460928Y4456405D02*
X51012040Y4844633D01*
X53987960Y4844633D02*
X52539072Y4456405D01*
X55116295Y5944365D02*
X54055635Y4883705D01*
X55543595Y7460928D02*
X55155367Y6012040D01*
X55155367Y8987960D02*
X55543595Y7539072D01*
X54055635Y10116295D02*
X55116295Y9055635D01*
X53405867Y10880741D02*
X53716449Y12039851D01*
X49085770Y11013621D02*
X51164230Y12213621D01*
X47786379Y8835771D02*
X48986379Y10914231D01*
D12*
X47750000Y7500001D03*
D11*
X48986379Y4085770D02*
X47786379Y6164230D01*
X51164229Y2786379D02*
X49085769Y3986379D01*
D13*
X52499999Y2750000D03*
D11*
X55914230Y3986379D02*
X53835770Y2786379D01*
X57213621Y6164229D02*
X56013621Y4085769D01*
D12*
X57250000Y7499999D03*
D11*
X56013621Y10914230D02*
X57213621Y8835770D01*
X53835771Y12213621D02*
X55914231Y11013621D01*
D14*
X52500001Y11500000D03*
D11*
X51594133Y10880741D02*
X51283551Y12039851D01*
X50025126Y9974874D02*
X49176598Y10823402D01*
X49119259Y8405867D02*
X47960149Y8716449D01*
X49119259Y6594133D02*
X47960149Y6283551D01*
X50025126Y5025126D02*
X49176598Y4176598D01*
X51594133Y4119259D02*
X51283551Y2960149D01*
X53405867Y4119259D02*
X53716449Y2960149D01*
X54974874Y5025126D02*
X55823402Y4176598D01*
X55880741Y6594133D02*
X57039851Y6283551D01*
X55880741Y8405867D02*
X57039851Y8716449D01*
X54974874Y9974874D02*
X55823402Y10823402D01*
X54050000Y10184678D02*
X54600000Y11137306D01*
X55184679Y9049999D02*
X56137307Y9599999D01*
D15*
X56150000Y7500000D03*
D11*
X55184678Y5950000D02*
X56137306Y5400000D01*
X54049999Y4815321D02*
X54599999Y3862693D01*
D16*
X52500000Y3850000D03*
D11*
X50950000Y4815322D02*
X50400000Y3862694D01*
X49815321Y5950001D02*
X48862693Y5400001D01*
D15*
X48850000Y7500000D03*
D11*
X49815322Y9050000D02*
X48862694Y9600000D01*
X50950001Y10184679D02*
X50400001Y11137307D01*
D18*
X49657000Y28829000D03*
X6100000Y36625000D03*
X15241000Y35900000D03*
X15621000Y25781000D03*
X15240000Y28956000D03*
X58039000Y22479000D03*
X6100000Y21625000D03*
X21100000Y21625000D03*
X36100000Y21625000D03*
X51100000Y21625000D03*
X38227000Y29210000D03*
X58420000Y26162000D03*
X36100000Y36625000D03*
X51100000Y6625000D03*
X36100000Y6625000D03*
X21100000Y6625000D03*
X6100000Y6625000D03*
X51100000Y36625000D03*
X21100000Y36625000D03*
X51100000Y51625000D03*
X36100000Y51625000D03*
X21100000Y51625000D03*
X6100000Y51625000D03*
X53900000Y8375000D03*
X53900000Y23375000D03*
X38900000Y23375000D03*
X23900000Y23375000D03*
X13081000Y23368000D03*
X8900000Y23375000D03*
X31878000Y38375000D03*
X2413000Y10287000D03*
X6350000Y14224000D03*
X27813000Y10668000D03*
X43053000Y26289000D03*
X24003000Y30226000D03*
X20320000Y30480000D03*
X19050000Y27051000D03*
X25699988Y47625000D03*
X17018000Y43052998D03*
X13336000Y38375000D03*
X12319000Y41148000D03*
X19685000Y1270000D03*
X17780000Y2286000D03*
X15875000Y3810000D03*
X29211000Y8375000D03*
X21082000Y16510000D03*
X24003000Y14986000D03*
X29845000Y16764000D03*
X38227000Y13716000D03*
X44451000Y8375000D03*
X13082000Y8375000D03*
X13081000Y10414000D03*
X13081000Y18669000D03*
X34798000Y46482000D03*
X44450000Y48895000D03*
X44451000Y53375000D03*
X31372174Y30356174D03*
X36576000Y30607000D03*
X44790212Y31079313D03*
X39370000Y31115000D03*
X5597000Y30734000D03*
X2794000Y47752000D03*
X6223000Y45720000D03*
X23622000Y43560998D03*
X19812000Y43561000D03*
X53900000Y38375000D03*
X48387000Y29845004D03*
X12700000Y30734000D03*
X46990000Y29845000D03*
X37211000Y5461000D03*
X38900000Y8375000D03*
X23900000Y8375000D03*
X8900000Y8375000D03*
X38900000Y38375000D03*
X23900000Y38375000D03*
X8900000Y38375000D03*
X53900000Y53375000D03*
X38900000Y53375000D03*
X23900000Y53375000D03*
X8900000Y53375000D03*
X30861000Y28702000D03*
X29718000Y41275008D03*
X6100000Y53375000D03*
X17272010Y40640000D03*
X16256000Y57277002D03*
X14605000Y49530000D03*
X17019000Y31923000D03*
X29591000Y27431996D03*
X13264668Y56582979D03*
X27723999Y41279583D03*
X16548013Y49530000D03*
X28956000Y26797000D03*
X14096996Y56769000D03*
X26797008Y41275000D03*
X15621004Y49530000D03*
X30226000Y28067000D03*
X15412718Y56753618D03*
X28702000Y41275000D03*
X17526000Y49530000D03*
X20573992Y42926000D03*
X26162000Y56642000D03*
X18415000Y41402000D03*
X13716000Y28956000D03*
X6856533Y27441991D03*
X28575000Y13081000D03*
X32385000Y55118000D03*
X31496000Y42799000D03*
X31496000Y41275000D03*
X30099000Y32131000D03*
X51054000Y30226000D03*
X45974000Y20320000D03*
X32639000Y4572000D03*
X25527000Y13081000D03*
X17526000Y18669000D03*
X17272000Y27940000D03*
X2286000Y33908996D03*
X28575000Y12192000D03*
X31496000Y55118000D03*
X30607000Y42799000D03*
X30607000Y41275000D03*
X30099000Y33020000D03*
X52070000Y30226000D03*
X46863000Y20320000D03*
X31242000Y4572000D03*
X25527000Y12192000D03*
X16637000Y18669000D03*
X16637000Y29972000D03*
X8900000Y51625000D03*
X21100000Y53375000D03*
X36100000Y53375000D03*
X23900000Y51625000D03*
X38900000Y51625000D03*
X51100000Y53375000D03*
X6100000Y38375000D03*
X53900000Y51625000D03*
X21100000Y38375000D03*
X8900000Y36625000D03*
X36100529Y38363990D03*
X23900000Y36625000D03*
X51100000Y38375000D03*
X38900000Y36625000D03*
X6100000Y23375000D03*
X53900000Y36625000D03*
X21083000Y23413996D03*
X8900000Y21625000D03*
X36145974Y23307665D03*
X23900000Y21625000D03*
X51100000Y23375000D03*
X38900000Y21625000D03*
X6100000Y8375000D03*
X53900000Y21625000D03*
X21100000Y8375000D03*
X8900000Y6625000D03*
X36100000Y8375000D03*
X23900000Y6625000D03*
X51100000Y8375000D03*
X38900000Y6625000D03*
X7500001Y26500000D03*
X7500000Y18850000D03*
X7500000Y17000000D03*
X7500000Y41150000D03*
X7500000Y43000000D03*
X4581990Y49602574D03*
X22479000Y43561002D03*
X22500000Y41265010D03*
X22499999Y28621000D03*
X22500000Y18850000D03*
X22500000Y17000000D03*
X30099000Y30353000D03*
X37500000Y18850000D03*
X37500000Y17000000D03*
X37500000Y41150000D03*
X37500000Y43000000D03*
X36577000Y31415000D03*
X30738413Y30981176D03*
X52450992Y33528000D03*
X52500000Y18850000D03*
X52500000Y17000000D03*
X52500000Y41150000D03*
X52500000Y43000000D03*
X19600862Y34600862D03*
X17399000Y35179004D03*
X27060990Y30353000D03*
X25399138Y10399138D03*
X26670000Y18669000D03*
D19*
X38227000Y29210000D02*
X38608000Y28829000D01*
X49232736Y28829000D02*
X49657000Y28829000D01*
X38608000Y28829000D02*
X49232736Y28829000D01*
X15240000Y28956000D02*
X15240000Y35899000D01*
X15240000Y35899000D02*
X15241000Y35900000D01*
X15240000Y26162000D02*
X15321001Y26080999D01*
X15321001Y26080999D02*
X15621000Y25781000D01*
X15240000Y28956000D02*
X15240000Y26162000D01*
X58338999Y22778999D02*
X58039000Y22479000D01*
X58420000Y22860000D02*
X58338999Y22778999D01*
X58420000Y26162000D02*
X58420000Y22860000D01*
X6350000Y14224000D02*
X2413000Y10287000D01*
X29211000Y8375000D02*
X29211000Y9270000D01*
X29211000Y9270000D02*
X27813000Y10668000D01*
X19050000Y27051000D02*
X20320000Y28321000D01*
X20320000Y28321000D02*
X20320000Y30480000D01*
X25699988Y47200736D02*
X25699988Y47625000D01*
X25699988Y45638986D02*
X25699988Y47200736D01*
X23622000Y43560998D02*
X25699988Y45638986D01*
X19387736Y43561000D02*
X19812000Y43561000D01*
X17526002Y43561000D02*
X19387736Y43561000D01*
X17018000Y43052998D02*
X17526002Y43561000D01*
X13081000Y23792264D02*
X13081000Y23368000D01*
X12700000Y30734000D02*
X13081000Y30353000D01*
X13081000Y30353000D02*
X13081000Y23792264D01*
X13335000Y38374000D02*
X13336000Y38375000D01*
X13335000Y31369000D02*
X13335000Y38374000D01*
X12700000Y30734000D02*
X13335000Y31369000D01*
X13336000Y38375000D02*
X13336000Y40131000D01*
X13336000Y40131000D02*
X12319000Y41148000D01*
X17780000Y2286000D02*
X18669000Y2286000D01*
X18669000Y2286000D02*
X19685000Y1270000D01*
X13082000Y8375000D02*
X13082000Y6603000D01*
X13082000Y6603000D02*
X15875000Y3810000D01*
X21082000Y16510000D02*
X14986000Y10414000D01*
X14986000Y10414000D02*
X13081000Y10414000D01*
X25527000Y16764000D02*
X24003000Y15240000D01*
X24003000Y15240000D02*
X24003000Y14986000D01*
X29845000Y16764000D02*
X25527000Y16764000D01*
X44451000Y8375000D02*
X39110000Y13716000D01*
X39110000Y13716000D02*
X38227000Y13716000D01*
X13081000Y10414000D02*
X13081000Y8376000D01*
X13081000Y8376000D02*
X13082000Y8375000D01*
X13081000Y23368000D02*
X13081000Y18669000D01*
X44451000Y53375000D02*
X44451000Y48896000D01*
X44451000Y48896000D02*
X44450000Y48895000D01*
X36576000Y30607000D02*
X31623000Y30607000D01*
X31623000Y30607000D02*
X31372174Y30356174D01*
X44754525Y31115000D02*
X44790212Y31079313D01*
X43688008Y31115000D02*
X44754525Y31115000D01*
X39370000Y31115000D02*
X43688008Y31115000D01*
X6223000Y45720000D02*
X4826000Y45720000D01*
X4826000Y45720000D02*
X2794000Y47752000D01*
X48386996Y29845000D02*
X48387000Y29845004D01*
X46990000Y29845000D02*
X48386996Y29845000D01*
X37211000Y5461000D02*
X37211000Y6836000D01*
X38750000Y8375000D02*
X38900000Y8375000D01*
X37211000Y6836000D02*
X38750000Y8375000D01*
X29718000Y41275008D02*
X29337000Y40894008D01*
X29337000Y40894008D02*
X29337000Y30226000D01*
X29337000Y30226000D02*
X30561001Y29001999D01*
X30561001Y29001999D02*
X30861000Y28702000D01*
X16972011Y40340001D02*
X17272010Y40640000D01*
X16719001Y32222999D02*
X16719001Y40086991D01*
X17019000Y31923000D02*
X16719001Y32222999D01*
X16719001Y40086991D02*
X16972011Y40340001D01*
X12318999Y57657999D02*
X15875003Y57657999D01*
X11811000Y57150000D02*
X12318999Y57657999D01*
X11811000Y55753000D02*
X11811000Y57150000D01*
X14605000Y52959000D02*
X11811000Y55753000D01*
X14605000Y49530000D02*
X14605000Y52959000D01*
X15875003Y57657999D02*
X15956001Y57577001D01*
X15956001Y57577001D02*
X16256000Y57277002D01*
X27723999Y41279583D02*
X28321000Y40682582D01*
X28321000Y40682582D02*
X28321000Y28701996D01*
X28321000Y28701996D02*
X29291001Y27731995D01*
X29291001Y27731995D02*
X29591000Y27431996D01*
X16548013Y53299634D02*
X13564667Y56282980D01*
X16548013Y49530000D02*
X16548013Y53299634D01*
X13564667Y56282980D02*
X13264668Y56582979D01*
X26797008Y41275000D02*
X27813000Y40259008D01*
X27813000Y40259008D02*
X27813000Y27940000D01*
X27813000Y27940000D02*
X28656001Y27096999D01*
X28656001Y27096999D02*
X28956000Y26797000D01*
X13796997Y57068999D02*
X14096996Y56769000D01*
X13658007Y57207989D02*
X13796997Y57068999D01*
X12884989Y57207989D02*
X13658007Y57207989D01*
X12573000Y56896000D02*
X12884989Y57207989D01*
X12573000Y55753000D02*
X12573000Y56896000D01*
X15621004Y52704996D02*
X12573000Y55753000D01*
X15621004Y49530000D02*
X15621004Y52704996D01*
X28702000Y41275000D02*
X28829000Y41148000D01*
X28829000Y41148000D02*
X28829000Y29464000D01*
X28829000Y29464000D02*
X29926001Y28366999D01*
X29926001Y28366999D02*
X30226000Y28067000D01*
X17226001Y54873997D02*
X15412718Y56687280D01*
X17226001Y49829999D02*
X17226001Y54873997D01*
X15412718Y56687280D02*
X15412718Y56753618D01*
X17526000Y49530000D02*
X17226001Y49829999D01*
X26162000Y56642000D02*
X29337000Y53467000D01*
X25400000Y42926000D02*
X20998256Y42926000D01*
X29337000Y53467000D02*
X29337000Y48768000D01*
X29337000Y48768000D02*
X26324998Y45755998D01*
X26324998Y45755998D02*
X26324998Y43850998D01*
X26324998Y43850998D02*
X25400000Y42926000D01*
X20998256Y42926000D02*
X20573992Y42926000D01*
X13716000Y28956000D02*
X14015999Y29255999D01*
X14015999Y29255999D02*
X14015999Y38907999D01*
X14015999Y38907999D02*
X16510000Y41402000D01*
X16510000Y41402000D02*
X18415000Y41402000D01*
X45974000Y24220998D02*
X51054000Y29300998D01*
X51054000Y29801736D02*
X51054000Y30226000D01*
X51054000Y29300998D02*
X51054000Y29801736D01*
X45974000Y20320000D02*
X45974000Y24220998D01*
X6882814Y27468272D02*
X6856533Y27441991D01*
X6882814Y27553915D02*
X6882814Y27468272D01*
X2286000Y33908996D02*
X2286000Y32150729D01*
X2286000Y32150729D02*
X6882814Y27553915D01*
X32639000Y4572000D02*
X31877000Y5334000D01*
X31877000Y5334000D02*
X31877000Y9779000D01*
X31877000Y9779000D02*
X28575000Y13081000D01*
X25527000Y13081000D02*
X28575000Y13081000D01*
X30099000Y32131000D02*
X30861000Y32893000D01*
X30861000Y32893000D02*
X30861000Y40640000D01*
X30861000Y40640000D02*
X31496000Y41275000D01*
X31496000Y42799000D02*
X30324999Y43970001D01*
X30324999Y43970001D02*
X30324999Y53057999D01*
X30324999Y53057999D02*
X32385000Y55118000D01*
X17272000Y27940000D02*
X17272000Y18923000D01*
X17272000Y18923000D02*
X17526000Y18669000D01*
X52070000Y29680587D02*
X52070000Y29801736D01*
X46863000Y20320000D02*
X46863000Y24473587D01*
X46863000Y24473587D02*
X52070000Y29680587D01*
X52070000Y29801736D02*
X52070000Y30226000D01*
X28874999Y11892001D02*
X28575000Y12192000D01*
X31242000Y9525000D02*
X28874999Y11892001D01*
X31242000Y4572000D02*
X31242000Y9525000D01*
X25527000Y12192000D02*
X28575000Y12192000D01*
X30099000Y33020000D02*
X30099000Y40767000D01*
X30099000Y40767000D02*
X30607000Y41275000D01*
X31196001Y54818001D02*
X31496000Y55118000D01*
X29874988Y53496988D02*
X31196001Y54818001D01*
X29874988Y43531012D02*
X29874988Y53496988D01*
X30607000Y42799000D02*
X29874988Y43531012D01*
X16637000Y29972000D02*
X16637000Y18669000D01*
X7499999Y33500000D02*
X7499999Y27967273D01*
X7499999Y27967273D02*
X7536593Y27930679D01*
X7536593Y27930679D02*
X7536593Y26536592D01*
X7536593Y26536592D02*
X7500001Y26500000D01*
X7500001Y11500000D02*
X7500000Y12750001D01*
X7500000Y12750001D02*
X7500000Y17000000D01*
X7499999Y48500000D02*
X7500000Y47249999D01*
X7500000Y47249999D02*
X7500000Y43000000D01*
X34944483Y56794138D02*
X35125000Y56613621D01*
X34471619Y57267002D02*
X34944483Y56794138D01*
X25528382Y57267002D02*
X34471619Y57267002D01*
X24875001Y56613621D02*
X25528382Y57267002D01*
X9875001Y56613621D02*
X11369391Y58108011D01*
X11369391Y58108011D02*
X18630610Y58108011D01*
X19944483Y56794138D02*
X20125000Y56613621D01*
X18630610Y58108011D02*
X19944483Y56794138D01*
X39875001Y56613621D02*
X40284380Y57023000D01*
X40284380Y57023000D02*
X49715621Y57023000D01*
X49715621Y57023000D02*
X50125000Y56613621D01*
X22499999Y43582001D02*
X22479000Y43561002D01*
X22499999Y48500000D02*
X22499999Y43582001D01*
X22499999Y28621000D02*
X22499999Y26500002D01*
X22499999Y33500000D02*
X22499999Y28621000D01*
X22500001Y11500000D02*
X22500000Y12750001D01*
X22500000Y12750001D02*
X22500000Y17000000D01*
X22499999Y26500002D02*
X22500001Y26500000D01*
X37499999Y33500000D02*
X37499999Y32650000D01*
X37499999Y32650000D02*
X36899999Y32050000D01*
X36899999Y32050000D02*
X30927262Y32050000D01*
X30927262Y32050000D02*
X30627262Y31750000D01*
X30627262Y31750000D02*
X30607000Y31750000D01*
X30607000Y31750000D02*
X30099000Y31242000D01*
X30099000Y31242000D02*
X30099000Y30777264D01*
X30099000Y30777264D02*
X30099000Y30353000D01*
X37500001Y11500000D02*
X37500000Y12750001D01*
X37500000Y12750001D02*
X37500000Y17000000D01*
X37499999Y48500000D02*
X37500000Y47249999D01*
X37500000Y47249999D02*
X37500000Y43000000D01*
X37499999Y33500000D02*
X37499999Y26500002D01*
X37499999Y26500002D02*
X37500001Y26500000D01*
X30738413Y30981176D02*
X31172237Y31415000D01*
X31172237Y31415000D02*
X36152736Y31415000D01*
X36152736Y31415000D02*
X36577000Y31415000D01*
X52900001Y33078991D02*
X52750991Y33228001D01*
X52750991Y33228001D02*
X52450992Y33528000D01*
X52500001Y27350000D02*
X52900001Y27750000D01*
X52900001Y27750000D02*
X52900001Y33078991D01*
X52500001Y26500000D02*
X52500001Y27350000D01*
X52500001Y11500000D02*
X52500000Y12750001D01*
X52500000Y12750001D02*
X52500000Y17000000D01*
X52499999Y48500000D02*
X52500000Y47249999D01*
X52500000Y47249999D02*
X52500000Y43000000D01*
X19701621Y42037000D02*
X20125000Y41613621D01*
X10298380Y42037000D02*
X19701621Y42037000D01*
X9875001Y41613621D02*
X10298380Y42037000D01*
X24875001Y41613621D02*
X25298380Y42037000D01*
X25298380Y42037000D02*
X34701621Y42037000D01*
X34944483Y41794138D02*
X35125000Y41613621D01*
X34701621Y42037000D02*
X34944483Y41794138D01*
X39875001Y41613621D02*
X40298380Y42037000D01*
X40298380Y42037000D02*
X49701621Y42037000D01*
X49701621Y42037000D02*
X50125000Y41613621D01*
X18079999Y34498005D02*
X17698999Y34879005D01*
X17698999Y34879005D02*
X17399000Y35179004D01*
X18079999Y26920001D02*
X18079999Y34498005D01*
X19600862Y25399138D02*
X18079999Y26920001D01*
X9875000Y18386379D02*
X10227379Y18034000D01*
X10227379Y18034000D02*
X19772620Y18034000D01*
X19772620Y18034000D02*
X20124999Y18386379D01*
X24875000Y18386379D02*
X25227379Y18034000D01*
X34772620Y18034000D02*
X35124999Y18386379D01*
X25227379Y18034000D02*
X34772620Y18034000D01*
X39875000Y18386379D02*
X40227379Y18034000D01*
X40227379Y18034000D02*
X49772620Y18034000D01*
X49772620Y18034000D02*
X50124999Y18386379D01*
X27060990Y26025010D02*
X27060990Y29928736D01*
X27725010Y25360990D02*
X27060990Y26025010D01*
X27725010Y19724010D02*
X27725010Y25360990D01*
X26670000Y18669000D02*
X27725010Y19724010D01*
X27060990Y29928736D02*
X27060990Y30353000D01*
X9875000Y3386379D02*
X10213379Y3048000D01*
X10213379Y3048000D02*
X19786620Y3048000D01*
X19786620Y3048000D02*
X20124999Y3386379D01*
X24875000Y3386379D02*
X25213379Y3048000D01*
X25213379Y3048000D02*
X34786620Y3048000D01*
X34786620Y3048000D02*
X35124999Y3386379D01*
X39875000Y3386379D02*
X40213379Y3048000D01*
X40213379Y3048000D02*
X49786620Y3048000D01*
X49786620Y3048000D02*
X50124999Y3386379D01*
D20*
G36*
X59290000Y46517412D02*
X59125880Y46681819D01*
X58396573Y46984654D01*
X57606891Y46985343D01*
X56877057Y46683782D01*
X56318181Y46125880D01*
X56015346Y45396573D01*
X56014657Y44606891D01*
X56316218Y43877057D01*
X56874120Y43318181D01*
X57603427Y43015346D01*
X58393109Y43014657D01*
X59122943Y43316218D01*
X59290000Y43482984D01*
X59290000Y26504871D01*
X59213117Y26690943D01*
X58950327Y26954192D01*
X58606799Y27096838D01*
X58234833Y27097162D01*
X57891057Y26955117D01*
X57627808Y26692327D01*
X57485162Y26348799D01*
X57484838Y25976833D01*
X57626883Y25633057D01*
X57660000Y25599882D01*
X57660000Y24632619D01*
X56674007Y26340408D01*
X56586283Y26440437D01*
X56570691Y26472055D01*
X56518133Y26518147D01*
X56472054Y26570690D01*
X56440444Y26586278D01*
X56340409Y26674007D01*
X54194593Y27912895D01*
X53904556Y28011349D01*
X53660001Y27995320D01*
X53660001Y32004680D01*
X53904555Y31988651D01*
X54194592Y32087105D01*
X56340408Y33325993D01*
X56440440Y33413718D01*
X56472054Y33429309D01*
X56518141Y33481860D01*
X56570690Y33527945D01*
X56586280Y33559558D01*
X56674007Y33659591D01*
X57912895Y35805407D01*
X57955663Y35931398D01*
X57975245Y35960705D01*
X57988881Y36029256D01*
X58011348Y36095443D01*
X58009043Y36130616D01*
X58035000Y36261111D01*
X58035000Y38738887D01*
X58009043Y38869382D01*
X58011348Y38904556D01*
X57988880Y38970744D01*
X57975245Y39039293D01*
X57955663Y39068599D01*
X57912895Y39194592D01*
X56674007Y41340408D01*
X56586283Y41440437D01*
X56570691Y41472055D01*
X56518133Y41518147D01*
X56472054Y41570690D01*
X56440444Y41586278D01*
X56340409Y41674007D01*
X54194593Y42912895D01*
X54068601Y42955663D01*
X54039295Y42975245D01*
X53970748Y42988880D01*
X53904556Y43011349D01*
X53869380Y43009043D01*
X53738889Y43035000D01*
X53435031Y43035000D01*
X53435162Y43185167D01*
X53293117Y43528943D01*
X53260000Y43562118D01*
X53260000Y47217376D01*
X53324215Y47144153D01*
X53598919Y47008683D01*
X53904555Y46988651D01*
X54194592Y47087105D01*
X56340408Y48325993D01*
X56440440Y48413718D01*
X56472054Y48429309D01*
X56518141Y48481860D01*
X56570690Y48527945D01*
X56586280Y48559558D01*
X56674007Y48659591D01*
X57912895Y50805407D01*
X57955663Y50931398D01*
X57975245Y50960705D01*
X57988881Y51029256D01*
X58011348Y51095443D01*
X58009043Y51130616D01*
X58035000Y51261111D01*
X58035000Y53738887D01*
X58009043Y53869382D01*
X58011348Y53904556D01*
X57988880Y53970744D01*
X57975245Y54039293D01*
X57955663Y54068599D01*
X57912895Y54194592D01*
X56674007Y56340408D01*
X56586283Y56440437D01*
X56570691Y56472055D01*
X56518133Y56518147D01*
X56472054Y56570690D01*
X56440444Y56586278D01*
X56340409Y56674007D01*
X54194593Y57912895D01*
X54068601Y57955663D01*
X54039295Y57975245D01*
X53970748Y57988880D01*
X53904556Y58011349D01*
X53869380Y58009043D01*
X53738889Y58035000D01*
X51261113Y58035000D01*
X51130618Y58009043D01*
X51095444Y58011348D01*
X51029256Y57988880D01*
X50960707Y57975245D01*
X50931401Y57955663D01*
X50805408Y57912895D01*
X50226067Y57578412D01*
X50006460Y57725148D01*
X49715621Y57783000D01*
X40284380Y57783000D01*
X39993540Y57725148D01*
X39773934Y57578412D01*
X39194593Y57912895D01*
X39068601Y57955663D01*
X39039295Y57975245D01*
X38970748Y57988880D01*
X38904556Y58011349D01*
X38869380Y58009043D01*
X38738889Y58035000D01*
X36261113Y58035000D01*
X36130618Y58009043D01*
X36095444Y58011348D01*
X36029256Y57988880D01*
X35960707Y57975245D01*
X35931401Y57955663D01*
X35805408Y57912895D01*
X35231737Y57581686D01*
X35009020Y57804403D01*
X34762458Y57969150D01*
X34471619Y58027002D01*
X25528382Y58027002D01*
X25237542Y57969150D01*
X24990981Y57804403D01*
X24768264Y57581686D01*
X24194593Y57912895D01*
X24068601Y57955663D01*
X24039295Y57975245D01*
X23970748Y57988880D01*
X23904556Y58011349D01*
X23869380Y58009043D01*
X23738889Y58035000D01*
X21261113Y58035000D01*
X21130618Y58009043D01*
X21095444Y58011348D01*
X21029256Y57988880D01*
X20960707Y57975245D01*
X20931401Y57955663D01*
X20805408Y57912895D01*
X20231737Y57581686D01*
X19168011Y58645412D01*
X18921449Y58810159D01*
X18630610Y58868011D01*
X11369391Y58868011D01*
X11078552Y58810159D01*
X10831990Y58645412D01*
X9768264Y57581686D01*
X9194593Y57912895D01*
X9068601Y57955663D01*
X9039295Y57975245D01*
X8970748Y57988880D01*
X8904556Y58011349D01*
X8869380Y58009043D01*
X8738889Y58035000D01*
X6261113Y58035000D01*
X6130618Y58009043D01*
X6095444Y58011348D01*
X6029256Y57988880D01*
X5960707Y57975245D01*
X5931401Y57955663D01*
X5805408Y57912895D01*
X3659592Y56674007D01*
X3559563Y56586283D01*
X3527945Y56570691D01*
X3481853Y56518133D01*
X3429310Y56472054D01*
X3413722Y56440444D01*
X3325993Y56340409D01*
X2087105Y54194593D01*
X2044337Y54068601D01*
X2024755Y54039295D01*
X2011120Y53970748D01*
X1988651Y53904556D01*
X1990957Y53869380D01*
X1965000Y53738889D01*
X1965000Y51261113D01*
X1990957Y51130622D01*
X1988651Y51095445D01*
X2011120Y51029252D01*
X2024755Y50960707D01*
X2044336Y50931402D01*
X2087105Y50805408D01*
X3325993Y48659592D01*
X3413718Y48559560D01*
X3429309Y48527946D01*
X3481860Y48481859D01*
X3527945Y48429310D01*
X3559558Y48413720D01*
X3659591Y48325993D01*
X5805407Y47087105D01*
X6095443Y46988652D01*
X6401080Y47008683D01*
X6675784Y47144153D01*
X6740000Y47217377D01*
X6740000Y43562463D01*
X6707808Y43530327D01*
X6565162Y43186799D01*
X6565030Y43035000D01*
X6261113Y43035000D01*
X6130618Y43009043D01*
X6095444Y43011348D01*
X6029256Y42988880D01*
X5960707Y42975245D01*
X5931401Y42955663D01*
X5805408Y42912895D01*
X3659592Y41674007D01*
X3559563Y41586283D01*
X3527945Y41570691D01*
X3481853Y41518133D01*
X3429310Y41472054D01*
X3413722Y41440444D01*
X3325993Y41340409D01*
X2087105Y39194593D01*
X2044337Y39068601D01*
X2024755Y39039295D01*
X2011120Y38970748D01*
X1988651Y38904556D01*
X1990957Y38869380D01*
X1965000Y38738889D01*
X1965000Y36261113D01*
X1990957Y36130622D01*
X1988651Y36095445D01*
X2011120Y36029252D01*
X2024755Y35960707D01*
X2044336Y35931402D01*
X2087105Y35805408D01*
X2695711Y34751273D01*
X2472799Y34843834D01*
X2100833Y34844158D01*
X1757057Y34702113D01*
X1493808Y34439323D01*
X1351162Y34095795D01*
X1350838Y33723829D01*
X1492883Y33380053D01*
X1526000Y33346878D01*
X1526000Y32150729D01*
X1583852Y31859890D01*
X1748599Y31613328D01*
X5579475Y27782452D01*
X3659592Y26674007D01*
X3559563Y26586283D01*
X3527945Y26570691D01*
X3481853Y26518133D01*
X3429310Y26472054D01*
X3413722Y26440444D01*
X3325993Y26340409D01*
X2087105Y24194593D01*
X2044337Y24068601D01*
X2024755Y24039295D01*
X2011120Y23970748D01*
X1988651Y23904556D01*
X1990957Y23869380D01*
X1965000Y23738889D01*
X1965000Y21261113D01*
X1990957Y21130622D01*
X1988651Y21095445D01*
X2011120Y21029252D01*
X2024755Y20960707D01*
X2044336Y20931402D01*
X2087105Y20805408D01*
X3325993Y18659592D01*
X3413718Y18559560D01*
X3429309Y18527946D01*
X3481860Y18481859D01*
X3527945Y18429310D01*
X3559558Y18413720D01*
X3659591Y18325993D01*
X5805407Y17087105D01*
X5931398Y17044337D01*
X5960705Y17024755D01*
X6029256Y17011119D01*
X6095443Y16988652D01*
X6130616Y16990957D01*
X6261111Y16965000D01*
X6564969Y16965000D01*
X6564838Y16814833D01*
X6706883Y16471057D01*
X6740000Y16437882D01*
X6740000Y12782624D01*
X6675785Y12855847D01*
X6401081Y12991317D01*
X6095444Y13011348D01*
X5805408Y12912895D01*
X3659592Y11674007D01*
X3559563Y11586283D01*
X3527945Y11570691D01*
X3481853Y11518133D01*
X3429310Y11472054D01*
X3413722Y11440444D01*
X3325993Y11340409D01*
X2087105Y9194593D01*
X2044337Y9068601D01*
X2024755Y9039295D01*
X2011120Y8970748D01*
X1988651Y8904556D01*
X1990957Y8869380D01*
X1965000Y8738889D01*
X1965000Y6261113D01*
X1990957Y6130622D01*
X1988651Y6095445D01*
X2011120Y6029252D01*
X2024755Y5960707D01*
X2044336Y5931402D01*
X2087105Y5805408D01*
X3325993Y3659592D01*
X3413718Y3559560D01*
X3429309Y3527946D01*
X3481860Y3481859D01*
X3527945Y3429310D01*
X3559558Y3413720D01*
X3659591Y3325993D01*
X5805407Y2087105D01*
X5931398Y2044337D01*
X5960705Y2024755D01*
X6029256Y2011119D01*
X6095443Y1988652D01*
X6130616Y1990957D01*
X6261111Y1965000D01*
X8738887Y1965000D01*
X8869378Y1990957D01*
X8904555Y1988651D01*
X8970748Y2011120D01*
X9039293Y2024755D01*
X9068598Y2044336D01*
X9194592Y2087105D01*
X9792848Y2432509D01*
X9922539Y2345852D01*
X10213379Y2288000D01*
X19786620Y2288000D01*
X20077459Y2345852D01*
X20207150Y2432509D01*
X20805407Y2087105D01*
X20931398Y2044337D01*
X20960705Y2024755D01*
X21029256Y2011119D01*
X21095443Y1988652D01*
X21130616Y1990957D01*
X21261111Y1965000D01*
X23738887Y1965000D01*
X23869378Y1990957D01*
X23904555Y1988651D01*
X23970748Y2011120D01*
X24039293Y2024755D01*
X24068598Y2044336D01*
X24194592Y2087105D01*
X24792848Y2432509D01*
X24922539Y2345852D01*
X25213379Y2288000D01*
X34786620Y2288000D01*
X35077459Y2345852D01*
X35207150Y2432509D01*
X35805407Y2087105D01*
X35931398Y2044337D01*
X35960705Y2024755D01*
X36029256Y2011119D01*
X36095443Y1988652D01*
X36130616Y1990957D01*
X36261111Y1965000D01*
X38738887Y1965000D01*
X38869378Y1990957D01*
X38904555Y1988651D01*
X38970748Y2011120D01*
X39039293Y2024755D01*
X39068598Y2044336D01*
X39194592Y2087105D01*
X39792848Y2432509D01*
X39922539Y2345852D01*
X40213379Y2288000D01*
X49786620Y2288000D01*
X50077459Y2345852D01*
X50207150Y2432509D01*
X50805407Y2087105D01*
X50931398Y2044337D01*
X50960705Y2024755D01*
X51029256Y2011119D01*
X51095443Y1988652D01*
X51130616Y1990957D01*
X51261111Y1965000D01*
X53738887Y1965000D01*
X53869378Y1990957D01*
X53904555Y1988651D01*
X53970748Y2011120D01*
X54039293Y2024755D01*
X54068598Y2044336D01*
X54194592Y2087105D01*
X56340408Y3325993D01*
X56440440Y3413718D01*
X56472054Y3429309D01*
X56518141Y3481860D01*
X56570690Y3527945D01*
X56586280Y3559558D01*
X56674007Y3659591D01*
X57912895Y5805407D01*
X57955663Y5931398D01*
X57975245Y5960705D01*
X57988881Y6029256D01*
X58011348Y6095443D01*
X58009043Y6130616D01*
X58035000Y6261111D01*
X58035000Y8738887D01*
X58009043Y8869382D01*
X58011348Y8904556D01*
X57988880Y8970744D01*
X57975245Y9039293D01*
X57955663Y9068599D01*
X57912895Y9194592D01*
X56674007Y11340408D01*
X56586283Y11440437D01*
X56570691Y11472055D01*
X56518133Y11518147D01*
X56472054Y11570690D01*
X56440444Y11586278D01*
X56340409Y11674007D01*
X54194593Y12912895D01*
X53904556Y13011349D01*
X53598920Y12991317D01*
X53324216Y12855847D01*
X53260000Y12782623D01*
X53260000Y16437537D01*
X53292192Y16469673D01*
X53434838Y16813201D01*
X53434970Y16965000D01*
X53738887Y16965000D01*
X53869378Y16990957D01*
X53904555Y16988651D01*
X53970748Y17011120D01*
X54039293Y17024755D01*
X54068598Y17044336D01*
X54194592Y17087105D01*
X56340408Y18325993D01*
X56440440Y18413718D01*
X56472054Y18429309D01*
X56518141Y18481860D01*
X56570690Y18527945D01*
X56586280Y18559558D01*
X56674007Y18659591D01*
X57912895Y20805407D01*
X57955663Y20931398D01*
X57975245Y20960705D01*
X57988881Y21029256D01*
X58011348Y21095443D01*
X58009043Y21130616D01*
X58035000Y21261111D01*
X58035000Y21544003D01*
X58224167Y21543838D01*
X58567943Y21685883D01*
X58831192Y21948673D01*
X58973838Y22292201D01*
X58973886Y22347271D01*
X59122148Y22569161D01*
X59180000Y22860000D01*
X59180000Y25599537D01*
X59212192Y25631673D01*
X59290000Y25819055D01*
X59290000Y16517412D01*
X59125880Y16681819D01*
X58396573Y16984654D01*
X57606891Y16985343D01*
X56877057Y16683782D01*
X56318181Y16125880D01*
X56015346Y15396573D01*
X56014657Y14606891D01*
X56316218Y13877057D01*
X56874120Y13318181D01*
X57603427Y13015346D01*
X58393109Y13014657D01*
X59122943Y13316218D01*
X59290000Y13482984D01*
X59290000Y710000D01*
X710000Y710000D01*
X710000Y13482588D01*
X874120Y13318181D01*
X1603427Y13015346D01*
X2393109Y13014657D01*
X3122943Y13316218D01*
X3681819Y13874120D01*
X3984654Y14603427D01*
X3985343Y15393109D01*
X3683782Y16122943D01*
X3125880Y16681819D01*
X2396573Y16984654D01*
X1606891Y16985343D01*
X877057Y16683782D01*
X710000Y16517016D01*
X710000Y43482588D01*
X874120Y43318181D01*
X1603427Y43015346D01*
X2393109Y43014657D01*
X3122943Y43316218D01*
X3681819Y43874120D01*
X3984654Y44603427D01*
X3985343Y45393109D01*
X3683782Y46122943D01*
X3125880Y46681819D01*
X2396573Y46984654D01*
X1606891Y46985343D01*
X877057Y46683782D01*
X710000Y46517016D01*
X710000Y59290000D01*
X59290000Y59290000D01*
X59290000Y46517412D01*
X59290000Y46517412D01*
G37*
X59290000Y46517412D02*
X59125880Y46681819D01*
X58396573Y46984654D01*
X57606891Y46985343D01*
X56877057Y46683782D01*
X56318181Y46125880D01*
X56015346Y45396573D01*
X56014657Y44606891D01*
X56316218Y43877057D01*
X56874120Y43318181D01*
X57603427Y43015346D01*
X58393109Y43014657D01*
X59122943Y43316218D01*
X59290000Y43482984D01*
X59290000Y26504871D01*
X59213117Y26690943D01*
X58950327Y26954192D01*
X58606799Y27096838D01*
X58234833Y27097162D01*
X57891057Y26955117D01*
X57627808Y26692327D01*
X57485162Y26348799D01*
X57484838Y25976833D01*
X57626883Y25633057D01*
X57660000Y25599882D01*
X57660000Y24632619D01*
X56674007Y26340408D01*
X56586283Y26440437D01*
X56570691Y26472055D01*
X56518133Y26518147D01*
X56472054Y26570690D01*
X56440444Y26586278D01*
X56340409Y26674007D01*
X54194593Y27912895D01*
X53904556Y28011349D01*
X53660001Y27995320D01*
X53660001Y32004680D01*
X53904555Y31988651D01*
X54194592Y32087105D01*
X56340408Y33325993D01*
X56440440Y33413718D01*
X56472054Y33429309D01*
X56518141Y33481860D01*
X56570690Y33527945D01*
X56586280Y33559558D01*
X56674007Y33659591D01*
X57912895Y35805407D01*
X57955663Y35931398D01*
X57975245Y35960705D01*
X57988881Y36029256D01*
X58011348Y36095443D01*
X58009043Y36130616D01*
X58035000Y36261111D01*
X58035000Y38738887D01*
X58009043Y38869382D01*
X58011348Y38904556D01*
X57988880Y38970744D01*
X57975245Y39039293D01*
X57955663Y39068599D01*
X57912895Y39194592D01*
X56674007Y41340408D01*
X56586283Y41440437D01*
X56570691Y41472055D01*
X56518133Y41518147D01*
X56472054Y41570690D01*
X56440444Y41586278D01*
X56340409Y41674007D01*
X54194593Y42912895D01*
X54068601Y42955663D01*
X54039295Y42975245D01*
X53970748Y42988880D01*
X53904556Y43011349D01*
X53869380Y43009043D01*
X53738889Y43035000D01*
X53435031Y43035000D01*
X53435162Y43185167D01*
X53293117Y43528943D01*
X53260000Y43562118D01*
X53260000Y47217376D01*
X53324215Y47144153D01*
X53598919Y47008683D01*
X53904555Y46988651D01*
X54194592Y47087105D01*
X56340408Y48325993D01*
X56440440Y48413718D01*
X56472054Y48429309D01*
X56518141Y48481860D01*
X56570690Y48527945D01*
X56586280Y48559558D01*
X56674007Y48659591D01*
X57912895Y50805407D01*
X57955663Y50931398D01*
X57975245Y50960705D01*
X57988881Y51029256D01*
X58011348Y51095443D01*
X58009043Y51130616D01*
X58035000Y51261111D01*
X58035000Y53738887D01*
X58009043Y53869382D01*
X58011348Y53904556D01*
X57988880Y53970744D01*
X57975245Y54039293D01*
X57955663Y54068599D01*
X57912895Y54194592D01*
X56674007Y56340408D01*
X56586283Y56440437D01*
X56570691Y56472055D01*
X56518133Y56518147D01*
X56472054Y56570690D01*
X56440444Y56586278D01*
X56340409Y56674007D01*
X54194593Y57912895D01*
X54068601Y57955663D01*
X54039295Y57975245D01*
X53970748Y57988880D01*
X53904556Y58011349D01*
X53869380Y58009043D01*
X53738889Y58035000D01*
X51261113Y58035000D01*
X51130618Y58009043D01*
X51095444Y58011348D01*
X51029256Y57988880D01*
X50960707Y57975245D01*
X50931401Y57955663D01*
X50805408Y57912895D01*
X50226067Y57578412D01*
X50006460Y57725148D01*
X49715621Y57783000D01*
X40284380Y57783000D01*
X39993540Y57725148D01*
X39773934Y57578412D01*
X39194593Y57912895D01*
X39068601Y57955663D01*
X39039295Y57975245D01*
X38970748Y57988880D01*
X38904556Y58011349D01*
X38869380Y58009043D01*
X38738889Y58035000D01*
X36261113Y58035000D01*
X36130618Y58009043D01*
X36095444Y58011348D01*
X36029256Y57988880D01*
X35960707Y57975245D01*
X35931401Y57955663D01*
X35805408Y57912895D01*
X35231737Y57581686D01*
X35009020Y57804403D01*
X34762458Y57969150D01*
X34471619Y58027002D01*
X25528382Y58027002D01*
X25237542Y57969150D01*
X24990981Y57804403D01*
X24768264Y57581686D01*
X24194593Y57912895D01*
X24068601Y57955663D01*
X24039295Y57975245D01*
X23970748Y57988880D01*
X23904556Y58011349D01*
X23869380Y58009043D01*
X23738889Y58035000D01*
X21261113Y58035000D01*
X21130618Y58009043D01*
X21095444Y58011348D01*
X21029256Y57988880D01*
X20960707Y57975245D01*
X20931401Y57955663D01*
X20805408Y57912895D01*
X20231737Y57581686D01*
X19168011Y58645412D01*
X18921449Y58810159D01*
X18630610Y58868011D01*
X11369391Y58868011D01*
X11078552Y58810159D01*
X10831990Y58645412D01*
X9768264Y57581686D01*
X9194593Y57912895D01*
X9068601Y57955663D01*
X9039295Y57975245D01*
X8970748Y57988880D01*
X8904556Y58011349D01*
X8869380Y58009043D01*
X8738889Y58035000D01*
X6261113Y58035000D01*
X6130618Y58009043D01*
X6095444Y58011348D01*
X6029256Y57988880D01*
X5960707Y57975245D01*
X5931401Y57955663D01*
X5805408Y57912895D01*
X3659592Y56674007D01*
X3559563Y56586283D01*
X3527945Y56570691D01*
X3481853Y56518133D01*
X3429310Y56472054D01*
X3413722Y56440444D01*
X3325993Y56340409D01*
X2087105Y54194593D01*
X2044337Y54068601D01*
X2024755Y54039295D01*
X2011120Y53970748D01*
X1988651Y53904556D01*
X1990957Y53869380D01*
X1965000Y53738889D01*
X1965000Y51261113D01*
X1990957Y51130622D01*
X1988651Y51095445D01*
X2011120Y51029252D01*
X2024755Y50960707D01*
X2044336Y50931402D01*
X2087105Y50805408D01*
X3325993Y48659592D01*
X3413718Y48559560D01*
X3429309Y48527946D01*
X3481860Y48481859D01*
X3527945Y48429310D01*
X3559558Y48413720D01*
X3659591Y48325993D01*
X5805407Y47087105D01*
X6095443Y46988652D01*
X6401080Y47008683D01*
X6675784Y47144153D01*
X6740000Y47217377D01*
X6740000Y43562463D01*
X6707808Y43530327D01*
X6565162Y43186799D01*
X6565030Y43035000D01*
X6261113Y43035000D01*
X6130618Y43009043D01*
X6095444Y43011348D01*
X6029256Y42988880D01*
X5960707Y42975245D01*
X5931401Y42955663D01*
X5805408Y42912895D01*
X3659592Y41674007D01*
X3559563Y41586283D01*
X3527945Y41570691D01*
X3481853Y41518133D01*
X3429310Y41472054D01*
X3413722Y41440444D01*
X3325993Y41340409D01*
X2087105Y39194593D01*
X2044337Y39068601D01*
X2024755Y39039295D01*
X2011120Y38970748D01*
X1988651Y38904556D01*
X1990957Y38869380D01*
X1965000Y38738889D01*
X1965000Y36261113D01*
X1990957Y36130622D01*
X1988651Y36095445D01*
X2011120Y36029252D01*
X2024755Y35960707D01*
X2044336Y35931402D01*
X2087105Y35805408D01*
X2695711Y34751273D01*
X2472799Y34843834D01*
X2100833Y34844158D01*
X1757057Y34702113D01*
X1493808Y34439323D01*
X1351162Y34095795D01*
X1350838Y33723829D01*
X1492883Y33380053D01*
X1526000Y33346878D01*
X1526000Y32150729D01*
X1583852Y31859890D01*
X1748599Y31613328D01*
X5579475Y27782452D01*
X3659592Y26674007D01*
X3559563Y26586283D01*
X3527945Y26570691D01*
X3481853Y26518133D01*
X3429310Y26472054D01*
X3413722Y26440444D01*
X3325993Y26340409D01*
X2087105Y24194593D01*
X2044337Y24068601D01*
X2024755Y24039295D01*
X2011120Y23970748D01*
X1988651Y23904556D01*
X1990957Y23869380D01*
X1965000Y23738889D01*
X1965000Y21261113D01*
X1990957Y21130622D01*
X1988651Y21095445D01*
X2011120Y21029252D01*
X2024755Y20960707D01*
X2044336Y20931402D01*
X2087105Y20805408D01*
X3325993Y18659592D01*
X3413718Y18559560D01*
X3429309Y18527946D01*
X3481860Y18481859D01*
X3527945Y18429310D01*
X3559558Y18413720D01*
X3659591Y18325993D01*
X5805407Y17087105D01*
X5931398Y17044337D01*
X5960705Y17024755D01*
X6029256Y17011119D01*
X6095443Y16988652D01*
X6130616Y16990957D01*
X6261111Y16965000D01*
X6564969Y16965000D01*
X6564838Y16814833D01*
X6706883Y16471057D01*
X6740000Y16437882D01*
X6740000Y12782624D01*
X6675785Y12855847D01*
X6401081Y12991317D01*
X6095444Y13011348D01*
X5805408Y12912895D01*
X3659592Y11674007D01*
X3559563Y11586283D01*
X3527945Y11570691D01*
X3481853Y11518133D01*
X3429310Y11472054D01*
X3413722Y11440444D01*
X3325993Y11340409D01*
X2087105Y9194593D01*
X2044337Y9068601D01*
X2024755Y9039295D01*
X2011120Y8970748D01*
X1988651Y8904556D01*
X1990957Y8869380D01*
X1965000Y8738889D01*
X1965000Y6261113D01*
X1990957Y6130622D01*
X1988651Y6095445D01*
X2011120Y6029252D01*
X2024755Y5960707D01*
X2044336Y5931402D01*
X2087105Y5805408D01*
X3325993Y3659592D01*
X3413718Y3559560D01*
X3429309Y3527946D01*
X3481860Y3481859D01*
X3527945Y3429310D01*
X3559558Y3413720D01*
X3659591Y3325993D01*
X5805407Y2087105D01*
X5931398Y2044337D01*
X5960705Y2024755D01*
X6029256Y2011119D01*
X6095443Y1988652D01*
X6130616Y1990957D01*
X6261111Y1965000D01*
X8738887Y1965000D01*
X8869378Y1990957D01*
X8904555Y1988651D01*
X8970748Y2011120D01*
X9039293Y2024755D01*
X9068598Y2044336D01*
X9194592Y2087105D01*
X9792848Y2432509D01*
X9922539Y2345852D01*
X10213379Y2288000D01*
X19786620Y2288000D01*
X20077459Y2345852D01*
X20207150Y2432509D01*
X20805407Y2087105D01*
X20931398Y2044337D01*
X20960705Y2024755D01*
X21029256Y2011119D01*
X21095443Y1988652D01*
X21130616Y1990957D01*
X21261111Y1965000D01*
X23738887Y1965000D01*
X23869378Y1990957D01*
X23904555Y1988651D01*
X23970748Y2011120D01*
X24039293Y2024755D01*
X24068598Y2044336D01*
X24194592Y2087105D01*
X24792848Y2432509D01*
X24922539Y2345852D01*
X25213379Y2288000D01*
X34786620Y2288000D01*
X35077459Y2345852D01*
X35207150Y2432509D01*
X35805407Y2087105D01*
X35931398Y2044337D01*
X35960705Y2024755D01*
X36029256Y2011119D01*
X36095443Y1988652D01*
X36130616Y1990957D01*
X36261111Y1965000D01*
X38738887Y1965000D01*
X38869378Y1990957D01*
X38904555Y1988651D01*
X38970748Y2011120D01*
X39039293Y2024755D01*
X39068598Y2044336D01*
X39194592Y2087105D01*
X39792848Y2432509D01*
X39922539Y2345852D01*
X40213379Y2288000D01*
X49786620Y2288000D01*
X50077459Y2345852D01*
X50207150Y2432509D01*
X50805407Y2087105D01*
X50931398Y2044337D01*
X50960705Y2024755D01*
X51029256Y2011119D01*
X51095443Y1988652D01*
X51130616Y1990957D01*
X51261111Y1965000D01*
X53738887Y1965000D01*
X53869378Y1990957D01*
X53904555Y1988651D01*
X53970748Y2011120D01*
X54039293Y2024755D01*
X54068598Y2044336D01*
X54194592Y2087105D01*
X56340408Y3325993D01*
X56440440Y3413718D01*
X56472054Y3429309D01*
X56518141Y3481860D01*
X56570690Y3527945D01*
X56586280Y3559558D01*
X56674007Y3659591D01*
X57912895Y5805407D01*
X57955663Y5931398D01*
X57975245Y5960705D01*
X57988881Y6029256D01*
X58011348Y6095443D01*
X58009043Y6130616D01*
X58035000Y6261111D01*
X58035000Y8738887D01*
X58009043Y8869382D01*
X58011348Y8904556D01*
X57988880Y8970744D01*
X57975245Y9039293D01*
X57955663Y9068599D01*
X57912895Y9194592D01*
X56674007Y11340408D01*
X56586283Y11440437D01*
X56570691Y11472055D01*
X56518133Y11518147D01*
X56472054Y11570690D01*
X56440444Y11586278D01*
X56340409Y11674007D01*
X54194593Y12912895D01*
X53904556Y13011349D01*
X53598920Y12991317D01*
X53324216Y12855847D01*
X53260000Y12782623D01*
X53260000Y16437537D01*
X53292192Y16469673D01*
X53434838Y16813201D01*
X53434970Y16965000D01*
X53738887Y16965000D01*
X53869378Y16990957D01*
X53904555Y16988651D01*
X53970748Y17011120D01*
X54039293Y17024755D01*
X54068598Y17044336D01*
X54194592Y17087105D01*
X56340408Y18325993D01*
X56440440Y18413718D01*
X56472054Y18429309D01*
X56518141Y18481860D01*
X56570690Y18527945D01*
X56586280Y18559558D01*
X56674007Y18659591D01*
X57912895Y20805407D01*
X57955663Y20931398D01*
X57975245Y20960705D01*
X57988881Y21029256D01*
X58011348Y21095443D01*
X58009043Y21130616D01*
X58035000Y21261111D01*
X58035000Y21544003D01*
X58224167Y21543838D01*
X58567943Y21685883D01*
X58831192Y21948673D01*
X58973838Y22292201D01*
X58973886Y22347271D01*
X59122148Y22569161D01*
X59180000Y22860000D01*
X59180000Y25599537D01*
X59212192Y25631673D01*
X59290000Y25819055D01*
X59290000Y16517412D01*
X59125880Y16681819D01*
X58396573Y16984654D01*
X57606891Y16985343D01*
X56877057Y16683782D01*
X56318181Y16125880D01*
X56015346Y15396573D01*
X56014657Y14606891D01*
X56316218Y13877057D01*
X56874120Y13318181D01*
X57603427Y13015346D01*
X58393109Y13014657D01*
X59122943Y13316218D01*
X59290000Y13482984D01*
X59290000Y710000D01*
X710000Y710000D01*
X710000Y13482588D01*
X874120Y13318181D01*
X1603427Y13015346D01*
X2393109Y13014657D01*
X3122943Y13316218D01*
X3681819Y13874120D01*
X3984654Y14603427D01*
X3985343Y15393109D01*
X3683782Y16122943D01*
X3125880Y16681819D01*
X2396573Y16984654D01*
X1606891Y16985343D01*
X877057Y16683782D01*
X710000Y16517016D01*
X710000Y43482588D01*
X874120Y43318181D01*
X1603427Y43015346D01*
X2393109Y43014657D01*
X3122943Y43316218D01*
X3681819Y43874120D01*
X3984654Y44603427D01*
X3985343Y45393109D01*
X3683782Y46122943D01*
X3125880Y46681819D01*
X2396573Y46984654D01*
X1606891Y46985343D01*
X877057Y46683782D01*
X710000Y46517016D01*
X710000Y59290000D01*
X59290000Y59290000D01*
X59290000Y46517412D01*
G36*
X50805407Y17087105D02*
X50931398Y17044337D01*
X50960705Y17024755D01*
X51029256Y17011119D01*
X51095443Y16988652D01*
X51130616Y16990957D01*
X51261111Y16965000D01*
X51564969Y16965000D01*
X51564838Y16814833D01*
X51706883Y16471057D01*
X51740000Y16437882D01*
X51740000Y12782624D01*
X51675785Y12855847D01*
X51401081Y12991317D01*
X51095444Y13011348D01*
X50805408Y12912895D01*
X48659592Y11674007D01*
X48559563Y11586283D01*
X48527945Y11570691D01*
X48481853Y11518133D01*
X48429310Y11472054D01*
X48413722Y11440444D01*
X48325993Y11340409D01*
X47087105Y9194593D01*
X47044337Y9068601D01*
X47024755Y9039295D01*
X47011120Y8970748D01*
X46988651Y8904556D01*
X46990957Y8869380D01*
X46965000Y8738889D01*
X46965000Y6261113D01*
X46990957Y6130622D01*
X46988651Y6095445D01*
X47011120Y6029252D01*
X47024755Y5960707D01*
X47044336Y5931402D01*
X47087105Y5805408D01*
X48240310Y3808000D01*
X41759691Y3808000D01*
X42912895Y5805407D01*
X42955663Y5931398D01*
X42975245Y5960705D01*
X42988881Y6029256D01*
X43011348Y6095443D01*
X43009043Y6130616D01*
X43035000Y6261111D01*
X43035000Y8738887D01*
X43009043Y8869382D01*
X43011348Y8904556D01*
X42988880Y8970744D01*
X42975245Y9039293D01*
X42955663Y9068599D01*
X42912895Y9194592D01*
X41674007Y11340408D01*
X41586283Y11440437D01*
X41570691Y11472055D01*
X41518133Y11518147D01*
X41472054Y11570690D01*
X41440444Y11586278D01*
X41340409Y11674007D01*
X39194593Y12912895D01*
X38904556Y13011349D01*
X38598920Y12991317D01*
X38324216Y12855847D01*
X38260000Y12782623D01*
X38260000Y14656401D01*
X43264699Y14656401D01*
X43528281Y14018485D01*
X44015918Y13529996D01*
X44653373Y13265301D01*
X45343599Y13264699D01*
X45981515Y13528281D01*
X46470004Y14015918D01*
X46734699Y14653373D01*
X46735301Y15343599D01*
X46471719Y15981515D01*
X45984082Y16470004D01*
X45346627Y16734699D01*
X44656401Y16735301D01*
X44018485Y16471719D01*
X43529996Y15984082D01*
X43265301Y15346627D01*
X43264699Y14656401D01*
X38260000Y14656401D01*
X38260000Y16437537D01*
X38292192Y16469673D01*
X38434838Y16813201D01*
X38434970Y16965000D01*
X38738887Y16965000D01*
X38869378Y16990957D01*
X38904555Y16988651D01*
X38970748Y17011120D01*
X39039293Y17024755D01*
X39068598Y17044336D01*
X39194592Y17087105D01*
X39789119Y17430355D01*
X39936540Y17331852D01*
X40227379Y17274000D01*
X49772620Y17274000D01*
X50063459Y17331852D01*
X50210880Y17430355D01*
X50805407Y17087105D01*
X50805407Y17087105D01*
G37*
X50805407Y17087105D02*
X50931398Y17044337D01*
X50960705Y17024755D01*
X51029256Y17011119D01*
X51095443Y16988652D01*
X51130616Y16990957D01*
X51261111Y16965000D01*
X51564969Y16965000D01*
X51564838Y16814833D01*
X51706883Y16471057D01*
X51740000Y16437882D01*
X51740000Y12782624D01*
X51675785Y12855847D01*
X51401081Y12991317D01*
X51095444Y13011348D01*
X50805408Y12912895D01*
X48659592Y11674007D01*
X48559563Y11586283D01*
X48527945Y11570691D01*
X48481853Y11518133D01*
X48429310Y11472054D01*
X48413722Y11440444D01*
X48325993Y11340409D01*
X47087105Y9194593D01*
X47044337Y9068601D01*
X47024755Y9039295D01*
X47011120Y8970748D01*
X46988651Y8904556D01*
X46990957Y8869380D01*
X46965000Y8738889D01*
X46965000Y6261113D01*
X46990957Y6130622D01*
X46988651Y6095445D01*
X47011120Y6029252D01*
X47024755Y5960707D01*
X47044336Y5931402D01*
X47087105Y5805408D01*
X48240310Y3808000D01*
X41759691Y3808000D01*
X42912895Y5805407D01*
X42955663Y5931398D01*
X42975245Y5960705D01*
X42988881Y6029256D01*
X43011348Y6095443D01*
X43009043Y6130616D01*
X43035000Y6261111D01*
X43035000Y8738887D01*
X43009043Y8869382D01*
X43011348Y8904556D01*
X42988880Y8970744D01*
X42975245Y9039293D01*
X42955663Y9068599D01*
X42912895Y9194592D01*
X41674007Y11340408D01*
X41586283Y11440437D01*
X41570691Y11472055D01*
X41518133Y11518147D01*
X41472054Y11570690D01*
X41440444Y11586278D01*
X41340409Y11674007D01*
X39194593Y12912895D01*
X38904556Y13011349D01*
X38598920Y12991317D01*
X38324216Y12855847D01*
X38260000Y12782623D01*
X38260000Y14656401D01*
X43264699Y14656401D01*
X43528281Y14018485D01*
X44015918Y13529996D01*
X44653373Y13265301D01*
X45343599Y13264699D01*
X45981515Y13528281D01*
X46470004Y14015918D01*
X46734699Y14653373D01*
X46735301Y15343599D01*
X46471719Y15981515D01*
X45984082Y16470004D01*
X45346627Y16734699D01*
X44656401Y16735301D01*
X44018485Y16471719D01*
X43529996Y15984082D01*
X43265301Y15346627D01*
X43264699Y14656401D01*
X38260000Y14656401D01*
X38260000Y16437537D01*
X38292192Y16469673D01*
X38434838Y16813201D01*
X38434970Y16965000D01*
X38738887Y16965000D01*
X38869378Y16990957D01*
X38904555Y16988651D01*
X38970748Y17011120D01*
X39039293Y17024755D01*
X39068598Y17044336D01*
X39194592Y17087105D01*
X39789119Y17430355D01*
X39936540Y17331852D01*
X40227379Y17274000D01*
X49772620Y17274000D01*
X50063459Y17331852D01*
X50210880Y17430355D01*
X50805407Y17087105D01*
G36*
X28044673Y11399808D02*
X28388201Y11257162D01*
X28435077Y11257121D01*
X30482000Y9210198D01*
X30482000Y5134463D01*
X30449808Y5102327D01*
X30307162Y4758799D01*
X30306838Y4386833D01*
X30448883Y4043057D01*
X30683530Y3808000D01*
X26759691Y3808000D01*
X27912895Y5805407D01*
X27955663Y5931398D01*
X27975245Y5960705D01*
X27988881Y6029256D01*
X28011348Y6095443D01*
X28009043Y6130616D01*
X28035000Y6261111D01*
X28035000Y8738887D01*
X28009043Y8869382D01*
X28011348Y8904556D01*
X27988880Y8970744D01*
X27975245Y9039293D01*
X27955663Y9068599D01*
X27912895Y9194592D01*
X26674007Y11340408D01*
X26593683Y11432000D01*
X28012537Y11432000D01*
X28044673Y11399808D01*
X28044673Y11399808D01*
G37*
X28044673Y11399808D02*
X28388201Y11257162D01*
X28435077Y11257121D01*
X30482000Y9210198D01*
X30482000Y5134463D01*
X30449808Y5102327D01*
X30307162Y4758799D01*
X30306838Y4386833D01*
X30448883Y4043057D01*
X30683530Y3808000D01*
X26759691Y3808000D01*
X27912895Y5805407D01*
X27955663Y5931398D01*
X27975245Y5960705D01*
X27988881Y6029256D01*
X28011348Y6095443D01*
X28009043Y6130616D01*
X28035000Y6261111D01*
X28035000Y8738887D01*
X28009043Y8869382D01*
X28011348Y8904556D01*
X27988880Y8970744D01*
X27975245Y9039293D01*
X27955663Y9068599D01*
X27912895Y9194592D01*
X26674007Y11340408D01*
X26593683Y11432000D01*
X28012537Y11432000D01*
X28044673Y11399808D01*
G36*
X20805407Y17087105D02*
X20931398Y17044337D01*
X20960705Y17024755D01*
X21029256Y17011119D01*
X21095443Y16988652D01*
X21130616Y16990957D01*
X21261111Y16965000D01*
X21564969Y16965000D01*
X21564838Y16814833D01*
X21706883Y16471057D01*
X21740000Y16437882D01*
X21740000Y12782624D01*
X21675785Y12855847D01*
X21401081Y12991317D01*
X21095444Y13011348D01*
X20805408Y12912895D01*
X18659592Y11674007D01*
X18559563Y11586283D01*
X18527945Y11570691D01*
X18481853Y11518133D01*
X18429310Y11472054D01*
X18413722Y11440444D01*
X18325993Y11340409D01*
X17087105Y9194593D01*
X17044337Y9068601D01*
X17024755Y9039295D01*
X17011120Y8970748D01*
X16988651Y8904556D01*
X16990957Y8869380D01*
X16965000Y8738889D01*
X16965000Y6261113D01*
X16990957Y6130622D01*
X16988651Y6095445D01*
X17011120Y6029252D01*
X17024755Y5960707D01*
X17044336Y5931402D01*
X17087105Y5805408D01*
X18240310Y3808000D01*
X11759691Y3808000D01*
X12912895Y5805407D01*
X12955663Y5931398D01*
X12975245Y5960705D01*
X12988881Y6029256D01*
X13011348Y6095443D01*
X13009043Y6130616D01*
X13035000Y6261111D01*
X13035000Y8738887D01*
X13009043Y8869382D01*
X13011348Y8904556D01*
X12988880Y8970744D01*
X12975245Y9039293D01*
X12955663Y9068599D01*
X12912895Y9194592D01*
X11674007Y11340408D01*
X11586283Y11440437D01*
X11570691Y11472055D01*
X11518133Y11518147D01*
X11472054Y11570690D01*
X11440444Y11586278D01*
X11340409Y11674007D01*
X9194593Y12912895D01*
X8904556Y13011349D01*
X8598920Y12991317D01*
X8324216Y12855847D01*
X8260000Y12782623D01*
X8260000Y14656401D01*
X13264699Y14656401D01*
X13528281Y14018485D01*
X14015918Y13529996D01*
X14653373Y13265301D01*
X15343599Y13264699D01*
X15981515Y13528281D01*
X16470004Y14015918D01*
X16734699Y14653373D01*
X16735301Y15343599D01*
X16471719Y15981515D01*
X15984082Y16470004D01*
X15346627Y16734699D01*
X14656401Y16735301D01*
X14018485Y16471719D01*
X13529996Y15984082D01*
X13265301Y15346627D01*
X13264699Y14656401D01*
X8260000Y14656401D01*
X8260000Y16437537D01*
X8292192Y16469673D01*
X8434838Y16813201D01*
X8434970Y16965000D01*
X8738887Y16965000D01*
X8869378Y16990957D01*
X8904555Y16988651D01*
X8970748Y17011120D01*
X9039293Y17024755D01*
X9068598Y17044336D01*
X9194592Y17087105D01*
X9789119Y17430355D01*
X9936540Y17331852D01*
X10227379Y17274000D01*
X19772620Y17274000D01*
X20063459Y17331852D01*
X20210880Y17430355D01*
X20805407Y17087105D01*
X20805407Y17087105D01*
G37*
X20805407Y17087105D02*
X20931398Y17044337D01*
X20960705Y17024755D01*
X21029256Y17011119D01*
X21095443Y16988652D01*
X21130616Y16990957D01*
X21261111Y16965000D01*
X21564969Y16965000D01*
X21564838Y16814833D01*
X21706883Y16471057D01*
X21740000Y16437882D01*
X21740000Y12782624D01*
X21675785Y12855847D01*
X21401081Y12991317D01*
X21095444Y13011348D01*
X20805408Y12912895D01*
X18659592Y11674007D01*
X18559563Y11586283D01*
X18527945Y11570691D01*
X18481853Y11518133D01*
X18429310Y11472054D01*
X18413722Y11440444D01*
X18325993Y11340409D01*
X17087105Y9194593D01*
X17044337Y9068601D01*
X17024755Y9039295D01*
X17011120Y8970748D01*
X16988651Y8904556D01*
X16990957Y8869380D01*
X16965000Y8738889D01*
X16965000Y6261113D01*
X16990957Y6130622D01*
X16988651Y6095445D01*
X17011120Y6029252D01*
X17024755Y5960707D01*
X17044336Y5931402D01*
X17087105Y5805408D01*
X18240310Y3808000D01*
X11759691Y3808000D01*
X12912895Y5805407D01*
X12955663Y5931398D01*
X12975245Y5960705D01*
X12988881Y6029256D01*
X13011348Y6095443D01*
X13009043Y6130616D01*
X13035000Y6261111D01*
X13035000Y8738887D01*
X13009043Y8869382D01*
X13011348Y8904556D01*
X12988880Y8970744D01*
X12975245Y9039293D01*
X12955663Y9068599D01*
X12912895Y9194592D01*
X11674007Y11340408D01*
X11586283Y11440437D01*
X11570691Y11472055D01*
X11518133Y11518147D01*
X11472054Y11570690D01*
X11440444Y11586278D01*
X11340409Y11674007D01*
X9194593Y12912895D01*
X8904556Y13011349D01*
X8598920Y12991317D01*
X8324216Y12855847D01*
X8260000Y12782623D01*
X8260000Y14656401D01*
X13264699Y14656401D01*
X13528281Y14018485D01*
X14015918Y13529996D01*
X14653373Y13265301D01*
X15343599Y13264699D01*
X15981515Y13528281D01*
X16470004Y14015918D01*
X16734699Y14653373D01*
X16735301Y15343599D01*
X16471719Y15981515D01*
X15984082Y16470004D01*
X15346627Y16734699D01*
X14656401Y16735301D01*
X14018485Y16471719D01*
X13529996Y15984082D01*
X13265301Y15346627D01*
X13264699Y14656401D01*
X8260000Y14656401D01*
X8260000Y16437537D01*
X8292192Y16469673D01*
X8434838Y16813201D01*
X8434970Y16965000D01*
X8738887Y16965000D01*
X8869378Y16990957D01*
X8904555Y16988651D01*
X8970748Y17011120D01*
X9039293Y17024755D01*
X9068598Y17044336D01*
X9194592Y17087105D01*
X9789119Y17430355D01*
X9936540Y17331852D01*
X10227379Y17274000D01*
X19772620Y17274000D01*
X20063459Y17331852D01*
X20210880Y17430355D01*
X20805407Y17087105D01*
G36*
X23456796Y9485000D02*
X23148691Y9485000D01*
X22915302Y9388327D01*
X22736673Y9209699D01*
X22640000Y8976310D01*
X22640000Y8660750D01*
X22798750Y8502000D01*
X23773000Y8502000D01*
X23773000Y8522000D01*
X24027000Y8522000D01*
X24027000Y8502000D01*
X24047000Y8502000D01*
X24047000Y8248000D01*
X24027000Y8248000D01*
X24027000Y8228000D01*
X23773000Y8228000D01*
X23773000Y8248000D01*
X22798750Y8248000D01*
X22640000Y8089250D01*
X22640000Y7773690D01*
X22736673Y7540301D01*
X22778634Y7498340D01*
X22678569Y7351890D01*
X22627560Y7100000D01*
X22627560Y6150000D01*
X22671838Y5914683D01*
X22810910Y5698559D01*
X23023110Y5553569D01*
X23275000Y5502560D01*
X23410370Y5502560D01*
X22500000Y5258628D01*
X21589630Y5502560D01*
X21725000Y5502560D01*
X21960317Y5546838D01*
X22176441Y5685910D01*
X22321431Y5898110D01*
X22372440Y6150000D01*
X22372440Y7100000D01*
X22328162Y7335317D01*
X22221241Y7501477D01*
X22321431Y7648110D01*
X22372440Y7900000D01*
X22372440Y8850000D01*
X22328162Y9085317D01*
X22189090Y9301441D01*
X21976890Y9446431D01*
X21725000Y9497440D01*
X21589630Y9497440D01*
X22500000Y9741372D01*
X23456796Y9485000D01*
X23456796Y9485000D01*
G37*
X23456796Y9485000D02*
X23148691Y9485000D01*
X22915302Y9388327D01*
X22736673Y9209699D01*
X22640000Y8976310D01*
X22640000Y8660750D01*
X22798750Y8502000D01*
X23773000Y8502000D01*
X23773000Y8522000D01*
X24027000Y8522000D01*
X24027000Y8502000D01*
X24047000Y8502000D01*
X24047000Y8248000D01*
X24027000Y8248000D01*
X24027000Y8228000D01*
X23773000Y8228000D01*
X23773000Y8248000D01*
X22798750Y8248000D01*
X22640000Y8089250D01*
X22640000Y7773690D01*
X22736673Y7540301D01*
X22778634Y7498340D01*
X22678569Y7351890D01*
X22627560Y7100000D01*
X22627560Y6150000D01*
X22671838Y5914683D01*
X22810910Y5698559D01*
X23023110Y5553569D01*
X23275000Y5502560D01*
X23410370Y5502560D01*
X22500000Y5258628D01*
X21589630Y5502560D01*
X21725000Y5502560D01*
X21960317Y5546838D01*
X22176441Y5685910D01*
X22321431Y5898110D01*
X22372440Y6150000D01*
X22372440Y7100000D01*
X22328162Y7335317D01*
X22221241Y7501477D01*
X22321431Y7648110D01*
X22372440Y7900000D01*
X22372440Y8850000D01*
X22328162Y9085317D01*
X22189090Y9301441D01*
X21976890Y9446431D01*
X21725000Y9497440D01*
X21589630Y9497440D01*
X22500000Y9741372D01*
X23456796Y9485000D01*
G36*
X38456796Y9485000D02*
X38148691Y9485000D01*
X37915302Y9388327D01*
X37736673Y9209699D01*
X37640000Y8976310D01*
X37640000Y8660750D01*
X37798750Y8502000D01*
X38773000Y8502000D01*
X38773000Y8522000D01*
X39027000Y8522000D01*
X39027000Y8502000D01*
X39047000Y8502000D01*
X39047000Y8248000D01*
X39027000Y8248000D01*
X39027000Y8228000D01*
X38773000Y8228000D01*
X38773000Y8248000D01*
X37798750Y8248000D01*
X37640000Y8089250D01*
X37640000Y7773690D01*
X37736673Y7540301D01*
X37778634Y7498340D01*
X37678569Y7351890D01*
X37627560Y7100000D01*
X37627560Y6150000D01*
X37671838Y5914683D01*
X37810910Y5698559D01*
X38023110Y5553569D01*
X38275000Y5502560D01*
X38410370Y5502560D01*
X37500000Y5258628D01*
X36589630Y5502560D01*
X36725000Y5502560D01*
X36960317Y5546838D01*
X37176441Y5685910D01*
X37321431Y5898110D01*
X37372440Y6150000D01*
X37372440Y7100000D01*
X37328162Y7335317D01*
X37221241Y7501477D01*
X37321431Y7648110D01*
X37372440Y7900000D01*
X37372440Y8850000D01*
X37328162Y9085317D01*
X37189090Y9301441D01*
X36976890Y9446431D01*
X36725000Y9497440D01*
X36589630Y9497440D01*
X37500000Y9741372D01*
X38456796Y9485000D01*
X38456796Y9485000D01*
G37*
X38456796Y9485000D02*
X38148691Y9485000D01*
X37915302Y9388327D01*
X37736673Y9209699D01*
X37640000Y8976310D01*
X37640000Y8660750D01*
X37798750Y8502000D01*
X38773000Y8502000D01*
X38773000Y8522000D01*
X39027000Y8522000D01*
X39027000Y8502000D01*
X39047000Y8502000D01*
X39047000Y8248000D01*
X39027000Y8248000D01*
X39027000Y8228000D01*
X38773000Y8228000D01*
X38773000Y8248000D01*
X37798750Y8248000D01*
X37640000Y8089250D01*
X37640000Y7773690D01*
X37736673Y7540301D01*
X37778634Y7498340D01*
X37678569Y7351890D01*
X37627560Y7100000D01*
X37627560Y6150000D01*
X37671838Y5914683D01*
X37810910Y5698559D01*
X38023110Y5553569D01*
X38275000Y5502560D01*
X38410370Y5502560D01*
X37500000Y5258628D01*
X36589630Y5502560D01*
X36725000Y5502560D01*
X36960317Y5546838D01*
X37176441Y5685910D01*
X37321431Y5898110D01*
X37372440Y6150000D01*
X37372440Y7100000D01*
X37328162Y7335317D01*
X37221241Y7501477D01*
X37321431Y7648110D01*
X37372440Y7900000D01*
X37372440Y8850000D01*
X37328162Y9085317D01*
X37189090Y9301441D01*
X36976890Y9446431D01*
X36725000Y9497440D01*
X36589630Y9497440D01*
X37500000Y9741372D01*
X38456796Y9485000D01*
G36*
X8456796Y9485000D02*
X8148691Y9485000D01*
X7915302Y9388327D01*
X7736673Y9209699D01*
X7640000Y8976310D01*
X7640000Y8660750D01*
X7798750Y8502000D01*
X8773000Y8502000D01*
X8773000Y8522000D01*
X9027000Y8522000D01*
X9027000Y8502000D01*
X9047000Y8502000D01*
X9047000Y8248000D01*
X9027000Y8248000D01*
X9027000Y8228000D01*
X8773000Y8228000D01*
X8773000Y8248000D01*
X7798750Y8248000D01*
X7640000Y8089250D01*
X7640000Y7773690D01*
X7736673Y7540301D01*
X7778634Y7498340D01*
X7678569Y7351890D01*
X7627560Y7100000D01*
X7627560Y6150000D01*
X7671838Y5914683D01*
X7810910Y5698559D01*
X8023110Y5553569D01*
X8275000Y5502560D01*
X8410370Y5502560D01*
X7500000Y5258628D01*
X6589630Y5502560D01*
X6725000Y5502560D01*
X6960317Y5546838D01*
X7176441Y5685910D01*
X7321431Y5898110D01*
X7372440Y6150000D01*
X7372440Y7100000D01*
X7328162Y7335317D01*
X7221241Y7501477D01*
X7321431Y7648110D01*
X7372440Y7900000D01*
X7372440Y8850000D01*
X7328162Y9085317D01*
X7189090Y9301441D01*
X6976890Y9446431D01*
X6725000Y9497440D01*
X6589630Y9497440D01*
X7500000Y9741372D01*
X8456796Y9485000D01*
X8456796Y9485000D01*
G37*
X8456796Y9485000D02*
X8148691Y9485000D01*
X7915302Y9388327D01*
X7736673Y9209699D01*
X7640000Y8976310D01*
X7640000Y8660750D01*
X7798750Y8502000D01*
X8773000Y8502000D01*
X8773000Y8522000D01*
X9027000Y8522000D01*
X9027000Y8502000D01*
X9047000Y8502000D01*
X9047000Y8248000D01*
X9027000Y8248000D01*
X9027000Y8228000D01*
X8773000Y8228000D01*
X8773000Y8248000D01*
X7798750Y8248000D01*
X7640000Y8089250D01*
X7640000Y7773690D01*
X7736673Y7540301D01*
X7778634Y7498340D01*
X7678569Y7351890D01*
X7627560Y7100000D01*
X7627560Y6150000D01*
X7671838Y5914683D01*
X7810910Y5698559D01*
X8023110Y5553569D01*
X8275000Y5502560D01*
X8410370Y5502560D01*
X7500000Y5258628D01*
X6589630Y5502560D01*
X6725000Y5502560D01*
X6960317Y5546838D01*
X7176441Y5685910D01*
X7321431Y5898110D01*
X7372440Y6150000D01*
X7372440Y7100000D01*
X7328162Y7335317D01*
X7221241Y7501477D01*
X7321431Y7648110D01*
X7372440Y7900000D01*
X7372440Y8850000D01*
X7328162Y9085317D01*
X7189090Y9301441D01*
X6976890Y9446431D01*
X6725000Y9497440D01*
X6589630Y9497440D01*
X7500000Y9741372D01*
X8456796Y9485000D01*
G36*
X53456796Y9485000D02*
X53148691Y9485000D01*
X52915302Y9388327D01*
X52736673Y9209699D01*
X52640000Y8976310D01*
X52640000Y8660750D01*
X52798750Y8502000D01*
X53773000Y8502000D01*
X53773000Y8522000D01*
X54027000Y8522000D01*
X54027000Y8502000D01*
X54047000Y8502000D01*
X54047000Y8248000D01*
X54027000Y8248000D01*
X54027000Y8228000D01*
X53773000Y8228000D01*
X53773000Y8248000D01*
X52798750Y8248000D01*
X52640000Y8089250D01*
X52640000Y7773690D01*
X52736673Y7540301D01*
X52778634Y7498340D01*
X52678569Y7351890D01*
X52627560Y7100000D01*
X52627560Y6150000D01*
X52671838Y5914683D01*
X52810910Y5698559D01*
X53023110Y5553569D01*
X53275000Y5502560D01*
X53410370Y5502560D01*
X52500000Y5258628D01*
X51589630Y5502560D01*
X51725000Y5502560D01*
X51960317Y5546838D01*
X52176441Y5685910D01*
X52321431Y5898110D01*
X52372440Y6150000D01*
X52372440Y7100000D01*
X52328162Y7335317D01*
X52221241Y7501477D01*
X52321431Y7648110D01*
X52372440Y7900000D01*
X52372440Y8850000D01*
X52328162Y9085317D01*
X52189090Y9301441D01*
X51976890Y9446431D01*
X51725000Y9497440D01*
X51589630Y9497440D01*
X52500000Y9741372D01*
X53456796Y9485000D01*
X53456796Y9485000D01*
G37*
X53456796Y9485000D02*
X53148691Y9485000D01*
X52915302Y9388327D01*
X52736673Y9209699D01*
X52640000Y8976310D01*
X52640000Y8660750D01*
X52798750Y8502000D01*
X53773000Y8502000D01*
X53773000Y8522000D01*
X54027000Y8522000D01*
X54027000Y8502000D01*
X54047000Y8502000D01*
X54047000Y8248000D01*
X54027000Y8248000D01*
X54027000Y8228000D01*
X53773000Y8228000D01*
X53773000Y8248000D01*
X52798750Y8248000D01*
X52640000Y8089250D01*
X52640000Y7773690D01*
X52736673Y7540301D01*
X52778634Y7498340D01*
X52678569Y7351890D01*
X52627560Y7100000D01*
X52627560Y6150000D01*
X52671838Y5914683D01*
X52810910Y5698559D01*
X53023110Y5553569D01*
X53275000Y5502560D01*
X53410370Y5502560D01*
X52500000Y5258628D01*
X51589630Y5502560D01*
X51725000Y5502560D01*
X51960317Y5546838D01*
X52176441Y5685910D01*
X52321431Y5898110D01*
X52372440Y6150000D01*
X52372440Y7100000D01*
X52328162Y7335317D01*
X52221241Y7501477D01*
X52321431Y7648110D01*
X52372440Y7900000D01*
X52372440Y8850000D01*
X52328162Y9085317D01*
X52189090Y9301441D01*
X51976890Y9446431D01*
X51725000Y9497440D01*
X51589630Y9497440D01*
X52500000Y9741372D01*
X53456796Y9485000D01*
G36*
X35805407Y17087105D02*
X35931398Y17044337D01*
X35960705Y17024755D01*
X36029256Y17011119D01*
X36095443Y16988652D01*
X36130616Y16990957D01*
X36261111Y16965000D01*
X36564969Y16965000D01*
X36564838Y16814833D01*
X36706883Y16471057D01*
X36740000Y16437882D01*
X36740000Y12782624D01*
X36675785Y12855847D01*
X36401081Y12991317D01*
X36095444Y13011348D01*
X35805408Y12912895D01*
X33659592Y11674007D01*
X33559563Y11586283D01*
X33527945Y11570691D01*
X33481853Y11518133D01*
X33429310Y11472054D01*
X33413722Y11440444D01*
X33325993Y11340409D01*
X32582551Y10052731D01*
X32579148Y10069840D01*
X32414401Y10316401D01*
X29510122Y13220680D01*
X29510162Y13266167D01*
X29382445Y13575267D01*
X29681819Y13874120D01*
X29984654Y14603427D01*
X29984657Y14606891D01*
X30014657Y14606891D01*
X30316218Y13877057D01*
X30874120Y13318181D01*
X31603427Y13015346D01*
X32393109Y13014657D01*
X33122943Y13316218D01*
X33681819Y13874120D01*
X33984654Y14603427D01*
X33985343Y15393109D01*
X33683782Y16122943D01*
X33125880Y16681819D01*
X32396573Y16984654D01*
X31606891Y16985343D01*
X30877057Y16683782D01*
X30318181Y16125880D01*
X30015346Y15396573D01*
X30014657Y14606891D01*
X29984657Y14606891D01*
X29985343Y15393109D01*
X29683782Y16122943D01*
X29125880Y16681819D01*
X28396573Y16984654D01*
X27606891Y16985343D01*
X26877057Y16683782D01*
X26318181Y16125880D01*
X26015346Y15396573D01*
X26014657Y14606891D01*
X26316218Y13877057D01*
X26352212Y13841000D01*
X26089463Y13841000D01*
X26057327Y13873192D01*
X25713799Y14015838D01*
X25341833Y14016162D01*
X24998057Y13874117D01*
X24734808Y13611327D01*
X24592162Y13267799D01*
X24591838Y12895833D01*
X24699080Y12636286D01*
X24694171Y12624463D01*
X24194593Y12912895D01*
X23904556Y13011349D01*
X23598920Y12991317D01*
X23324216Y12855847D01*
X23260000Y12782623D01*
X23260000Y16437537D01*
X23292192Y16469673D01*
X23434838Y16813201D01*
X23434970Y16965000D01*
X23738887Y16965000D01*
X23869378Y16990957D01*
X23904555Y16988651D01*
X23970748Y17011120D01*
X24039293Y17024755D01*
X24068598Y17044336D01*
X24194592Y17087105D01*
X24789119Y17430355D01*
X24936540Y17331852D01*
X25227379Y17274000D01*
X34772620Y17274000D01*
X35063459Y17331852D01*
X35210880Y17430355D01*
X35805407Y17087105D01*
X35805407Y17087105D01*
G37*
X35805407Y17087105D02*
X35931398Y17044337D01*
X35960705Y17024755D01*
X36029256Y17011119D01*
X36095443Y16988652D01*
X36130616Y16990957D01*
X36261111Y16965000D01*
X36564969Y16965000D01*
X36564838Y16814833D01*
X36706883Y16471057D01*
X36740000Y16437882D01*
X36740000Y12782624D01*
X36675785Y12855847D01*
X36401081Y12991317D01*
X36095444Y13011348D01*
X35805408Y12912895D01*
X33659592Y11674007D01*
X33559563Y11586283D01*
X33527945Y11570691D01*
X33481853Y11518133D01*
X33429310Y11472054D01*
X33413722Y11440444D01*
X33325993Y11340409D01*
X32582551Y10052731D01*
X32579148Y10069840D01*
X32414401Y10316401D01*
X29510122Y13220680D01*
X29510162Y13266167D01*
X29382445Y13575267D01*
X29681819Y13874120D01*
X29984654Y14603427D01*
X29984657Y14606891D01*
X30014657Y14606891D01*
X30316218Y13877057D01*
X30874120Y13318181D01*
X31603427Y13015346D01*
X32393109Y13014657D01*
X33122943Y13316218D01*
X33681819Y13874120D01*
X33984654Y14603427D01*
X33985343Y15393109D01*
X33683782Y16122943D01*
X33125880Y16681819D01*
X32396573Y16984654D01*
X31606891Y16985343D01*
X30877057Y16683782D01*
X30318181Y16125880D01*
X30015346Y15396573D01*
X30014657Y14606891D01*
X29984657Y14606891D01*
X29985343Y15393109D01*
X29683782Y16122943D01*
X29125880Y16681819D01*
X28396573Y16984654D01*
X27606891Y16985343D01*
X26877057Y16683782D01*
X26318181Y16125880D01*
X26015346Y15396573D01*
X26014657Y14606891D01*
X26316218Y13877057D01*
X26352212Y13841000D01*
X26089463Y13841000D01*
X26057327Y13873192D01*
X25713799Y14015838D01*
X25341833Y14016162D01*
X24998057Y13874117D01*
X24734808Y13611327D01*
X24592162Y13267799D01*
X24591838Y12895833D01*
X24699080Y12636286D01*
X24694171Y12624463D01*
X24194593Y12912895D01*
X23904556Y13011349D01*
X23598920Y12991317D01*
X23324216Y12855847D01*
X23260000Y12782623D01*
X23260000Y16437537D01*
X23292192Y16469673D01*
X23434838Y16813201D01*
X23434970Y16965000D01*
X23738887Y16965000D01*
X23869378Y16990957D01*
X23904555Y16988651D01*
X23970748Y17011120D01*
X24039293Y17024755D01*
X24068598Y17044336D01*
X24194592Y17087105D01*
X24789119Y17430355D01*
X24936540Y17331852D01*
X25227379Y17274000D01*
X34772620Y17274000D01*
X35063459Y17331852D01*
X35210880Y17430355D01*
X35805407Y17087105D01*
G36*
X38317160Y28126852D02*
X38608000Y28069000D01*
X48747200Y28069000D01*
X45436599Y24758399D01*
X45271852Y24511837D01*
X45214000Y24220998D01*
X45214000Y20882463D01*
X45181808Y20850327D01*
X45039162Y20506799D01*
X45038838Y20134833D01*
X45180883Y19791057D01*
X45443673Y19527808D01*
X45787201Y19385162D01*
X46159167Y19384838D01*
X46418714Y19492080D01*
X46676201Y19385162D01*
X47048167Y19384838D01*
X47391943Y19526883D01*
X47655192Y19789673D01*
X47662868Y19808158D01*
X48248392Y18794000D01*
X41751608Y18794000D01*
X42912895Y20805407D01*
X42955663Y20931398D01*
X42975245Y20960705D01*
X42988881Y21029256D01*
X43011348Y21095443D01*
X43009043Y21130616D01*
X43035000Y21261111D01*
X43035000Y23738887D01*
X43009043Y23869382D01*
X43011348Y23904556D01*
X42988880Y23970744D01*
X42975245Y24039293D01*
X42955663Y24068599D01*
X42912895Y24194592D01*
X41674007Y26340408D01*
X41586283Y26440437D01*
X41570691Y26472055D01*
X41518133Y26518147D01*
X41472054Y26570690D01*
X41440444Y26586278D01*
X41340409Y26674007D01*
X39194593Y27912895D01*
X38904556Y28011349D01*
X38598920Y27991317D01*
X38324216Y27855847D01*
X38259999Y27782622D01*
X38259999Y28165046D01*
X38317160Y28126852D01*
X38317160Y28126852D01*
G37*
X38317160Y28126852D02*
X38608000Y28069000D01*
X48747200Y28069000D01*
X45436599Y24758399D01*
X45271852Y24511837D01*
X45214000Y24220998D01*
X45214000Y20882463D01*
X45181808Y20850327D01*
X45039162Y20506799D01*
X45038838Y20134833D01*
X45180883Y19791057D01*
X45443673Y19527808D01*
X45787201Y19385162D01*
X46159167Y19384838D01*
X46418714Y19492080D01*
X46676201Y19385162D01*
X47048167Y19384838D01*
X47391943Y19526883D01*
X47655192Y19789673D01*
X47662868Y19808158D01*
X48248392Y18794000D01*
X41751608Y18794000D01*
X42912895Y20805407D01*
X42955663Y20931398D01*
X42975245Y20960705D01*
X42988881Y21029256D01*
X43011348Y21095443D01*
X43009043Y21130616D01*
X43035000Y21261111D01*
X43035000Y23738887D01*
X43009043Y23869382D01*
X43011348Y23904556D01*
X42988880Y23970744D01*
X42975245Y24039293D01*
X42955663Y24068599D01*
X42912895Y24194592D01*
X41674007Y26340408D01*
X41586283Y26440437D01*
X41570691Y26472055D01*
X41518133Y26518147D01*
X41472054Y26570690D01*
X41440444Y26586278D01*
X41340409Y26674007D01*
X39194593Y27912895D01*
X38904556Y28011349D01*
X38598920Y27991317D01*
X38324216Y27855847D01*
X38259999Y27782622D01*
X38259999Y28165046D01*
X38317160Y28126852D01*
G36*
X13478598Y39445400D02*
X13313851Y39198838D01*
X13255999Y38907999D01*
X13255999Y29777603D01*
X13187057Y29749117D01*
X12923808Y29486327D01*
X12781162Y29142799D01*
X12780838Y28770833D01*
X12922883Y28427057D01*
X13185673Y28163808D01*
X13529201Y28021162D01*
X13901167Y28020838D01*
X14244943Y28162883D01*
X14478176Y28395709D01*
X14480000Y28393882D01*
X14480000Y26162000D01*
X14537852Y25871161D01*
X14685885Y25649614D01*
X14685838Y25595833D01*
X14827883Y25252057D01*
X15090673Y24988808D01*
X15434201Y24846162D01*
X15806167Y24845838D01*
X15877000Y24875106D01*
X15877000Y19231463D01*
X15844808Y19199327D01*
X15702162Y18855799D01*
X15702108Y18794000D01*
X11751608Y18794000D01*
X12912895Y20805407D01*
X12955663Y20931398D01*
X12975245Y20960705D01*
X12988881Y21029256D01*
X13011348Y21095443D01*
X13009043Y21130616D01*
X13035000Y21261111D01*
X13035000Y23738887D01*
X13009043Y23869382D01*
X13011348Y23904556D01*
X12988880Y23970744D01*
X12975245Y24039293D01*
X12955663Y24068599D01*
X12912895Y24194592D01*
X11674007Y26340408D01*
X11586283Y26440437D01*
X11570691Y26472055D01*
X11518133Y26518147D01*
X11472054Y26570690D01*
X11440444Y26586278D01*
X11340409Y26674007D01*
X9194593Y27912895D01*
X8904556Y28011349D01*
X8598920Y27991317D01*
X8324216Y27855847D01*
X8296593Y27824349D01*
X8296593Y27930679D01*
X8259999Y28114648D01*
X8259999Y32217377D01*
X8324215Y32144153D01*
X8598919Y32008683D01*
X8904555Y31988651D01*
X9194592Y32087105D01*
X11340408Y33325993D01*
X11440440Y33413718D01*
X11472054Y33429309D01*
X11518141Y33481860D01*
X11570690Y33527945D01*
X11586280Y33559558D01*
X11674007Y33659591D01*
X12912895Y35805407D01*
X12955663Y35931398D01*
X12975245Y35960705D01*
X12988881Y36029256D01*
X13011348Y36095443D01*
X13009043Y36130616D01*
X13035000Y36261111D01*
X13035000Y38738887D01*
X13009043Y38869382D01*
X13011348Y38904556D01*
X12988880Y38970744D01*
X12975245Y39039293D01*
X12955663Y39068599D01*
X12912895Y39194592D01*
X11710616Y41277000D01*
X15310198Y41277000D01*
X13478598Y39445400D01*
X13478598Y39445400D01*
G37*
X13478598Y39445400D02*
X13313851Y39198838D01*
X13255999Y38907999D01*
X13255999Y29777603D01*
X13187057Y29749117D01*
X12923808Y29486327D01*
X12781162Y29142799D01*
X12780838Y28770833D01*
X12922883Y28427057D01*
X13185673Y28163808D01*
X13529201Y28021162D01*
X13901167Y28020838D01*
X14244943Y28162883D01*
X14478176Y28395709D01*
X14480000Y28393882D01*
X14480000Y26162000D01*
X14537852Y25871161D01*
X14685885Y25649614D01*
X14685838Y25595833D01*
X14827883Y25252057D01*
X15090673Y24988808D01*
X15434201Y24846162D01*
X15806167Y24845838D01*
X15877000Y24875106D01*
X15877000Y19231463D01*
X15844808Y19199327D01*
X15702162Y18855799D01*
X15702108Y18794000D01*
X11751608Y18794000D01*
X12912895Y20805407D01*
X12955663Y20931398D01*
X12975245Y20960705D01*
X12988881Y21029256D01*
X13011348Y21095443D01*
X13009043Y21130616D01*
X13035000Y21261111D01*
X13035000Y23738887D01*
X13009043Y23869382D01*
X13011348Y23904556D01*
X12988880Y23970744D01*
X12975245Y24039293D01*
X12955663Y24068599D01*
X12912895Y24194592D01*
X11674007Y26340408D01*
X11586283Y26440437D01*
X11570691Y26472055D01*
X11518133Y26518147D01*
X11472054Y26570690D01*
X11440444Y26586278D01*
X11340409Y26674007D01*
X9194593Y27912895D01*
X8904556Y28011349D01*
X8598920Y27991317D01*
X8324216Y27855847D01*
X8296593Y27824349D01*
X8296593Y27930679D01*
X8259999Y28114648D01*
X8259999Y32217377D01*
X8324215Y32144153D01*
X8598919Y32008683D01*
X8904555Y31988651D01*
X9194592Y32087105D01*
X11340408Y33325993D01*
X11440440Y33413718D01*
X11472054Y33429309D01*
X11518141Y33481860D01*
X11570690Y33527945D01*
X11586280Y33559558D01*
X11674007Y33659591D01*
X12912895Y35805407D01*
X12955663Y35931398D01*
X12975245Y35960705D01*
X12988881Y36029256D01*
X13011348Y36095443D01*
X13009043Y36130616D01*
X13035000Y36261111D01*
X13035000Y38738887D01*
X13009043Y38869382D01*
X13011348Y38904556D01*
X12988880Y38970744D01*
X12975245Y39039293D01*
X12955663Y39068599D01*
X12912895Y39194592D01*
X11710616Y41277000D01*
X15310198Y41277000D01*
X13478598Y39445400D01*
G36*
X36046673Y30622808D02*
X36390201Y30480162D01*
X36739999Y30479857D01*
X36739999Y27782625D01*
X36675785Y27855847D01*
X36401081Y27991317D01*
X36095444Y28011348D01*
X35805408Y27912895D01*
X33659592Y26674007D01*
X33559563Y26586283D01*
X33527945Y26570691D01*
X33481853Y26518133D01*
X33429310Y26472054D01*
X33413722Y26440444D01*
X33325993Y26340409D01*
X32087105Y24194593D01*
X32044337Y24068601D01*
X32024755Y24039295D01*
X32011120Y23970748D01*
X31988651Y23904556D01*
X31990957Y23869380D01*
X31965000Y23738889D01*
X31965000Y21261113D01*
X31990957Y21130622D01*
X31988651Y21095445D01*
X32011120Y21029252D01*
X32024755Y20960707D01*
X32044336Y20931402D01*
X32087105Y20805408D01*
X33248392Y18794000D01*
X27869802Y18794000D01*
X28262411Y19186609D01*
X28427158Y19433170D01*
X28438310Y19489234D01*
X28485010Y19724010D01*
X28485010Y25360990D01*
X28427158Y25651829D01*
X28262411Y25898391D01*
X27820990Y26339812D01*
X27820990Y26857208D01*
X28020878Y26657320D01*
X28020838Y26611833D01*
X28162883Y26268057D01*
X28425673Y26004808D01*
X28769201Y25862162D01*
X29141167Y25861838D01*
X29484943Y26003883D01*
X29748192Y26266673D01*
X29857763Y26530549D01*
X30119943Y26638879D01*
X30383192Y26901669D01*
X30492767Y27165555D01*
X30754943Y27273883D01*
X31018192Y27536673D01*
X31127765Y27800554D01*
X31389943Y27908883D01*
X31653192Y28171673D01*
X31795838Y28515201D01*
X31796162Y28887167D01*
X31654117Y29230943D01*
X31391327Y29494192D01*
X31047799Y29636838D01*
X31000923Y29636879D01*
X30853127Y29784675D01*
X30891192Y29822673D01*
X30996431Y30076115D01*
X31267356Y30188059D01*
X31530605Y30450849D01*
X31615376Y30655000D01*
X36014537Y30655000D01*
X36046673Y30622808D01*
X36046673Y30622808D01*
G37*
X36046673Y30622808D02*
X36390201Y30480162D01*
X36739999Y30479857D01*
X36739999Y27782625D01*
X36675785Y27855847D01*
X36401081Y27991317D01*
X36095444Y28011348D01*
X35805408Y27912895D01*
X33659592Y26674007D01*
X33559563Y26586283D01*
X33527945Y26570691D01*
X33481853Y26518133D01*
X33429310Y26472054D01*
X33413722Y26440444D01*
X33325993Y26340409D01*
X32087105Y24194593D01*
X32044337Y24068601D01*
X32024755Y24039295D01*
X32011120Y23970748D01*
X31988651Y23904556D01*
X31990957Y23869380D01*
X31965000Y23738889D01*
X31965000Y21261113D01*
X31990957Y21130622D01*
X31988651Y21095445D01*
X32011120Y21029252D01*
X32024755Y20960707D01*
X32044336Y20931402D01*
X32087105Y20805408D01*
X33248392Y18794000D01*
X27869802Y18794000D01*
X28262411Y19186609D01*
X28427158Y19433170D01*
X28438310Y19489234D01*
X28485010Y19724010D01*
X28485010Y25360990D01*
X28427158Y25651829D01*
X28262411Y25898391D01*
X27820990Y26339812D01*
X27820990Y26857208D01*
X28020878Y26657320D01*
X28020838Y26611833D01*
X28162883Y26268057D01*
X28425673Y26004808D01*
X28769201Y25862162D01*
X29141167Y25861838D01*
X29484943Y26003883D01*
X29748192Y26266673D01*
X29857763Y26530549D01*
X30119943Y26638879D01*
X30383192Y26901669D01*
X30492767Y27165555D01*
X30754943Y27273883D01*
X31018192Y27536673D01*
X31127765Y27800554D01*
X31389943Y27908883D01*
X31653192Y28171673D01*
X31795838Y28515201D01*
X31796162Y28887167D01*
X31654117Y29230943D01*
X31391327Y29494192D01*
X31047799Y29636838D01*
X31000923Y29636879D01*
X30853127Y29784675D01*
X30891192Y29822673D01*
X30996431Y30076115D01*
X31267356Y30188059D01*
X31530605Y30450849D01*
X31615376Y30655000D01*
X36014537Y30655000D01*
X36046673Y30622808D01*
G36*
X38456796Y24485000D02*
X38148691Y24485000D01*
X37915302Y24388327D01*
X37736673Y24209699D01*
X37640000Y23976310D01*
X37640000Y23660750D01*
X37798750Y23502000D01*
X38773000Y23502000D01*
X38773000Y23522000D01*
X39027000Y23522000D01*
X39027000Y23502000D01*
X39047000Y23502000D01*
X39047000Y23248000D01*
X39027000Y23248000D01*
X39027000Y23228000D01*
X38773000Y23228000D01*
X38773000Y23248000D01*
X37798750Y23248000D01*
X37640000Y23089250D01*
X37640000Y22773690D01*
X37736673Y22540301D01*
X37778634Y22498340D01*
X37678569Y22351890D01*
X37627560Y22100000D01*
X37627560Y21150000D01*
X37671838Y20914683D01*
X37810910Y20698559D01*
X38023110Y20553569D01*
X38275000Y20502560D01*
X38410370Y20502560D01*
X37500000Y20258628D01*
X36589630Y20502560D01*
X36725000Y20502560D01*
X36960317Y20546838D01*
X37176441Y20685910D01*
X37321431Y20898110D01*
X37372440Y21150000D01*
X37372440Y22100000D01*
X37328162Y22335317D01*
X37221241Y22501477D01*
X37321431Y22648110D01*
X37372440Y22900000D01*
X37372440Y23850000D01*
X37328162Y24085317D01*
X37189090Y24301441D01*
X36976890Y24446431D01*
X36725000Y24497440D01*
X36589630Y24497440D01*
X37500000Y24741372D01*
X38456796Y24485000D01*
X38456796Y24485000D01*
G37*
X38456796Y24485000D02*
X38148691Y24485000D01*
X37915302Y24388327D01*
X37736673Y24209699D01*
X37640000Y23976310D01*
X37640000Y23660750D01*
X37798750Y23502000D01*
X38773000Y23502000D01*
X38773000Y23522000D01*
X39027000Y23522000D01*
X39027000Y23502000D01*
X39047000Y23502000D01*
X39047000Y23248000D01*
X39027000Y23248000D01*
X39027000Y23228000D01*
X38773000Y23228000D01*
X38773000Y23248000D01*
X37798750Y23248000D01*
X37640000Y23089250D01*
X37640000Y22773690D01*
X37736673Y22540301D01*
X37778634Y22498340D01*
X37678569Y22351890D01*
X37627560Y22100000D01*
X37627560Y21150000D01*
X37671838Y20914683D01*
X37810910Y20698559D01*
X38023110Y20553569D01*
X38275000Y20502560D01*
X38410370Y20502560D01*
X37500000Y20258628D01*
X36589630Y20502560D01*
X36725000Y20502560D01*
X36960317Y20546838D01*
X37176441Y20685910D01*
X37321431Y20898110D01*
X37372440Y21150000D01*
X37372440Y22100000D01*
X37328162Y22335317D01*
X37221241Y22501477D01*
X37321431Y22648110D01*
X37372440Y22900000D01*
X37372440Y23850000D01*
X37328162Y24085317D01*
X37189090Y24301441D01*
X36976890Y24446431D01*
X36725000Y24497440D01*
X36589630Y24497440D01*
X37500000Y24741372D01*
X38456796Y24485000D01*
G36*
X53456796Y24485000D02*
X53148691Y24485000D01*
X52915302Y24388327D01*
X52736673Y24209699D01*
X52640000Y23976310D01*
X52640000Y23660750D01*
X52798750Y23502000D01*
X53773000Y23502000D01*
X53773000Y23522000D01*
X54027000Y23522000D01*
X54027000Y23502000D01*
X54047000Y23502000D01*
X54047000Y23248000D01*
X54027000Y23248000D01*
X54027000Y23228000D01*
X53773000Y23228000D01*
X53773000Y23248000D01*
X52798750Y23248000D01*
X52640000Y23089250D01*
X52640000Y22773690D01*
X52736673Y22540301D01*
X52778634Y22498340D01*
X52678569Y22351890D01*
X52627560Y22100000D01*
X52627560Y21150000D01*
X52671838Y20914683D01*
X52810910Y20698559D01*
X53023110Y20553569D01*
X53275000Y20502560D01*
X53410370Y20502560D01*
X52500000Y20258628D01*
X51589630Y20502560D01*
X51725000Y20502560D01*
X51960317Y20546838D01*
X52176441Y20685910D01*
X52321431Y20898110D01*
X52372440Y21150000D01*
X52372440Y22100000D01*
X52328162Y22335317D01*
X52221241Y22501477D01*
X52321431Y22648110D01*
X52372440Y22900000D01*
X52372440Y23850000D01*
X52328162Y24085317D01*
X52189090Y24301441D01*
X51976890Y24446431D01*
X51725000Y24497440D01*
X51589630Y24497440D01*
X52500000Y24741372D01*
X53456796Y24485000D01*
X53456796Y24485000D01*
G37*
X53456796Y24485000D02*
X53148691Y24485000D01*
X52915302Y24388327D01*
X52736673Y24209699D01*
X52640000Y23976310D01*
X52640000Y23660750D01*
X52798750Y23502000D01*
X53773000Y23502000D01*
X53773000Y23522000D01*
X54027000Y23522000D01*
X54027000Y23502000D01*
X54047000Y23502000D01*
X54047000Y23248000D01*
X54027000Y23248000D01*
X54027000Y23228000D01*
X53773000Y23228000D01*
X53773000Y23248000D01*
X52798750Y23248000D01*
X52640000Y23089250D01*
X52640000Y22773690D01*
X52736673Y22540301D01*
X52778634Y22498340D01*
X52678569Y22351890D01*
X52627560Y22100000D01*
X52627560Y21150000D01*
X52671838Y20914683D01*
X52810910Y20698559D01*
X53023110Y20553569D01*
X53275000Y20502560D01*
X53410370Y20502560D01*
X52500000Y20258628D01*
X51589630Y20502560D01*
X51725000Y20502560D01*
X51960317Y20546838D01*
X52176441Y20685910D01*
X52321431Y20898110D01*
X52372440Y21150000D01*
X52372440Y22100000D01*
X52328162Y22335317D01*
X52221241Y22501477D01*
X52321431Y22648110D01*
X52372440Y22900000D01*
X52372440Y23850000D01*
X52328162Y24085317D01*
X52189090Y24301441D01*
X51976890Y24446431D01*
X51725000Y24497440D01*
X51589630Y24497440D01*
X52500000Y24741372D01*
X53456796Y24485000D01*
G36*
X23456796Y24485000D02*
X23148691Y24485000D01*
X22915302Y24388327D01*
X22736673Y24209699D01*
X22640000Y23976310D01*
X22640000Y23660750D01*
X22798750Y23502000D01*
X23773000Y23502000D01*
X23773000Y23522000D01*
X24027000Y23522000D01*
X24027000Y23502000D01*
X24047000Y23502000D01*
X24047000Y23248000D01*
X24027000Y23248000D01*
X24027000Y23228000D01*
X23773000Y23228000D01*
X23773000Y23248000D01*
X22798750Y23248000D01*
X22640000Y23089250D01*
X22640000Y22773690D01*
X22736673Y22540301D01*
X22778634Y22498340D01*
X22678569Y22351890D01*
X22627560Y22100000D01*
X22627560Y21150000D01*
X22671838Y20914683D01*
X22810910Y20698559D01*
X23023110Y20553569D01*
X23275000Y20502560D01*
X23410370Y20502560D01*
X22500000Y20258628D01*
X21589630Y20502560D01*
X21725000Y20502560D01*
X21960317Y20546838D01*
X22176441Y20685910D01*
X22321431Y20898110D01*
X22372440Y21150000D01*
X22372440Y22100000D01*
X22328162Y22335317D01*
X22221241Y22501477D01*
X22321431Y22648110D01*
X22372440Y22900000D01*
X22372440Y23850000D01*
X22328162Y24085317D01*
X22189090Y24301441D01*
X21976890Y24446431D01*
X21725000Y24497440D01*
X21589630Y24497440D01*
X22500000Y24741372D01*
X23456796Y24485000D01*
X23456796Y24485000D01*
G37*
X23456796Y24485000D02*
X23148691Y24485000D01*
X22915302Y24388327D01*
X22736673Y24209699D01*
X22640000Y23976310D01*
X22640000Y23660750D01*
X22798750Y23502000D01*
X23773000Y23502000D01*
X23773000Y23522000D01*
X24027000Y23522000D01*
X24027000Y23502000D01*
X24047000Y23502000D01*
X24047000Y23248000D01*
X24027000Y23248000D01*
X24027000Y23228000D01*
X23773000Y23228000D01*
X23773000Y23248000D01*
X22798750Y23248000D01*
X22640000Y23089250D01*
X22640000Y22773690D01*
X22736673Y22540301D01*
X22778634Y22498340D01*
X22678569Y22351890D01*
X22627560Y22100000D01*
X22627560Y21150000D01*
X22671838Y20914683D01*
X22810910Y20698559D01*
X23023110Y20553569D01*
X23275000Y20502560D01*
X23410370Y20502560D01*
X22500000Y20258628D01*
X21589630Y20502560D01*
X21725000Y20502560D01*
X21960317Y20546838D01*
X22176441Y20685910D01*
X22321431Y20898110D01*
X22372440Y21150000D01*
X22372440Y22100000D01*
X22328162Y22335317D01*
X22221241Y22501477D01*
X22321431Y22648110D01*
X22372440Y22900000D01*
X22372440Y23850000D01*
X22328162Y24085317D01*
X22189090Y24301441D01*
X21976890Y24446431D01*
X21725000Y24497440D01*
X21589630Y24497440D01*
X22500000Y24741372D01*
X23456796Y24485000D01*
G36*
X8456796Y24485000D02*
X8148691Y24485000D01*
X7915302Y24388327D01*
X7736673Y24209699D01*
X7640000Y23976310D01*
X7640000Y23660750D01*
X7798750Y23502000D01*
X8773000Y23502000D01*
X8773000Y23522000D01*
X9027000Y23522000D01*
X9027000Y23502000D01*
X9047000Y23502000D01*
X9047000Y23248000D01*
X9027000Y23248000D01*
X9027000Y23228000D01*
X8773000Y23228000D01*
X8773000Y23248000D01*
X7798750Y23248000D01*
X7640000Y23089250D01*
X7640000Y22773690D01*
X7736673Y22540301D01*
X7778634Y22498340D01*
X7678569Y22351890D01*
X7627560Y22100000D01*
X7627560Y21150000D01*
X7671838Y20914683D01*
X7810910Y20698559D01*
X8023110Y20553569D01*
X8275000Y20502560D01*
X8410370Y20502560D01*
X7500000Y20258628D01*
X6589630Y20502560D01*
X6725000Y20502560D01*
X6960317Y20546838D01*
X7176441Y20685910D01*
X7321431Y20898110D01*
X7372440Y21150000D01*
X7372440Y22100000D01*
X7328162Y22335317D01*
X7221241Y22501477D01*
X7321431Y22648110D01*
X7372440Y22900000D01*
X7372440Y23850000D01*
X7328162Y24085317D01*
X7189090Y24301441D01*
X6976890Y24446431D01*
X6725000Y24497440D01*
X6589630Y24497440D01*
X7500000Y24741372D01*
X8456796Y24485000D01*
X8456796Y24485000D01*
G37*
X8456796Y24485000D02*
X8148691Y24485000D01*
X7915302Y24388327D01*
X7736673Y24209699D01*
X7640000Y23976310D01*
X7640000Y23660750D01*
X7798750Y23502000D01*
X8773000Y23502000D01*
X8773000Y23522000D01*
X9027000Y23522000D01*
X9027000Y23502000D01*
X9047000Y23502000D01*
X9047000Y23248000D01*
X9027000Y23248000D01*
X9027000Y23228000D01*
X8773000Y23228000D01*
X8773000Y23248000D01*
X7798750Y23248000D01*
X7640000Y23089250D01*
X7640000Y22773690D01*
X7736673Y22540301D01*
X7778634Y22498340D01*
X7678569Y22351890D01*
X7627560Y22100000D01*
X7627560Y21150000D01*
X7671838Y20914683D01*
X7810910Y20698559D01*
X8023110Y20553569D01*
X8275000Y20502560D01*
X8410370Y20502560D01*
X7500000Y20258628D01*
X6589630Y20502560D01*
X6725000Y20502560D01*
X6960317Y20546838D01*
X7176441Y20685910D01*
X7321431Y20898110D01*
X7372440Y21150000D01*
X7372440Y22100000D01*
X7328162Y22335317D01*
X7221241Y22501477D01*
X7321431Y22648110D01*
X7372440Y22900000D01*
X7372440Y23850000D01*
X7328162Y24085317D01*
X7189090Y24301441D01*
X6976890Y24446431D01*
X6725000Y24497440D01*
X6589630Y24497440D01*
X7500000Y24741372D01*
X8456796Y24485000D01*
G36*
X27053000Y31288008D02*
X26875823Y31288162D01*
X26532047Y31146117D01*
X26268798Y30883327D01*
X26126152Y30539799D01*
X26125828Y30167833D01*
X26267873Y29824057D01*
X26300990Y29790882D01*
X26300990Y26696766D01*
X24194593Y27912895D01*
X23904556Y28011349D01*
X23598920Y27991317D01*
X23324216Y27855847D01*
X23259999Y27782622D01*
X23259999Y28058537D01*
X23292191Y28090673D01*
X23434837Y28434201D01*
X23435161Y28806167D01*
X23293116Y29149943D01*
X23259999Y29183118D01*
X23259999Y32217377D01*
X23324215Y32144153D01*
X23598919Y32008683D01*
X23904555Y31988651D01*
X24194592Y32087105D01*
X26340408Y33325993D01*
X26440440Y33413718D01*
X26472054Y33429309D01*
X26518141Y33481860D01*
X26570690Y33527945D01*
X26586280Y33559558D01*
X26674007Y33659591D01*
X27053000Y34316026D01*
X27053000Y31288008D01*
X27053000Y31288008D01*
G37*
X27053000Y31288008D02*
X26875823Y31288162D01*
X26532047Y31146117D01*
X26268798Y30883327D01*
X26126152Y30539799D01*
X26125828Y30167833D01*
X26267873Y29824057D01*
X26300990Y29790882D01*
X26300990Y26696766D01*
X24194593Y27912895D01*
X23904556Y28011349D01*
X23598920Y27991317D01*
X23324216Y27855847D01*
X23259999Y27782622D01*
X23259999Y28058537D01*
X23292191Y28090673D01*
X23434837Y28434201D01*
X23435161Y28806167D01*
X23293116Y29149943D01*
X23259999Y29183118D01*
X23259999Y32217377D01*
X23324215Y32144153D01*
X23598919Y32008683D01*
X23904555Y31988651D01*
X24194592Y32087105D01*
X26340408Y33325993D01*
X26440440Y33413718D01*
X26472054Y33429309D01*
X26518141Y33481860D01*
X26570690Y33527945D01*
X26586280Y33559558D01*
X26674007Y33659591D01*
X27053000Y34316026D01*
X27053000Y31288008D01*
G36*
X20805407Y32087105D02*
X21095443Y31988652D01*
X21401080Y32008683D01*
X21675784Y32144153D01*
X21739999Y32217376D01*
X21739999Y29183463D01*
X21707807Y29151327D01*
X21565161Y28807799D01*
X21564837Y28435833D01*
X21706882Y28092057D01*
X21739999Y28058882D01*
X21739999Y27782625D01*
X21675785Y27855847D01*
X21401081Y27991317D01*
X21095444Y28011348D01*
X20805408Y27912895D01*
X19129496Y26945306D01*
X18839999Y27234803D01*
X18839999Y33221834D01*
X20805407Y32087105D01*
X20805407Y32087105D01*
G37*
X20805407Y32087105D02*
X21095443Y31988652D01*
X21401080Y32008683D01*
X21675784Y32144153D01*
X21739999Y32217376D01*
X21739999Y29183463D01*
X21707807Y29151327D01*
X21565161Y28807799D01*
X21564837Y28435833D01*
X21706882Y28092057D01*
X21739999Y28058882D01*
X21739999Y27782625D01*
X21675785Y27855847D01*
X21401081Y27991317D01*
X21095444Y28011348D01*
X20805408Y27912895D01*
X19129496Y26945306D01*
X18839999Y27234803D01*
X18839999Y33221834D01*
X20805407Y32087105D01*
G36*
X3325993Y33659592D02*
X3413718Y33559560D01*
X3429309Y33527946D01*
X3481860Y33481859D01*
X3527945Y33429310D01*
X3559558Y33413720D01*
X3659591Y33325993D01*
X5805407Y32087105D01*
X6095443Y31988652D01*
X6401080Y32008683D01*
X6675784Y32144153D01*
X6739999Y32217376D01*
X6739999Y28771532D01*
X3046000Y32465531D01*
X3046000Y33346533D01*
X3078192Y33378669D01*
X3220838Y33722197D01*
X3220942Y33841546D01*
X3325993Y33659592D01*
X3325993Y33659592D01*
G37*
X3325993Y33659592D02*
X3413718Y33559560D01*
X3429309Y33527946D01*
X3481860Y33481859D01*
X3527945Y33429310D01*
X3559558Y33413720D01*
X3659591Y33325993D01*
X5805407Y32087105D01*
X6095443Y31988652D01*
X6401080Y32008683D01*
X6675784Y32144153D01*
X6739999Y32217376D01*
X6739999Y28771532D01*
X3046000Y32465531D01*
X3046000Y33346533D01*
X3078192Y33378669D01*
X3220838Y33722197D01*
X3220942Y33841546D01*
X3325993Y33659592D01*
G36*
X47087105Y39194593D02*
X47044337Y39068601D01*
X47024755Y39039295D01*
X47011120Y38970748D01*
X46988651Y38904556D01*
X46990957Y38869380D01*
X46965000Y38738889D01*
X46965000Y36261113D01*
X46990957Y36130622D01*
X46988651Y36095445D01*
X47011120Y36029252D01*
X47024755Y35960707D01*
X47044336Y35931402D01*
X47087105Y35805408D01*
X48325993Y33659592D01*
X48413718Y33559560D01*
X48429309Y33527946D01*
X48481860Y33481859D01*
X48527945Y33429310D01*
X48559558Y33413720D01*
X48659591Y33325993D01*
X50805407Y32087105D01*
X51095443Y31988652D01*
X51401080Y32008683D01*
X51675784Y32144153D01*
X51797719Y32283192D01*
X51944920Y32062889D01*
X52140001Y31932541D01*
X52140001Y31160940D01*
X51884833Y31161162D01*
X51561629Y31027617D01*
X51240799Y31160838D01*
X50868833Y31161162D01*
X50525057Y31019117D01*
X50261808Y30756327D01*
X50119162Y30412799D01*
X50118838Y30040833D01*
X50260883Y29697057D01*
X50294000Y29663882D01*
X50294000Y29615800D01*
X50243311Y29565111D01*
X50187327Y29621192D01*
X49843799Y29763838D01*
X49471833Y29764162D01*
X49128057Y29622117D01*
X49094882Y29589000D01*
X39082072Y29589000D01*
X39020117Y29738943D01*
X38757327Y30002192D01*
X38413799Y30144838D01*
X38259999Y30144972D01*
X38259999Y32217377D01*
X38324215Y32144153D01*
X38598919Y32008683D01*
X38904555Y31988651D01*
X39194592Y32087105D01*
X41340408Y33325993D01*
X41440440Y33413718D01*
X41472054Y33429309D01*
X41518141Y33481860D01*
X41570690Y33527945D01*
X41586280Y33559558D01*
X41674007Y33659591D01*
X42912895Y35805407D01*
X42955663Y35931398D01*
X42975245Y35960705D01*
X42988881Y36029256D01*
X43011348Y36095443D01*
X43009043Y36130616D01*
X43035000Y36261111D01*
X43035000Y38738887D01*
X43009043Y38869382D01*
X43011348Y38904556D01*
X42988880Y38970744D01*
X42975245Y39039293D01*
X42955663Y39068599D01*
X42912895Y39194592D01*
X41710616Y41277000D01*
X48289384Y41277000D01*
X47087105Y39194593D01*
X47087105Y39194593D01*
G37*
X47087105Y39194593D02*
X47044337Y39068601D01*
X47024755Y39039295D01*
X47011120Y38970748D01*
X46988651Y38904556D01*
X46990957Y38869380D01*
X46965000Y38738889D01*
X46965000Y36261113D01*
X46990957Y36130622D01*
X46988651Y36095445D01*
X47011120Y36029252D01*
X47024755Y35960707D01*
X47044336Y35931402D01*
X47087105Y35805408D01*
X48325993Y33659592D01*
X48413718Y33559560D01*
X48429309Y33527946D01*
X48481860Y33481859D01*
X48527945Y33429310D01*
X48559558Y33413720D01*
X48659591Y33325993D01*
X50805407Y32087105D01*
X51095443Y31988652D01*
X51401080Y32008683D01*
X51675784Y32144153D01*
X51797719Y32283192D01*
X51944920Y32062889D01*
X52140001Y31932541D01*
X52140001Y31160940D01*
X51884833Y31161162D01*
X51561629Y31027617D01*
X51240799Y31160838D01*
X50868833Y31161162D01*
X50525057Y31019117D01*
X50261808Y30756327D01*
X50119162Y30412799D01*
X50118838Y30040833D01*
X50260883Y29697057D01*
X50294000Y29663882D01*
X50294000Y29615800D01*
X50243311Y29565111D01*
X50187327Y29621192D01*
X49843799Y29763838D01*
X49471833Y29764162D01*
X49128057Y29622117D01*
X49094882Y29589000D01*
X39082072Y29589000D01*
X39020117Y29738943D01*
X38757327Y30002192D01*
X38413799Y30144838D01*
X38259999Y30144972D01*
X38259999Y32217377D01*
X38324215Y32144153D01*
X38598919Y32008683D01*
X38904555Y31988651D01*
X39194592Y32087105D01*
X41340408Y33325993D01*
X41440440Y33413718D01*
X41472054Y33429309D01*
X41518141Y33481860D01*
X41570690Y33527945D01*
X41586280Y33559558D01*
X41674007Y33659591D01*
X42912895Y35805407D01*
X42955663Y35931398D01*
X42975245Y35960705D01*
X42988881Y36029256D01*
X43011348Y36095443D01*
X43009043Y36130616D01*
X43035000Y36261111D01*
X43035000Y38738887D01*
X43009043Y38869382D01*
X43011348Y38904556D01*
X42988880Y38970744D01*
X42975245Y39039293D01*
X42955663Y39068599D01*
X42912895Y39194592D01*
X41710616Y41277000D01*
X48289384Y41277000D01*
X47087105Y39194593D01*
G36*
X32087105Y39194593D02*
X32044337Y39068601D01*
X32024755Y39039295D01*
X32011120Y38970748D01*
X31988651Y38904556D01*
X31990957Y38869380D01*
X31965000Y38738889D01*
X31965000Y36261113D01*
X31990957Y36130622D01*
X31988651Y36095445D01*
X32011120Y36029252D01*
X32024755Y35960707D01*
X32044336Y35931402D01*
X32087105Y35805408D01*
X33325993Y33659592D01*
X33413718Y33559560D01*
X33429309Y33527946D01*
X33481860Y33481859D01*
X33527945Y33429310D01*
X33559558Y33413720D01*
X33659591Y33325993D01*
X34553317Y32810000D01*
X31604490Y32810000D01*
X31621000Y32893000D01*
X31621000Y40325198D01*
X31635680Y40339878D01*
X31681167Y40339838D01*
X32024943Y40481883D01*
X32288192Y40744673D01*
X32430838Y41088201D01*
X32431002Y41277000D01*
X33289384Y41277000D01*
X32087105Y39194593D01*
X32087105Y39194593D01*
G37*
X32087105Y39194593D02*
X32044337Y39068601D01*
X32024755Y39039295D01*
X32011120Y38970748D01*
X31988651Y38904556D01*
X31990957Y38869380D01*
X31965000Y38738889D01*
X31965000Y36261113D01*
X31990957Y36130622D01*
X31988651Y36095445D01*
X32011120Y36029252D01*
X32024755Y35960707D01*
X32044336Y35931402D01*
X32087105Y35805408D01*
X33325993Y33659592D01*
X33413718Y33559560D01*
X33429309Y33527946D01*
X33481860Y33481859D01*
X33527945Y33429310D01*
X33559558Y33413720D01*
X33659591Y33325993D01*
X34553317Y32810000D01*
X31604490Y32810000D01*
X31621000Y32893000D01*
X31621000Y40325198D01*
X31635680Y40339878D01*
X31681167Y40339838D01*
X32024943Y40481883D01*
X32288192Y40744673D01*
X32430838Y41088201D01*
X32431002Y41277000D01*
X33289384Y41277000D01*
X32087105Y39194593D01*
G36*
X38456796Y39485000D02*
X38148691Y39485000D01*
X37915302Y39388327D01*
X37736673Y39209699D01*
X37640000Y38976310D01*
X37640000Y38660750D01*
X37798750Y38502000D01*
X38773000Y38502000D01*
X38773000Y38522000D01*
X39027000Y38522000D01*
X39027000Y38502000D01*
X39047000Y38502000D01*
X39047000Y38248000D01*
X39027000Y38248000D01*
X39027000Y38228000D01*
X38773000Y38228000D01*
X38773000Y38248000D01*
X37798750Y38248000D01*
X37640000Y38089250D01*
X37640000Y37773690D01*
X37736673Y37540301D01*
X37778634Y37498340D01*
X37678569Y37351890D01*
X37627560Y37100000D01*
X37627560Y36150000D01*
X37671838Y35914683D01*
X37810910Y35698559D01*
X38023110Y35553569D01*
X38275000Y35502560D01*
X38410370Y35502560D01*
X37500000Y35258628D01*
X36589630Y35502560D01*
X36725000Y35502560D01*
X36960317Y35546838D01*
X37176441Y35685910D01*
X37321431Y35898110D01*
X37372440Y36150000D01*
X37372440Y37100000D01*
X37328162Y37335317D01*
X37221241Y37501477D01*
X37321431Y37648110D01*
X37372440Y37900000D01*
X37372440Y38850000D01*
X37328162Y39085317D01*
X37189090Y39301441D01*
X36976890Y39446431D01*
X36725000Y39497440D01*
X36589630Y39497440D01*
X37500000Y39741372D01*
X38456796Y39485000D01*
X38456796Y39485000D01*
G37*
X38456796Y39485000D02*
X38148691Y39485000D01*
X37915302Y39388327D01*
X37736673Y39209699D01*
X37640000Y38976310D01*
X37640000Y38660750D01*
X37798750Y38502000D01*
X38773000Y38502000D01*
X38773000Y38522000D01*
X39027000Y38522000D01*
X39027000Y38502000D01*
X39047000Y38502000D01*
X39047000Y38248000D01*
X39027000Y38248000D01*
X39027000Y38228000D01*
X38773000Y38228000D01*
X38773000Y38248000D01*
X37798750Y38248000D01*
X37640000Y38089250D01*
X37640000Y37773690D01*
X37736673Y37540301D01*
X37778634Y37498340D01*
X37678569Y37351890D01*
X37627560Y37100000D01*
X37627560Y36150000D01*
X37671838Y35914683D01*
X37810910Y35698559D01*
X38023110Y35553569D01*
X38275000Y35502560D01*
X38410370Y35502560D01*
X37500000Y35258628D01*
X36589630Y35502560D01*
X36725000Y35502560D01*
X36960317Y35546838D01*
X37176441Y35685910D01*
X37321431Y35898110D01*
X37372440Y36150000D01*
X37372440Y37100000D01*
X37328162Y37335317D01*
X37221241Y37501477D01*
X37321431Y37648110D01*
X37372440Y37900000D01*
X37372440Y38850000D01*
X37328162Y39085317D01*
X37189090Y39301441D01*
X36976890Y39446431D01*
X36725000Y39497440D01*
X36589630Y39497440D01*
X37500000Y39741372D01*
X38456796Y39485000D01*
G36*
X8456796Y39485000D02*
X8148691Y39485000D01*
X7915302Y39388327D01*
X7736673Y39209699D01*
X7640000Y38976310D01*
X7640000Y38660750D01*
X7798750Y38502000D01*
X8773000Y38502000D01*
X8773000Y38522000D01*
X9027000Y38522000D01*
X9027000Y38502000D01*
X9047000Y38502000D01*
X9047000Y38248000D01*
X9027000Y38248000D01*
X9027000Y38228000D01*
X8773000Y38228000D01*
X8773000Y38248000D01*
X7798750Y38248000D01*
X7640000Y38089250D01*
X7640000Y37773690D01*
X7736673Y37540301D01*
X7778634Y37498340D01*
X7678569Y37351890D01*
X7627560Y37100000D01*
X7627560Y36150000D01*
X7671838Y35914683D01*
X7810910Y35698559D01*
X8023110Y35553569D01*
X8275000Y35502560D01*
X8410370Y35502560D01*
X7500000Y35258628D01*
X6589630Y35502560D01*
X6725000Y35502560D01*
X6960317Y35546838D01*
X7176441Y35685910D01*
X7321431Y35898110D01*
X7372440Y36150000D01*
X7372440Y37100000D01*
X7328162Y37335317D01*
X7221241Y37501477D01*
X7321431Y37648110D01*
X7372440Y37900000D01*
X7372440Y38850000D01*
X7328162Y39085317D01*
X7189090Y39301441D01*
X6976890Y39446431D01*
X6725000Y39497440D01*
X6589630Y39497440D01*
X7500000Y39741372D01*
X8456796Y39485000D01*
X8456796Y39485000D01*
G37*
X8456796Y39485000D02*
X8148691Y39485000D01*
X7915302Y39388327D01*
X7736673Y39209699D01*
X7640000Y38976310D01*
X7640000Y38660750D01*
X7798750Y38502000D01*
X8773000Y38502000D01*
X8773000Y38522000D01*
X9027000Y38522000D01*
X9027000Y38502000D01*
X9047000Y38502000D01*
X9047000Y38248000D01*
X9027000Y38248000D01*
X9027000Y38228000D01*
X8773000Y38228000D01*
X8773000Y38248000D01*
X7798750Y38248000D01*
X7640000Y38089250D01*
X7640000Y37773690D01*
X7736673Y37540301D01*
X7778634Y37498340D01*
X7678569Y37351890D01*
X7627560Y37100000D01*
X7627560Y36150000D01*
X7671838Y35914683D01*
X7810910Y35698559D01*
X8023110Y35553569D01*
X8275000Y35502560D01*
X8410370Y35502560D01*
X7500000Y35258628D01*
X6589630Y35502560D01*
X6725000Y35502560D01*
X6960317Y35546838D01*
X7176441Y35685910D01*
X7321431Y35898110D01*
X7372440Y36150000D01*
X7372440Y37100000D01*
X7328162Y37335317D01*
X7221241Y37501477D01*
X7321431Y37648110D01*
X7372440Y37900000D01*
X7372440Y38850000D01*
X7328162Y39085317D01*
X7189090Y39301441D01*
X6976890Y39446431D01*
X6725000Y39497440D01*
X6589630Y39497440D01*
X7500000Y39741372D01*
X8456796Y39485000D01*
G36*
X53456796Y39485000D02*
X53148691Y39485000D01*
X52915302Y39388327D01*
X52736673Y39209699D01*
X52640000Y38976310D01*
X52640000Y38660750D01*
X52798750Y38502000D01*
X53773000Y38502000D01*
X53773000Y38522000D01*
X54027000Y38522000D01*
X54027000Y38502000D01*
X54047000Y38502000D01*
X54047000Y38248000D01*
X54027000Y38248000D01*
X54027000Y38228000D01*
X53773000Y38228000D01*
X53773000Y38248000D01*
X52798750Y38248000D01*
X52640000Y38089250D01*
X52640000Y37773690D01*
X52736673Y37540301D01*
X52778634Y37498340D01*
X52678569Y37351890D01*
X52627560Y37100000D01*
X52627560Y36150000D01*
X52671838Y35914683D01*
X52810910Y35698559D01*
X53023110Y35553569D01*
X53275000Y35502560D01*
X53410370Y35502560D01*
X52500000Y35258628D01*
X51589630Y35502560D01*
X51725000Y35502560D01*
X51960317Y35546838D01*
X52176441Y35685910D01*
X52321431Y35898110D01*
X52372440Y36150000D01*
X52372440Y37100000D01*
X52328162Y37335317D01*
X52221241Y37501477D01*
X52321431Y37648110D01*
X52372440Y37900000D01*
X52372440Y38850000D01*
X52328162Y39085317D01*
X52189090Y39301441D01*
X51976890Y39446431D01*
X51725000Y39497440D01*
X51589630Y39497440D01*
X52500000Y39741372D01*
X53456796Y39485000D01*
X53456796Y39485000D01*
G37*
X53456796Y39485000D02*
X53148691Y39485000D01*
X52915302Y39388327D01*
X52736673Y39209699D01*
X52640000Y38976310D01*
X52640000Y38660750D01*
X52798750Y38502000D01*
X53773000Y38502000D01*
X53773000Y38522000D01*
X54027000Y38522000D01*
X54027000Y38502000D01*
X54047000Y38502000D01*
X54047000Y38248000D01*
X54027000Y38248000D01*
X54027000Y38228000D01*
X53773000Y38228000D01*
X53773000Y38248000D01*
X52798750Y38248000D01*
X52640000Y38089250D01*
X52640000Y37773690D01*
X52736673Y37540301D01*
X52778634Y37498340D01*
X52678569Y37351890D01*
X52627560Y37100000D01*
X52627560Y36150000D01*
X52671838Y35914683D01*
X52810910Y35698559D01*
X53023110Y35553569D01*
X53275000Y35502560D01*
X53410370Y35502560D01*
X52500000Y35258628D01*
X51589630Y35502560D01*
X51725000Y35502560D01*
X51960317Y35546838D01*
X52176441Y35685910D01*
X52321431Y35898110D01*
X52372440Y36150000D01*
X52372440Y37100000D01*
X52328162Y37335317D01*
X52221241Y37501477D01*
X52321431Y37648110D01*
X52372440Y37900000D01*
X52372440Y38850000D01*
X52328162Y39085317D01*
X52189090Y39301441D01*
X51976890Y39446431D01*
X51725000Y39497440D01*
X51589630Y39497440D01*
X52500000Y39741372D01*
X53456796Y39485000D01*
G36*
X23456796Y39485000D02*
X23148691Y39485000D01*
X22915302Y39388327D01*
X22736673Y39209699D01*
X22640000Y38976310D01*
X22640000Y38660750D01*
X22798750Y38502000D01*
X23773000Y38502000D01*
X23773000Y38522000D01*
X24027000Y38522000D01*
X24027000Y38502000D01*
X24047000Y38502000D01*
X24047000Y38248000D01*
X24027000Y38248000D01*
X24027000Y38228000D01*
X23773000Y38228000D01*
X23773000Y38248000D01*
X22798750Y38248000D01*
X22640000Y38089250D01*
X22640000Y37773690D01*
X22736673Y37540301D01*
X22778634Y37498340D01*
X22678569Y37351890D01*
X22627560Y37100000D01*
X22627560Y36150000D01*
X22671838Y35914683D01*
X22810910Y35698559D01*
X23023110Y35553569D01*
X23275000Y35502560D01*
X23410370Y35502560D01*
X22500000Y35258628D01*
X21589630Y35502560D01*
X21725000Y35502560D01*
X21960317Y35546838D01*
X22176441Y35685910D01*
X22321431Y35898110D01*
X22372440Y36150000D01*
X22372440Y37100000D01*
X22328162Y37335317D01*
X22221241Y37501477D01*
X22321431Y37648110D01*
X22372440Y37900000D01*
X22372440Y38850000D01*
X22328162Y39085317D01*
X22189090Y39301441D01*
X21976890Y39446431D01*
X21725000Y39497440D01*
X21589630Y39497440D01*
X22500000Y39741372D01*
X23456796Y39485000D01*
X23456796Y39485000D01*
G37*
X23456796Y39485000D02*
X23148691Y39485000D01*
X22915302Y39388327D01*
X22736673Y39209699D01*
X22640000Y38976310D01*
X22640000Y38660750D01*
X22798750Y38502000D01*
X23773000Y38502000D01*
X23773000Y38522000D01*
X24027000Y38522000D01*
X24027000Y38502000D01*
X24047000Y38502000D01*
X24047000Y38248000D01*
X24027000Y38248000D01*
X24027000Y38228000D01*
X23773000Y38228000D01*
X23773000Y38248000D01*
X22798750Y38248000D01*
X22640000Y38089250D01*
X22640000Y37773690D01*
X22736673Y37540301D01*
X22778634Y37498340D01*
X22678569Y37351890D01*
X22627560Y37100000D01*
X22627560Y36150000D01*
X22671838Y35914683D01*
X22810910Y35698559D01*
X23023110Y35553569D01*
X23275000Y35502560D01*
X23410370Y35502560D01*
X22500000Y35258628D01*
X21589630Y35502560D01*
X21725000Y35502560D01*
X21960317Y35546838D01*
X22176441Y35685910D01*
X22321431Y35898110D01*
X22372440Y36150000D01*
X22372440Y37100000D01*
X22328162Y37335317D01*
X22221241Y37501477D01*
X22321431Y37648110D01*
X22372440Y37900000D01*
X22372440Y38850000D01*
X22328162Y39085317D01*
X22189090Y39301441D01*
X21976890Y39446431D01*
X21725000Y39497440D01*
X21589630Y39497440D01*
X22500000Y39741372D01*
X23456796Y39485000D01*
G36*
X47087105Y54194593D02*
X47044337Y54068601D01*
X47024755Y54039295D01*
X47011120Y53970748D01*
X46988651Y53904556D01*
X46990957Y53869380D01*
X46965000Y53738889D01*
X46965000Y51261113D01*
X46990957Y51130622D01*
X46988651Y51095445D01*
X47011120Y51029252D01*
X47024755Y50960707D01*
X47044336Y50931402D01*
X47087105Y50805408D01*
X48325993Y48659592D01*
X48413718Y48559560D01*
X48429309Y48527946D01*
X48481860Y48481859D01*
X48527945Y48429310D01*
X48559558Y48413720D01*
X48659591Y48325993D01*
X50805407Y47087105D01*
X51095443Y46988652D01*
X51401080Y47008683D01*
X51675784Y47144153D01*
X51740000Y47217377D01*
X51740000Y43562463D01*
X51707808Y43530327D01*
X51565162Y43186799D01*
X51565030Y43035000D01*
X51261113Y43035000D01*
X51130618Y43009043D01*
X51095444Y43011348D01*
X51029256Y42988880D01*
X50960707Y42975245D01*
X50931401Y42955663D01*
X50805408Y42912895D01*
X50229796Y42580565D01*
X49992460Y42739148D01*
X49701621Y42797000D01*
X40298380Y42797000D01*
X40007540Y42739148D01*
X39770205Y42580565D01*
X39194593Y42912895D01*
X39068601Y42955663D01*
X39039295Y42975245D01*
X38970748Y42988880D01*
X38904556Y43011349D01*
X38869380Y43009043D01*
X38738889Y43035000D01*
X38435031Y43035000D01*
X38435162Y43185167D01*
X38293117Y43528943D01*
X38260000Y43562118D01*
X38260000Y44656401D01*
X43264699Y44656401D01*
X43528281Y44018485D01*
X44015918Y43529996D01*
X44653373Y43265301D01*
X45343599Y43264699D01*
X45981515Y43528281D01*
X46470004Y44015918D01*
X46734699Y44653373D01*
X46735301Y45343599D01*
X46471719Y45981515D01*
X45984082Y46470004D01*
X45346627Y46734699D01*
X44656401Y46735301D01*
X44018485Y46471719D01*
X43529996Y45984082D01*
X43265301Y45346627D01*
X43264699Y44656401D01*
X38260000Y44656401D01*
X38260000Y47217376D01*
X38324215Y47144153D01*
X38598919Y47008683D01*
X38904555Y46988651D01*
X39194592Y47087105D01*
X41340408Y48325993D01*
X41440440Y48413718D01*
X41472054Y48429309D01*
X41518141Y48481860D01*
X41570690Y48527945D01*
X41586280Y48559558D01*
X41674007Y48659591D01*
X42912895Y50805407D01*
X42955663Y50931398D01*
X42975245Y50960705D01*
X42988881Y51029256D01*
X43011348Y51095443D01*
X43009043Y51130616D01*
X43035000Y51261111D01*
X43035000Y53738887D01*
X43009043Y53869382D01*
X43011348Y53904556D01*
X42988880Y53970744D01*
X42975245Y54039293D01*
X42955663Y54068599D01*
X42912895Y54194592D01*
X41718699Y56263000D01*
X48281301Y56263000D01*
X47087105Y54194593D01*
X47087105Y54194593D01*
G37*
X47087105Y54194593D02*
X47044337Y54068601D01*
X47024755Y54039295D01*
X47011120Y53970748D01*
X46988651Y53904556D01*
X46990957Y53869380D01*
X46965000Y53738889D01*
X46965000Y51261113D01*
X46990957Y51130622D01*
X46988651Y51095445D01*
X47011120Y51029252D01*
X47024755Y50960707D01*
X47044336Y50931402D01*
X47087105Y50805408D01*
X48325993Y48659592D01*
X48413718Y48559560D01*
X48429309Y48527946D01*
X48481860Y48481859D01*
X48527945Y48429310D01*
X48559558Y48413720D01*
X48659591Y48325993D01*
X50805407Y47087105D01*
X51095443Y46988652D01*
X51401080Y47008683D01*
X51675784Y47144153D01*
X51740000Y47217377D01*
X51740000Y43562463D01*
X51707808Y43530327D01*
X51565162Y43186799D01*
X51565030Y43035000D01*
X51261113Y43035000D01*
X51130618Y43009043D01*
X51095444Y43011348D01*
X51029256Y42988880D01*
X50960707Y42975245D01*
X50931401Y42955663D01*
X50805408Y42912895D01*
X50229796Y42580565D01*
X49992460Y42739148D01*
X49701621Y42797000D01*
X40298380Y42797000D01*
X40007540Y42739148D01*
X39770205Y42580565D01*
X39194593Y42912895D01*
X39068601Y42955663D01*
X39039295Y42975245D01*
X38970748Y42988880D01*
X38904556Y43011349D01*
X38869380Y43009043D01*
X38738889Y43035000D01*
X38435031Y43035000D01*
X38435162Y43185167D01*
X38293117Y43528943D01*
X38260000Y43562118D01*
X38260000Y44656401D01*
X43264699Y44656401D01*
X43528281Y44018485D01*
X44015918Y43529996D01*
X44653373Y43265301D01*
X45343599Y43264699D01*
X45981515Y43528281D01*
X46470004Y44015918D01*
X46734699Y44653373D01*
X46735301Y45343599D01*
X46471719Y45981515D01*
X45984082Y46470004D01*
X45346627Y46734699D01*
X44656401Y46735301D01*
X44018485Y46471719D01*
X43529996Y45984082D01*
X43265301Y45346627D01*
X43264699Y44656401D01*
X38260000Y44656401D01*
X38260000Y47217376D01*
X38324215Y47144153D01*
X38598919Y47008683D01*
X38904555Y46988651D01*
X39194592Y47087105D01*
X41340408Y48325993D01*
X41440440Y48413718D01*
X41472054Y48429309D01*
X41518141Y48481860D01*
X41570690Y48527945D01*
X41586280Y48559558D01*
X41674007Y48659591D01*
X42912895Y50805407D01*
X42955663Y50931398D01*
X42975245Y50960705D01*
X42988881Y51029256D01*
X43011348Y51095443D01*
X43009043Y51130616D01*
X43035000Y51261111D01*
X43035000Y53738887D01*
X43009043Y53869382D01*
X43011348Y53904556D01*
X42988880Y53970744D01*
X42975245Y54039293D01*
X42955663Y54068599D01*
X42912895Y54194592D01*
X41718699Y56263000D01*
X48281301Y56263000D01*
X47087105Y54194593D01*
G36*
X31965000Y51261113D02*
X31990957Y51130622D01*
X31988651Y51095445D01*
X32011120Y51029252D01*
X32024755Y50960707D01*
X32044336Y50931402D01*
X32087105Y50805408D01*
X33325993Y48659592D01*
X33413718Y48559560D01*
X33429309Y48527946D01*
X33481860Y48481859D01*
X33527945Y48429310D01*
X33559558Y48413720D01*
X33659591Y48325993D01*
X35805407Y47087105D01*
X36095443Y46988652D01*
X36401080Y47008683D01*
X36675784Y47144153D01*
X36740000Y47217377D01*
X36740000Y43562463D01*
X36707808Y43530327D01*
X36565162Y43186799D01*
X36565030Y43035000D01*
X36261113Y43035000D01*
X36130618Y43009043D01*
X36095444Y43011348D01*
X36029256Y42988880D01*
X35960707Y42975245D01*
X35931401Y42955663D01*
X35805408Y42912895D01*
X35229796Y42580565D01*
X34992460Y42739148D01*
X34701621Y42797000D01*
X32430999Y42797000D01*
X32431162Y42984167D01*
X32414852Y43023641D01*
X33122943Y43316218D01*
X33681819Y43874120D01*
X33984654Y44603427D01*
X33985343Y45393109D01*
X33683782Y46122943D01*
X33125880Y46681819D01*
X32396573Y46984654D01*
X31606891Y46985343D01*
X31084999Y46769702D01*
X31084999Y52743197D01*
X31965000Y53623198D01*
X31965000Y51261113D01*
X31965000Y51261113D01*
G37*
X31965000Y51261113D02*
X31990957Y51130622D01*
X31988651Y51095445D01*
X32011120Y51029252D01*
X32024755Y50960707D01*
X32044336Y50931402D01*
X32087105Y50805408D01*
X33325993Y48659592D01*
X33413718Y48559560D01*
X33429309Y48527946D01*
X33481860Y48481859D01*
X33527945Y48429310D01*
X33559558Y48413720D01*
X33659591Y48325993D01*
X35805407Y47087105D01*
X36095443Y46988652D01*
X36401080Y47008683D01*
X36675784Y47144153D01*
X36740000Y47217377D01*
X36740000Y43562463D01*
X36707808Y43530327D01*
X36565162Y43186799D01*
X36565030Y43035000D01*
X36261113Y43035000D01*
X36130618Y43009043D01*
X36095444Y43011348D01*
X36029256Y42988880D01*
X35960707Y42975245D01*
X35931401Y42955663D01*
X35805408Y42912895D01*
X35229796Y42580565D01*
X34992460Y42739148D01*
X34701621Y42797000D01*
X32430999Y42797000D01*
X32431162Y42984167D01*
X32414852Y43023641D01*
X33122943Y43316218D01*
X33681819Y43874120D01*
X33984654Y44603427D01*
X33985343Y45393109D01*
X33683782Y46122943D01*
X33125880Y46681819D01*
X32396573Y46984654D01*
X31606891Y46985343D01*
X31084999Y46769702D01*
X31084999Y52743197D01*
X31965000Y53623198D01*
X31965000Y51261113D01*
G36*
X13845000Y52644198D02*
X13845000Y50092463D01*
X13812808Y50060327D01*
X13670162Y49716799D01*
X13669838Y49344833D01*
X13811883Y49001057D01*
X14074673Y48737808D01*
X14418201Y48595162D01*
X14790167Y48594838D01*
X15113373Y48728384D01*
X15434205Y48595162D01*
X15806171Y48594838D01*
X16084770Y48709952D01*
X16361214Y48595162D01*
X16733180Y48594838D01*
X17037331Y48720510D01*
X17339201Y48595162D01*
X17711167Y48594838D01*
X18054943Y48736883D01*
X18198583Y48880273D01*
X18325993Y48659592D01*
X18413718Y48559560D01*
X18429309Y48527946D01*
X18481860Y48481859D01*
X18527945Y48429310D01*
X18559558Y48413720D01*
X18659591Y48325993D01*
X20805407Y47087105D01*
X21095443Y46988652D01*
X21401080Y47008683D01*
X21675784Y47144153D01*
X21739999Y47217376D01*
X21739999Y44144427D01*
X21686808Y44091329D01*
X21544162Y43747801D01*
X21544108Y43686000D01*
X21136455Y43686000D01*
X21104319Y43718192D01*
X20760791Y43860838D01*
X20388825Y43861162D01*
X20045049Y43719117D01*
X19781800Y43456327D01*
X19639154Y43112799D01*
X19638879Y42797000D01*
X10298380Y42797000D01*
X10007540Y42739148D01*
X9770205Y42580565D01*
X9194593Y42912895D01*
X9068601Y42955663D01*
X9039295Y42975245D01*
X8970748Y42988880D01*
X8904556Y43011349D01*
X8869380Y43009043D01*
X8738889Y43035000D01*
X8435031Y43035000D01*
X8435162Y43185167D01*
X8293117Y43528943D01*
X8260000Y43562118D01*
X8260000Y44656401D01*
X13264699Y44656401D01*
X13528281Y44018485D01*
X14015918Y43529996D01*
X14653373Y43265301D01*
X15343599Y43264699D01*
X15981515Y43528281D01*
X16470004Y44015918D01*
X16734699Y44653373D01*
X16735301Y45343599D01*
X16471719Y45981515D01*
X15984082Y46470004D01*
X15346627Y46734699D01*
X14656401Y46735301D01*
X14018485Y46471719D01*
X13529996Y45984082D01*
X13265301Y45346627D01*
X13264699Y44656401D01*
X8260000Y44656401D01*
X8260000Y47217376D01*
X8324215Y47144153D01*
X8598919Y47008683D01*
X8904555Y46988651D01*
X9194592Y47087105D01*
X11340408Y48325993D01*
X11440440Y48413718D01*
X11472054Y48429309D01*
X11518141Y48481860D01*
X11570690Y48527945D01*
X11586280Y48559558D01*
X11674007Y48659591D01*
X12912895Y50805407D01*
X12955663Y50931398D01*
X12975245Y50960705D01*
X12988881Y51029256D01*
X13011348Y51095443D01*
X13009043Y51130616D01*
X13035000Y51261111D01*
X13035000Y53454198D01*
X13845000Y52644198D01*
X13845000Y52644198D01*
G37*
X13845000Y52644198D02*
X13845000Y50092463D01*
X13812808Y50060327D01*
X13670162Y49716799D01*
X13669838Y49344833D01*
X13811883Y49001057D01*
X14074673Y48737808D01*
X14418201Y48595162D01*
X14790167Y48594838D01*
X15113373Y48728384D01*
X15434205Y48595162D01*
X15806171Y48594838D01*
X16084770Y48709952D01*
X16361214Y48595162D01*
X16733180Y48594838D01*
X17037331Y48720510D01*
X17339201Y48595162D01*
X17711167Y48594838D01*
X18054943Y48736883D01*
X18198583Y48880273D01*
X18325993Y48659592D01*
X18413718Y48559560D01*
X18429309Y48527946D01*
X18481860Y48481859D01*
X18527945Y48429310D01*
X18559558Y48413720D01*
X18659591Y48325993D01*
X20805407Y47087105D01*
X21095443Y46988652D01*
X21401080Y47008683D01*
X21675784Y47144153D01*
X21739999Y47217376D01*
X21739999Y44144427D01*
X21686808Y44091329D01*
X21544162Y43747801D01*
X21544108Y43686000D01*
X21136455Y43686000D01*
X21104319Y43718192D01*
X20760791Y43860838D01*
X20388825Y43861162D01*
X20045049Y43719117D01*
X19781800Y43456327D01*
X19639154Y43112799D01*
X19638879Y42797000D01*
X10298380Y42797000D01*
X10007540Y42739148D01*
X9770205Y42580565D01*
X9194593Y42912895D01*
X9068601Y42955663D01*
X9039295Y42975245D01*
X8970748Y42988880D01*
X8904556Y43011349D01*
X8869380Y43009043D01*
X8738889Y43035000D01*
X8435031Y43035000D01*
X8435162Y43185167D01*
X8293117Y43528943D01*
X8260000Y43562118D01*
X8260000Y44656401D01*
X13264699Y44656401D01*
X13528281Y44018485D01*
X14015918Y43529996D01*
X14653373Y43265301D01*
X15343599Y43264699D01*
X15981515Y43528281D01*
X16470004Y44015918D01*
X16734699Y44653373D01*
X16735301Y45343599D01*
X16471719Y45981515D01*
X15984082Y46470004D01*
X15346627Y46734699D01*
X14656401Y46735301D01*
X14018485Y46471719D01*
X13529996Y45984082D01*
X13265301Y45346627D01*
X13264699Y44656401D01*
X8260000Y44656401D01*
X8260000Y47217376D01*
X8324215Y47144153D01*
X8598919Y47008683D01*
X8904555Y46988651D01*
X9194592Y47087105D01*
X11340408Y48325993D01*
X11440440Y48413718D01*
X11472054Y48429309D01*
X11518141Y48481860D01*
X11570690Y48527945D01*
X11586280Y48559558D01*
X11674007Y48659591D01*
X12912895Y50805407D01*
X12955663Y50931398D01*
X12975245Y50960705D01*
X12988881Y51029256D01*
X13011348Y51095443D01*
X13009043Y51130616D01*
X13035000Y51261111D01*
X13035000Y53454198D01*
X13845000Y52644198D01*
G36*
X28577000Y53152198D02*
X28577000Y49082802D01*
X25787597Y46293399D01*
X25622850Y46046837D01*
X25564998Y45755998D01*
X25564998Y44165800D01*
X25085198Y43686000D01*
X23414110Y43686000D01*
X23414162Y43746169D01*
X23272117Y44089945D01*
X23259999Y44102084D01*
X23259999Y47217377D01*
X23324215Y47144153D01*
X23598919Y47008683D01*
X23904555Y46988651D01*
X24194592Y47087105D01*
X26340408Y48325993D01*
X26440440Y48413718D01*
X26472054Y48429309D01*
X26518141Y48481860D01*
X26570690Y48527945D01*
X26586280Y48559558D01*
X26674007Y48659591D01*
X27912895Y50805407D01*
X27955663Y50931398D01*
X27975245Y50960705D01*
X27988881Y51029256D01*
X28011348Y51095443D01*
X28009043Y51130616D01*
X28035000Y51261111D01*
X28035000Y53694198D01*
X28577000Y53152198D01*
X28577000Y53152198D01*
G37*
X28577000Y53152198D02*
X28577000Y49082802D01*
X25787597Y46293399D01*
X25622850Y46046837D01*
X25564998Y45755998D01*
X25564998Y44165800D01*
X25085198Y43686000D01*
X23414110Y43686000D01*
X23414162Y43746169D01*
X23272117Y44089945D01*
X23259999Y44102084D01*
X23259999Y47217377D01*
X23324215Y47144153D01*
X23598919Y47008683D01*
X23904555Y46988651D01*
X24194592Y47087105D01*
X26340408Y48325993D01*
X26440440Y48413718D01*
X26472054Y48429309D01*
X26518141Y48481860D01*
X26570690Y48527945D01*
X26586280Y48559558D01*
X26674007Y48659591D01*
X27912895Y50805407D01*
X27955663Y50931398D01*
X27975245Y50960705D01*
X27988881Y51029256D01*
X28011348Y51095443D01*
X28009043Y51130616D01*
X28035000Y51261111D01*
X28035000Y53694198D01*
X28577000Y53152198D01*
G36*
X8456796Y54485000D02*
X8148691Y54485000D01*
X7915302Y54388327D01*
X7736673Y54209699D01*
X7640000Y53976310D01*
X7640000Y53660750D01*
X7798750Y53502000D01*
X8773000Y53502000D01*
X8773000Y53522000D01*
X9027000Y53522000D01*
X9027000Y53502000D01*
X9047000Y53502000D01*
X9047000Y53248000D01*
X9027000Y53248000D01*
X9027000Y53228000D01*
X8773000Y53228000D01*
X8773000Y53248000D01*
X7798750Y53248000D01*
X7640000Y53089250D01*
X7640000Y52773690D01*
X7736673Y52540301D01*
X7778634Y52498340D01*
X7678569Y52351890D01*
X7627560Y52100000D01*
X7627560Y51150000D01*
X7671838Y50914683D01*
X7810910Y50698559D01*
X8023110Y50553569D01*
X8275000Y50502560D01*
X8410370Y50502560D01*
X7500000Y50258628D01*
X6589630Y50502560D01*
X6725000Y50502560D01*
X6960317Y50546838D01*
X7176441Y50685910D01*
X7321431Y50898110D01*
X7372440Y51150000D01*
X7372440Y52100000D01*
X7328162Y52335317D01*
X7221241Y52501477D01*
X7321431Y52648110D01*
X7372440Y52900000D01*
X7372440Y53850000D01*
X7328162Y54085317D01*
X7189090Y54301441D01*
X6976890Y54446431D01*
X6725000Y54497440D01*
X6589630Y54497440D01*
X7500000Y54741372D01*
X8456796Y54485000D01*
X8456796Y54485000D01*
G37*
X8456796Y54485000D02*
X8148691Y54485000D01*
X7915302Y54388327D01*
X7736673Y54209699D01*
X7640000Y53976310D01*
X7640000Y53660750D01*
X7798750Y53502000D01*
X8773000Y53502000D01*
X8773000Y53522000D01*
X9027000Y53522000D01*
X9027000Y53502000D01*
X9047000Y53502000D01*
X9047000Y53248000D01*
X9027000Y53248000D01*
X9027000Y53228000D01*
X8773000Y53228000D01*
X8773000Y53248000D01*
X7798750Y53248000D01*
X7640000Y53089250D01*
X7640000Y52773690D01*
X7736673Y52540301D01*
X7778634Y52498340D01*
X7678569Y52351890D01*
X7627560Y52100000D01*
X7627560Y51150000D01*
X7671838Y50914683D01*
X7810910Y50698559D01*
X8023110Y50553569D01*
X8275000Y50502560D01*
X8410370Y50502560D01*
X7500000Y50258628D01*
X6589630Y50502560D01*
X6725000Y50502560D01*
X6960317Y50546838D01*
X7176441Y50685910D01*
X7321431Y50898110D01*
X7372440Y51150000D01*
X7372440Y52100000D01*
X7328162Y52335317D01*
X7221241Y52501477D01*
X7321431Y52648110D01*
X7372440Y52900000D01*
X7372440Y53850000D01*
X7328162Y54085317D01*
X7189090Y54301441D01*
X6976890Y54446431D01*
X6725000Y54497440D01*
X6589630Y54497440D01*
X7500000Y54741372D01*
X8456796Y54485000D01*
G36*
X38456796Y54485000D02*
X38148691Y54485000D01*
X37915302Y54388327D01*
X37736673Y54209699D01*
X37640000Y53976310D01*
X37640000Y53660750D01*
X37798750Y53502000D01*
X38773000Y53502000D01*
X38773000Y53522000D01*
X39027000Y53522000D01*
X39027000Y53502000D01*
X39047000Y53502000D01*
X39047000Y53248000D01*
X39027000Y53248000D01*
X39027000Y53228000D01*
X38773000Y53228000D01*
X38773000Y53248000D01*
X37798750Y53248000D01*
X37640000Y53089250D01*
X37640000Y52773690D01*
X37736673Y52540301D01*
X37778634Y52498340D01*
X37678569Y52351890D01*
X37627560Y52100000D01*
X37627560Y51150000D01*
X37671838Y50914683D01*
X37810910Y50698559D01*
X38023110Y50553569D01*
X38275000Y50502560D01*
X38410370Y50502560D01*
X37500000Y50258628D01*
X36589630Y50502560D01*
X36725000Y50502560D01*
X36960317Y50546838D01*
X37176441Y50685910D01*
X37321431Y50898110D01*
X37372440Y51150000D01*
X37372440Y52100000D01*
X37328162Y52335317D01*
X37221241Y52501477D01*
X37321431Y52648110D01*
X37372440Y52900000D01*
X37372440Y53850000D01*
X37328162Y54085317D01*
X37189090Y54301441D01*
X36976890Y54446431D01*
X36725000Y54497440D01*
X36589630Y54497440D01*
X37500000Y54741372D01*
X38456796Y54485000D01*
X38456796Y54485000D01*
G37*
X38456796Y54485000D02*
X38148691Y54485000D01*
X37915302Y54388327D01*
X37736673Y54209699D01*
X37640000Y53976310D01*
X37640000Y53660750D01*
X37798750Y53502000D01*
X38773000Y53502000D01*
X38773000Y53522000D01*
X39027000Y53522000D01*
X39027000Y53502000D01*
X39047000Y53502000D01*
X39047000Y53248000D01*
X39027000Y53248000D01*
X39027000Y53228000D01*
X38773000Y53228000D01*
X38773000Y53248000D01*
X37798750Y53248000D01*
X37640000Y53089250D01*
X37640000Y52773690D01*
X37736673Y52540301D01*
X37778634Y52498340D01*
X37678569Y52351890D01*
X37627560Y52100000D01*
X37627560Y51150000D01*
X37671838Y50914683D01*
X37810910Y50698559D01*
X38023110Y50553569D01*
X38275000Y50502560D01*
X38410370Y50502560D01*
X37500000Y50258628D01*
X36589630Y50502560D01*
X36725000Y50502560D01*
X36960317Y50546838D01*
X37176441Y50685910D01*
X37321431Y50898110D01*
X37372440Y51150000D01*
X37372440Y52100000D01*
X37328162Y52335317D01*
X37221241Y52501477D01*
X37321431Y52648110D01*
X37372440Y52900000D01*
X37372440Y53850000D01*
X37328162Y54085317D01*
X37189090Y54301441D01*
X36976890Y54446431D01*
X36725000Y54497440D01*
X36589630Y54497440D01*
X37500000Y54741372D01*
X38456796Y54485000D01*
G36*
X23456796Y54485000D02*
X23148691Y54485000D01*
X22915302Y54388327D01*
X22736673Y54209699D01*
X22640000Y53976310D01*
X22640000Y53660750D01*
X22798750Y53502000D01*
X23773000Y53502000D01*
X23773000Y53522000D01*
X24027000Y53522000D01*
X24027000Y53502000D01*
X24047000Y53502000D01*
X24047000Y53248000D01*
X24027000Y53248000D01*
X24027000Y53228000D01*
X23773000Y53228000D01*
X23773000Y53248000D01*
X22798750Y53248000D01*
X22640000Y53089250D01*
X22640000Y52773690D01*
X22736673Y52540301D01*
X22778634Y52498340D01*
X22678569Y52351890D01*
X22627560Y52100000D01*
X22627560Y51150000D01*
X22671838Y50914683D01*
X22810910Y50698559D01*
X23023110Y50553569D01*
X23275000Y50502560D01*
X23410370Y50502560D01*
X22500000Y50258628D01*
X21589630Y50502560D01*
X21725000Y50502560D01*
X21960317Y50546838D01*
X22176441Y50685910D01*
X22321431Y50898110D01*
X22372440Y51150000D01*
X22372440Y52100000D01*
X22328162Y52335317D01*
X22221241Y52501477D01*
X22321431Y52648110D01*
X22372440Y52900000D01*
X22372440Y53850000D01*
X22328162Y54085317D01*
X22189090Y54301441D01*
X21976890Y54446431D01*
X21725000Y54497440D01*
X21589630Y54497440D01*
X22500000Y54741372D01*
X23456796Y54485000D01*
X23456796Y54485000D01*
G37*
X23456796Y54485000D02*
X23148691Y54485000D01*
X22915302Y54388327D01*
X22736673Y54209699D01*
X22640000Y53976310D01*
X22640000Y53660750D01*
X22798750Y53502000D01*
X23773000Y53502000D01*
X23773000Y53522000D01*
X24027000Y53522000D01*
X24027000Y53502000D01*
X24047000Y53502000D01*
X24047000Y53248000D01*
X24027000Y53248000D01*
X24027000Y53228000D01*
X23773000Y53228000D01*
X23773000Y53248000D01*
X22798750Y53248000D01*
X22640000Y53089250D01*
X22640000Y52773690D01*
X22736673Y52540301D01*
X22778634Y52498340D01*
X22678569Y52351890D01*
X22627560Y52100000D01*
X22627560Y51150000D01*
X22671838Y50914683D01*
X22810910Y50698559D01*
X23023110Y50553569D01*
X23275000Y50502560D01*
X23410370Y50502560D01*
X22500000Y50258628D01*
X21589630Y50502560D01*
X21725000Y50502560D01*
X21960317Y50546838D01*
X22176441Y50685910D01*
X22321431Y50898110D01*
X22372440Y51150000D01*
X22372440Y52100000D01*
X22328162Y52335317D01*
X22221241Y52501477D01*
X22321431Y52648110D01*
X22372440Y52900000D01*
X22372440Y53850000D01*
X22328162Y54085317D01*
X22189090Y54301441D01*
X21976890Y54446431D01*
X21725000Y54497440D01*
X21589630Y54497440D01*
X22500000Y54741372D01*
X23456796Y54485000D01*
G36*
X53456796Y54485000D02*
X53148691Y54485000D01*
X52915302Y54388327D01*
X52736673Y54209699D01*
X52640000Y53976310D01*
X52640000Y53660750D01*
X52798750Y53502000D01*
X53773000Y53502000D01*
X53773000Y53522000D01*
X54027000Y53522000D01*
X54027000Y53502000D01*
X54047000Y53502000D01*
X54047000Y53248000D01*
X54027000Y53248000D01*
X54027000Y53228000D01*
X53773000Y53228000D01*
X53773000Y53248000D01*
X52798750Y53248000D01*
X52640000Y53089250D01*
X52640000Y52773690D01*
X52736673Y52540301D01*
X52778634Y52498340D01*
X52678569Y52351890D01*
X52627560Y52100000D01*
X52627560Y51150000D01*
X52671838Y50914683D01*
X52810910Y50698559D01*
X53023110Y50553569D01*
X53275000Y50502560D01*
X53410370Y50502560D01*
X52500000Y50258628D01*
X51589630Y50502560D01*
X51725000Y50502560D01*
X51960317Y50546838D01*
X52176441Y50685910D01*
X52321431Y50898110D01*
X52372440Y51150000D01*
X52372440Y52100000D01*
X52328162Y52335317D01*
X52221241Y52501477D01*
X52321431Y52648110D01*
X52372440Y52900000D01*
X52372440Y53850000D01*
X52328162Y54085317D01*
X52189090Y54301441D01*
X51976890Y54446431D01*
X51725000Y54497440D01*
X51589630Y54497440D01*
X52500000Y54741372D01*
X53456796Y54485000D01*
X53456796Y54485000D01*
G37*
X53456796Y54485000D02*
X53148691Y54485000D01*
X52915302Y54388327D01*
X52736673Y54209699D01*
X52640000Y53976310D01*
X52640000Y53660750D01*
X52798750Y53502000D01*
X53773000Y53502000D01*
X53773000Y53522000D01*
X54027000Y53522000D01*
X54027000Y53502000D01*
X54047000Y53502000D01*
X54047000Y53248000D01*
X54027000Y53248000D01*
X54027000Y53228000D01*
X53773000Y53228000D01*
X53773000Y53248000D01*
X52798750Y53248000D01*
X52640000Y53089250D01*
X52640000Y52773690D01*
X52736673Y52540301D01*
X52778634Y52498340D01*
X52678569Y52351890D01*
X52627560Y52100000D01*
X52627560Y51150000D01*
X52671838Y50914683D01*
X52810910Y50698559D01*
X53023110Y50553569D01*
X53275000Y50502560D01*
X53410370Y50502560D01*
X52500000Y50258628D01*
X51589630Y50502560D01*
X51725000Y50502560D01*
X51960317Y50546838D01*
X52176441Y50685910D01*
X52321431Y50898110D01*
X52372440Y51150000D01*
X52372440Y52100000D01*
X52328162Y52335317D01*
X52221241Y52501477D01*
X52321431Y52648110D01*
X52372440Y52900000D01*
X52372440Y53850000D01*
X52328162Y54085317D01*
X52189090Y54301441D01*
X51976890Y54446431D01*
X51725000Y54497440D01*
X51589630Y54497440D01*
X52500000Y54741372D01*
X53456796Y54485000D01*
M02*
