%FSLAX45Y45*%
G04 Gerber Fmt 4.5, Leading zero omitted, Abs format (unit mm)*
G04 Created by KiCad (PCBNEW 4.0.6) date Saturday 24 June 2017 19:10:56*
%MOMM*%
%LPD*%
G01*
G04 APERTURE LIST*
%ADD10C,0.127000*%
%ADD11C,0.150000*%
%ADD12C,0.200000*%
%ADD13C,0.300000*%
G04 APERTURE END LIST*
D10*
D11*
X6000000Y0D02*
X0Y0D01*
X6000000Y6000000D02*
X0Y6000000D01*
X6000000Y0D02*
X6000000Y6000000D01*
X0Y6000000D02*
X0Y0D01*
D12*
X1390000Y4610000D02*
X1610000Y4390000D01*
X1610000Y4610000D02*
X1390000Y4390000D01*
X1390000Y1610000D02*
X1610000Y1390000D01*
X1610000Y1610000D02*
X1390000Y1390000D01*
X4390000Y4610000D02*
X4610000Y4390000D01*
X4610000Y4610000D02*
X4390000Y4390000D01*
X4390000Y1610000D02*
X4610000Y1390000D01*
X4610000Y1610000D02*
X4390000Y1390000D01*
X335000Y4500000D02*
G75*
G03X335000Y4500000I-135000J0D01*
G01*
X335000Y1500000D02*
G75*
G03X335000Y1500000I-135000J0D01*
G01*
X2935000Y4500000D02*
G75*
G03X2935000Y4500000I-135000J0D01*
G01*
X2935000Y1500000D02*
G75*
G03X2935000Y1500000I-135000J0D01*
G01*
X3335000Y4500000D02*
G75*
G03X3335000Y4500000I-135000J0D01*
G01*
X3335000Y1500000D02*
G75*
G03X3335000Y1500000I-135000J0D01*
G01*
X5935000Y4500000D02*
G75*
G03X5935000Y4500000I-135000J0D01*
G01*
X5935000Y1500000D02*
G75*
G03X5935000Y1500000I-135000J0D01*
G01*
D13*
X263929Y-473214D02*
X263929Y-173214D01*
X335357Y-173214D01*
X378214Y-187500D01*
X406786Y-216071D01*
X421071Y-244643D01*
X435357Y-301786D01*
X435357Y-344643D01*
X421071Y-401786D01*
X406786Y-430357D01*
X378214Y-458929D01*
X335357Y-473214D01*
X263929Y-473214D01*
X563929Y-473214D02*
X563929Y-273214D01*
X563929Y-330357D02*
X578214Y-301786D01*
X592500Y-287500D01*
X621071Y-273214D01*
X649643Y-273214D01*
X749643Y-473214D02*
X749643Y-273214D01*
X749643Y-173214D02*
X735357Y-187500D01*
X749643Y-201786D01*
X763928Y-187500D01*
X749643Y-173214D01*
X749643Y-201786D01*
X935357Y-473214D02*
X906786Y-458929D01*
X892500Y-430357D01*
X892500Y-173214D01*
X1092500Y-473214D02*
X1063929Y-458929D01*
X1049643Y-430357D01*
X1049643Y-173214D01*
X1435357Y-473214D02*
X1435357Y-173214D01*
X1535357Y-387500D01*
X1635357Y-173214D01*
X1635357Y-473214D01*
X1906786Y-473214D02*
X1906786Y-316072D01*
X1892500Y-287500D01*
X1863928Y-273214D01*
X1806786Y-273214D01*
X1778214Y-287500D01*
X1906786Y-458929D02*
X1878214Y-473214D01*
X1806786Y-473214D01*
X1778214Y-458929D01*
X1763928Y-430357D01*
X1763928Y-401786D01*
X1778214Y-373214D01*
X1806786Y-358929D01*
X1878214Y-358929D01*
X1906786Y-344643D01*
X2049643Y-273214D02*
X2049643Y-573214D01*
X2049643Y-287500D02*
X2078214Y-273214D01*
X2135357Y-273214D01*
X2163929Y-287500D01*
X2178214Y-301786D01*
X2192500Y-330357D01*
X2192500Y-416071D01*
X2178214Y-444643D01*
X2163929Y-458929D01*
X2135357Y-473214D01*
X2078214Y-473214D01*
X2049643Y-458929D01*
X2321071Y-444643D02*
X2335357Y-458929D01*
X2321071Y-473214D01*
X2306786Y-458929D01*
X2321071Y-444643D01*
X2321071Y-473214D01*
X2321071Y-287500D02*
X2335357Y-301786D01*
X2321071Y-316072D01*
X2306786Y-301786D01*
X2321071Y-287500D01*
X2321071Y-316072D01*
X-227500Y-857500D02*
X-7500Y-1077500D01*
X-7500Y-857500D02*
X-227500Y-1077500D01*
X249643Y-831786D02*
X263929Y-817500D01*
X292500Y-803214D01*
X363928Y-803214D01*
X392500Y-817500D01*
X406786Y-831786D01*
X421071Y-860357D01*
X421071Y-888929D01*
X406786Y-931786D01*
X235357Y-1103214D01*
X421071Y-1103214D01*
X549643Y-1074643D02*
X563929Y-1088929D01*
X549643Y-1103214D01*
X535357Y-1088929D01*
X549643Y-1074643D01*
X549643Y-1103214D01*
X678214Y-831786D02*
X692500Y-817500D01*
X721071Y-803214D01*
X792500Y-803214D01*
X821071Y-817500D01*
X835357Y-831786D01*
X849643Y-860357D01*
X849643Y-888929D01*
X835357Y-931786D01*
X663928Y-1103214D01*
X849643Y-1103214D01*
X1035357Y-803214D02*
X1063929Y-803214D01*
X1092500Y-817500D01*
X1106786Y-831786D01*
X1121071Y-860357D01*
X1135357Y-917500D01*
X1135357Y-988929D01*
X1121071Y-1046071D01*
X1106786Y-1074643D01*
X1092500Y-1088929D01*
X1063929Y-1103214D01*
X1035357Y-1103214D01*
X1006786Y-1088929D01*
X992500Y-1074643D01*
X978214Y-1046071D01*
X963928Y-988929D01*
X963928Y-917500D01*
X978214Y-860357D01*
X992500Y-831786D01*
X1006786Y-817500D01*
X1035357Y-803214D01*
X1263929Y-1103214D02*
X1263929Y-903214D01*
X1263929Y-931786D02*
X1278214Y-917500D01*
X1306786Y-903214D01*
X1349643Y-903214D01*
X1378214Y-917500D01*
X1392500Y-946071D01*
X1392500Y-1103214D01*
X1392500Y-946071D02*
X1406786Y-917500D01*
X1435357Y-903214D01*
X1478214Y-903214D01*
X1506786Y-917500D01*
X1521071Y-946071D01*
X1521071Y-1103214D01*
X1663928Y-1103214D02*
X1663928Y-903214D01*
X1663928Y-931786D02*
X1678214Y-917500D01*
X1706786Y-903214D01*
X1749643Y-903214D01*
X1778214Y-917500D01*
X1792500Y-946071D01*
X1792500Y-1103214D01*
X1792500Y-946071D02*
X1806786Y-917500D01*
X1835357Y-903214D01*
X1878214Y-903214D01*
X1906786Y-917500D01*
X1921071Y-946071D01*
X1921071Y-1103214D01*
X2506786Y-788929D02*
X2249643Y-1174643D01*
X2892500Y-803214D02*
X2921071Y-803214D01*
X2949643Y-817500D01*
X2963928Y-831786D01*
X2978214Y-860357D01*
X2992500Y-917500D01*
X2992500Y-988929D01*
X2978214Y-1046071D01*
X2963928Y-1074643D01*
X2949643Y-1088929D01*
X2921071Y-1103214D01*
X2892500Y-1103214D01*
X2863928Y-1088929D01*
X2849643Y-1074643D01*
X2835357Y-1046071D01*
X2821071Y-988929D01*
X2821071Y-917500D01*
X2835357Y-860357D01*
X2849643Y-831786D01*
X2863928Y-817500D01*
X2892500Y-803214D01*
X3121071Y-1074643D02*
X3135357Y-1088929D01*
X3121071Y-1103214D01*
X3106786Y-1088929D01*
X3121071Y-1074643D01*
X3121071Y-1103214D01*
X3321071Y-803214D02*
X3349643Y-803214D01*
X3378214Y-817500D01*
X3392500Y-831786D01*
X3406785Y-860357D01*
X3421071Y-917500D01*
X3421071Y-988929D01*
X3406785Y-1046071D01*
X3392500Y-1074643D01*
X3378214Y-1088929D01*
X3349643Y-1103214D01*
X3321071Y-1103214D01*
X3292500Y-1088929D01*
X3278214Y-1074643D01*
X3263928Y-1046071D01*
X3249643Y-988929D01*
X3249643Y-917500D01*
X3263928Y-860357D01*
X3278214Y-831786D01*
X3292500Y-817500D01*
X3321071Y-803214D01*
X3592500Y-931786D02*
X3563928Y-917500D01*
X3549643Y-903214D01*
X3535357Y-874643D01*
X3535357Y-860357D01*
X3549643Y-831786D01*
X3563928Y-817500D01*
X3592500Y-803214D01*
X3649643Y-803214D01*
X3678214Y-817500D01*
X3692500Y-831786D01*
X3706785Y-860357D01*
X3706785Y-874643D01*
X3692500Y-903214D01*
X3678214Y-917500D01*
X3649643Y-931786D01*
X3592500Y-931786D01*
X3563928Y-946071D01*
X3549643Y-960357D01*
X3535357Y-988929D01*
X3535357Y-1046071D01*
X3549643Y-1074643D01*
X3563928Y-1088929D01*
X3592500Y-1103214D01*
X3649643Y-1103214D01*
X3678214Y-1088929D01*
X3692500Y-1074643D01*
X3706785Y-1046071D01*
X3706785Y-988929D01*
X3692500Y-960357D01*
X3678214Y-946071D01*
X3649643Y-931786D01*
X3806785Y-803214D02*
X4006785Y-803214D01*
X3878214Y-1103214D01*
X4106786Y-803214D02*
X4106786Y-860357D01*
X4221071Y-803214D02*
X4221071Y-860357D01*
X4663928Y-1217500D02*
X4649643Y-1203214D01*
X4621071Y-1160357D01*
X4606786Y-1131786D01*
X4592500Y-1088929D01*
X4578214Y-1017500D01*
X4578214Y-960357D01*
X4592500Y-888929D01*
X4606786Y-846071D01*
X4621071Y-817500D01*
X4649643Y-774643D01*
X4663928Y-760357D01*
X4906786Y-903214D02*
X4906786Y-1103214D01*
X4835357Y-788929D02*
X4763928Y-1003214D01*
X4949643Y-1003214D01*
X5292500Y-1103214D02*
X5292500Y-803214D01*
X5421071Y-1103214D02*
X5421071Y-946071D01*
X5406786Y-917500D01*
X5378214Y-903214D01*
X5335357Y-903214D01*
X5306786Y-917500D01*
X5292500Y-931786D01*
X5606785Y-1103214D02*
X5578214Y-1088929D01*
X5563928Y-1074643D01*
X5549643Y-1046071D01*
X5549643Y-960357D01*
X5563928Y-931786D01*
X5578214Y-917500D01*
X5606785Y-903214D01*
X5649643Y-903214D01*
X5678214Y-917500D01*
X5692500Y-931786D01*
X5706785Y-960357D01*
X5706785Y-1046071D01*
X5692500Y-1074643D01*
X5678214Y-1088929D01*
X5649643Y-1103214D01*
X5606785Y-1103214D01*
X5878214Y-1103214D02*
X5849643Y-1088929D01*
X5835357Y-1060357D01*
X5835357Y-803214D01*
X6106786Y-1088929D02*
X6078214Y-1103214D01*
X6021071Y-1103214D01*
X5992500Y-1088929D01*
X5978214Y-1060357D01*
X5978214Y-946071D01*
X5992500Y-917500D01*
X6021071Y-903214D01*
X6078214Y-903214D01*
X6106786Y-917500D01*
X6121071Y-946071D01*
X6121071Y-974643D01*
X5978214Y-1003214D01*
X6235357Y-1088929D02*
X6263928Y-1103214D01*
X6321071Y-1103214D01*
X6349643Y-1088929D01*
X6363928Y-1060357D01*
X6363928Y-1046071D01*
X6349643Y-1017500D01*
X6321071Y-1003214D01*
X6278214Y-1003214D01*
X6249643Y-988929D01*
X6235357Y-960357D01*
X6235357Y-946071D01*
X6249643Y-917500D01*
X6278214Y-903214D01*
X6321071Y-903214D01*
X6349643Y-917500D01*
X6463928Y-1217500D02*
X6478214Y-1203214D01*
X6506786Y-1160357D01*
X6521071Y-1131786D01*
X6535357Y-1088929D01*
X6549643Y-1017500D01*
X6549643Y-960357D01*
X6535357Y-888929D01*
X6521071Y-846071D01*
X6506786Y-817500D01*
X6478214Y-774643D01*
X6463928Y-760357D01*
X7006786Y-1217500D02*
X6992500Y-1203214D01*
X6963928Y-1160357D01*
X6949643Y-1131786D01*
X6935357Y-1088929D01*
X6921071Y-1017500D01*
X6921071Y-960357D01*
X6935357Y-888929D01*
X6949643Y-846071D01*
X6963928Y-817500D01*
X6992500Y-774643D01*
X7006786Y-760357D01*
X7121071Y-903214D02*
X7121071Y-1103214D01*
X7121071Y-931786D02*
X7135357Y-917500D01*
X7163928Y-903214D01*
X7206786Y-903214D01*
X7235357Y-917500D01*
X7249643Y-946071D01*
X7249643Y-1103214D01*
X7435357Y-1103214D02*
X7406786Y-1088929D01*
X7392500Y-1074643D01*
X7378214Y-1046071D01*
X7378214Y-960357D01*
X7392500Y-931786D01*
X7406786Y-917500D01*
X7435357Y-903214D01*
X7478214Y-903214D01*
X7506786Y-917500D01*
X7521071Y-931786D01*
X7535357Y-960357D01*
X7535357Y-1046071D01*
X7521071Y-1074643D01*
X7506786Y-1088929D01*
X7478214Y-1103214D01*
X7435357Y-1103214D01*
X7621071Y-903214D02*
X7735357Y-903214D01*
X7663928Y-803214D02*
X7663928Y-1060357D01*
X7678214Y-1088929D01*
X7706786Y-1103214D01*
X7735357Y-1103214D01*
X8063928Y-903214D02*
X8063928Y-1203214D01*
X8063928Y-917500D02*
X8092500Y-903214D01*
X8149643Y-903214D01*
X8178214Y-917500D01*
X8192500Y-931786D01*
X8206786Y-960357D01*
X8206786Y-1046071D01*
X8192500Y-1074643D01*
X8178214Y-1088929D01*
X8149643Y-1103214D01*
X8092500Y-1103214D01*
X8063928Y-1088929D01*
X8378214Y-1103214D02*
X8349643Y-1088929D01*
X8335357Y-1060357D01*
X8335357Y-803214D01*
X8621071Y-1103214D02*
X8621071Y-946071D01*
X8606786Y-917500D01*
X8578214Y-903214D01*
X8521071Y-903214D01*
X8492500Y-917500D01*
X8621071Y-1088929D02*
X8592500Y-1103214D01*
X8521071Y-1103214D01*
X8492500Y-1088929D01*
X8478214Y-1060357D01*
X8478214Y-1031786D01*
X8492500Y-1003214D01*
X8521071Y-988929D01*
X8592500Y-988929D01*
X8621071Y-974643D01*
X8721071Y-903214D02*
X8835357Y-903214D01*
X8763929Y-803214D02*
X8763929Y-1060357D01*
X8778214Y-1088929D01*
X8806786Y-1103214D01*
X8835357Y-1103214D01*
X9049643Y-1088929D02*
X9021072Y-1103214D01*
X8963929Y-1103214D01*
X8935357Y-1088929D01*
X8921072Y-1060357D01*
X8921072Y-946071D01*
X8935357Y-917500D01*
X8963929Y-903214D01*
X9021072Y-903214D01*
X9049643Y-917500D01*
X9063929Y-946071D01*
X9063929Y-974643D01*
X8921072Y-1003214D01*
X9321072Y-1103214D02*
X9321072Y-803214D01*
X9321072Y-1088929D02*
X9292500Y-1103214D01*
X9235357Y-1103214D01*
X9206786Y-1088929D01*
X9192500Y-1074643D01*
X9178214Y-1046071D01*
X9178214Y-960357D01*
X9192500Y-931786D01*
X9206786Y-917500D01*
X9235357Y-903214D01*
X9292500Y-903214D01*
X9321072Y-917500D01*
X9435357Y-1217500D02*
X9449643Y-1203214D01*
X9478214Y-1160357D01*
X9492500Y-1131786D01*
X9506786Y-1088929D01*
X9521072Y-1017500D01*
X9521072Y-960357D01*
X9506786Y-888929D01*
X9492500Y-846071D01*
X9478214Y-817500D01*
X9449643Y-774643D01*
X9435357Y-760357D01*
X-7500Y-1363500D02*
G75*
G03X-7500Y-1363500I-135000J0D01*
G01*
X249643Y-1227786D02*
X263929Y-1213500D01*
X292500Y-1199214D01*
X363928Y-1199214D01*
X392500Y-1213500D01*
X406786Y-1227786D01*
X421071Y-1256357D01*
X421071Y-1284929D01*
X406786Y-1327786D01*
X235357Y-1499214D01*
X421071Y-1499214D01*
X549643Y-1470643D02*
X563929Y-1484929D01*
X549643Y-1499214D01*
X535357Y-1484929D01*
X549643Y-1470643D01*
X549643Y-1499214D01*
X663928Y-1199214D02*
X863928Y-1199214D01*
X735357Y-1499214D01*
X1035357Y-1199214D02*
X1063929Y-1199214D01*
X1092500Y-1213500D01*
X1106786Y-1227786D01*
X1121071Y-1256357D01*
X1135357Y-1313500D01*
X1135357Y-1384929D01*
X1121071Y-1442071D01*
X1106786Y-1470643D01*
X1092500Y-1484929D01*
X1063929Y-1499214D01*
X1035357Y-1499214D01*
X1006786Y-1484929D01*
X992500Y-1470643D01*
X978214Y-1442071D01*
X963928Y-1384929D01*
X963928Y-1313500D01*
X978214Y-1256357D01*
X992500Y-1227786D01*
X1006786Y-1213500D01*
X1035357Y-1199214D01*
X1263929Y-1499214D02*
X1263929Y-1299214D01*
X1263929Y-1327786D02*
X1278214Y-1313500D01*
X1306786Y-1299214D01*
X1349643Y-1299214D01*
X1378214Y-1313500D01*
X1392500Y-1342072D01*
X1392500Y-1499214D01*
X1392500Y-1342072D02*
X1406786Y-1313500D01*
X1435357Y-1299214D01*
X1478214Y-1299214D01*
X1506786Y-1313500D01*
X1521071Y-1342072D01*
X1521071Y-1499214D01*
X1663928Y-1499214D02*
X1663928Y-1299214D01*
X1663928Y-1327786D02*
X1678214Y-1313500D01*
X1706786Y-1299214D01*
X1749643Y-1299214D01*
X1778214Y-1313500D01*
X1792500Y-1342072D01*
X1792500Y-1499214D01*
X1792500Y-1342072D02*
X1806786Y-1313500D01*
X1835357Y-1299214D01*
X1878214Y-1299214D01*
X1906786Y-1313500D01*
X1921071Y-1342072D01*
X1921071Y-1499214D01*
X2506786Y-1184929D02*
X2249643Y-1570643D01*
X2892500Y-1199214D02*
X2921071Y-1199214D01*
X2949643Y-1213500D01*
X2963928Y-1227786D01*
X2978214Y-1256357D01*
X2992500Y-1313500D01*
X2992500Y-1384929D01*
X2978214Y-1442071D01*
X2963928Y-1470643D01*
X2949643Y-1484929D01*
X2921071Y-1499214D01*
X2892500Y-1499214D01*
X2863928Y-1484929D01*
X2849643Y-1470643D01*
X2835357Y-1442071D01*
X2821071Y-1384929D01*
X2821071Y-1313500D01*
X2835357Y-1256357D01*
X2849643Y-1227786D01*
X2863928Y-1213500D01*
X2892500Y-1199214D01*
X3121071Y-1470643D02*
X3135357Y-1484929D01*
X3121071Y-1499214D01*
X3106786Y-1484929D01*
X3121071Y-1470643D01*
X3121071Y-1499214D01*
X3421071Y-1499214D02*
X3249643Y-1499214D01*
X3335357Y-1499214D02*
X3335357Y-1199214D01*
X3306785Y-1242072D01*
X3278214Y-1270643D01*
X3249643Y-1284929D01*
X3606785Y-1199214D02*
X3635357Y-1199214D01*
X3663928Y-1213500D01*
X3678214Y-1227786D01*
X3692500Y-1256357D01*
X3706785Y-1313500D01*
X3706785Y-1384929D01*
X3692500Y-1442071D01*
X3678214Y-1470643D01*
X3663928Y-1484929D01*
X3635357Y-1499214D01*
X3606785Y-1499214D01*
X3578214Y-1484929D01*
X3563928Y-1470643D01*
X3549643Y-1442071D01*
X3535357Y-1384929D01*
X3535357Y-1313500D01*
X3549643Y-1256357D01*
X3563928Y-1227786D01*
X3578214Y-1213500D01*
X3606785Y-1199214D01*
X3963928Y-1199214D02*
X3906785Y-1199214D01*
X3878214Y-1213500D01*
X3863928Y-1227786D01*
X3835357Y-1270643D01*
X3821071Y-1327786D01*
X3821071Y-1442071D01*
X3835357Y-1470643D01*
X3849643Y-1484929D01*
X3878214Y-1499214D01*
X3935357Y-1499214D01*
X3963928Y-1484929D01*
X3978214Y-1470643D01*
X3992500Y-1442071D01*
X3992500Y-1370643D01*
X3978214Y-1342072D01*
X3963928Y-1327786D01*
X3935357Y-1313500D01*
X3878214Y-1313500D01*
X3849643Y-1327786D01*
X3835357Y-1342072D01*
X3821071Y-1370643D01*
X4106786Y-1199214D02*
X4106786Y-1256357D01*
X4221071Y-1199214D02*
X4221071Y-1256357D01*
X4663928Y-1613500D02*
X4649643Y-1599214D01*
X4621071Y-1556357D01*
X4606786Y-1527786D01*
X4592500Y-1484929D01*
X4578214Y-1413500D01*
X4578214Y-1356357D01*
X4592500Y-1284929D01*
X4606786Y-1242072D01*
X4621071Y-1213500D01*
X4649643Y-1170643D01*
X4663928Y-1156357D01*
X4821071Y-1327786D02*
X4792500Y-1313500D01*
X4778214Y-1299214D01*
X4763928Y-1270643D01*
X4763928Y-1256357D01*
X4778214Y-1227786D01*
X4792500Y-1213500D01*
X4821071Y-1199214D01*
X4878214Y-1199214D01*
X4906786Y-1213500D01*
X4921071Y-1227786D01*
X4935357Y-1256357D01*
X4935357Y-1270643D01*
X4921071Y-1299214D01*
X4906786Y-1313500D01*
X4878214Y-1327786D01*
X4821071Y-1327786D01*
X4792500Y-1342072D01*
X4778214Y-1356357D01*
X4763928Y-1384929D01*
X4763928Y-1442071D01*
X4778214Y-1470643D01*
X4792500Y-1484929D01*
X4821071Y-1499214D01*
X4878214Y-1499214D01*
X4906786Y-1484929D01*
X4921071Y-1470643D01*
X4935357Y-1442071D01*
X4935357Y-1384929D01*
X4921071Y-1356357D01*
X4906786Y-1342072D01*
X4878214Y-1327786D01*
X5292500Y-1499214D02*
X5292500Y-1199214D01*
X5421071Y-1499214D02*
X5421071Y-1342072D01*
X5406786Y-1313500D01*
X5378214Y-1299214D01*
X5335357Y-1299214D01*
X5306786Y-1313500D01*
X5292500Y-1327786D01*
X5606785Y-1499214D02*
X5578214Y-1484929D01*
X5563928Y-1470643D01*
X5549643Y-1442071D01*
X5549643Y-1356357D01*
X5563928Y-1327786D01*
X5578214Y-1313500D01*
X5606785Y-1299214D01*
X5649643Y-1299214D01*
X5678214Y-1313500D01*
X5692500Y-1327786D01*
X5706785Y-1356357D01*
X5706785Y-1442071D01*
X5692500Y-1470643D01*
X5678214Y-1484929D01*
X5649643Y-1499214D01*
X5606785Y-1499214D01*
X5878214Y-1499214D02*
X5849643Y-1484929D01*
X5835357Y-1456357D01*
X5835357Y-1199214D01*
X6106786Y-1484929D02*
X6078214Y-1499214D01*
X6021071Y-1499214D01*
X5992500Y-1484929D01*
X5978214Y-1456357D01*
X5978214Y-1342072D01*
X5992500Y-1313500D01*
X6021071Y-1299214D01*
X6078214Y-1299214D01*
X6106786Y-1313500D01*
X6121071Y-1342072D01*
X6121071Y-1370643D01*
X5978214Y-1399214D01*
X6235357Y-1484929D02*
X6263928Y-1499214D01*
X6321071Y-1499214D01*
X6349643Y-1484929D01*
X6363928Y-1456357D01*
X6363928Y-1442071D01*
X6349643Y-1413500D01*
X6321071Y-1399214D01*
X6278214Y-1399214D01*
X6249643Y-1384929D01*
X6235357Y-1356357D01*
X6235357Y-1342072D01*
X6249643Y-1313500D01*
X6278214Y-1299214D01*
X6321071Y-1299214D01*
X6349643Y-1313500D01*
X6463928Y-1613500D02*
X6478214Y-1599214D01*
X6506786Y-1556357D01*
X6521071Y-1527786D01*
X6535357Y-1484929D01*
X6549643Y-1413500D01*
X6549643Y-1356357D01*
X6535357Y-1284929D01*
X6521071Y-1242072D01*
X6506786Y-1213500D01*
X6478214Y-1170643D01*
X6463928Y-1156357D01*
X7006786Y-1613500D02*
X6992500Y-1599214D01*
X6963928Y-1556357D01*
X6949643Y-1527786D01*
X6935357Y-1484929D01*
X6921071Y-1413500D01*
X6921071Y-1356357D01*
X6935357Y-1284929D01*
X6949643Y-1242072D01*
X6963928Y-1213500D01*
X6992500Y-1170643D01*
X7006786Y-1156357D01*
X7121071Y-1299214D02*
X7121071Y-1499214D01*
X7121071Y-1327786D02*
X7135357Y-1313500D01*
X7163928Y-1299214D01*
X7206786Y-1299214D01*
X7235357Y-1313500D01*
X7249643Y-1342072D01*
X7249643Y-1499214D01*
X7435357Y-1499214D02*
X7406786Y-1484929D01*
X7392500Y-1470643D01*
X7378214Y-1442071D01*
X7378214Y-1356357D01*
X7392500Y-1327786D01*
X7406786Y-1313500D01*
X7435357Y-1299214D01*
X7478214Y-1299214D01*
X7506786Y-1313500D01*
X7521071Y-1327786D01*
X7535357Y-1356357D01*
X7535357Y-1442071D01*
X7521071Y-1470643D01*
X7506786Y-1484929D01*
X7478214Y-1499214D01*
X7435357Y-1499214D01*
X7621071Y-1299214D02*
X7735357Y-1299214D01*
X7663928Y-1199214D02*
X7663928Y-1456357D01*
X7678214Y-1484929D01*
X7706786Y-1499214D01*
X7735357Y-1499214D01*
X8063928Y-1299214D02*
X8063928Y-1599214D01*
X8063928Y-1313500D02*
X8092500Y-1299214D01*
X8149643Y-1299214D01*
X8178214Y-1313500D01*
X8192500Y-1327786D01*
X8206786Y-1356357D01*
X8206786Y-1442071D01*
X8192500Y-1470643D01*
X8178214Y-1484929D01*
X8149643Y-1499214D01*
X8092500Y-1499214D01*
X8063928Y-1484929D01*
X8378214Y-1499214D02*
X8349643Y-1484929D01*
X8335357Y-1456357D01*
X8335357Y-1199214D01*
X8621071Y-1499214D02*
X8621071Y-1342072D01*
X8606786Y-1313500D01*
X8578214Y-1299214D01*
X8521071Y-1299214D01*
X8492500Y-1313500D01*
X8621071Y-1484929D02*
X8592500Y-1499214D01*
X8521071Y-1499214D01*
X8492500Y-1484929D01*
X8478214Y-1456357D01*
X8478214Y-1427786D01*
X8492500Y-1399214D01*
X8521071Y-1384929D01*
X8592500Y-1384929D01*
X8621071Y-1370643D01*
X8721071Y-1299214D02*
X8835357Y-1299214D01*
X8763929Y-1199214D02*
X8763929Y-1456357D01*
X8778214Y-1484929D01*
X8806786Y-1499214D01*
X8835357Y-1499214D01*
X9049643Y-1484929D02*
X9021072Y-1499214D01*
X8963929Y-1499214D01*
X8935357Y-1484929D01*
X8921072Y-1456357D01*
X8921072Y-1342072D01*
X8935357Y-1313500D01*
X8963929Y-1299214D01*
X9021072Y-1299214D01*
X9049643Y-1313500D01*
X9063929Y-1342072D01*
X9063929Y-1370643D01*
X8921072Y-1399214D01*
X9321072Y-1499214D02*
X9321072Y-1199214D01*
X9321072Y-1484929D02*
X9292500Y-1499214D01*
X9235357Y-1499214D01*
X9206786Y-1484929D01*
X9192500Y-1470643D01*
X9178214Y-1442071D01*
X9178214Y-1356357D01*
X9192500Y-1327786D01*
X9206786Y-1313500D01*
X9235357Y-1299214D01*
X9292500Y-1299214D01*
X9321072Y-1313500D01*
X9435357Y-1613500D02*
X9449643Y-1599214D01*
X9478214Y-1556357D01*
X9492500Y-1527786D01*
X9506786Y-1484929D01*
X9521072Y-1413500D01*
X9521072Y-1356357D01*
X9506786Y-1284929D01*
X9492500Y-1242072D01*
X9478214Y-1213500D01*
X9449643Y-1170643D01*
X9435357Y-1156357D01*
M02*
