M48
;DRILL file {KiCad 4.0.7-e2-6376~58~ubuntu16.04.1} date Fri Jan 12 15:30:25 2018
;FORMAT={-:-/ absolute / metric / decimal}
FMAT,2
METRIC,TZ
T1C0.400
%
G90
G05
M71
T1
X2.286Y33.909
X2.413Y10.287
X2.794Y47.752
X4.582Y49.603
X5.597Y30.734
X6.1Y53.375
X6.1Y51.625
X6.1Y38.375
X6.1Y36.625
X6.1Y23.375
X6.1Y21.625
X6.1Y8.375
X6.1Y6.625
X6.223Y45.72
X6.35Y14.224
X6.857Y27.442
X7.5Y43.
X7.5Y41.15
X7.5Y18.85
X7.5Y17.
X7.5Y26.5
X8.9Y53.375
X8.9Y51.625
X8.9Y38.375
X8.9Y36.625
X8.9Y23.375
X8.9Y21.625
X8.9Y8.375
X8.9Y6.625
X12.319Y41.148
X12.7Y30.734
X13.081Y23.368
X13.081Y18.669
X13.081Y10.414
X13.082Y8.375
X13.265Y56.583
X13.336Y38.375
X13.716Y28.956
X14.097Y56.769
X14.605Y49.53
X15.24Y28.956
X15.241Y35.9
X15.413Y56.754
X15.621Y25.781
X15.621Y49.53
X15.875Y3.81
X16.256Y57.277
X16.548Y49.53
X16.637Y29.972
X16.637Y18.669
X17.018Y43.053
X17.019Y31.923
X17.272Y27.94
X17.272Y40.64
X17.399Y35.179
X17.526Y49.53
X17.526Y18.669
X17.78Y2.286
X18.415Y41.402
X19.05Y27.051
X19.601Y34.601
X19.685Y1.27
X19.812Y43.561
X20.32Y30.48
X20.574Y42.926
X21.082Y16.51
X21.083Y23.414
X21.1Y53.375
X21.1Y51.625
X21.1Y38.375
X21.1Y36.625
X21.1Y21.625
X21.1Y8.375
X21.1Y6.625
X22.479Y43.561
X22.5Y28.621
X22.5Y41.265
X22.5Y18.85
X22.5Y17.
X23.622Y43.561
X23.9Y53.375
X23.9Y51.625
X23.9Y38.375
X23.9Y36.625
X23.9Y23.375
X23.9Y21.625
X23.9Y8.375
X23.9Y6.625
X24.003Y30.226
X24.003Y14.986
X25.399Y10.399
X25.527Y13.081
X25.527Y12.192
X25.7Y47.625
X26.162Y56.642
X26.67Y18.669
X26.797Y41.275
X27.061Y30.353
X27.724Y41.28
X27.813Y10.668
X28.575Y13.081
X28.575Y12.192
X28.702Y41.275
X28.956Y26.797
X29.211Y8.375
X29.591Y27.432
X29.718Y41.275
X29.845Y16.764
X30.099Y33.02
X30.099Y32.131
X30.099Y30.353
X30.226Y28.067
X30.607Y42.799
X30.607Y41.275
X30.738Y30.981
X30.861Y28.702
X31.242Y4.572
X31.372Y30.356
X31.496Y55.118
X31.496Y42.799
X31.496Y41.275
X31.878Y38.375
X32.385Y55.118
X32.639Y4.572
X34.798Y46.482
X36.1Y53.375
X36.1Y51.625
X36.1Y36.625
X36.1Y21.625
X36.1Y8.375
X36.1Y6.625
X36.101Y38.364
X36.146Y23.308
X36.576Y30.607
X36.577Y31.415
X37.211Y5.461
X37.5Y43.
X37.5Y41.15
X37.5Y18.85
X37.5Y17.
X38.227Y29.21
X38.227Y13.716
X38.9Y53.375
X38.9Y51.625
X38.9Y38.375
X38.9Y36.625
X38.9Y23.375
X38.9Y21.625
X38.9Y8.375
X38.9Y6.625
X39.37Y31.115
X43.053Y26.289
X44.45Y48.895
X44.451Y53.375
X44.451Y8.375
X44.79Y31.079
X45.974Y20.32
X46.863Y20.32
X46.99Y29.845
X48.387Y29.845
X49.657Y28.829
X51.054Y30.226
X51.1Y53.375
X51.1Y51.625
X51.1Y38.375
X51.1Y36.625
X51.1Y23.375
X51.1Y21.625
X51.1Y8.375
X51.1Y6.625
X52.07Y30.226
X52.451Y33.528
X52.5Y43.
X52.5Y41.15
X52.5Y18.85
X52.5Y17.
X53.9Y53.375
X53.9Y51.625
X53.9Y38.375
X53.9Y36.625
X53.9Y23.375
X53.9Y21.625
X53.9Y8.375
X58.039Y22.479
X58.42Y26.162
T0
M30
