G04 #@! TF.FileFunction,Soldermask,Bot*
%FSLAX46Y46*%
G04 Gerber Fmt 4.6, Leading zero omitted, Abs format (unit mm)*
G04 Created by KiCad (PCBNEW 4.0.7-e2-6376~58~ubuntu16.04.1) date Tue Sep 19 18:30:12 2017*
%MOMM*%
%LPD*%
G01*
G04 APERTURE LIST*
%ADD10C,0.100000*%
%ADD11R,1.200000X1.150000*%
%ADD12R,1.150000X1.200000*%
%ADD13C,2.540000*%
%ADD14R,2.100000X2.100000*%
%ADD15C,2.100000*%
%ADD16R,1.370000X1.670000*%
%ADD17R,4.400000X1.670000*%
%ADD18R,1.670000X4.400000*%
%ADD19C,2.600000*%
%ADD20C,3.100000*%
%ADD21R,0.900000X1.300000*%
%ADD22R,1.300000X1.600000*%
G04 APERTURE END LIST*
D10*
G36*
X34830850Y34582322D02*
X34017678Y33769150D01*
X33169150Y34617678D01*
X33982322Y35430850D01*
X34830850Y34582322D01*
X34830850Y34582322D01*
G37*
G36*
X35891510Y33521662D02*
X35078338Y32708490D01*
X34229810Y33557018D01*
X35042982Y34370190D01*
X35891510Y33521662D01*
X35891510Y33521662D01*
G37*
D11*
X29464000Y55118000D03*
X27964000Y55118000D03*
D12*
X55118000Y29464000D03*
X55118000Y27964000D03*
D11*
X29591000Y4953000D03*
X28091000Y4953000D03*
D12*
X4953000Y29440000D03*
X4953000Y27940000D03*
D13*
X58000000Y2000000D03*
X2000000Y2000000D03*
X40000000Y45000000D03*
D14*
X12460000Y58039000D03*
D15*
X12460000Y55499000D03*
X15000000Y58039000D03*
X15000000Y55499000D03*
X17540000Y58039000D03*
X17540000Y55499000D03*
D16*
X44459377Y24864309D03*
X45739377Y24864309D03*
X44459377Y27404309D03*
X45739377Y27404309D03*
X44449377Y29944309D03*
X45729377Y29944309D03*
X44459377Y32484309D03*
X45739377Y32484309D03*
X44459377Y35024309D03*
X45739377Y35024309D03*
D17*
X2000000Y35080000D03*
X2000000Y32540000D03*
X2000000Y30000000D03*
X2000000Y27460000D03*
X2000000Y24920000D03*
D18*
X35080000Y2000000D03*
X32540000Y2000000D03*
X30000000Y2000000D03*
X27460000Y2000000D03*
X24920000Y2000000D03*
X35080000Y58000000D03*
X32540000Y58000000D03*
X30000000Y58000000D03*
X27460000Y58000000D03*
X24920000Y58000000D03*
D17*
X58000000Y35080000D03*
X58000000Y32540000D03*
X58000000Y30000000D03*
X58000000Y27460000D03*
X58000000Y24920000D03*
D19*
X15000000Y45000000D03*
X45000000Y45000000D03*
X15000000Y15000000D03*
X45000000Y15000000D03*
D20*
X2000000Y45000000D03*
X28000000Y45000000D03*
X32000000Y45000000D03*
X58000000Y45000000D03*
X2000000Y15000000D03*
X28000000Y15000000D03*
X32000000Y15000000D03*
X58000000Y15000000D03*
D21*
X14503000Y27986000D03*
X16003000Y27986000D03*
X14502000Y29972000D03*
X16002000Y29972000D03*
X14503000Y31923000D03*
X16003000Y31923000D03*
D10*
G36*
X30996536Y36278086D02*
X31668288Y35606334D01*
X30254074Y34192120D01*
X29582322Y34863872D01*
X30996536Y36278086D01*
X30996536Y36278086D01*
G37*
G36*
X31562221Y35712400D02*
X32233973Y35040648D01*
X30819759Y33626434D01*
X30148007Y34298186D01*
X31562221Y35712400D01*
X31562221Y35712400D01*
G37*
G36*
X32127907Y35146715D02*
X32799659Y34474963D01*
X31385445Y33060749D01*
X30713693Y33732501D01*
X32127907Y35146715D01*
X32127907Y35146715D01*
G37*
G36*
X32693592Y34581030D02*
X33365344Y33909278D01*
X31951130Y32495064D01*
X31279378Y33166816D01*
X32693592Y34581030D01*
X32693592Y34581030D01*
G37*
G36*
X33259278Y34015344D02*
X33931030Y33343592D01*
X32516816Y31929378D01*
X31845064Y32601130D01*
X33259278Y34015344D01*
X33259278Y34015344D01*
G37*
G36*
X33824963Y33449659D02*
X34496715Y32777907D01*
X33082501Y31363693D01*
X32410749Y32035445D01*
X33824963Y33449659D01*
X33824963Y33449659D01*
G37*
G36*
X34390648Y32883973D02*
X35062400Y32212221D01*
X33648186Y30798007D01*
X32976434Y31469759D01*
X34390648Y32883973D01*
X34390648Y32883973D01*
G37*
G36*
X34956334Y32318288D02*
X35628086Y31646536D01*
X34213872Y30232322D01*
X33542120Y30904074D01*
X34956334Y32318288D01*
X34956334Y32318288D01*
G37*
G36*
X35628086Y28853464D02*
X34956334Y28181712D01*
X33542120Y29595926D01*
X34213872Y30267678D01*
X35628086Y28853464D01*
X35628086Y28853464D01*
G37*
G36*
X35062400Y28287779D02*
X34390648Y27616027D01*
X32976434Y29030241D01*
X33648186Y29701993D01*
X35062400Y28287779D01*
X35062400Y28287779D01*
G37*
G36*
X34496715Y27722093D02*
X33824963Y27050341D01*
X32410749Y28464555D01*
X33082501Y29136307D01*
X34496715Y27722093D01*
X34496715Y27722093D01*
G37*
G36*
X33931030Y27156408D02*
X33259278Y26484656D01*
X31845064Y27898870D01*
X32516816Y28570622D01*
X33931030Y27156408D01*
X33931030Y27156408D01*
G37*
G36*
X33365344Y26590722D02*
X32693592Y25918970D01*
X31279378Y27333184D01*
X31951130Y28004936D01*
X33365344Y26590722D01*
X33365344Y26590722D01*
G37*
G36*
X32799659Y26025037D02*
X32127907Y25353285D01*
X30713693Y26767499D01*
X31385445Y27439251D01*
X32799659Y26025037D01*
X32799659Y26025037D01*
G37*
G36*
X32233973Y25459352D02*
X31562221Y24787600D01*
X30148007Y26201814D01*
X30819759Y26873566D01*
X32233973Y25459352D01*
X32233973Y25459352D01*
G37*
G36*
X31668288Y24893666D02*
X30996536Y24221914D01*
X29582322Y25636128D01*
X30254074Y26307880D01*
X31668288Y24893666D01*
X31668288Y24893666D01*
G37*
G36*
X28945926Y26307880D02*
X29617678Y25636128D01*
X28203464Y24221914D01*
X27531712Y24893666D01*
X28945926Y26307880D01*
X28945926Y26307880D01*
G37*
G36*
X28380241Y26873566D02*
X29051993Y26201814D01*
X27637779Y24787600D01*
X26966027Y25459352D01*
X28380241Y26873566D01*
X28380241Y26873566D01*
G37*
G36*
X27814555Y27439251D02*
X28486307Y26767499D01*
X27072093Y25353285D01*
X26400341Y26025037D01*
X27814555Y27439251D01*
X27814555Y27439251D01*
G37*
G36*
X27248870Y28004936D02*
X27920622Y27333184D01*
X26506408Y25918970D01*
X25834656Y26590722D01*
X27248870Y28004936D01*
X27248870Y28004936D01*
G37*
G36*
X26683184Y28570622D02*
X27354936Y27898870D01*
X25940722Y26484656D01*
X25268970Y27156408D01*
X26683184Y28570622D01*
X26683184Y28570622D01*
G37*
G36*
X26117499Y29136307D02*
X26789251Y28464555D01*
X25375037Y27050341D01*
X24703285Y27722093D01*
X26117499Y29136307D01*
X26117499Y29136307D01*
G37*
G36*
X25551814Y29701993D02*
X26223566Y29030241D01*
X24809352Y27616027D01*
X24137600Y28287779D01*
X25551814Y29701993D01*
X25551814Y29701993D01*
G37*
G36*
X24986128Y30267678D02*
X25657880Y29595926D01*
X24243666Y28181712D01*
X23571914Y28853464D01*
X24986128Y30267678D01*
X24986128Y30267678D01*
G37*
G36*
X25657880Y30904074D02*
X24986128Y30232322D01*
X23571914Y31646536D01*
X24243666Y32318288D01*
X25657880Y30904074D01*
X25657880Y30904074D01*
G37*
G36*
X26223566Y31469759D02*
X25551814Y30798007D01*
X24137600Y32212221D01*
X24809352Y32883973D01*
X26223566Y31469759D01*
X26223566Y31469759D01*
G37*
G36*
X26789251Y32035445D02*
X26117499Y31363693D01*
X24703285Y32777907D01*
X25375037Y33449659D01*
X26789251Y32035445D01*
X26789251Y32035445D01*
G37*
G36*
X27354936Y32601130D02*
X26683184Y31929378D01*
X25268970Y33343592D01*
X25940722Y34015344D01*
X27354936Y32601130D01*
X27354936Y32601130D01*
G37*
G36*
X27920622Y33166816D02*
X27248870Y32495064D01*
X25834656Y33909278D01*
X26506408Y34581030D01*
X27920622Y33166816D01*
X27920622Y33166816D01*
G37*
G36*
X28486307Y33732501D02*
X27814555Y33060749D01*
X26400341Y34474963D01*
X27072093Y35146715D01*
X28486307Y33732501D01*
X28486307Y33732501D01*
G37*
G36*
X29051993Y34298186D02*
X28380241Y33626434D01*
X26966027Y35040648D01*
X27637779Y35712400D01*
X29051993Y34298186D01*
X29051993Y34298186D01*
G37*
G36*
X29617678Y34863872D02*
X28945926Y34192120D01*
X27531712Y35606334D01*
X28203464Y36278086D01*
X29617678Y34863872D01*
X29617678Y34863872D01*
G37*
D22*
X33656000Y24938000D03*
X36956000Y24938000D03*
M02*
